<svg width="40" height="245" viewBox="0 0 40 245" fill="none" xmlns="http://www.w3.org/2000/svg">
<g opacity="0.683686">
<path opacity="0.683686" fill-rule="evenodd" clip-rule="evenodd" d="M39.0019 210.722C39.0019 215.209 35.3639 218.849 30.8729 218.849C26.3839 218.849 22.7429 215.209 22.7429 210.722C22.7429 206.23 26.3839 202.588 30.8729 202.588C35.3639 202.588 39.0019 206.23 39.0019 210.722Z" fill="#40D3FD"/>
<path opacity="0.683686" fill-rule="evenodd" clip-rule="evenodd" d="M22.872 240.559C22.872 242.632 21.19 244.311 19.119 244.311C17.046 244.311 15.367 242.632 15.367 240.559C15.367 238.487 17.046 236.806 19.119 236.806C21.19 236.806 22.872 238.487 22.872 240.559Z" fill="#40D3FD"/>
<g opacity="0.683686">
<mask id="mask0" mask-type="alpha" maskUnits="userSpaceOnUse" x="0" y="169" width="14" height="15">
<path fill-rule="evenodd" clip-rule="evenodd" d="M0 169.733H13.7587V183.493H0V169.733Z" fill="white"/>
</mask>
<g mask="url(#mask0)">
<path opacity="0.683686" fill-rule="evenodd" clip-rule="evenodd" d="M13.7587 176.614C13.7587 180.411 10.6787 183.493 6.8787 183.493C3.07769 183.493 -0.000305176 180.411 -0.000305176 176.614C-0.000305176 172.814 3.07769 169.733 6.8787 169.733C10.6787 169.733 13.7587 172.814 13.7587 176.614Z" fill="#40D3FD"/>
</g>
</g>
<path opacity="0.683686" fill-rule="evenodd" clip-rule="evenodd" d="M34.3955 182.867C34.3955 184.595 32.9965 185.993 31.2685 185.993C29.5405 185.993 28.1405 184.595 28.1405 182.867C28.1405 181.14 29.5405 179.739 31.2685 179.739C32.9965 179.739 34.3955 181.14 34.3955 182.867Z" fill="#40D3FD"/>
<path opacity="0.683686" fill-rule="evenodd" clip-rule="evenodd" d="M33.7695 111.887C33.7695 114.823 31.3905 117.201 28.4535 117.201C25.5175 117.201 23.1385 114.823 23.1385 111.887C23.1385 108.95 25.5175 106.568 28.4535 106.568C31.3905 106.568 33.7695 108.95 33.7695 111.887Z" fill="#40D3FD"/>
<path opacity="0.683686" fill-rule="evenodd" clip-rule="evenodd" d="M19.789 47.8315C19.789 52.1505 16.289 55.6525 11.972 55.6525C7.65399 55.6525 4.15399 52.1505 4.15399 47.8315C4.15399 43.5195 7.65399 40.0175 11.972 40.0175C16.289 40.0175 19.789 43.5195 19.789 47.8315Z" fill="#40D3FD"/>
<path opacity="0.683686" fill-rule="evenodd" clip-rule="evenodd" d="M36.4375 5.00524C36.4375 7.76824 34.1965 10.0072 31.4325 10.0072C28.6695 10.0072 26.4305 7.76824 26.4305 5.00524C26.4305 2.24024 28.6695 0.000244141 31.4325 0.000244141C34.1965 0.000244141 36.4375 2.24024 36.4375 5.00524Z" fill="#40D3FD"/>
</g>
</svg>
