<svg width="791" height="480" viewBox="0 0 791 480" fill="none" xmlns="http://www.w3.org/2000/svg">
<g opacity="0.587937">
<path fill-rule="evenodd" clip-rule="evenodd" d="M199.112 85.6528C199.92 83.7701 198.692 81.4104 196.739 80.6907C194.014 79.6827 190.007 78.589 185.136 77.8693C182.743 77.6341 180.037 77.232 177.227 77.349C175.806 77.3588 174.308 77.3458 172.778 77.4954C172.009 77.5539 171.236 77.6796 170.432 77.7598C169.627 77.8303 168.807 77.9279 167.971 78.0568C162.118 78.9944 154.338 81.3584 145.489 82.9777C136.691 84.6524 126.852 85.5087 118.354 84.8627C116.371 84.6946 114.022 84.3706 111.73 83.6812C110.573 83.3669 109.406 83.0233 108.264 82.6721C107.123 82.3187 106.059 81.8429 105.028 81.4429C102.976 80.617 101.157 79.8518 99.93 79.157C98.683 78.4947 97.925 78.0915 97.925 78.0915C96.6836 77.4119 95.5735 77.0033 95.458 77.1832C95.3436 77.3642 95.2505 77.5116 95.2505 77.5116C95.2505 77.5116 95.1574 77.6601 95.0431 77.8401C94.9276 78.0211 95.8673 78.7343 97.1311 79.4247C97.1311 79.4247 97.8902 79.8518 99.1395 80.5541C100.36 81.3096 102.15 82.1876 104.141 83.239C105.141 83.7517 106.165 84.3673 107.258 84.8952C108.352 85.4219 109.463 85.9747 110.554 86.5438C112.717 87.7382 114.9 88.7408 116.682 89.815C124.258 94.3013 133.998 99.0357 144.193 101.879C154.337 104.792 164.81 105.731 172.378 104.507C173.452 104.34 174.496 104.152 175.509 103.941C176.519 103.721 177.483 103.407 178.424 103.117C180.298 102.503 182.053 101.883 183.649 101.112C186.82 99.4704 189.506 97.85 191.593 95.8859C195.858 92.1963 197.993 88.2379 199.112 85.6528Z" fill="#40D3FD"/>
<path fill-rule="evenodd" clip-rule="evenodd" d="M295.488 102.893C297.513 103.302 299.852 101.927 300.202 99.839C300.673 96.9781 301.052 92.2853 299.278 86.7085C299.07 86.0034 298.836 85.2791 298.573 84.5381C298.295 83.8104 297.949 83.1076 297.592 82.3699C296.87 80.9045 296.02 79.3841 295.032 77.8288C294.015 76.305 292.762 74.8611 291.407 73.3508C290.715 72.6142 290.02 71.8292 289.224 71.1309C288.422 70.4426 287.581 69.7555 286.7 69.0774C280.533 64.2282 270.596 60.1786 260.068 58.5514C249.522 56.815 238.592 57.4616 229.895 59.0034C227.84 59.3903 225.446 59.5376 223.006 59.9593C221.785 60.1291 220.555 60.2765 219.352 60.4058C218.147 60.5362 216.979 60.814 215.868 60.9771C213.649 61.3403 211.677 61.5978 210.287 61.9734C208.887 62.2726 208.034 62.4548 208.034 62.4548C206.623 62.737 205.511 63.143 205.563 63.3567C205.614 63.5703 205.656 63.7446 205.656 63.7446C205.656 63.7446 205.699 63.9201 205.75 64.1338C205.803 64.3463 206.974 64.2946 208.355 64.0168C208.355 64.0168 209.194 63.8594 210.573 63.6007C211.942 63.2881 213.895 63.152 216.083 63.0305C217.178 62.9878 218.326 62.8619 219.506 62.9192C220.686 62.9777 221.885 63.0542 223.065 63.1531C225.423 63.2701 227.697 63.838 229.571 64.398C237.576 66.898 246.064 71.6189 253.029 76.8639C260.081 82.0764 265.606 87.6835 270.067 91.1764C270.71 91.6701 271.353 92.1278 272 92.554C272.639 92.9892 273.213 93.4672 273.828 93.8731C275.029 94.7177 276.3 95.3913 277.479 96.0706C278.627 96.7779 279.79 97.3874 280.957 97.9216C281.551 98.1791 282.131 98.4322 282.697 98.6773C283.239 98.9427 283.783 99.189 284.324 99.4196C288.763 101.175 292.653 102.327 295.488 102.893Z" fill="#40D3FD"/>
<path fill-rule="evenodd" clip-rule="evenodd" d="M349.565 120.108C351.45 121.07 354.063 120.32 354.918 118.372C356.086 115.691 357.592 111.261 357.39 105.432C357.378 104.699 357.345 103.942 357.291 103.163C357.222 102.391 357.088 101.618 356.951 100.812C356.666 99.2052 356.278 97.5145 355.768 95.7516C355.23 94.0065 354.461 92.2536 353.607 90.4141C353.165 89.506 352.725 88.558 352.179 87.6465C351.624 86.7429 351.031 85.8293 350.398 84.909C345.99 78.3869 337.877 71.2643 328.454 65.8491C319.051 60.3429 308.498 56.5795 299.658 54.2782C297.564 53.752 295.236 52.8772 292.77 52.1745C291.551 51.7926 290.331 51.3863 289.143 50.9734C287.955 50.5615 286.746 50.2695 285.634 49.9176C283.399 49.2405 281.439 48.5821 279.983 48.2569C278.546 47.8694 277.671 47.6341 277.671 47.6341C276.233 47.2267 275.013 47.0668 274.962 47.2777C274.91 47.4887 274.867 47.6607 274.867 47.6607C274.867 47.6607 274.825 47.8339 274.772 48.0437C274.721 48.2547 275.835 48.7542 277.251 49.1516C277.251 49.1516 278.106 49.4048 279.51 49.8188C280.928 50.1929 282.822 50.9523 284.935 51.8337C285.985 52.2889 287.116 52.7074 288.208 53.278C289.3 53.8497 290.405 54.4481 291.48 55.0564C293.661 56.2132 295.603 57.6874 297.167 59.0029C303.8 64.6968 310.252 72.4988 315.294 80.1754C320.417 87.8486 324.168 95.3187 327.587 100.359C328.079 101.074 328.583 101.756 329.098 102.408C329.603 103.065 330.048 103.735 330.545 104.352C331.503 105.605 332.565 106.716 333.549 107.791C334.504 108.88 335.493 109.876 336.503 110.791C337.53 111.692 338.509 112.55 339.44 113.367C343.359 116.521 346.93 118.769 349.565 120.108Z" fill="#40D3FD"/>
<path fill-rule="evenodd" clip-rule="evenodd" d="M333.899 155.627C335.278 153.931 334.771 151.315 332.896 150.198C330.298 148.656 326.177 146.654 320.831 145.21C315.476 143.747 308.966 142.853 301.387 143.059C294.718 143.201 286.006 144.601 276.626 144.399C272.005 144.317 267.113 143.755 262.377 142.611C257.64 141.476 253.066 139.75 249.102 137.563C245.346 135.552 241.055 131.459 238.412 127.476C237.096 125.488 236.059 123.624 235.468 122.22C235.155 121.525 234.885 120.972 234.735 120.577C234.597 120.177 234.523 119.958 234.523 119.958C234.034 118.511 233.462 117.373 233.253 117.429C233.044 117.488 232.873 117.535 232.873 117.535L232.493 117.642C232.284 117.699 232.53 118.978 233.041 120.484C233.041 120.484 233.117 120.712 233.256 121.128C233.405 121.54 233.669 122.119 233.968 122.852C234.531 124.333 235.496 126.315 236.666 128.512C239.017 132.913 242.733 137.806 245.537 141.475C248.474 145.416 252.192 149.477 256.601 153.181C261.001 156.888 266.081 160.238 271.534 162.852C282.35 168.083 293.819 170.294 302.056 170.096C311.465 169.835 318.543 167.19 323.645 164.258C328.758 161.293 331.989 157.979 333.899 155.627Z" fill="#40D3FD"/>
<path fill-rule="evenodd" clip-rule="evenodd" d="M431.771 158.197C431.963 155.563 429.717 154.032 427.274 154.822C423.913 155.951 418.86 157.856 412.849 160.737C406.791 163.619 399.776 167.412 391.474 172.47C384.154 176.871 374.506 183.348 362.781 188.12C356.949 190.524 350.634 192.526 344.232 193.887C337.836 195.257 331.366 195.981 325.339 196.065C319.669 196.189 311.928 194.859 305.823 192.953C302.776 191.997 300.097 191.027 298.222 190.214C296.321 189.457 295.207 188.9 295.207 188.9C293.361 188.006 291.767 187.434 291.665 187.626C291.566 187.819 291.484 187.977 291.484 187.977C291.484 187.977 291.403 188.135 291.303 188.328C291.201 188.521 292.656 189.421 294.533 190.327C294.533 190.327 295.663 190.89 297.569 191.712C299.451 192.59 302.124 193.684 305.151 194.881C311.215 197.268 318.863 199.555 324.52 201.344C330.521 203.291 337.289 205.011 344.494 206.078C351.691 207.153 359.324 207.567 366.867 207.114C374.41 206.673 381.821 205.358 388.485 203.376C395.156 201.405 401.075 198.774 405.791 195.958C411.139 192.73 415.454 189.033 418.916 185.378C420.617 183.509 422.157 181.708 423.431 179.859C424.752 178.06 425.842 176.26 426.771 174.532C430.491 167.601 431.543 161.852 431.771 158.197Z" fill="#40D3FD"/>
<path fill-rule="evenodd" clip-rule="evenodd" d="M369.895 313.006C371.79 314.302 374.45 313.719 375.355 311.604C376.584 308.697 378.232 303.846 378.055 297.312C378.048 296.489 378.022 295.64 377.974 294.764C377.908 293.895 377.765 293.022 377.624 292.11C377.329 290.293 376.927 288.372 376.401 286.359C375.839 284.365 375.014 282.351 374.115 280.226C373.645 279.176 373.186 278.078 372.602 277.018C372.006 275.966 371.371 274.899 370.693 273.822C365.984 266.183 357.23 257.556 346.843 250.776C336.487 243.895 324.678 238.915 314.661 235.788C312.286 235.07 309.64 233.959 306.815 233.069C305.421 232.586 304.024 232.079 302.662 231.568C301.299 231.059 299.909 230.698 298.63 230.265C296.059 229.435 293.803 228.638 292.119 228.246C290.46 227.782 289.449 227.499 289.449 227.499C287.788 227.016 286.384 226.791 286.332 227C286.277 227.207 286.232 227.379 286.232 227.379C286.232 227.379 286.189 227.55 286.135 227.759C286.081 227.968 287.377 228.528 289.013 229.003C289.013 229.003 290.003 229.301 291.629 229.792C293.27 230.231 295.459 231.127 297.902 232.158C299.116 232.691 300.427 233.177 301.688 233.843C302.95 234.51 304.226 235.204 305.472 235.907C307.999 237.241 310.242 238.939 312.062 240.427C319.781 246.867 327.319 255.722 333.175 264.555C339.125 273.38 343.422 282.084 347.161 288.129C347.7 288.988 348.252 289.811 348.813 290.6C349.344 291.406 349.86 292.193 350.366 292.961C351.387 294.488 352.527 295.862 353.561 297.194C354.556 298.543 355.588 299.787 356.638 300.943C357.175 301.514 357.699 302.072 358.209 302.615C358.69 303.167 359.175 303.698 359.663 304.208C363.688 308.242 367.244 311.203 369.895 313.006Z" fill="#40D3FD"/>
<path fill-rule="evenodd" clip-rule="evenodd" d="M427.128 339.771C428.98 341.17 431.643 340.64 432.607 338.521C433.925 335.601 435.684 330.779 435.859 324.223C436.079 320.906 435.62 317.271 434.884 313.175C434.465 311.149 433.815 309.072 433.09 306.89C432.709 305.804 432.336 304.681 431.851 303.575C431.357 302.473 430.824 301.354 430.254 300.22C426.28 292.201 418.589 282.713 409.249 274.517C399.945 266.241 389.112 259.316 379.785 254.256C377.573 253.078 375.151 251.467 372.548 249.982C371.268 249.212 369.989 248.418 368.744 247.625C367.5 246.833 366.215 246.154 365.044 245.445C362.686 244.051 360.629 242.762 359.07 241.965C357.544 241.111 356.616 240.595 356.616 240.595C355.093 239.722 353.762 239.165 353.66 239.355C353.556 239.543 353.471 239.699 353.471 239.699C353.471 239.699 353.387 239.856 353.283 240.046C353.18 240.235 354.329 241.095 355.835 241.955C355.835 241.955 356.742 242.486 358.233 243.359C359.745 244.196 361.72 245.569 363.917 247.137C365.007 247.934 366.192 248.721 367.312 249.649C368.43 250.577 369.558 251.534 370.654 252.496C372.888 254.367 374.815 256.485 376.353 258.331C382.859 266.269 389.035 276.457 393.838 286.325C398.72 296.194 402.26 305.692 405.579 312.372C406.058 313.321 406.549 314.234 407.053 315.115C407.535 316.005 408.004 316.873 408.464 317.72C409.399 319.406 410.444 320.944 411.408 322.419C413.234 325.404 415.398 327.902 417.19 330.175C421.039 334.631 424.541 337.827 427.128 339.771Z" fill="#40D3FD"/>
<path fill-rule="evenodd" clip-rule="evenodd" d="M448.826 339.561C450.521 341.145 453.171 340.787 454.302 338.749C455.862 335.93 457.947 331.339 458.979 324.995C460.044 318.659 460.098 310.529 457.59 301.03C455.413 292.666 450.426 282.07 444.187 271.692C437.974 261.279 430.537 251.119 424.149 242.729C422.639 240.759 421.067 238.317 419.416 235.838C417.801 233.338 416.222 230.742 414.75 228.434C411.885 223.778 409.657 220.16 409.657 220.16C408.756 218.656 407.868 217.519 407.687 217.633C407.504 217.747 407.356 217.84 407.356 217.84C407.356 217.84 407.206 217.933 407.024 218.048C406.842 218.162 407.428 219.478 408.326 220.973C408.326 220.973 408.862 221.885 409.739 223.382C410.631 224.873 411.762 227.01 412.996 229.432C414.258 231.839 415.522 234.587 416.66 237.307C417.835 240.008 418.768 242.74 419.426 245.092C422.188 255.131 424.428 267.104 426.198 278.401C428.004 289.708 429.358 300.338 431.355 308.002C433.652 316.701 436.796 323.414 440.001 328.592C443.233 333.755 446.466 337.366 448.826 339.561Z" fill="#40D3FD"/>
<path fill-rule="evenodd" clip-rule="evenodd" d="M545.309 395.323C547.671 394.41 548.107 391.729 546.591 389.859C545.534 388.568 544.174 387.04 542.604 385.207C542.207 384.773 541.794 384.323 541.366 383.854C540.945 383.377 540.509 382.881 540.059 382.367C539.16 381.392 538.202 380.353 537.183 379.248C536.677 378.7 536.152 378.157 535.609 377.617C535.077 377.041 534.536 376.447 533.968 375.87C532.814 374.756 531.659 373.463 530.37 372.263C527.854 369.723 525.022 367.075 521.781 364.148C516.129 358.982 507.9 352.19 500.212 343.162C492.429 334.174 485.134 323.188 479.812 313.227C477.286 308.559 474.79 301.742 473.003 296.084C471.211 290.426 470.045 285.954 470.045 285.954C469.561 284.112 468.992 282.649 468.781 282.704C468.571 282.759 468.398 282.804 468.398 282.804C468.398 282.804 468.227 282.85 468.015 282.905C467.805 282.961 468.03 284.514 468.516 286.358C468.516 286.358 473.155 304.213 474.72 314.88C476.273 326.236 478.533 339.887 483.292 352.784C485.651 359.237 488.675 365.471 492.116 370.888C495.549 376.321 499.421 380.969 503.225 384.474C507.588 388.428 512.186 391.326 516.562 393.377C518.8 394.345 520.9 395.208 523.011 395.762C524.053 396.055 525.057 396.324 526.043 396.545C527.049 396.733 528.022 396.888 528.962 397.02C530.821 397.315 532.613 397.369 534.249 397.361C535.068 397.355 535.844 397.346 536.595 397.292C537.354 397.217 538.077 397.129 538.762 397.029C541.487 396.68 543.676 395.962 545.309 395.323Z" fill="#40D3FD"/>
<path fill-rule="evenodd" clip-rule="evenodd" d="M565.304 443.436C566.828 441.489 565.964 438.889 563.693 437.999C560.53 436.746 555.736 435.381 549.574 434.22C548.808 434.092 548.02 433.978 547.214 433.879C546.401 433.749 545.566 433.615 544.706 433.478C542.993 433.231 541.2 433.049 539.323 432.956C537.44 432.82 535.454 432.614 533.387 432.594C532.352 432.591 531.292 432.587 530.205 432.583C529.116 432.542 528.003 432.529 526.861 432.542C518.85 432.703 508.002 433.809 496.164 433.516C484.364 433.311 471.637 431.639 461.033 428.486C458.558 427.724 455.632 426.716 452.846 425.249C451.433 424.555 450.01 423.827 448.618 423.097C447.228 422.366 445.962 421.489 444.719 420.724C442.253 419.163 440.068 417.749 438.629 416.553C437.158 415.402 436.261 414.701 436.261 414.701C434.795 413.532 433.479 412.71 433.338 412.879C433.198 413.047 433.083 413.184 433.083 413.184C433.083 413.184 432.969 413.321 432.827 413.49C432.687 413.657 433.788 414.763 435.276 415.948C435.276 415.948 436.169 416.674 437.637 417.868C439.06 419.124 441.2 420.651 443.57 422.434C444.766 423.309 445.972 424.324 447.288 425.227C448.605 426.13 449.941 427.065 451.252 428.011C453.834 429.977 456.496 431.657 458.633 433.32C467.748 440.278 479.538 447.686 492.046 452.743C504.488 457.886 517.51 460.569 527.267 460.362C528.651 460.344 530.002 460.297 531.315 460.224C532.63 460.137 533.906 459.92 535.147 459.74C537.626 459.334 539.963 458.925 542.133 458.304C544.3 457.638 546.315 456.92 548.176 456.169C549.105 455.786 550.002 455.425 550.851 455.002C551.699 454.559 552.509 454.111 553.281 453.663C559.503 450.204 563.197 446.105 565.304 443.436Z" fill="#40D3FD"/>
<path fill-rule="evenodd" clip-rule="evenodd" d="M436.164 376.44C438.532 375.13 438.564 372.442 436.378 370.877C433.342 368.687 428.487 365.849 421.881 362.777C420.218 362.066 418.453 361.31 416.583 360.509C414.705 359.727 412.709 358.977 410.585 358.281C408.468 357.546 406.247 356.717 403.873 356.029C402.684 355.691 401.465 355.347 400.215 354.992C398.973 354.605 397.693 354.234 396.374 353.881C387.095 351.456 374.357 349.037 361.005 345.094C347.663 341.236 333.764 335.821 322.515 329.7C319.891 328.245 316.815 326.418 313.936 324.184C312.47 323.098 310.998 321.977 309.563 320.865C308.13 319.75 306.84 318.526 305.566 317.421C303.045 315.183 300.816 313.17 299.362 311.579C297.871 310.023 296.963 309.076 296.963 309.076C295.479 307.501 294.132 306.33 293.97 306.472C293.808 306.616 293.675 306.734 293.675 306.734C293.675 306.734 293.543 306.85 293.38 306.993C293.218 307.137 294.311 308.553 295.809 310.141C295.809 310.141 296.709 311.11 298.186 312.703C299.613 314.346 301.776 316.458 304.162 318.888C305.367 320.09 306.571 321.434 307.9 322.699C309.229 323.963 310.575 325.265 311.89 326.57C314.472 329.242 317.155 331.659 319.268 333.907C328.3 343.373 339.954 353.96 352.599 362.476C365.173 371.054 378.644 377.46 389.296 380.236C390.806 380.64 392.286 381.007 393.734 381.338C395.186 381.658 396.631 381.849 398.028 382.062C400.833 382.444 403.487 382.78 406.027 382.875C408.575 382.932 410.978 382.892 413.231 382.775C414.359 382.71 415.445 382.655 416.501 382.53C417.56 382.385 418.583 382.226 419.567 382.055C427.435 380.81 432.893 378.229 436.164 376.44Z" fill="#40D3FD"/>
<path fill-rule="evenodd" clip-rule="evenodd" d="M315.961 215.682C317.787 214.092 317.366 211.425 315.355 210.126C312.549 208.297 308.286 206.109 302.868 203.603C302.19 203.314 301.493 203.033 300.779 202.764C300.065 202.447 299.332 202.121 298.578 201.787C297.072 201.141 295.488 200.542 293.814 200.013C292.147 199.424 290.41 198.697 288.555 198.159C287.633 197.857 286.667 197.657 285.7 197.331C284.735 196.993 283.74 196.675 282.713 196.378C275.502 194.364 265.423 192.211 254.939 187.945C253.635 187.394 252.322 186.84 251.005 186.284C250.346 185.998 249.658 185.743 249.01 185.43L247.091 184.443C244.536 183.107 241.825 181.87 239.431 180.264C238.188 179.494 236.953 178.73 235.73 177.972C235.098 177.604 234.51 177.196 233.955 176.76C233.382 176.332 232.815 175.907 232.252 175.486C231.113 174.628 229.992 173.781 228.889 172.949C228.32 172.54 227.799 172.097 227.312 171.63C226.811 171.173 226.316 170.718 225.827 170.27C223.999 168.559 221.84 166.457 220.123 163.938C219.216 162.71 218.314 161.449 217.441 160.201C216.57 158.951 215.934 157.601 215.23 156.375C214.56 155.128 213.928 153.951 213.357 152.885C212.745 151.835 212.451 150.786 212.082 149.961C211.422 148.277 211.02 147.252 211.02 147.252C210.375 145.555 209.677 144.221 209.469 144.286C209.263 144.353 209.094 144.408 209.094 144.408C209.094 144.408 208.925 144.463 208.718 144.53C208.511 144.596 208.88 146.064 209.54 147.793C209.54 147.793 209.928 148.845 210.568 150.571C210.915 151.422 211.179 152.507 211.739 153.605C212.247 154.728 212.809 155.969 213.403 157.284C214.017 158.59 214.54 160.04 215.27 161.414C216.003 162.787 216.737 164.198 217.445 165.609C218.768 168.494 220.41 171.093 221.565 173.481C221.877 174.116 222.193 174.757 222.512 175.406C222.819 176.067 223.159 176.713 223.549 177.33C224.3 178.601 225.065 179.895 225.841 181.207C226.233 181.871 226.629 182.539 227.027 183.211C227.414 183.898 227.835 184.563 228.303 185.192C229.217 186.487 230.141 187.797 231.07 189.116C232.879 191.85 235.077 194.285 237.233 196.856L238.872 198.773C239.434 199.396 240.042 199.963 240.628 200.561C241.829 201.742 243.026 202.921 244.216 204.092C244.823 204.672 245.414 205.278 246.04 205.829C246.682 206.358 247.323 206.887 247.96 207.413C249.259 208.459 250.545 209.497 251.815 210.519C253.079 211.58 254.429 212.458 255.768 213.328C257.118 214.194 258.445 215.044 259.746 215.877C260.407 216.281 261.051 216.71 261.718 217.071C262.395 217.414 263.065 217.754 263.727 218.089C265.057 218.75 266.368 219.381 267.652 219.973C270.191 221.24 272.758 222.001 275.122 222.7C276.467 223.088 277.787 223.438 279.079 223.752C280.376 224.052 281.686 224.177 282.943 224.348C285.472 224.628 287.853 224.89 290.135 224.852C292.429 224.756 294.582 224.565 296.584 224.302C297.587 224.16 298.548 224.044 299.479 223.833C300.414 223.595 301.311 223.343 302.17 223.082C309.06 221.178 313.448 217.84 315.961 215.682Z" fill="#40D3FD"/>
<path fill-rule="evenodd" clip-rule="evenodd" d="M601.039 422.207C602.882 420.542 602.506 417.836 600.376 416.59C597.417 414.848 592.768 412.675 586.553 410.731C583.45 409.873 579.942 408.827 576.032 408.24C574.076 407.9 572.015 407.533 569.843 407.31C568.756 407.182 567.642 407.116 566.499 407.005C565.357 406.886 564.186 406.79 562.984 406.72C554.532 406.267 543.098 406.819 530.807 406.537C518.541 406.315 505.43 405.226 494.353 403.049C491.761 402.523 488.711 401.762 485.701 400.656C484.185 400.128 482.657 399.57 481.163 399.008C479.669 398.444 478.255 397.776 476.895 397.185C474.184 395.98 471.786 394.879 470.126 393.957C468.454 393.062 467.436 392.517 467.436 392.517C465.765 391.602 464.309 391.01 464.201 391.2C464.094 391.39 464.007 391.546 464.007 391.546C464.007 391.546 463.919 391.702 463.811 391.893C463.702 392.084 464.993 392.992 466.678 393.912C466.678 393.912 467.694 394.479 469.362 395.412C471.005 396.393 473.369 397.607 476.002 399.037C477.324 399.741 478.689 400.548 480.123 401.29C481.557 402.028 483.012 402.796 484.442 403.579C487.284 405.194 490.115 406.637 492.425 408.076C502.262 414.124 514.403 420.801 526.844 425.728C539.241 430.709 551.861 433.891 561.436 434.399C562.796 434.477 564.122 434.526 565.416 434.548C566.711 434.56 567.977 434.477 569.206 434.409C571.666 434.241 573.992 434.034 576.179 433.654C580.554 432.803 584.377 431.836 587.64 430.431C594.184 427.842 598.49 424.497 601.039 422.207Z" fill="#40D3FD"/>
<path fill-rule="evenodd" clip-rule="evenodd" d="M509.203 290.94C510.782 292.472 513.474 292.342 514.771 290.551C516.554 288.076 519.038 283.965 520.443 278.088C521.243 275.137 521.56 271.79 521.651 268.001C521.658 266.113 521.487 264.141 521.247 262.063C521.029 259.98 520.589 257.829 519.993 255.602C517.98 247.732 512.974 237.856 506.44 228.599C499.943 219.291 491.986 210.663 485.059 203.842C483.414 202.242 481.694 200.208 479.838 198.198C478.928 197.177 478.029 196.134 477.161 195.101C476.292 194.069 475.377 193.107 474.561 192.158C472.911 190.275 471.492 188.567 470.393 187.406C469.329 186.213 468.683 185.488 468.683 185.488C467.628 184.279 466.635 183.408 466.475 183.553C466.315 183.698 466.185 183.816 466.185 183.816C466.185 183.816 466.053 183.935 465.892 184.079C465.733 184.225 466.457 185.323 467.502 186.52C467.502 186.52 468.127 187.251 469.153 188.456C470.2 189.642 471.517 191.408 472.967 193.414C473.682 194.423 474.472 195.463 475.184 196.589C475.894 197.716 476.605 198.873 477.285 200.027C478.685 202.307 479.792 204.692 480.613 206.751C484.059 215.566 486.802 226.241 488.696 236.27C490.645 246.316 491.782 255.696 493.509 262.433C494.022 264.344 494.598 266.14 495.136 267.854C495.695 269.562 496.37 271.157 497.012 272.672C498.219 275.714 499.791 278.358 501.153 280.714C504.07 285.394 507.001 288.809 509.203 290.94Z" fill="#40D3FD"/>
<path fill-rule="evenodd" clip-rule="evenodd" d="M123.262 133.193C125.491 131.902 125.539 129.193 123.546 127.59C120.776 125.342 116.378 122.45 110.49 119.215C109.751 118.829 108.987 118.449 108.198 118.075C107.413 117.668 106.605 117.248 105.775 116.817C104.11 115.98 102.338 115.176 100.452 114.424C98.5733 113.627 96.6162 112.714 94.5087 111.951C93.4538 111.574 92.3713 111.188 91.2623 110.792C90.1643 110.354 89.032 109.933 87.8633 109.528C79.6323 106.746 68.2289 103.725 56.3999 98.9056C44.5763 94.1864 32.4178 87.6316 22.9395 80.4416C20.738 78.7361 18.1617 76.6257 15.8883 74.1115C14.7173 72.8833 13.5464 71.6217 12.4086 70.3702C11.2719 69.1186 10.3143 67.7658 9.33687 66.5365C7.41512 64.0512 5.72004 61.8218 4.70056 60.0874C3.63022 58.3853 2.97895 57.3496 2.97895 57.3496C1.91966 55.6319 0.897974 54.3147 0.710001 54.4215C0.523133 54.5305 0.370543 54.6195 0.370543 54.6195C0.370543 54.6195 0.216847 54.7074 0.0299798 54.8153C-0.159099 54.9232 0.566257 56.434 1.63992 58.1717C1.63992 58.1717 2.28013 59.2308 3.33389 60.9707C4.31798 62.7563 5.93345 65.0758 7.69155 67.7336C8.5883 69.0496 9.44302 70.5115 10.4537 71.8976C11.4643 73.2838 12.4838 74.71 13.4756 76.1351C15.3896 79.0465 17.496 81.692 19.0827 84.1206C25.9006 94.3444 35.2761 105.918 46.1575 115.393C56.9461 124.932 69.1389 132.219 79.0274 135.549C80.4273 136.033 81.8017 136.477 83.1496 136.885C84.5019 137.278 85.8619 137.528 87.1722 137.805C89.8072 138.309 92.2984 138.77 94.6989 138.96C97.1105 139.104 99.3883 139.146 101.523 139.103C102.593 139.073 103.62 139.058 104.624 138.961C105.631 138.842 106.603 138.707 107.539 138.558C115.014 137.515 120.189 134.952 123.262 133.193Z" fill="#40D3FD"/>
<path fill-rule="evenodd" clip-rule="evenodd" d="M705.51 416.132C707.227 414.456 706.733 411.79 704.694 410.576C701.851 408.873 697.499 406.825 691.875 404.72C691.174 404.475 690.451 404.24 689.71 404.017C688.965 403.761 688.202 403.497 687.417 403.226C685.847 402.712 684.197 402.249 682.457 401.86C680.718 401.426 678.895 400.897 676.965 400.543C676.004 400.341 675.01 400.223 673.999 400.016C672.989 399.795 671.95 399.597 670.882 399.423C663.382 398.26 653.048 397.509 641.989 395.135C630.958 392.856 619.291 388.887 609.958 383.799C607.789 382.586 605.241 381.052 602.941 379.089C601.763 378.143 600.581 377.162 599.43 376.186C598.28 375.208 597.292 374.109 596.293 373.127C594.325 371.132 592.587 369.337 591.517 367.896C590.401 366.492 589.722 365.637 589.722 365.637C588.615 364.216 587.567 363.158 587.39 363.285C587.215 363.411 587.071 363.516 587.071 363.516C587.071 363.516 586.928 363.622 586.753 363.749C586.577 363.876 587.352 365.16 588.477 366.6C588.477 366.6 589.148 367.48 590.252 368.925C591.294 370.424 592.966 372.319 594.795 374.509C595.724 375.589 596.625 376.809 597.667 377.938C598.709 379.066 599.762 380.23 600.79 381.399C602.785 383.803 604.939 385.933 606.599 387.951C613.701 396.418 623.373 405.816 634.315 413.002C645.17 420.264 657.172 425.161 666.559 426.604C667.889 426.82 669.192 427.003 670.464 427.153C671.738 427.29 672.999 427.286 674.218 427.316C676.663 427.327 678.97 427.316 681.151 427.061C683.336 426.759 685.382 426.379 687.283 425.944C688.233 425.716 689.148 425.51 690.027 425.23C690.907 424.927 691.751 424.615 692.56 424.297C699.044 421.891 703.143 418.422 705.51 416.132Z" fill="#40D3FD"/>
<path fill-rule="evenodd" clip-rule="evenodd" d="M603.351 344.199C605.316 345.295 607.883 344.459 608.616 342.327C609.617 339.387 610.847 334.592 610.387 328.327C610.273 325.146 609.491 321.732 608.38 317.917C607.781 316.035 606.96 314.129 606.049 312.133C605.579 311.145 605.109 310.117 604.538 309.118C603.958 308.123 603.339 307.117 602.681 306.101C598.088 298.912 589.789 290.74 580.083 283.938C570.402 277.058 559.433 271.592 550.101 267.697C547.892 266.794 545.444 265.498 542.846 264.325C541.564 263.711 540.281 263.073 539.033 262.433C537.783 261.796 536.508 261.263 535.338 260.691C532.983 259.576 530.923 258.532 529.383 257.903C527.867 257.223 526.944 256.809 526.944 256.809C525.428 256.108 524.12 255.697 524.035 255.895C523.948 256.092 523.878 256.254 523.878 256.254C523.878 256.254 523.808 256.416 523.721 256.614C523.636 256.812 524.792 257.539 526.29 258.229C526.29 258.229 527.192 258.659 528.676 259.362C530.178 260.034 532.163 261.17 534.375 262.473C535.474 263.138 536.661 263.788 537.799 264.574C538.937 265.359 540.086 266.173 541.205 266.995C543.476 268.586 545.481 270.433 547.09 272.064C553.91 279.082 560.62 288.254 566.044 297.204C571.541 306.148 575.784 314.819 579.61 320.797C580.16 321.646 580.72 322.457 581.289 323.237C581.849 324.022 582.353 324.811 582.903 325.55C583.972 327.041 585.13 328.382 586.214 329.667C588.287 332.28 590.633 334.394 592.621 336.327C596.829 340.085 600.609 342.677 603.351 344.199Z" fill="#40D3FD"/>
<path fill-rule="evenodd" clip-rule="evenodd" d="M261.292 248.917C262.962 247.374 262.619 244.69 260.823 243.337C258.316 241.437 254.495 239.091 249.637 236.566C249.03 236.269 248.405 235.983 247.762 235.706C247.12 235.392 246.463 235.071 245.787 234.741C244.435 234.107 243.012 233.52 241.507 233.001C240.008 232.435 238.444 231.764 236.773 231.264C235.941 230.988 235.073 230.797 234.198 230.51C233.327 230.209 232.429 229.93 231.5 229.674C224.981 227.927 215.829 226.345 206.139 223.026C196.471 219.809 186.384 214.792 178.676 208.851C176.895 207.442 174.81 205.682 173.072 203.541C172.165 202.498 171.261 201.423 170.387 200.357C169.513 199.289 168.828 198.127 168.102 197.073C166.686 194.939 165.441 193.024 164.765 191.53C164.032 190.065 163.586 189.174 163.586 189.174C162.868 187.695 162.115 186.556 161.915 186.64C161.717 186.727 161.555 186.798 161.555 186.798C161.555 186.798 161.391 186.869 161.192 186.956C160.993 187.041 161.429 188.344 162.164 189.85C162.164 189.85 162.598 190.766 163.313 192.273C163.952 193.821 165.113 195.826 166.359 198.128C166.999 199.266 167.576 200.536 168.318 201.734C169.059 202.932 169.805 204.165 170.524 205.401C171.891 207.931 173.486 210.213 174.632 212.334C179.584 221.24 186.934 231.415 196.023 239.586C196.583 240.102 197.132 240.642 197.708 241.133C198.298 241.607 198.886 242.079 199.471 242.548C200.665 243.481 201.846 244.406 203.012 245.32C204.176 246.262 205.409 247.048 206.629 247.827C207.848 248.609 209.062 249.367 210.264 250.098C210.868 250.459 211.456 250.839 212.064 251.161C212.68 251.467 213.29 251.769 213.89 252.068C215.1 252.659 216.292 253.219 217.461 253.744C219.774 254.861 222.098 255.537 224.243 256.145C225.463 256.482 226.66 256.782 227.834 257.048C229.01 257.302 230.193 257.408 231.332 257.546C233.621 257.773 235.78 257.965 237.846 257.897C239.921 257.782 241.869 257.574 243.683 257.296C244.591 257.149 245.462 257.021 246.306 256.811C247.153 256.579 247.965 256.336 248.744 256.08C254.986 254.197 258.993 251.022 261.292 248.917Z" fill="#2399CC"/>
<path fill-rule="evenodd" clip-rule="evenodd" d="M210.213 138.061C211.475 135.927 210.304 133.5 207.866 133.001C204.48 132.298 199.291 131.703 192.638 131.942C189.341 132.141 185.609 132.378 181.608 133.14C179.595 133.491 177.478 133.874 175.294 134.416C173.116 134.976 170.828 135.568 168.453 136.281C160.118 138.857 149.317 143.537 137.563 148.017C125.844 152.53 113.164 156.823 102.023 159.524C99.4062 160.146 96.273 160.732 93.0338 161.053C89.798 161.427 86.4651 161.704 83.4603 161.784C80.4565 161.906 77.782 161.977 75.8617 161.918C73.9403 161.879 72.7709 161.855 72.7709 161.855C70.8417 161.797 69.255 161.927 69.245 162.142C69.2349 162.357 69.2271 162.534 69.2271 162.534C69.2271 162.534 69.2193 162.711 69.2093 162.927C69.1992 163.142 70.7781 163.364 72.7185 163.421C72.7185 163.421 73.8934 163.466 75.8249 163.54C77.7541 163.657 80.4409 163.7 83.467 163.811C86.4941 163.93 89.8583 164.061 93.1443 164.189C96.4359 164.392 99.6449 164.507 102.37 164.82C113.945 166.097 127.807 167.226 141.21 166.974C154.597 166.772 167.465 165.182 176.607 162.354C179.208 161.572 181.645 160.705 183.896 159.709C186.152 158.73 188.264 157.747 190.199 156.673C194.048 154.461 197.333 152.285 199.987 149.954C205.362 145.443 208.464 141.006 210.213 138.061Z" fill="#40D3FD"/>
<path fill-rule="evenodd" clip-rule="evenodd" d="M391.888 154.391C393.773 153.715 395.043 151.32 394.447 149.394C393.621 146.735 391.999 142.792 388.712 138.829C385.45 134.85 380.509 130.805 373.397 128.175C367.151 125.839 358.102 124.714 348.685 124.663C339.255 124.578 329.503 125.563 321.421 126.503C317.618 126.928 312.525 126.822 308.365 126.76C304.211 126.635 300.986 126.538 300.986 126.538C299.656 126.472 298.562 126.597 298.556 126.815C298.548 127.032 298.542 127.21 298.542 127.21C298.542 127.21 298.537 127.389 298.529 127.606C298.522 127.823 299.596 128.053 300.916 128.116C300.916 128.116 301.715 128.165 303.029 128.246C304.343 128.318 306.164 128.524 308.207 128.8C312.292 129.327 317.24 130.366 320.699 131.808C328.081 134.841 336.331 139.238 343.884 143.527C351.466 147.796 358.365 151.941 363.88 154C370.152 156.319 375.748 156.868 380.54 156.628C385.33 156.36 389.268 155.333 391.888 154.391Z" fill="#40D3FD"/>
<path fill-rule="evenodd" clip-rule="evenodd" d="M268.407 274.157C269.764 275.687 272.441 275.956 273.962 274.568C276.053 272.655 279.069 269.372 281.225 264.32C282.406 261.797 283.144 258.853 283.718 255.477C283.964 253.793 284.039 252.012 284.061 250.131C284.104 248.245 283.933 246.278 283.613 244.232C282.581 237.002 278.783 227.755 273.391 219.167C268.043 210.522 261.186 202.614 255.175 196.485C253.747 195.047 252.291 193.217 250.695 191.417C249.918 190.505 249.153 189.569 248.417 188.646C247.68 187.721 246.89 186.867 246.195 186.02C244.786 184.339 243.582 182.814 242.631 181.787C241.718 180.727 241.163 180.083 241.163 180.083C240.261 179.007 239.391 178.245 239.229 178.39C239.068 178.534 238.936 178.651 238.936 178.651C238.936 178.651 238.804 178.768 238.643 178.912C238.482 179.056 239.079 180.042 239.97 181.102C239.97 181.102 240.502 181.751 241.376 182.819C242.272 183.869 243.37 185.447 244.573 187.24C245.164 188.142 245.825 189.068 246.4 190.08C246.974 191.092 247.544 192.13 248.085 193.167C249.212 195.211 250.036 197.361 250.617 199.213C253.046 207.153 254.509 216.693 255.149 225.498C255.843 234.331 255.765 242.409 256.603 248.245C256.866 249.905 257.204 251.471 257.514 252.964C257.843 254.457 258.308 255.864 258.747 257.204C259.542 259.887 260.76 262.285 261.794 264.435C264.072 268.728 266.512 272.026 268.407 274.157Z" fill="#2399CC"/>
<path fill-rule="evenodd" clip-rule="evenodd" d="M337.039 327.37C339.365 326.065 339.373 323.361 337.258 321.777C334.317 319.552 329.658 316.722 323.449 313.476C322.67 313.092 321.865 312.713 321.033 312.341C320.207 311.928 319.357 311.504 318.483 311.068C316.729 310.221 314.867 309.404 312.884 308.641C310.912 307.828 308.858 306.88 306.647 306.091C305.548 305.668 304.396 305.33 303.242 304.885C302.093 304.424 300.908 303.98 299.684 303.551C291.068 300.61 279.155 297.263 266.888 291.922C254.624 286.691 242.115 279.426 232.496 271.542C230.265 269.673 227.644 267.376 225.379 264.655C224.206 263.328 223.034 261.963 221.895 260.614C220.757 259.262 219.823 257.807 218.856 256.483C216.959 253.809 215.285 251.412 214.31 249.555C213.276 247.731 212.647 246.622 212.647 246.622C211.624 244.783 210.628 243.357 210.433 243.454C210.239 243.552 210.079 243.633 210.079 243.633C210.079 243.633 209.921 243.713 209.727 243.811C209.53 243.908 210.219 245.511 211.256 247.373C211.256 247.373 211.874 248.505 212.89 250.367C213.826 252.276 215.417 254.759 217.144 257.603C218.026 259.009 218.854 260.569 219.859 262.052C220.864 263.533 221.879 265.054 222.864 266.576C224.756 269.68 226.885 272.496 228.474 275.07C235.316 285.9 244.916 298.142 256.215 308.155C256.914 308.786 257.597 309.443 258.312 310.049C259.041 310.634 259.769 311.218 260.493 311.799C261.961 312.956 263.415 314.101 264.852 315.232C266.281 316.398 267.789 317.392 269.277 318.375C270.779 319.355 272.255 320.319 273.701 321.262C274.434 321.722 275.148 322.206 275.887 322.622C276.633 323.025 277.37 323.421 278.099 323.815C279.562 324.593 281.002 325.338 282.412 326.044C285.202 327.527 288.007 328.529 290.589 329.449C292.061 329.964 293.504 330.438 294.92 330.873C296.34 331.294 297.772 331.559 299.15 331.857C301.923 332.398 304.54 332.9 307.064 333.116C309.603 333.279 311.998 333.338 314.243 333.312C315.367 333.289 316.446 333.283 317.501 333.189C318.561 333.071 319.583 332.937 320.564 332.789C328.418 331.766 333.832 329.145 337.039 327.37Z" fill="#40D3FD"/>
<path fill-rule="evenodd" clip-rule="evenodd" d="M406.554 424.077C408.774 422.458 408.393 419.774 405.993 418.493C402.653 416.685 397.478 414.557 390.691 412.071C389.843 411.785 388.969 411.508 388.069 411.243C387.17 410.926 386.245 410.6 385.293 410.263C383.389 409.614 381.38 409.011 379.254 408.474C377.135 407.876 374.919 407.122 372.561 406.561C371.387 406.247 370.165 406.035 368.933 405.693C367.705 405.335 366.44 404.995 365.138 404.676C355.986 402.515 343.413 400.062 330.385 395.301C328.762 394.687 327.13 394.068 325.494 393.45C324.674 393.13 323.827 392.849 323.02 392.499L320.62 391.4C317.421 389.912 314.081 388.546 311.053 386.765C309.494 385.913 307.946 385.069 306.414 384.232C305.628 383.829 304.887 383.375 304.175 382.891C303.449 382.419 302.728 381.951 302.012 381.485C300.57 380.54 299.147 379.607 297.749 378.691C297.032 378.243 296.365 377.752 295.73 377.238C295.083 376.731 294.442 376.231 293.808 375.735C291.436 373.848 288.623 371.543 286.208 368.74C284.954 367.38 283.699 365.981 282.479 364.597C281.259 363.21 280.272 361.692 279.239 360.325C278.24 358.93 277.295 357.613 276.442 356.421C276.002 355.833 275.628 355.248 275.315 354.68C274.989 354.121 274.686 353.6 274.409 353.126C273.318 351.223 272.654 350.063 272.654 350.063C271.574 348.143 270.532 346.652 270.338 346.751C270.145 346.85 269.988 346.93 269.988 346.93C269.988 346.93 269.83 347.012 269.636 347.111C269.443 347.209 270.181 348.881 271.277 350.828C271.277 350.828 271.931 352.011 273.007 353.957C273.272 354.445 273.563 354.982 273.877 355.559C274.175 356.147 274.53 356.755 274.948 357.369C275.745 358.623 276.627 360.011 277.56 361.48C278.512 362.937 279.398 364.565 280.491 366.089C281.586 367.612 282.69 369.176 283.767 370.74C285.829 373.946 288.179 376.798 289.95 379.424C290.425 380.122 290.906 380.828 291.392 381.539C291.866 382.266 292.373 382.974 292.929 383.647C294.017 385.03 295.125 386.438 296.247 387.865C296.813 388.585 297.383 389.311 297.956 390.041C298.52 390.787 299.114 391.507 299.757 392.183C301.021 393.577 302.298 394.984 303.584 396.403C306.107 399.346 309.011 401.931 311.876 404.659L314.046 406.691C314.782 407.354 315.564 407.946 316.325 408.576C317.871 409.819 319.413 411.056 320.947 412.287C321.725 412.894 322.487 413.532 323.281 414.107C324.09 414.658 324.897 415.208 325.7 415.755C327.328 416.843 328.941 417.92 330.533 418.983C332.118 420.087 333.78 420.988 335.422 421.882C337.075 422.77 338.702 423.645 340.295 424.501C341.102 424.914 341.889 425.358 342.698 425.725C343.514 426.073 344.322 426.418 345.119 426.756C346.72 427.429 348.295 428.068 349.832 428.67C352.881 429.963 355.913 430.711 358.698 431.412C360.283 431.8 361.836 432.15 363.356 432.463C364.879 432.761 366.402 432.875 367.868 433.04C370.816 433.305 373.593 433.563 376.244 433.509C378.905 433.392 381.401 433.186 383.73 432.909C384.894 432.76 386.014 432.639 387.098 432.419C388.184 432.171 389.227 431.911 390.227 431.642C398.253 429.678 403.493 426.278 406.554 424.077Z" fill="#F2A877"/>
<path fill-rule="evenodd" clip-rule="evenodd" d="M522.894 423.363C525.196 422.138 525.367 419.469 523.349 417.844C520.549 415.577 516.019 412.549 509.72 409.428C506.554 407.975 502.98 406.267 498.876 404.909C496.832 404.188 494.677 403.42 492.376 402.766C491.221 402.452 490.039 402.13 488.826 401.799C487.616 401.454 486.371 401.126 485.087 400.817C476.052 398.678 463.641 396.913 450.515 394.207C437.402 391.562 423.59 387.951 412.124 383.708C409.442 382.699 406.309 381.371 403.258 379.718C401.719 378.915 400.172 378.078 398.659 377.244C397.149 376.408 395.732 375.486 394.366 374.65C391.644 372.958 389.24 371.424 387.594 370.209C385.931 369.017 384.92 368.291 384.92 368.291C383.26 367.077 381.794 366.225 381.661 366.394C381.527 366.565 381.419 366.703 381.419 366.703C381.419 366.703 381.309 366.842 381.177 367.014C381.043 367.183 382.301 368.318 383.972 369.537C383.972 369.537 384.978 370.285 386.63 371.512C388.251 372.783 390.603 374.419 393.21 376.316C394.522 377.255 395.867 378.305 397.293 379.301C398.716 380.295 400.161 381.325 401.575 382.362C404.378 384.481 407.189 386.432 409.447 388.28C419.075 396.068 430.986 404.891 443.388 412.069C455.742 419.29 468.529 424.814 478.559 427.184C479.981 427.528 481.376 427.835 482.74 428.11C484.107 428.376 485.458 428.548 486.771 428.724C489.403 429.049 491.899 429.308 494.284 429.376C499.069 429.427 503.299 429.256 507.026 428.56C514.459 427.383 519.711 425.045 522.894 423.363Z" fill="#2399CC"/>
<path fill-rule="evenodd" clip-rule="evenodd" d="M457.214 349.133C459.142 350.471 461.792 349.891 462.634 347.674C463.768 344.631 465.327 339.472 464.689 332.553C464.63 331.683 464.55 330.782 464.444 329.85C464.314 328.931 464.088 328.019 463.87 327.061C463.416 325.152 462.843 323.134 462.129 321.022C461.369 318.941 460.299 316.877 459.159 314.688C458.562 313.612 457.989 312.47 457.261 311.403C456.522 310.345 455.74 309.274 454.914 308.196C453.446 306.307 451.847 304.255 449.8 302.411C448.806 301.46 447.771 300.501 446.697 299.534C446.159 299.056 445.613 298.573 445.062 298.082C444.497 297.609 443.879 297.18 443.278 296.726C442.065 295.83 440.82 294.932 439.552 294.041C438.287 293.142 437.009 292.237 435.598 291.472C434.217 290.691 432.819 289.898 431.407 289.099C430.704 288.712 429.997 288.322 429.287 287.931C428.564 287.564 427.804 287.245 427.062 286.904C425.576 286.248 424.081 285.588 422.582 284.926C421.83 284.61 421.101 284.264 420.334 283.98L418.012 283.184C414.914 282.155 411.924 281.043 408.8 280.386C407.275 280.018 405.759 279.651 404.259 279.289C403.523 279.092 402.771 278.949 402.009 278.845C401.259 278.726 400.512 278.606 399.772 278.489C398.307 278.257 396.863 278.029 395.444 277.803C394.052 277.531 392.607 277.531 391.252 277.384C388.679 277.191 385.746 276.632 382.666 276.455C381.139 276.313 379.602 276.146 378.102 275.969C376.6 275.793 375.104 275.829 373.706 275.733C372.306 275.658 370.985 275.585 369.789 275.521C368.598 275.4 367.523 275.541 366.63 275.524C364.841 275.55 363.752 275.566 363.752 275.566C361.955 275.574 360.495 275.76 360.507 275.975C360.52 276.192 360.529 276.369 360.529 276.369C360.529 276.369 360.539 276.547 360.55 276.764C360.563 276.98 362.015 277.151 363.778 277.142C363.778 277.142 364.847 277.147 366.602 277.156C367.48 277.201 368.533 277.104 369.697 277.288C370.861 277.433 372.148 277.593 373.512 277.763C374.868 277.972 376.312 278.079 377.748 278.429C379.183 278.783 380.639 279.159 382.066 279.552C384.945 280.23 387.599 281.452 389.781 282.516C399.063 287.206 408.469 294.725 415.817 302.743C423.282 310.735 428.687 319.062 433.019 324.819C433.645 325.638 434.279 326.416 434.924 327.163C435.556 327.915 436.077 328.708 436.674 329.427C437.813 330.898 439.085 332.194 440.211 333.476C441.283 334.784 442.392 335.987 443.516 337.103C444.09 337.657 444.649 338.197 445.192 338.722C445.694 339.266 446.2 339.787 446.707 340.291C450.941 344.241 454.507 347.271 457.214 349.133Z" fill="#F2A877"/>
<path fill-rule="evenodd" clip-rule="evenodd" d="M402.061 345.669C404.063 344.605 404.468 341.952 403.055 340.202C401.093 337.758 397.9 334.478 393.499 330.946C391.261 329.308 388.794 327.33 385.875 325.709C384.431 324.848 382.92 323.916 381.276 323.099C380.458 322.672 379.596 322.301 378.732 321.87C377.871 321.431 376.978 321.004 376.053 320.593C369.535 317.748 360.286 314.877 350.591 310.749C340.903 306.695 330.821 301.346 322.896 295.549C321.052 294.177 318.935 292.444 317.047 290.407C316.078 289.409 315.111 288.38 314.176 287.358C313.24 286.336 312.438 285.244 311.631 284.243C310.039 282.224 308.645 280.406 307.784 279.004C306.89 277.625 306.346 276.784 306.346 276.784C305.464 275.39 304.59 274.338 304.405 274.446C304.218 274.556 304.067 274.647 304.067 274.647C304.067 274.647 303.914 274.736 303.729 274.846C303.542 274.954 304.121 276.199 305.016 277.611C305.016 277.611 305.548 278.472 306.422 279.886C307.246 281.335 308.558 283.238 309.983 285.424C310.707 286.508 311.405 287.703 312.209 288.856C313.016 290.006 313.826 291.191 314.609 292.379C316.127 294.795 317.758 297.04 318.961 299.104C324.128 307.807 331.146 317.896 339.443 326.468C347.664 335.08 357.1 342.056 364.996 345.494C366.113 345.99 367.214 346.447 368.297 346.869C369.384 347.28 370.485 347.584 371.547 347.896C373.684 348.486 375.715 349.004 377.69 349.303C381.675 349.801 385.206 350.044 388.4 349.648C394.724 349.113 399.302 347.125 402.061 345.669Z" fill="#2399CC"/>
<path fill-rule="evenodd" clip-rule="evenodd" d="M172.917 188.227C175.202 186.791 175.073 184.094 172.826 182.637C169.702 180.591 164.767 178.019 158.156 175.199C157.329 174.866 156.474 174.539 155.591 174.22C154.711 173.868 153.804 173.505 152.872 173.133C151.004 172.412 149.022 171.73 146.92 171.107C144.823 170.44 142.626 169.66 140.283 169.04C139.11 168.734 137.908 168.42 136.674 168.099C135.451 167.735 134.19 167.389 132.891 167.063C123.757 164.83 111.219 162.556 98.0973 158.509C84.9872 154.561 71.3765 148.801 60.5116 142.219C57.9828 140.654 55.009 138.708 52.2899 136.322C50.8993 135.164 49.5042 133.97 48.1447 132.785C46.7863 131.599 45.5981 130.293 44.4065 129.116C42.0558 126.733 39.9764 124.593 38.6648 122.9C37.3053 121.246 36.4786 120.24 36.4786 120.24C35.128 118.568 33.8809 117.305 33.7073 117.436C33.5327 117.566 33.3914 117.672 33.3914 117.672C33.3914 117.672 33.249 117.78 33.0754 117.911C32.9007 118.04 33.8764 119.528 35.2426 121.218C35.2426 121.218 36.0603 122.247 37.4054 123.94C38.6881 125.686 40.6974 127.922 42.9046 130.496C44.0227 131.766 45.1219 133.189 46.3679 134.523C47.6151 135.856 48.8756 137.227 50.1083 138.601C52.5102 141.417 55.069 143.942 57.0583 146.288C65.5802 156.153 76.8802 167.133 89.4218 175.848C101.879 184.637 115.464 191.027 126.21 193.643C127.733 194.026 129.226 194.371 130.686 194.682C132.149 194.978 133.606 195.131 135.014 195.313C137.841 195.63 140.514 195.913 143.066 195.933C145.626 195.908 148.037 195.791 150.292 195.599C151.42 195.496 152.506 195.408 153.56 195.243C154.617 195.055 155.635 194.853 156.614 194.64C164.448 193.085 169.763 190.184 172.917 188.227Z" fill="#2399CC"/>
<path fill-rule="evenodd" clip-rule="evenodd" d="M231.354 232.315C233.217 233.758 235.846 233.219 236.761 231.031C238.006 228.015 239.676 223.017 239.645 216.231C239.656 215.379 239.648 214.499 239.619 213.588C239.574 212.685 239.457 211.772 239.342 210.821C239.098 208.924 238.755 206.917 238.294 204.81C237.798 202.717 237.053 200.583 236.235 198.335C235.808 197.222 235.391 196.062 234.853 194.929C234.304 193.801 233.717 192.656 233.089 191.495C228.725 183.286 220.462 173.684 210.481 165.607C200.537 157.441 189.019 150.864 179.116 146.252C176.768 145.183 174.173 143.679 171.386 142.348C170.014 141.651 168.641 140.927 167.303 140.204C165.965 139.482 164.587 138.894 163.327 138.258C160.792 137.016 158.574 135.858 156.901 135.18C155.26 134.44 154.261 133.99 154.261 133.99C152.62 133.229 151.208 132.769 151.125 132.967C151.041 133.165 150.971 133.327 150.971 133.327C150.971 133.327 150.903 133.488 150.818 133.686C150.734 133.885 151.992 134.66 153.614 135.409C153.614 135.409 154.592 135.874 156.199 136.636C157.828 137.354 159.969 138.603 162.357 140.029C163.542 140.757 164.829 141.461 166.052 142.325C167.275 143.191 168.51 144.086 169.712 144.987C172.161 146.725 174.298 148.766 176.022 150.539C183.323 158.189 190.372 168.244 195.862 178.115C201.44 187.982 205.491 197.594 209.098 204.362C209.618 205.323 210.15 206.247 210.693 207.138C211.209 208.041 211.711 208.923 212.201 209.783C213.196 211.496 214.304 213.055 215.313 214.555C216.288 216.07 217.299 217.472 218.326 218.778C219.37 220.074 220.358 221.3 221.294 222.46C225.24 227.011 228.75 230.309 231.354 232.315Z" fill="#2399CC"/>
<path fill-rule="evenodd" clip-rule="evenodd" d="M462.004 302.509C463.96 304.064 466.582 303.456 467.358 300.979C467.898 299.265 468.488 296.994 468.748 294.199C468.91 292.792 469.007 291.248 468.956 289.594C468.927 287.931 468.851 286.114 468.552 284.219C468.416 283.266 468.256 282.279 468.067 281.258C467.864 280.245 467.591 279.222 467.308 278.156C466.766 276.01 465.952 273.827 465.011 271.524C463.038 266.98 460.271 262.118 456.351 257.39C452.885 253.252 448.217 248.924 442.612 245.033C437.017 241.134 430.487 237.683 423.56 235.099C416.636 232.501 409.371 230.78 402.343 229.869C395.309 228.945 388.517 228.823 382.399 229.157C376.645 229.421 368.912 229.706 362.649 230.533C359.521 230.953 356.753 231.364 354.78 231.766C353.792 231.948 352.996 232.095 352.448 232.196C351.904 232.319 351.606 232.386 351.606 232.386C349.631 232.823 348.06 233.35 348.113 233.56C348.165 233.77 348.208 233.942 348.208 233.942C348.208 233.942 348.25 234.115 348.302 234.324C348.355 234.533 349.984 234.354 351.922 233.925C351.922 233.925 352.217 233.86 352.752 233.745C353.289 233.636 354.078 233.525 355.054 233.371C357.001 233.03 359.742 232.74 362.824 232.558C368.997 232.206 376.566 232.87 381.811 234.445C387.4 236.068 393.214 238.454 398.743 241.467C404.279 244.473 409.518 248.096 414.14 251.986C423.456 259.755 430.155 268.626 435.367 274.887C441.256 282.056 446.35 287.722 450.887 292.314C455.378 296.887 459.33 300.326 462.004 302.509Z" fill="#2399CC"/>
<path fill-rule="evenodd" clip-rule="evenodd" d="M612.483 400.119C614.076 398.662 613.887 395.993 612.275 394.586C610.026 392.617 606.543 390.098 602.011 387.564C600.867 386.986 599.667 386.376 598.401 385.736C597.13 385.119 595.786 384.546 594.362 384.038C592.941 383.496 591.454 382.895 589.866 382.438C589.074 382.191 588.251 382.008 587.417 381.764C586.586 381.511 585.727 381.277 584.842 381.065C578.621 379.624 569.921 378.694 560.557 376.563C551.214 374.507 541.265 371.191 533.265 366.984C531.406 365.984 529.248 364.686 527.29 363.049C526.29 362.257 525.29 361.433 524.317 360.611C523.347 359.788 522.502 358.874 521.657 358.051C519.987 356.382 518.519 354.873 517.602 353.674C516.652 352.501 516.074 351.787 516.074 351.787C515.134 350.599 514.223 349.73 514.048 349.858C513.875 349.984 513.733 350.087 513.733 350.087C513.733 350.087 513.59 350.192 513.416 350.319C513.242 350.446 513.881 351.536 514.835 352.741C514.835 352.741 515.406 353.478 516.341 354.691C517.229 355.942 518.627 357.547 520.153 359.404C520.927 360.322 521.681 361.351 522.54 362.319C523.401 363.287 524.268 364.286 525.111 365.293C526.752 367.355 528.498 369.226 529.822 371C535.491 378.459 543.172 386.968 552.02 393.774C560.789 400.63 570.635 405.654 578.518 407.469C579.635 407.736 580.73 407.967 581.804 408.167C582.877 408.357 583.95 408.435 584.985 408.53C587.064 408.682 589.031 408.788 590.906 408.682C592.788 408.545 594.558 408.32 596.209 408.03C597.035 407.879 597.828 407.737 598.599 407.535C599.369 407.316 600.112 407.086 600.823 406.845C606.525 405.027 610.289 402.116 612.483 400.119Z" fill="#2399CC"/>
<path fill-rule="evenodd" clip-rule="evenodd" d="M585.294 460.156C587.709 460.966 589.932 459.434 589.823 456.876C589.661 453.352 589.028 447.729 586.176 440.923C584.853 437.439 582.763 433.857 580.207 429.911C578.893 427.975 577.338 426.062 575.664 424.067C574.815 423.083 573.954 422.056 572.994 421.08C572.029 420.112 571.019 419.139 569.965 418.161C562.572 411.236 550.942 403.922 538.09 398.21C525.248 392.42 511.291 388.256 499.494 385.472C496.708 384.834 493.527 383.816 490.201 382.953C488.55 382.491 486.89 382.002 485.266 381.509C483.644 381.016 482.018 380.639 480.505 380.207C477.469 379.371 474.792 378.571 472.827 378.132C470.878 377.635 469.694 377.333 469.694 377.333C467.742 376.817 466.104 376.567 466.055 376.778C466.005 376.988 465.964 377.16 465.964 377.16C465.964 377.16 465.921 377.333 465.872 377.543C465.822 377.754 467.364 378.345 469.299 378.856C469.299 378.856 470.47 379.175 472.393 379.703C474.327 380.191 476.952 381.098 479.888 382.147C481.352 382.684 482.915 383.195 484.459 383.855C486.004 384.516 487.57 385.205 489.104 385.905C492.197 387.246 495.062 388.898 497.416 390.377C507.412 396.757 518.102 405.504 527.42 414.381C536.803 423.23 544.824 432.165 551.309 438.233C552.236 439.091 553.159 439.908 554.079 440.688C554.98 441.483 555.861 442.259 556.72 443.015C558.452 444.513 560.216 445.821 561.87 447.083C565.1 449.674 568.396 451.629 571.221 453.441C577.074 456.894 581.931 459.038 585.294 460.156Z" fill="#8163A6"/>
<path fill-rule="evenodd" clip-rule="evenodd" d="M324.534 242.68C326.225 243.964 328.921 243.611 330.103 241.843C331.729 239.401 333.929 235.393 335.008 229.842C335.627 227.051 335.792 223.922 335.686 220.408C335.602 218.66 335.35 216.844 335.018 214.937C334.703 213.026 334.185 211.062 333.511 209.039C331.206 201.886 325.945 193.064 319.358 184.827C312.798 176.544 304.966 168.892 298.248 162.793C296.656 161.363 294.985 159.53 293.213 157.701C291.503 155.829 289.756 153.916 288.183 152.196C286.618 150.471 285.272 148.906 284.243 147.833C283.244 146.733 282.637 146.065 282.637 146.065C281.648 144.949 280.708 144.155 280.547 144.301C280.385 144.447 280.253 144.566 280.253 144.566C280.253 144.566 280.121 144.685 279.959 144.831C279.798 144.977 280.47 146.001 281.45 147.105C281.45 147.105 282.037 147.782 283 148.895C283.977 149.994 285.222 151.621 286.588 153.472C287.984 155.299 289.391 157.438 290.668 159.577C291.989 161.687 293.05 163.89 293.826 165.805C297.093 174.001 299.779 183.93 301.786 193.242C303.842 202.57 305.249 211.272 307.239 217.437C307.824 219.184 308.469 220.819 309.091 222.374C309.731 223.924 310.473 225.36 311.193 226.72C312.572 229.455 314.267 231.794 315.786 233.869C318.986 237.981 322.179 240.897 324.534 242.68Z" fill="#2399CC"/>
<path fill-rule="evenodd" clip-rule="evenodd" d="M496.349 318.221C497.731 320.26 500.406 320.511 501.902 318.524C503.941 315.787 507.004 311.103 508.731 304.014C508.965 303.13 509.191 302.207 509.401 301.248C509.59 300.293 509.697 299.307 509.821 298.281C510.055 296.231 510.217 294.036 510.287 291.7C510.309 289.372 510.062 286.94 509.785 284.362C509.621 283.08 509.491 281.749 509.211 280.418C508.916 279.095 508.588 277.74 508.221 276.359C505.726 266.608 499.424 254.445 490.76 243.742C482.166 232.94 471.38 223.718 461.795 217.144C459.515 215.614 457.054 213.576 454.314 211.751C452.977 210.802 451.641 209.827 450.343 208.859C449.044 207.893 447.663 207.09 446.427 206.239C443.923 204.572 441.744 203.038 440.053 202.128C438.41 201.143 437.408 200.544 437.408 200.544C435.768 199.539 434.338 198.874 434.235 199.064C434.13 199.254 434.044 199.41 434.044 199.41C434.044 199.41 433.959 199.565 433.854 199.756C433.751 199.946 434.99 200.912 436.609 201.901C436.609 201.901 437.586 202.509 439.189 203.511C440.828 204.455 442.915 206.067 445.241 207.895C446.39 208.826 447.662 209.73 448.823 210.821C449.984 211.914 451.154 213.04 452.29 214.164C454.628 216.34 456.544 218.839 458.09 220.967C464.596 230.141 470.232 241.935 473.983 253.311C477.838 264.704 479.859 275.572 481.878 283.419C482.175 284.536 482.492 285.617 482.828 286.669C483.149 287.722 483.371 288.767 483.679 289.77C484.239 291.784 484.968 293.671 485.581 295.477C486.147 297.288 486.776 298.998 487.448 300.615C487.796 301.422 488.135 302.208 488.465 302.973C488.756 303.739 489.059 304.482 489.368 305.206C492.006 310.971 494.406 315.381 496.349 318.221Z" fill="#2399CC"/>
<path fill-rule="evenodd" clip-rule="evenodd" d="M644.488 364.846C646.244 363.215 645.859 360.515 643.864 359.233C641.087 357.436 636.783 355.217 631.147 353.019C629.734 352.528 628.241 352.007 626.663 351.458C625.081 350.928 623.414 350.449 621.653 350.042C619.892 349.598 618.045 349.081 616.091 348.725C615.112 348.556 614.109 348.382 613.081 348.204C612.054 347.995 611.001 347.808 609.918 347.645C602.302 346.551 591.853 346.029 580.64 344.153C569.452 342.362 557.557 339.162 547.837 334.889C545.572 333.869 542.915 332.548 540.434 330.827C539.17 329.998 537.903 329.134 536.666 328.275C535.431 327.414 534.325 326.436 533.229 325.563C531.062 323.791 529.149 322.189 527.909 320.893C526.637 319.63 525.86 318.862 525.86 318.862C524.596 317.583 523.431 316.656 523.273 316.806C523.116 316.956 522.988 317.08 522.988 317.08C522.988 317.08 522.859 317.203 522.702 317.353C522.544 317.502 523.463 318.685 524.746 319.979C524.746 319.979 525.515 320.772 526.778 322.074C527.995 323.428 529.85 325.134 531.893 327.11C532.927 328.087 533.957 329.192 535.097 330.213C536.237 331.234 537.392 332.289 538.521 333.351C540.735 335.538 543.042 337.482 544.857 339.345C552.606 347.166 562.748 355.845 573.844 362.48C584.868 369.183 596.736 373.727 605.96 375.041C607.267 375.236 608.548 375.4 609.797 375.532C611.049 375.652 612.283 375.649 613.479 375.67C615.877 375.671 618.141 375.641 620.282 375.389C622.426 375.098 624.435 374.731 626.306 374.305C627.242 374.087 628.143 373.881 629.01 373.612C629.878 373.324 630.711 373.027 631.511 372.721C637.919 370.401 642.066 367.08 644.488 364.846Z" fill="#2399CC"/>
<mask id="mask0" mask-type="alpha" maskUnits="userSpaceOnUse" x="11" y="0" width="87" height="87">
<path fill-rule="evenodd" clip-rule="evenodd" d="M11.5745 0H97.8703V86.1504H11.5745V0Z" fill="white"/>
</mask>
<g mask="url(#mask0)">
<path fill-rule="evenodd" clip-rule="evenodd" d="M95.3185 84.7302C97.4728 84.0937 98.4646 81.5832 97.5018 79.5852C96.1641 76.7968 93.8302 72.917 90.3282 68.5989C88.5231 66.54 86.5372 64.1534 84.046 61.9971C82.821 60.8802 81.5391 59.6958 80.1055 58.5878C79.396 58.0221 78.6362 57.4941 77.8787 56.9185C77.1256 56.3352 76.3402 55.7585 75.5191 55.1917C69.7289 51.2411 61.2422 46.8665 52.4676 41.3584C43.6875 35.9167 34.6585 29.3128 27.717 22.6723C26.1026 21.106 24.2852 19.15 22.7044 16.9461C21.8911 15.8602 21.0844 14.7434 20.308 13.6375C19.5315 12.5317 18.8788 11.3827 18.2195 10.3167C16.9208 8.17261 15.7918 6.24544 15.1124 4.79536C14.4051 3.35746 13.9733 2.48298 13.9733 2.48298C13.2794 1.0329 12.5486 -0.0828826 12.3489 0.00456497C12.1503 0.0931194 11.9875 0.16507 11.9875 0.16507C11.9875 0.16507 11.8235 0.235914 11.6249 0.324468C11.4252 0.411916 11.8368 1.68378 12.5408 3.14936C12.5408 3.14936 12.957 4.04265 13.6408 5.50933C14.2757 7.00148 15.311 8.99949 16.4177 11.2842C16.9822 12.421 17.5144 13.6563 18.1414 14.8718C18.7706 16.0872 19.3976 17.3358 19.9978 18.5833C21.1525 21.1071 22.4065 23.4992 23.2778 25.6555C27.0264 34.7666 32.2119 45.516 38.7284 55.0854C45.1735 64.6737 52.9116 72.9801 59.8074 77.6768C60.7814 78.3487 61.7487 78.9819 62.7048 79.5763C63.6665 80.163 64.656 80.6578 65.611 81.147C67.5378 82.1012 69.3819 82.9591 71.2105 83.6066C74.9144 84.8265 78.2535 85.6954 81.384 85.9301C87.5458 86.6031 92.3486 85.5991 95.3185 84.7302Z" fill="#2399CC"/>
</g>
<path fill-rule="evenodd" clip-rule="evenodd" d="M205.765 148.434C207.3 149.86 210.03 149.783 211.415 148.206C213.327 146.025 215.961 142.427 217.79 137.283C219.644 132.153 220.727 125.442 219.502 117.41C218.447 110.341 214.949 101.232 210.329 92.2422C205.733 83.2257 200.036 74.361 195.2 67.028C192.94 63.5688 190.513 58.6111 188.511 54.57C186.572 50.5034 185.066 47.3457 185.066 47.3457C184.467 46.0312 183.815 45.0325 183.617 45.1245C183.418 45.2154 183.255 45.2897 183.255 45.2897C183.255 45.2897 183.093 45.365 182.894 45.457C182.696 45.549 183.021 46.6918 183.619 47.9963C183.619 47.9963 183.97 48.7921 184.546 50.0989C185.13 51.4023 185.849 53.2566 186.612 55.357C188.165 59.5477 189.692 64.808 190.129 68.8302C191.097 77.3868 191.315 87.4729 191.308 96.8907C191.33 106.324 191.143 115.096 192.096 121.472C193.2 128.711 195.522 134.379 198.129 138.828C200.761 143.263 203.63 146.455 205.765 148.434Z" fill="#2399CC"/>
<path fill-rule="evenodd" clip-rule="evenodd" d="M158.637 323.216C159.184 325.338 161.552 326.669 163.617 325.835C166.456 324.681 170.817 322.494 175.107 318.12C177.367 315.984 179.343 313.215 181.386 309.945C182.36 308.295 183.199 306.47 184.041 304.522C184.447 303.544 184.879 302.54 185.222 301.483C185.555 300.422 185.871 299.325 186.165 298.195C188.3 290.24 188.601 279.01 186.922 267.737C185.316 256.426 181.783 245.191 178.232 236.174C177.376 234.05 176.649 231.502 175.73 228.934C175.3 227.644 174.889 226.336 174.503 225.051C174.115 223.766 173.631 222.535 173.249 221.351C172.454 218.99 171.809 216.879 171.215 215.403C170.677 213.908 170.349 212.999 170.349 212.999C169.826 211.492 169.229 210.322 169.026 210.398C168.821 210.474 168.653 210.536 168.653 210.536C168.653 210.536 168.486 210.598 168.281 210.674C168.076 210.751 168.333 212.031 168.851 213.518C168.851 213.518 169.155 214.424 169.653 215.911C170.187 217.387 170.713 219.508 171.27 221.897C171.534 223.095 171.869 224.343 172.072 225.648C172.273 226.953 172.461 228.285 172.623 229.601C173.008 232.222 173.023 234.83 172.924 237.019C172.428 246.374 170.265 257.048 167.404 266.633C164.594 276.27 161.145 284.809 159.403 291.328C159.161 292.258 158.952 293.171 158.774 294.071C158.585 294.969 158.355 295.828 158.194 296.688C157.84 298.397 157.657 300.073 157.464 301.661C156.984 304.8 157.054 307.818 157.012 310.474C157.165 315.879 157.869 320.26 158.637 323.216Z" fill="#2399CC"/>
<path fill-rule="evenodd" clip-rule="evenodd" d="M400.668 214.543C402.746 213.691 403.43 211.069 402.357 209.198C400.843 206.636 398.481 202.902 395.334 198.895C392.161 194.848 388.27 190.532 383.016 185.952C378.434 181.893 371.592 176.992 365.404 169.966C362.308 166.479 359.372 162.481 356.913 158.203C354.449 153.933 352.47 149.39 351.122 144.998C349.817 140.877 349.388 134.913 349.779 130.07C349.978 127.65 350.265 125.504 350.58 123.981C350.842 122.449 351.093 121.534 351.093 121.534C351.484 120.024 351.631 118.739 351.422 118.679C351.212 118.619 351.042 118.57 351.042 118.57C351.042 118.57 350.87 118.522 350.66 118.462C350.451 118.401 349.955 119.616 349.557 121.163C349.557 121.163 349.303 122.097 348.977 123.652C348.599 125.197 348.188 127.368 347.748 129.825C346.877 134.743 346.346 140.841 345.785 145.415C345.148 150.276 344.818 155.727 345.134 161.45C345.44 167.166 346.4 173.148 348.127 178.913C349.843 184.682 352.318 190.181 355.24 194.912C358.156 199.653 361.511 203.623 364.799 206.546C372.363 213.157 380.383 215.833 386.69 216.437C393.067 217.043 397.802 215.756 400.668 214.543Z" fill="#81DC6C"/>
<path fill-rule="evenodd" clip-rule="evenodd" d="M686.156 418.697C687.671 420.492 690.377 420.615 691.761 418.68C693.638 416.024 696.476 411.42 697.642 404.542C697.809 403.682 697.965 402.786 698.103 401.855C698.214 400.929 698.229 399.985 698.266 398.998C698.318 397.03 698.284 394.924 698.141 392.69C697.942 390.474 697.44 388.195 696.902 385.776C696.604 384.579 696.345 383.322 695.916 382.1C695.474 380.883 694.994 379.643 694.474 378.383C693.544 376.174 692.527 373.772 691.025 371.456C690.311 370.279 689.557 369.081 688.77 367.868C688.372 367.266 687.971 366.656 687.565 366.04C687.141 365.436 686.655 364.861 686.191 364.266C685.251 363.086 684.28 361.898 683.285 360.705C682.294 359.51 681.294 358.304 680.128 357.203C678.997 356.089 677.851 354.965 676.693 353.827C676.114 353.271 675.531 352.712 674.947 352.151C674.344 351.61 673.692 351.107 673.065 350.587C671.799 349.572 670.526 348.547 669.248 347.523C668.604 347.024 667.988 346.501 667.323 346.031L665.288 344.666C662.561 342.877 659.962 341.036 657.117 339.603C655.74 338.857 654.37 338.116 653.018 337.383C652.358 337.005 651.669 336.675 650.962 336.38C650.268 336.073 649.579 335.768 648.895 335.465C647.541 334.867 646.207 334.278 644.896 333.699C643.622 333.082 642.23 332.717 640.961 332.229C638.529 331.389 635.843 330.1 632.919 329.148C631.483 328.624 630.044 328.073 628.643 327.519C627.239 326.968 625.787 326.625 624.463 326.178C623.133 325.749 621.878 325.346 620.742 324.981C619.625 324.561 618.552 324.428 617.694 324.184C615.964 323.758 614.91 323.499 614.91 323.499C613.175 323.052 611.721 322.862 611.678 323.076C611.635 323.29 611.599 323.466 611.599 323.466C611.599 323.466 611.564 323.64 611.52 323.854C611.478 324.069 612.835 324.601 614.537 325.038C614.537 325.038 615.565 325.313 617.256 325.766C618.09 326.03 619.129 326.201 620.206 326.676C621.292 327.111 622.491 327.594 623.763 328.104C625.016 328.65 626.382 329.118 627.677 329.824C628.971 330.532 630.279 331.266 631.555 332.01C634.157 333.397 636.405 335.259 638.237 336.846C639.188 337.731 640.229 338.501 641.126 339.526C642.039 340.504 642.969 341.5 643.909 342.51C644.371 343.01 644.837 343.515 645.306 344.023C645.782 344.513 646.234 345.04 646.652 345.612C647.504 346.714 648.363 347.827 649.23 348.948C651.014 351.091 652.475 353.581 654.016 355.907L655.156 357.656C655.523 358.247 655.836 358.885 656.176 359.491C656.843 360.703 657.508 361.91 658.167 363.111C663.314 372.771 666.387 382.229 669.084 388.919C669.478 389.87 669.889 390.789 670.318 391.676C670.735 392.567 671.032 393.469 671.423 394.32C672.144 396.036 673.035 397.618 673.791 399.15C674.489 400.693 675.248 402.143 676.045 403.513C676.456 404.198 676.856 404.863 677.245 405.511C677.59 406.167 677.942 406.804 678.303 407.421C681.368 412.337 684.026 416.194 686.156 418.697Z" fill="#F2A877"/>
<path fill-rule="evenodd" clip-rule="evenodd" d="M788.587 470.559C790.847 469.064 790.735 466.362 788.449 464.959C785.273 463.013 780.187 460.411 773.205 457.989C766.211 455.565 757.35 453.415 746.263 452.121C741.379 451.554 735.638 451.187 729.349 450.846C723.067 450.469 716.239 450.098 709.21 449.555C702.205 449.032 694.9 448.278 687.979 447.337C681.087 446.316 674.388 444.951 668.464 442.874C665.667 441.924 662.495 440.427 659.43 438.551C656.414 436.622 653.44 434.389 651.14 431.986C649.935 430.838 648.985 429.583 648.04 428.518C647.219 427.362 646.466 426.333 645.875 425.45C644.825 423.598 644.186 422.473 644.186 422.473C643.309 420.527 642.458 418.98 642.25 419.057C642.048 419.134 641.883 419.199 641.883 419.199C641.883 419.199 641.717 419.262 641.516 419.34C641.318 419.411 641.864 421.151 642.784 423.181C642.784 423.181 643.431 424.363 644.493 426.308C645.099 427.234 645.822 428.343 646.632 429.582C647.558 430.729 648.485 432.096 649.652 433.374C651.882 436.045 654.735 438.643 657.59 441.11C660.49 443.519 663.452 445.717 665.967 447.586C671.291 451.624 677.555 455.401 684.197 458.918C690.87 462.354 697.702 465.582 704.66 468.425C711.588 471.271 718.529 473.722 725.077 475.612C731.631 477.465 737.787 478.779 743.116 479.398C755.239 480.812 765.184 479.55 772.717 477.526C780.272 475.499 785.461 472.628 788.587 470.559Z" fill="#7EE6AC"/>
</g>
</svg>
