<svg width="951" height="913" viewBox="0 0 951 913" fill="none" xmlns="http://www.w3.org/2000/svg">
<g opacity="0.315901">
<path fill-rule="evenodd" clip-rule="evenodd" d="M93.3084 602.168C86.3456 610.328 91.5209 641.862 98.2648 651.866C122.406 687.673 143.019 677.002 156.462 696.04C160.881 702.298 159.524 719.692 159.865 722.364C159.968 723.169 164.061 722.421 165.568 720.11C167.828 716.642 165.642 710.071 165.908 708.52C165.97 708.155 165.958 707.875 166.458 708.209C167.444 708.872 169.464 712.993 172.87 715.703C175.16 717.524 179.777 715.413 179.997 714.549C180.218 713.685 166.9 701.671 161.686 691.312C150.69 669.463 146.162 649.9 130.647 627.928C120.36 613.358 96.1851 598.797 93.3084 602.168Z" fill="#FDFDFD"/>
<path fill-rule="evenodd" clip-rule="evenodd" d="M576.962 48.6521C574.759 56.5076 556.15 65.9835 548.64 65.6688C521.757 64.5439 521.013 46.7824 506.529 45.7884C501.767 45.4612 492.828 53.429 491.282 54.2952C490.817 54.5559 489.93 51.5874 490.701 49.6658C491.856 46.7824 500.893 44.7612 501.644 43.9562C501.821 43.7661 501.976 43.6602 501.638 43.4722C500.971 43.0993 493.307 44.2314 490.775 43.118C489.074 42.3701 488.757 38.5052 489.153 38.0097C489.548 37.5143 500.211 41.2888 507.431 40.462C522.658 38.7191 534.618 33.6982 551.335 34.8449C562.42 35.6052 577.871 45.4062 576.962 48.6521Z" fill="white"/>
<path fill-rule="evenodd" clip-rule="evenodd" d="M441.997 64.8159C442.272 72.2454 422.818 89.2621 413.384 92.8008C379.617 105.468 371.9 91.5591 353.557 98.0725C347.527 100.215 339.489 111.134 337.903 112.612C337.426 113.057 335.191 111.117 335.412 109.182C335.742 106.28 337.228 104.678 337.851 103.651C337.998 103.41 338.15 103.246 337.659 103.265C336.689 103.303 336.564 103.497 332.998 103.88C330.602 104.137 328.731 101.189 329.032 100.591C329.334 99.9921 344 97.6446 352.637 93.3342C370.854 84.2445 383.765 74.1681 404.934 66.6501C418.972 61.6651 441.884 61.7463 441.997 64.8159Z" fill="white"/>
<path fill-rule="evenodd" clip-rule="evenodd" d="M203.195 125.18C208.159 132.158 201.939 156.943 195.928 164.459C174.405 191.364 158.805 181.457 146.88 195.72C142.961 200.409 142.863 214.366 142.414 216.472C142.279 217.106 139.088 216.232 138.051 214.288C136.495 211.371 138.668 206.281 138.562 205.027C138.537 204.732 138.566 204.509 138.148 204.742C137.321 205.203 135.446 208.351 132.567 210.279C130.631 211.576 127.117 209.579 127.001 208.876C126.886 208.172 138.237 199.5 143.062 191.596C153.238 174.926 158.139 159.64 171.901 143.179C181.027 132.263 201.145 122.298 203.195 125.18Z" fill="white"/>
<path fill-rule="evenodd" clip-rule="evenodd" d="M325.404 72.3446C328.417 80.0554 319.342 98.9761 313.169 103.25C291.072 118.546 279.703 104.565 267.562 112.491C263.57 115.097 261.284 126.961 260.578 128.597C260.366 129.09 257.859 127.213 257.306 125.186C256.477 122.148 262.448 115.056 262.558 113.948C262.584 113.688 262.643 113.508 262.26 113.559C261.502 113.659 256.084 119.201 253.392 119.823C251.583 120.241 248.985 117.292 249 116.65C249.015 116.009 259.798 112.645 265.048 107.62C276.119 97.0218 282.6 85.7306 296.611 76.5817C305.903 70.5148 324.159 69.1601 325.404 72.3446Z" fill="white"/>
<path fill-rule="evenodd" clip-rule="evenodd" d="M203.19 178.9C207.506 183.925 203.337 206.652 198.701 214.386C182.102 242.075 168.983 236.689 159.764 251.474C156.733 256.334 157.17 268.435 156.88 270.35C156.793 270.927 154.153 270.823 153.232 269.351C151.853 267.145 152.004 265.198 151.87 264.134C151.84 263.884 151.854 263.685 151.521 263.972C150.863 264.539 150.884 264.745 148.602 267.004C147.068 268.521 144.123 267.511 144.001 266.926C143.88 266.34 152.839 256.513 156.491 248.684C164.192 232.175 167.633 217.941 178.274 200.878C185.33 189.564 201.407 176.825 203.19 178.9Z" fill="white"/>
<path fill-rule="evenodd" clip-rule="evenodd" d="M491.12 812.645C496.356 824.284 532.64 834.607 546.7 832.369C597.036 824.363 595.942 796.713 623.009 791.798C631.906 790.183 649.813 800.425 652.838 801.404C653.748 801.701 654.997 796.9 653.282 794.108C650.707 789.917 642.592 788.962 641.068 787.891C640.709 787.64 640.403 787.513 641.01 787.142C642.212 786.41 647.626 786.308 652.225 783.997C655.315 782.442 655.37 776.39 654.555 775.715C653.743 775.041 634.247 783.364 620.568 783.769C591.724 784.622 568.557 779.641 537.32 785.313C516.605 789.073 488.956 807.837 491.12 812.645Z" fill="white"/>
<path fill-rule="evenodd" clip-rule="evenodd" d="M403.071 777.291C406.273 786.584 428.938 796.569 437.763 795.613C469.359 792.189 468.863 770.737 485.857 768.425C491.443 767.664 502.594 776.575 504.483 777.5C505.052 777.779 505.867 774.134 504.81 771.878C503.226 768.494 492.42 766.754 491.473 765.841C491.25 765.627 491.058 765.512 491.442 765.258C492.2 764.758 501.32 765.533 504.217 763.997C506.165 762.964 506.241 758.285 505.736 757.718C505.23 757.152 492.956 762.517 484.384 762.078C466.304 761.149 451.82 756.021 432.207 758.687C419.202 760.456 401.749 773.452 403.071 777.291Z" fill="white"/>
<path fill-rule="evenodd" clip-rule="evenodd" d="M535.051 747.979C538.263 756.185 567.281 765.327 579.126 764.64C621.53 762.178 623.285 743.356 646.145 741.622C653.66 741.051 667.485 749.055 669.893 749.899C670.618 750.153 672.112 746.971 670.962 744.975C669.236 741.98 666.878 740.953 665.719 740.136C665.446 739.945 665.205 739.84 665.744 739.624C666.808 739.198 667.035 739.35 671.061 738.053C673.767 737.181 674.395 733.079 673.787 732.573C673.18 732.067 656.252 736.563 644.9 736.03C620.96 734.906 602.277 730.161 575.894 732.164C558.399 733.493 533.724 744.591 535.051 747.979Z" fill="#FDFDFD"/>
<path fill-rule="evenodd" clip-rule="evenodd" d="M702.277 718.411C709.742 728.591 747.331 731.217 760.643 726.212C808.299 708.297 801.67 681.822 827.173 671.601C835.558 668.241 855.143 674.509 858.302 674.842C859.252 674.944 859.509 670.056 857.268 667.706C853.906 664.181 845.771 664.901 844.064 664.176C843.662 664.005 843.337 663.943 843.858 663.463C844.886 662.513 850.165 661.322 854.201 658.158C856.913 656.032 855.75 650.176 854.818 649.691C853.886 649.204 836.477 661.185 823.171 664.342C795.111 671 771.433 670.878 742 682.673C722.481 690.495 699.193 714.207 702.277 718.411Z" fill="white"/>
<path fill-rule="evenodd" clip-rule="evenodd" d="M667.279 780.88C672.961 788.771 697.33 791.699 705.444 788.245C734.492 775.881 727.929 755.677 743.418 748.58C748.51 746.247 761.635 751.481 763.692 751.813C764.311 751.912 764.052 748.22 762.408 746.386C759.941 743.634 749.18 745.101 748.02 744.51C747.749 744.371 747.533 744.316 747.826 743.965C748.404 743.273 757.29 741.375 759.606 739.082C761.163 737.541 759.905 733.082 759.265 732.689C758.624 732.298 748.487 740.93 740.216 742.985C722.773 747.324 707.556 746.637 689.68 754.828C677.825 760.258 664.932 777.62 667.279 780.88Z" fill="white"/>
<path fill-rule="evenodd" clip-rule="evenodd" d="M751.473 656.64C759.026 661.058 787.644 650.401 796.632 642.611C828.806 614.725 818.727 599.001 835.823 583.648C841.443 578.601 857.302 576.364 859.728 575.545C860.46 575.298 859.706 571.907 857.575 571.058C854.38 569.784 851.881 570.43 850.462 570.504C850.13 570.522 849.873 570.587 850.171 570.09C850.756 569.108 851.028 569.087 853.434 565.611C855.053 563.275 853.05 559.698 852.258 559.676C851.468 559.656 840.765 573.522 831.427 580.06C811.729 593.847 793.999 601.597 774.268 619.315C761.184 631.066 748.354 654.814 751.473 656.64Z" fill="white"/>
<path fill-rule="evenodd" clip-rule="evenodd" d="M124.612 380.946C114.369 388.35 111.415 426.06 116.301 439.468C133.795 487.466 160.325 481.046 170.32 506.738C173.606 515.184 167.169 534.79 166.807 537.956C166.698 538.909 171.581 539.212 173.951 536.983C177.505 533.638 176.855 525.466 177.595 523.758C177.77 523.358 177.834 523.031 178.31 523.559C179.25 524.599 180.397 529.908 183.524 533.988C185.626 536.731 191.491 535.613 191.985 534.682C192.479 533.752 180.653 516.169 177.613 502.784C171.201 474.557 171.531 450.79 159.996 421.138C152.346 401.475 128.842 377.887 124.612 380.946Z" fill="white"/>
<path fill-rule="evenodd" clip-rule="evenodd" d="M108.468 312.771C117.494 316.424 126.237 339.53 124.855 348.29C119.904 379.647 98.7276 378.099 95.6002 394.941C94.5721 400.478 102.826 412.042 103.646 413.973C103.893 414.554 100.251 415.188 98.0735 414.023C94.808 412.276 93.6241 401.408 92.7698 400.417C92.5686 400.185 92.4633 399.988 92.1947 400.359C91.6627 401.091 91.9756 410.229 90.3144 413.044C89.1978 414.936 84.5694 414.781 84.0342 414.25C83.4991 413.718 89.4117 401.735 89.4011 393.159C89.3801 375.073 85.0297 360.369 88.6374 340.93C91.0307 328.039 104.739 311.263 108.468 312.771Z" fill="white"/>
<path fill-rule="evenodd" clip-rule="evenodd" d="M195.027 727.962C194.026 740.593 220.862 767.126 234.257 772.001C282.207 789.451 294.526 764.947 320.6 773.803C329.173 776.713 339.944 794.272 342.124 796.588C342.78 797.286 346.179 793.73 346.017 790.475C345.774 785.594 339.122 780.834 338.3 779.167C338.107 778.775 337.899 778.516 338.611 778.49C340.014 778.437 344.806 780.972 349.946 781.196C353.4 781.347 356.354 776.125 355.965 775.145C355.576 774.167 334.496 771.936 322.318 765.658C296.634 752.418 278.726 736.872 248.633 726.652C228.677 719.874 195.44 722.744 195.027 727.962Z" fill="white"/>
<path fill-rule="evenodd" clip-rule="evenodd" d="M185.93 571.413C179.979 579.127 184.049 603.525 189.644 610.404C209.671 635.031 227.158 623.004 238.319 635.995C241.988 640.265 240.68 654.433 240.943 656.518C241.021 657.144 244.481 655.855 245.774 653.749C247.713 650.591 243.273 640.592 243.512 639.303C243.569 639.001 243.56 638.777 243.979 638.962C244.804 639.327 249.127 647.39 251.975 648.986C253.889 650.061 257.803 647.59 257.998 646.86C258.191 646.13 247.071 638.749 242.769 631.326C233.7 615.67 230.064 600.756 217.183 585.763C208.642 575.82 188.387 568.226 185.93 571.413Z" fill="white"/>
<path fill-rule="evenodd" clip-rule="evenodd" d="M153.209 642.655C150.879 651.053 168.563 675.762 178.416 682.368C213.688 706.019 226.304 692.26 245.564 704.689C251.894 708.774 258.145 723.418 259.562 725.535C259.989 726.173 263.077 724.57 263.349 722.304C263.759 718.905 262.49 716.673 262.053 715.331C261.95 715.017 261.82 714.788 262.378 714.943C263.48 715.25 263.57 715.506 267.553 716.914C270.231 717.861 273.175 715.01 272.992 714.244C272.808 713.481 256.634 706.804 247.903 699.536C229.488 684.204 217.422 669.194 195.196 654.851C180.456 645.339 154.171 639.186 153.209 642.655Z" fill="white"/>
<path fill-rule="evenodd" clip-rule="evenodd" d="M79.032 440.864C73.8485 445.887 76.0217 471.058 80.2411 479.958C95.346 511.82 110.086 507.318 118.539 524.367C121.317 529.971 119.601 543.098 119.718 545.213C119.752 545.851 122.619 546.01 123.764 544.506C125.484 542.246 125.52 540.111 125.774 538.965C125.834 538.698 125.837 538.478 126.168 538.827C126.821 539.513 126.778 539.734 129.014 542.429C130.517 544.24 133.806 543.447 133.997 542.821C134.189 542.196 125.51 530.57 122.364 521.67C115.732 502.9 113.473 487.048 103.719 467.372C97.2499 454.323 81.1726 438.789 79.032 440.864Z" fill="white"/>
<path fill-rule="evenodd" clip-rule="evenodd" d="M18.6193 396.717C15.3969 398.512 13.268 411.088 14.2347 415.975C17.6937 433.464 25.6103 433.138 27.6451 442.544C28.315 445.636 25.7857 451.832 25.5744 452.881C25.5099 453.196 26.9172 453.639 27.68 453.049C28.8242 452.163 29.1158 451.125 29.3874 450.597C29.4518 450.474 29.4814 450.367 29.6018 450.58C29.8395 450.997 29.7899 451.101 30.5601 452.701C31.0778 453.777 32.8168 453.807 32.9922 453.526C33.1676 453.245 30.3277 446.461 29.8955 441.712C28.9869 431.697 29.8829 423.663 27.5342 412.807C25.9769 405.609 19.9505 395.975 18.6193 396.717Z" fill="white"/>
<path fill-rule="evenodd" clip-rule="evenodd" d="M137.555 558.994C132.574 564.537 135.652 586.491 140.177 593.538C156.378 618.77 170.895 611.711 179.931 625.136C182.902 629.55 181.669 641.587 181.862 643.446C181.92 644.006 184.78 643.555 185.867 641.977C187.497 639.612 186.086 635.018 186.296 633.947C186.345 633.695 186.341 633.499 186.683 633.741C187.358 634.216 188.695 637.108 191.02 639.044C192.583 640.344 195.83 638.957 195.998 638.362C196.166 637.766 187.1 629.214 183.645 621.945C176.357 606.611 173.532 592.971 163.104 577.477C156.187 567.202 139.612 556.703 137.555 558.994Z" fill="white"/>
<path fill-rule="evenodd" clip-rule="evenodd" d="M10.0331 468.697C5.45761 469.955 -0.14178 480.893 0.00274079 485.327C0.520349 501.203 10.8366 501.735 11.3399 510.292C11.5059 513.104 6.83107 518.339 6.32064 519.247C6.16689 519.521 7.88679 520.06 9.0081 519.615C10.688 518.948 11.9088 513.624 12.3802 513.186C12.4909 513.081 12.5535 512.99 12.6611 513.191C12.8743 513.587 12.1773 518.105 12.8118 519.605C13.2381 520.614 15.4818 520.822 15.7719 520.591C16.0609 520.36 13.9228 514.045 14.4394 509.787C15.5289 500.808 18.5075 493.775 17.9253 483.9C17.5399 477.351 11.9231 468.178 10.0331 468.697Z" fill="white"/>
<path fill-rule="evenodd" clip-rule="evenodd" d="M106.568 547.733C102.929 550.024 101.089 565.061 102.447 570.813C107.311 591.406 116.45 590.626 119.268 601.693C120.195 605.33 117.575 612.812 117.382 614.068C117.324 614.446 118.973 614.902 119.825 614.163C121.106 613.055 121.391 611.807 121.679 611.168C121.747 611.018 121.776 610.891 121.927 611.136C122.223 611.621 122.169 611.745 123.139 613.607C123.791 614.86 125.804 614.81 125.993 614.468C126.181 614.124 122.562 606.211 121.829 600.594C120.283 588.748 120.923 579.166 117.672 566.395C115.516 557.926 108.071 546.787 106.568 547.733Z" fill="#FDFDFD"/>
<path fill-rule="evenodd" clip-rule="evenodd" d="M252.106 567.025C250.954 572.652 259.464 584.481 264.224 586.656C281.264 594.442 287.417 583.528 296.723 587.479C299.782 588.778 302.775 596.604 303.456 597.637C303.661 597.948 305.162 596.364 305.3 594.914C305.507 592.739 300.549 588.616 300.34 587.873C300.292 587.699 300.229 587.583 300.5 587.571C301.032 587.548 305.425 590.68 307.352 590.781C308.648 590.848 310.084 588.523 309.996 588.086C309.91 587.65 302.085 586.652 297.871 583.851C288.981 577.946 283.17 571.016 272.431 566.454C265.309 563.43 252.582 564.701 252.106 567.025Z" fill="white"/>
<path fill-rule="evenodd" clip-rule="evenodd" d="M254.152 626.207C252.641 631.109 262.732 645.913 268.467 649.949C288.993 664.402 296.682 656.507 307.897 664.113C311.584 666.613 315.059 675.32 315.865 676.588C316.108 676.97 317.963 676.074 318.159 674.746C318.454 672.754 317.737 671.422 317.499 670.626C317.443 670.439 317.371 670.302 317.699 670.403C318.346 670.6 318.396 670.752 320.734 671.642C322.305 672.24 324.093 670.608 323.996 670.157C323.9 669.704 314.423 665.528 309.363 661.119C298.693 651.819 291.778 642.805 278.834 634.027C270.251 628.206 254.776 624.181 254.152 626.207Z" fill="white"/>
<path fill-rule="evenodd" clip-rule="evenodd" d="M422.003 712.044C422.638 719.445 440.766 732.22 449.01 733.757C478.518 739.256 483.308 723.902 499.295 726.527C504.55 727.389 512.491 736.513 513.98 737.644C514.428 737.984 516.058 735.602 515.651 733.735C515.04 730.935 510.72 728.819 510.083 727.933C509.934 727.726 509.788 727.595 510.198 727.512C511.007 727.347 514.033 728.355 517.038 727.991C519.057 727.748 520.269 724.444 519.949 723.916C519.629 723.388 507.18 724.116 499.508 721.652C483.328 716.455 471.437 709.179 452.988 706.15C440.754 704.141 421.74 708.986 422.003 712.044Z" fill="#FDFDFD"/>
<path fill-rule="evenodd" clip-rule="evenodd" d="M347.016 671.387C348.198 677.056 360.611 684.573 365.795 684.67C384.352 685.014 385.617 672.44 395.632 672.35C398.925 672.322 404.742 678.356 405.77 679.038C406.079 679.242 406.815 677.173 406.366 675.776C405.693 673.68 399.557 671.862 399.073 671.259C398.96 671.116 398.858 671.035 399.098 670.916C399.573 670.68 404.802 671.808 406.592 671.127C407.796 670.668 408.178 667.939 407.927 667.57C407.674 667.202 400.174 669.426 395.237 668.533C384.826 666.648 376.804 662.576 365.246 662.678C357.58 662.748 346.527 669.046 347.016 671.387Z" fill="white"/>
<path fill-rule="evenodd" clip-rule="evenodd" d="M455.029 602.819C456.881 607.572 473.937 612.998 480.923 612.662C505.928 611.456 507.058 600.599 520.54 599.714C524.973 599.421 533.082 604.113 534.495 604.613C534.923 604.763 535.819 602.933 535.151 601.775C534.149 600.038 532.763 599.432 532.085 598.955C531.926 598.844 531.783 598.781 532.103 598.66C532.732 598.419 532.865 598.507 535.244 597.779C536.844 597.289 537.234 594.925 536.879 594.63C536.523 594.334 526.522 596.845 519.834 596.479C505.731 595.708 494.742 592.873 479.182 593.896C468.863 594.574 454.264 600.855 455.029 602.819Z" fill="white"/>
<path fill-rule="evenodd" clip-rule="evenodd" d="M438.08 662.633C442.424 672.106 477.623 681.058 491.717 679.499C542.169 673.921 543.092 651.615 570.264 648.124C579.196 646.977 596.194 655.545 599.122 656.387C600.003 656.641 601.588 652.794 600.09 650.513C597.844 647.091 594.964 646.028 593.532 645.139C593.196 644.93 592.899 644.821 593.53 644.533C594.774 643.965 595.053 644.128 599.777 642.345C602.953 641.146 603.444 636.268 602.689 635.711C601.932 635.152 582.01 641.522 568.431 641.61C539.79 641.795 517.198 637.379 485.837 641.405C465.04 644.076 436.285 658.719 438.08 662.633Z" fill="white"/>
<path fill-rule="evenodd" clip-rule="evenodd" d="M596.078 705.573C599.714 713.969 625.986 721.901 636.265 720.519C673.056 715.574 672.685 695.805 692.478 692.711C698.983 691.693 711.871 699.287 714.06 700.032C714.718 700.258 715.703 696.849 714.495 694.826C712.685 691.793 706.788 690.986 705.694 690.199C705.437 690.013 705.216 689.917 705.664 689.662C706.55 689.157 710.495 689.169 713.881 687.587C716.157 686.525 716.289 682.201 715.708 681.707C715.125 681.213 700.794 686.859 690.825 686.938C669.798 687.103 652.999 683.188 630.156 686.759C615.007 689.126 594.577 702.105 596.078 705.573Z" fill="white"/>
<path fill-rule="evenodd" clip-rule="evenodd" d="M520.004 699.63C520.66 706.602 534.953 717.399 541.356 718.258C564.281 721.331 567.641 706.425 580.052 707.752C584.132 708.188 590.472 716.264 591.647 717.227C592.001 717.518 593.208 715.14 592.851 713.4C592.317 710.789 584.981 707.727 584.468 706.934C584.348 706.747 584.232 706.634 584.548 706.525C585.169 706.311 591.482 708.416 593.795 707.853C595.35 707.476 596.214 704.256 595.954 703.777C595.696 703.299 586.092 704.893 580.108 703.114C567.49 699.36 558.139 693.324 543.816 691.792C534.318 690.775 519.733 696.749 520.004 699.63Z" fill="white"/>
<path fill-rule="evenodd" clip-rule="evenodd" d="M804.197 526.676C811.518 526.754 825.755 510.353 828.036 502.495C836.206 474.366 821.593 468.275 825.671 453.002C827.011 447.982 836.708 441.128 837.957 439.789C838.333 439.385 836.15 437.58 834.279 437.8C831.476 438.13 828.994 442.125 828.065 442.661C827.847 442.787 827.706 442.915 827.663 442.51C827.578 441.708 828.851 438.866 828.776 435.915C828.726 433.932 825.6 432.445 825.051 432.706C824.502 432.968 824.047 445.121 820.909 452.339C814.289 467.558 806.033 478.418 801.328 496.044C798.207 507.733 801.173 526.645 804.197 526.676Z" fill="white"/>
<path fill-rule="evenodd" clip-rule="evenodd" d="M693.167 645.147C697.017 651.097 714.715 654.162 720.777 651.966C742.477 644.105 738.453 629.178 750.043 624.619C753.853 623.121 763.245 627.427 764.736 627.748C765.185 627.844 765.136 625.153 764.004 623.758C762.307 621.662 754.387 622.315 753.562 621.84C753.368 621.729 753.213 621.681 753.441 621.437C753.889 620.956 760.455 619.921 762.236 618.345C763.433 617.285 762.685 613.997 762.231 613.688C761.778 613.38 754.038 619.258 747.916 620.433C735.004 622.911 723.909 621.828 710.532 627.087C701.661 630.576 691.576 642.69 693.167 645.147Z" fill="white"/>
<path fill-rule="evenodd" clip-rule="evenodd" d="M782.362 584.005C787.868 587.095 808.263 578.848 814.592 573.022C837.25 552.165 829.736 540.886 841.767 529.413C845.721 525.643 857.085 523.744 858.816 523.107C859.337 522.915 858.739 520.457 857.193 519.875C854.873 519.001 853.086 519.515 852.069 519.593C851.829 519.611 851.646 519.664 851.851 519.297C852.256 518.57 852.451 518.55 854.122 515.978C855.245 514.249 853.745 511.678 853.176 511.676C852.606 511.675 845.148 521.955 838.544 526.875C824.616 537.251 812 543.196 798.115 556.436C788.908 565.214 780.088 582.729 782.362 584.005Z" fill="white"/>
<path fill-rule="evenodd" clip-rule="evenodd" d="M777.07 313.672C769.219 313.988 753.415 296.876 750.713 288.533C741.043 258.669 756.524 251.683 751.658 235.457C750.058 230.123 739.433 223.091 738.05 221.697C737.633 221.278 739.918 219.274 741.931 219.451C744.95 219.715 747.742 223.914 748.755 224.458C748.993 224.586 749.15 224.72 749.182 224.284C749.248 223.423 747.792 220.42 747.776 217.257C747.764 215.132 751.072 213.441 751.669 213.703C752.266 213.964 753.147 226.965 756.746 234.594C764.339 250.684 773.546 262.052 779.163 280.777C782.887 293.196 780.313 313.542 777.07 313.672Z" fill="white"/>
<path fill-rule="evenodd" clip-rule="evenodd" d="M757.117 505.524C766.17 507.456 787.958 490.593 792.772 481.376C810.004 448.38 793.434 437.13 802.346 419.125C805.275 413.207 819.025 407.099 820.911 405.744C821.479 405.337 819.23 402.539 816.856 402.345C813.297 402.054 809.213 406.408 807.927 406.843C807.624 406.944 807.417 407.07 807.465 406.552C807.562 405.533 809.857 402.311 810.512 398.617C810.951 396.133 807.452 393.498 806.706 393.686C805.96 393.873 802.325 408.899 796.612 417.104C784.562 434.404 771.587 445.865 761.302 466.642C754.482 480.421 753.379 504.725 757.117 505.524Z" fill="white"/>
<path fill-rule="evenodd" clip-rule="evenodd" d="M847.37 426.657C840.41 425.201 831.146 409.761 831.011 403.304C830.529 380.188 845.955 378.574 846.033 366.097C846.058 361.995 838.634 354.768 837.796 353.489C837.542 353.104 840.08 352.181 841.795 352.736C844.368 353.568 846.62 361.206 847.362 361.807C847.537 361.948 847.638 362.076 847.784 361.775C848.071 361.183 846.669 354.672 847.5 352.44C848.058 350.939 851.407 350.454 851.86 350.766C852.313 351.08 849.606 360.431 850.719 366.577C853.065 379.54 858.088 389.521 857.999 403.92C857.939 413.469 850.245 427.259 847.37 426.657Z" fill="white"/>
<path fill-rule="evenodd" clip-rule="evenodd" d="M785.143 411.674C780.985 411.144 773.288 398.435 772.178 392.708C768.202 372.211 776.642 369.083 774.686 357.983C774.044 354.334 768.699 348.724 768.021 347.678C767.818 347.365 769.1 346.265 770.156 346.57C771.74 347.027 772.496 348.026 773.011 348.479C773.132 348.585 773.209 348.687 773.243 348.404C773.31 347.846 773.214 347.756 773.325 345.681C773.4 344.286 775.21 343.488 775.516 343.715C775.821 343.943 775.793 352.554 777.405 357.895C780.805 369.162 785.237 377.484 787.493 390.294C788.989 398.79 786.861 411.893 785.143 411.674Z" fill="white"/>
<path fill-rule="evenodd" clip-rule="evenodd" d="M663.061 874.28C665.446 877.941 680.789 879.608 686.63 878.152C707.541 872.943 706.621 863.681 717.854 860.675C721.548 859.688 729.206 862.244 730.487 862.423C730.874 862.478 731.316 860.799 730.551 859.943C729.404 858.659 728.13 858.387 727.475 858.102C727.321 858.036 727.19 858.008 727.439 857.852C727.927 857.546 728.056 857.598 729.94 856.589C731.206 855.911 731.128 853.869 730.777 853.683C730.425 853.496 722.413 857.273 716.7 858.093C704.655 859.819 694.886 859.297 681.919 862.766C673.321 865.066 662.075 872.768 663.061 874.28Z" fill="white"/>
<path fill-rule="evenodd" clip-rule="evenodd" d="M685.713 81.3091C681.395 84.6468 665.473 81.2732 660.544 77.6159C642.9 64.5232 648.822 54.3222 639.455 47.0529C636.377 44.6621 627.494 44.9384 626.142 44.7022C625.735 44.6305 626.213 42.572 627.426 41.8633C629.243 40.7992 632.535 42.0636 633.33 41.9656C633.518 41.9424 633.661 41.9561 633.501 41.6945C633.187 41.1788 631.14 40.0568 629.842 38.265C628.97 37.0607 630.154 34.7691 630.599 34.6773C631.045 34.5856 636.838 41.6249 641.986 44.5156C652.841 50.6111 662.686 53.3709 673.497 61.7612C680.665 67.3252 687.497 79.9297 685.713 81.3091Z" fill="white"/>
<path fill-rule="evenodd" clip-rule="evenodd" d="M731.101 836.701C733.121 839.427 741.693 840.374 744.534 839.15C754.704 834.765 752.339 827.763 757.76 825.251C759.543 824.425 764.17 826.205 764.894 826.314C765.113 826.348 765.01 825.065 764.427 824.432C763.552 823.482 759.775 824.024 759.366 823.823C759.27 823.775 759.194 823.756 759.296 823.633C759.497 823.392 762.613 822.705 763.421 821.902C763.964 821.361 763.509 819.815 763.283 819.681C763.056 819.546 759.519 822.577 756.619 823.316C750.502 824.874 745.154 824.681 738.896 827.58C734.746 829.502 730.267 835.576 731.101 836.701Z" fill="white"/>
<path fill-rule="evenodd" clip-rule="evenodd" d="M634.904 68.2213C632.557 69.8682 621.372 66.7033 617.487 64.1847C603.581 55.167 605.892 49.5968 598.459 44.6219C596.015 42.9855 590.123 42.4909 589.182 42.2519C588.899 42.1802 588.886 41.003 589.582 40.6747C590.625 40.1822 591.578 40.3609 592.094 40.3619C592.214 40.363 592.313 40.3806 592.165 40.2144C591.872 39.8871 591.773 39.885 590.616 38.7338C589.839 37.9597 590.26 36.6973 590.543 36.6765C590.825 36.6557 595.835 41.2305 599.741 43.3138C607.979 47.7068 615.007 50.0612 623.584 55.8029C629.274 59.6109 635.874 67.5418 634.904 68.2213Z" fill="white"/>
<path fill-rule="evenodd" clip-rule="evenodd" d="M879.725 172.647C876.851 173.204 867.767 165.758 865.208 161.869C856.046 147.947 860.532 143.773 855.7 136.189C854.111 133.696 848.835 130.849 848.059 130.247C847.826 130.067 848.308 128.981 849.092 128.963C850.269 128.934 851.082 129.485 851.562 129.696C851.674 129.745 851.756 129.801 851.689 129.589C851.553 129.17 851.461 129.127 850.867 127.601C850.469 126.575 851.391 125.588 851.661 125.683C851.933 125.779 854.678 132.012 857.44 135.51C863.266 142.887 868.818 147.9 874.395 156.653C878.093 162.458 880.913 172.416 879.725 172.647Z" fill="white"/>
<path fill-rule="evenodd" clip-rule="evenodd" d="M442.994 19.4766C442.21 24.8827 428.435 33.4766 422.357 34.247C400.599 37.0051 397.771 25.5262 385.999 26.7602C382.13 27.1656 375.942 33.5199 374.807 34.2851C374.466 34.5159 373.381 32.6965 373.759 31.344C374.326 29.314 377.567 27.9477 378.071 27.3264C378.188 27.1793 378.3 27.0904 378.005 27.011C377.422 26.8555 375.172 27.464 372.996 27.0671C371.534 26.8004 370.794 24.3228 371.05 23.9481C371.306 23.5745 380.353 24.6488 386.055 23.1724C398.081 20.0576 407.068 15.2315 420.653 13.808C429.663 12.8629 443.318 17.2434 442.994 19.4766Z" fill="white"/>
<path fill-rule="evenodd" clip-rule="evenodd" d="M227.582 53.0256C229.375 56.5219 225.009 67.3922 221.828 70.4203C210.442 81.262 204.046 75.7429 197.779 81.4573C195.718 83.3366 194.793 89.6785 194.457 90.6076C194.356 90.8879 192.975 90.2827 192.631 89.3313C192.115 87.9033 193.415 85.7288 193.447 85.1512C193.453 85.0153 193.481 84.9155 193.278 84.9951C192.877 85.1512 191.835 86.4614 190.416 87.1515C189.463 87.6155 188.008 86.4794 188 86.1524C187.993 85.8243 193.649 82.6168 196.321 79.3338C201.954 72.4122 205.127 65.7762 212.361 59.1816C217.158 54.8082 226.842 51.5816 227.582 53.0256Z" fill="#FDFDFD"/>
<mask id="mask0" mask-type="alpha" maskUnits="userSpaceOnUse" x="334" y="0" width="37" height="15">
<path fill-rule="evenodd" clip-rule="evenodd" d="M334.617 0H370.847V14.6038H334.617V0Z" fill="white"/>
</mask>
<g mask="url(#mask0)">
<path fill-rule="evenodd" clip-rule="evenodd" d="M370.847 1.66296C370.864 4.50118 364.523 9.99011 361.492 10.8601C350.647 13.9737 348.329 8.29725 342.442 9.84975C340.506 10.3597 337.849 14.1055 337.331 14.5876C337.175 14.7322 336.485 13.8826 336.572 13.1583C336.706 12.0719 338.248 11.1172 338.455 10.7583C338.505 10.6737 338.554 10.619 338.398 10.6019C338.089 10.5665 336.993 11.0551 335.857 11.0208C335.093 10.9972 334.528 9.78332 334.628 9.57011C334.73 9.35796 339.411 9.20475 342.194 8.00153C348.067 5.46332 352.264 2.28439 359.059 0.492963C363.564 -0.695251 370.841 0.490821 370.847 1.66296Z" fill="white"/>
</g>
<path fill-rule="evenodd" clip-rule="evenodd" d="M844.261 153.576C840.448 154.571 830.826 147.943 828.586 144.175C820.569 130.688 827.386 125.629 823.22 118.26C821.851 115.837 815.873 113.556 815.042 113.027C814.792 112.867 815.691 111.647 816.696 111.518C818.205 111.323 820.034 113.065 820.591 113.222C820.721 113.259 820.812 113.307 820.781 113.091C820.718 112.665 819.674 111.361 819.32 109.824C819.081 108.791 820.515 107.615 820.837 107.679C821.157 107.742 823.016 113.97 825.618 117.295C831.105 124.306 836.864 128.848 841.673 137.353C844.861 142.993 845.834 153.165 844.261 153.576Z" fill="#FDFDFD"/>
<path fill-rule="evenodd" clip-rule="evenodd" d="M184 839.4C184.162 842.238 193.706 848.925 198.151 850.367C214.064 855.527 217.05 850.282 225.679 852.945C228.516 853.82 232.61 858.07 233.391 858.65C233.626 858.824 234.572 858.104 234.397 857.363C234.134 856.25 233.393 855.623 233.068 855.225C232.992 855.132 232.916 855.067 233.141 855.08C233.586 855.102 233.651 855.178 235.293 855.358C236.398 855.478 237.138 854.37 236.978 854.139C236.817 853.907 230.028 852.871 225.916 851.142C217.244 847.496 210.958 843.522 200.999 840.451C194.394 838.412 183.934 838.228 184 839.4Z" fill="white"/>
<mask id="mask1" mask-type="alpha" maskUnits="userSpaceOnUse" x="258" y="896" width="53" height="17">
<path fill-rule="evenodd" clip-rule="evenodd" d="M258.934 896.056H310.745V912.676H258.934V896.056Z" fill="white"/>
</mask>
<g mask="url(#mask1)">
<path fill-rule="evenodd" clip-rule="evenodd" d="M258.935 899.58C259.313 903.51 268.958 910.195 273.319 910.965C288.929 913.719 291.371 905.534 299.826 906.836C302.605 907.264 306.851 912.067 307.643 912.66C307.882 912.838 308.729 911.562 308.503 910.573C308.164 909.089 305.872 907.989 305.531 907.523C305.45 907.412 305.373 907.345 305.589 907.298C306.015 907.206 307.618 907.723 309.203 907.514C310.267 907.373 310.888 905.61 310.716 905.331C310.545 905.051 303.976 905.51 299.911 904.245C291.339 901.576 285.019 897.777 275.262 896.273C268.79 895.275 258.78 897.958 258.935 899.58Z" fill="white"/>
</g>
<path fill-rule="evenodd" clip-rule="evenodd" d="M568.957 25.6148C567.352 29.518 557.352 33.2343 553.575 32.6068C540.058 30.3579 540.795 21.1791 533.535 19.7681C531.149 19.3049 526.131 22.8473 525.296 23.1963C525.045 23.3019 524.781 21.7202 525.292 20.7799C526.057 19.3689 530.751 18.8908 531.181 18.5236C531.282 18.4371 531.368 18.3923 531.208 18.2738C530.894 18.0412 526.95 18.1479 525.74 17.4179C524.926 16.9269 525.008 14.9204 525.24 14.6909C525.471 14.4603 530.624 17.0624 534.325 17.0859C542.131 17.135 548.49 15.296 556.868 16.9237C562.425 18.0027 569.621 24.0021 568.957 25.6148Z" fill="white"/>
<path fill-rule="evenodd" clip-rule="evenodd" d="M918.066 241.623C913.963 242.323 905.579 235.965 904.109 232.506C898.846 220.125 906.895 215.959 904.237 209.205C903.364 206.983 897.76 204.666 897.027 204.155C896.806 204.001 897.987 202.961 899.041 202.895C900.622 202.793 903.5 206.437 904.034 206.603C904.159 206.642 904.241 206.689 904.256 206.497C904.284 206.114 902.113 202.898 902.082 201.515C902.062 200.586 903.78 199.608 904.094 199.68C904.407 199.752 904.958 205.381 906.893 208.462C910.974 214.961 915.867 219.278 918.934 227.073C920.968 232.243 919.761 241.333 918.066 241.623Z" fill="white"/>
<path fill-rule="evenodd" clip-rule="evenodd" d="M511.993 26.0075C511.172 29.2963 499.453 34.6472 494.377 35.1746C476.205 37.062 474.212 30.1226 464.389 30.9861C461.159 31.2705 455.818 35.188 454.851 35.6638C454.56 35.8065 453.715 34.7123 454.07 33.8881C454.605 32.6512 455.54 32.1093 455.977 31.7266C456.08 31.6366 456.176 31.5818 455.933 31.5363C455.453 31.4474 455.367 31.5198 453.57 31.2995C452.364 31.1526 451.826 29.6551 452.05 29.4255C452.275 29.1959 459.762 29.7596 464.548 28.8081C474.641 26.7997 482.262 23.7819 493.599 22.785C501.116 22.1231 512.331 24.6486 511.993 26.0075Z" fill="white"/>
<path fill-rule="evenodd" clip-rule="evenodd" d="M865.844 500.602C860.16 497.695 855.842 479.153 857.278 472.108C862.417 446.889 876.178 448.068 879.246 434.52C880.254 430.067 875.556 420.799 875.136 419.251C875.01 418.784 877.432 418.262 878.785 419.192C880.816 420.586 881.107 424.702 881.605 425.495C881.723 425.682 881.78 425.839 881.978 425.541C882.369 424.952 882.544 422.222 883.801 419.953C884.647 418.429 887.666 418.539 887.984 418.965C888.301 419.391 883.708 429.04 883.193 435.933C882.11 450.469 884.064 462.273 880.524 477.908C878.178 488.274 868.191 501.803 865.844 500.602Z" fill="#FDFDFD"/>
<path fill-rule="evenodd" clip-rule="evenodd" d="M925.05 654.518C921.123 651.5 920.011 639.035 921.893 634.952C928.634 620.337 938.814 623.99 942.663 616.203C943.929 613.643 941.469 606.875 941.332 605.821C941.291 605.503 943.166 605.692 944.074 606.559C945.437 607.858 944.522 613.32 944.806 613.92C944.872 614.062 944.897 614.171 945.08 614.028C945.441 613.744 946.544 609.244 947.746 608.098C948.555 607.327 950.806 608.037 950.994 608.37C951.184 608.702 946.635 613.738 945.46 617.921C942.984 626.745 943.096 634.511 938.653 643.498C935.706 649.457 926.672 655.763 925.05 654.518Z" fill="white"/>
<path fill-rule="evenodd" clip-rule="evenodd" d="M883.368 601.6C879.799 598.964 879.147 583.524 881.03 577.79C887.77 557.267 897.15 558.83 900.982 547.818C902.243 544.199 900.158 536.371 900.062 535.079C900.035 534.69 901.776 534.367 902.597 535.189C903.827 536.423 904.017 537.715 904.263 538.389C904.321 538.548 904.34 538.681 904.516 538.442C904.861 537.975 904.817 537.844 905.974 536.032C906.752 534.814 908.829 535.034 908.995 535.4C909.161 535.764 904.763 543.502 903.537 549.151C900.955 561.062 900.819 570.856 896.397 583.565C893.463 591.993 884.843 602.689 883.368 601.6Z" fill="white"/>
<path fill-rule="evenodd" clip-rule="evenodd" d="M179.892 250.742C184.059 253.377 186.053 270.483 184.444 277.01C178.682 300.376 168.176 299.414 164.846 311.969C163.751 316.096 166.702 324.622 166.914 326.049C166.978 326.479 165.078 326.983 164.102 326.138C162.64 324.868 162.322 323.447 161.995 322.718C161.918 322.547 161.886 322.402 161.712 322.679C161.367 323.229 161.427 323.37 160.296 325.48C159.536 326.897 157.222 326.823 157.008 326.433C156.794 326.042 161.021 317.076 161.91 310.699C163.784 297.247 163.126 286.351 166.969 271.863C169.518 262.254 178.172 249.654 179.892 250.742Z" fill="white"/>
<path fill-rule="evenodd" clip-rule="evenodd" d="M291.496 195.092C295.633 200.857 290.45 221.331 285.439 227.54C267.504 249.765 254.504 241.582 244.567 253.365C241.3 257.238 241.219 268.767 240.845 270.507C240.732 271.032 238.073 270.31 237.208 268.703C235.912 266.294 237.723 262.089 237.635 261.052C237.614 260.809 237.638 260.624 237.29 260.818C236.601 261.198 235.038 263.799 232.639 265.392C231.026 266.463 228.098 264.814 228.001 264.233C227.903 263.65 237.364 256.487 241.385 249.958C249.865 236.187 253.949 223.56 265.418 209.961C273.022 200.943 289.788 192.711 291.496 195.092Z" fill="white"/>
<path fill-rule="evenodd" clip-rule="evenodd" d="M308.605 126.77C310.601 131.821 304.59 144.218 300.501 147.017C285.866 157.039 278.336 147.879 270.294 153.072C267.651 154.779 266.136 162.552 265.669 163.624C265.528 163.948 263.867 162.717 263.501 161.389C262.952 159.399 266.907 154.753 266.98 154.027C266.997 153.857 267.037 153.739 266.783 153.772C266.281 153.837 262.692 157.468 260.909 157.875C259.71 158.15 257.991 156.218 258 155.798C258.009 155.378 265.152 153.173 268.629 149.881C275.962 142.937 280.254 135.539 289.534 129.546C295.689 125.57 307.78 124.683 308.605 126.77Z" fill="white"/>
<path fill-rule="evenodd" clip-rule="evenodd" d="M164.988 339.776C161.181 342.88 161.308 359.958 163.708 366.184C172.297 388.469 182.596 386.232 187.443 398.176C189.037 402.102 187.16 410.856 187.126 412.287C187.115 412.718 189.062 412.981 189.925 412.027C191.219 410.598 191.359 409.161 191.593 408.404C191.649 408.227 191.663 408.079 191.87 408.331C192.279 408.829 192.238 408.976 193.618 410.912C194.545 412.214 196.833 411.857 196.996 411.446C197.16 411.035 191.866 402.732 190.2 396.565C186.685 383.559 185.997 372.756 180.403 358.971C176.693 349.829 166.561 338.494 164.988 339.776Z" fill="#FDFDFD"/>
<path fill-rule="evenodd" clip-rule="evenodd" d="M83.8538 224.83C90.3192 229.259 92.6565 252.47 89.7961 260.803C79.5579 290.631 62.9797 287.026 57.1081 303.001C55.1769 308.252 59.439 320.255 59.7048 322.202C59.786 322.789 56.7547 323.04 55.2518 321.697C52.9978 319.683 53.2931 314.635 52.8101 313.593C52.6962 313.347 52.6519 313.147 52.3639 313.478C51.7933 314.132 51.1499 317.422 49.2609 319.978C47.99 321.698 44.3301 321.087 44.0105 320.52C43.6899 319.953 50.8082 308.954 52.5211 300.661C56.1335 283.171 55.6135 268.521 62.3912 250.085C66.8854 237.859 81.1832 223.001 83.8538 224.83Z" fill="white"/>
<path fill-rule="evenodd" clip-rule="evenodd" d="M110.347 270.89C114.473 274.454 114.924 288.256 112.603 292.638C104.298 308.327 93.3472 303.676 88.6374 312.018C87.0898 314.76 89.3708 322.369 89.4568 323.539C89.482 323.891 87.4361 323.568 86.4918 322.557C85.0765 321.042 86.4173 315.081 86.1435 314.402C86.0795 314.243 86.0595 314.121 85.8497 314.267C85.4353 314.558 83.9454 319.447 82.5542 320.636C81.6194 321.435 79.1926 320.515 79.0048 320.138C78.8181 319.76 84.1238 314.491 85.6724 309.955C88.9375 300.385 89.2942 291.822 94.729 282.195C98.334 275.81 108.643 269.418 110.347 270.89Z" fill="white"/>
<path fill-rule="evenodd" clip-rule="evenodd" d="M184.425 434.761C179.652 437.972 177.775 458.161 179.817 465.804C187.121 493.157 199.308 491.747 203.505 506.439C204.885 511.268 201.675 521.382 201.466 523.07C201.403 523.577 203.625 524.121 204.736 523.098C206.404 521.565 206.736 519.884 207.098 519.018C207.183 518.814 207.217 518.642 207.427 518.964C207.841 519.602 207.775 519.77 209.144 522.222C210.064 523.871 212.754 523.723 212.992 523.259C213.23 522.793 208.084 512.35 206.885 504.865C204.358 489.08 204.84 476.237 199.996 459.282C196.784 448.038 186.397 433.434 184.425 434.761Z" fill="white"/>
<path fill-rule="evenodd" clip-rule="evenodd" d="M285.023 712.61C286.971 720.882 309.265 732.276 318.685 732.618C352.406 733.84 355.154 715.642 373.363 715.902C379.348 715.987 389.707 724.972 391.55 726C392.106 726.309 393.517 723.335 392.752 721.29C391.602 718.223 386.447 716.559 385.59 715.665C385.389 715.455 385.205 715.332 385.647 715.167C386.519 714.845 390.051 715.472 393.33 714.551C395.533 713.932 396.325 709.986 395.882 709.441C395.437 708.897 381.722 711.834 372.781 710.344C353.924 707.203 339.488 700.981 318.474 700.68C304.538 700.481 284.219 709.192 285.023 712.61Z" fill="white"/>
<path fill-rule="evenodd" clip-rule="evenodd" d="M326.034 847.522C328.156 852.995 347.356 859.106 355.197 858.653C383.26 857.031 384.432 844.482 399.562 843.336C404.536 842.959 413.682 848.302 415.274 848.867C415.754 849.037 416.745 846.916 415.985 845.584C414.844 843.585 413.284 842.9 412.517 842.355C412.337 842.227 412.177 842.157 412.534 842.014C413.238 841.73 413.388 841.832 416.053 840.968C417.844 840.388 418.262 837.653 417.859 837.316C417.457 836.978 406.253 839.968 398.74 839.608C382.897 838.846 370.534 835.673 353.072 836.995C341.493 837.874 325.158 845.261 326.034 847.522Z" fill="#FDFDFD"/>
<path fill-rule="evenodd" clip-rule="evenodd" d="M544.104 608.196C548.597 617.877 579.425 626.325 591.347 624.401C634.019 617.509 632.973 594.464 655.917 590.252C663.459 588.867 678.695 597.327 681.266 598.132C682.041 598.374 683.078 594.368 681.611 592.046C679.409 588.564 672.52 587.803 671.223 586.917C670.917 586.708 670.656 586.604 671.171 586.292C672.187 585.676 676.78 585.569 680.672 583.621C683.287 582.313 683.307 577.267 682.615 576.708C681.922 576.15 665.415 583.172 653.813 583.568C629.342 584.402 609.666 580.35 583.186 585.212C565.626 588.435 542.248 604.197 544.104 608.196Z" fill="white"/>
<path fill-rule="evenodd" clip-rule="evenodd" d="M219.887 500.442C215.25 507.29 219.996 527.729 225.105 533.254C243.393 553.035 257.583 541.92 267.736 552.324C271.074 555.744 270.717 567.807 271.049 569.557C271.149 570.083 274.015 568.808 275 566.957C276.476 564.178 272.181 555.95 272.316 554.847C272.346 554.588 272.328 554.399 272.693 554.533C273.413 554.798 277.505 561.393 280.005 562.593C281.685 563.399 284.872 561.101 284.999 560.472C285.125 559.844 275.303 554.187 271.263 548.132C262.741 535.361 258.866 522.93 247.15 510.924C239.38 502.962 221.801 497.613 219.887 500.442Z" fill="white"/>
<path fill-rule="evenodd" clip-rule="evenodd" d="M293.005 626.482C294.089 637.223 320.592 655.381 332.548 657.43C375.345 664.763 381.931 642.349 405.108 645.806C412.728 646.941 424.416 660.022 426.595 661.631C427.25 662.116 429.554 658.618 428.924 655.915C427.977 651.861 421.684 648.882 420.742 647.61C420.521 647.312 420.307 647.125 420.898 646.994C422.066 646.738 426.464 648.134 430.801 647.539C433.717 647.14 435.395 642.314 434.92 641.553C434.446 640.79 416.458 642.127 405.308 638.718C381.792 631.526 364.433 621.22 337.685 617.23C319.946 614.584 292.558 622.047 293.005 626.482Z" fill="white"/>
<path fill-rule="evenodd" clip-rule="evenodd" d="M709.401 589.658C715.526 594.47 738.281 589.823 745.353 584.655C770.67 566.152 762.33 551.527 775.773 541.25C780.192 537.871 792.862 538.358 794.793 538.035C795.375 537.939 794.715 534.994 792.993 533.97C790.41 532.432 785.7 534.202 784.566 534.054C784.3 534.018 784.096 534.035 784.325 533.664C784.778 532.932 787.714 531.351 789.584 528.806C790.841 527.096 789.177 523.813 788.543 523.678C787.908 523.543 779.564 533.53 772.189 537.6C756.635 546.185 742.557 550.021 727.043 561.883C716.754 569.75 706.87 587.672 709.401 589.658Z" fill="white"/>
<path fill-rule="evenodd" clip-rule="evenodd" d="M649.029 610.478C650.581 613.923 663.169 617.178 668.209 616.612C686.248 614.584 686.578 606.472 696.294 605.203C699.488 604.786 705.567 607.902 706.612 608.208C706.928 608.3 707.495 606.901 706.959 606.071C706.157 604.827 705.127 604.441 704.614 604.117C704.494 604.041 704.388 604.003 704.614 603.897C705.059 603.69 705.158 603.75 706.847 603.102C707.983 602.666 708.159 600.892 707.889 600.689C707.617 600.486 700.494 602.802 695.639 602.834C685.397 602.902 677.32 601.296 666.106 602.761C658.67 603.731 648.387 609.056 649.029 610.478Z" fill="white"/>
<path fill-rule="evenodd" clip-rule="evenodd" d="M591.242 510.277C596.196 515.42 617.525 514.132 624.637 510.358C650.102 496.851 644.406 482.537 657.986 474.954C662.449 472.461 673.928 474.528 675.728 474.484C676.27 474.469 676.052 471.719 674.617 470.571C672.465 468.846 667.945 469.846 666.93 469.566C666.692 469.5 666.504 469.488 666.762 469.181C667.27 468.576 670.148 467.522 672.183 465.459C673.55 464.071 672.46 460.883 671.9 460.68C671.34 460.477 662.443 468.449 655.196 471.19C639.915 476.97 626.592 478.638 610.92 487.389C600.527 493.192 589.195 508.154 591.242 510.277Z" fill="#FDFDFD"/>
<path fill-rule="evenodd" clip-rule="evenodd" d="M898.725 399.676C887.982 399.384 868.014 374.37 865.106 362.638C854.695 320.639 876.468 312.455 871.341 289.671C869.656 282.182 855.814 271.521 854.056 269.475C853.527 268.858 856.832 266.312 859.561 266.741C863.657 267.385 867.074 273.423 868.406 274.266C868.719 274.463 868.921 274.662 869.007 274.064C869.177 272.885 867.468 268.617 867.741 264.262C867.924 261.336 872.594 259.315 873.383 259.731C874.175 260.146 874.164 278.122 878.365 288.955C887.223 311.802 898.727 328.299 904.644 354.593C908.569 372.03 903.162 399.797 898.725 399.676Z" fill="white"/>
<path fill-rule="evenodd" clip-rule="evenodd" d="M632.009 254.743C623.841 259.967 600.138 253.618 593.87 247.384C571.428 225.07 584.926 208.723 573.143 196.357C569.27 192.292 555.165 192.273 553.132 191.815C552.52 191.677 554.115 188.34 556.314 187.246C559.614 185.605 569.068 190.977 570.361 190.857C570.665 190.83 570.884 190.859 570.741 190.424C570.458 189.564 562.903 184.492 561.592 181.497C560.71 179.483 563.513 175.804 564.251 175.677C564.989 175.553 571.241 187.354 578.166 192.345C592.775 202.873 607.156 207.902 620.756 222.174C629.773 231.638 635.383 252.586 632.009 254.743Z" fill="white"/>
<path fill-rule="evenodd" clip-rule="evenodd" d="M823.837 369.674C816.494 369.915 799.763 350.414 796.307 340.978C783.937 307.201 797.717 299.556 791.362 281.21C789.272 275.179 778.515 267.105 777.063 265.515C776.625 265.036 778.551 262.813 780.462 263.041C783.328 263.384 784.905 264.874 785.919 265.502C786.155 265.649 786.317 265.802 786.3 265.312C786.268 264.343 786.076 264.217 785.713 260.655C785.47 258.261 788.392 256.405 788.981 256.709C789.571 257.013 791.826 271.668 796.049 280.313C804.95 298.544 814.852 311.481 822.188 332.654C827.052 346.696 826.871 369.575 823.837 369.674Z" fill="white"/>
<path fill-rule="evenodd" clip-rule="evenodd" d="M801.361 154.441C792.585 160.676 761.548 152.677 752.16 145.037C718.552 117.686 731.058 98.024 713.245 82.8737C707.388 77.8934 689.892 77.6946 687.254 77.1141C686.459 76.9396 687.573 72.9119 690.016 71.6122C693.681 69.6615 700.051 72.4366 701.624 72.3094C701.993 72.2789 702.274 72.3178 701.983 71.7867C701.411 70.7415 697.474 68.3522 695.072 64.7032C693.458 62.2498 695.981 57.8205 696.864 57.6775C697.747 57.5345 708.554 71.9298 718.435 78.0711C739.275 91.0257 758.411 97.3048 778.972 114.79C792.606 126.383 804.985 151.866 801.361 154.441Z" fill="white"/>
<path fill-rule="evenodd" clip-rule="evenodd" d="M828.295 259.098C820.537 262.07 801.57 252.933 797.304 246.756C782.039 224.643 796.135 213.361 788.226 201.214C785.627 197.22 773.719 194.888 772.079 194.176C771.585 193.962 773.481 191.469 775.52 190.927C778.576 190.113 785.672 196.102 786.785 196.216C787.046 196.243 787.226 196.302 787.177 195.92C787.081 195.164 781.538 189.734 780.926 187.046C780.514 185.238 783.488 182.66 784.131 182.676C784.776 182.695 788.106 193.467 793.131 198.727C803.728 209.82 815.042 216.334 824.168 230.353C830.221 239.651 831.499 257.87 828.295 259.098Z" fill="white"/>
<path fill-rule="evenodd" clip-rule="evenodd" d="M734.727 160.936C728.959 165.568 703.742 160.087 695.277 154.631C664.975 135.1 671.467 120.658 655.3 109.83C649.986 106.271 636.461 106.317 634.334 105.924C633.692 105.806 633.907 102.864 635.582 101.89C638.096 100.432 640.263 100.671 641.457 100.561C641.737 100.534 641.958 100.56 641.65 100.177C641.04 99.4216 640.811 99.4373 638.373 96.8084C636.736 95.0408 637.97 91.7916 638.628 91.6774C639.286 91.5631 649.928 101.919 658.533 106.279C676.681 115.476 692.445 119.836 711.103 132.332C723.476 140.618 737.109 159.022 734.727 160.936Z" fill="white"/>
</g>
</svg>
