<svg width="439" height="810" viewBox="0 0 439 810" fill="none" xmlns="http://www.w3.org/2000/svg">
<g opacity="0.2">
<path fill-rule="evenodd" clip-rule="evenodd" d="M538.508 567.283C527.225 574.063 500.617 571.016 490.573 569.851L489.295 569.7C485.151 569.241 481.025 568.619 476.931 567.861C414.778 556.454 364.364 514.362 348.369 460.59C346.732 455.062 345.214 449.157 343.73 443.5C337.25 418.249 330.528 392.147 308.23 376.898C301.173 372.101 293.076 369.268 285.515 368.985C279.16 370.391 273.188 372.754 267.758 376.017C262.327 379.28 257.607 383.342 253.562 388.146C249.699 394.91 247.509 402.928 247.418 410.681C247.09 442.703 270.843 462.669 293.899 481.982C297.819 485.257 301.835 488.626 305.66 491.996L306.02 492.278C306.251 492.407 306.516 492.593 306.781 492.778C324.162 504.624 344.751 523.657 344.299 547.061C344.299 547.635 344.001 548.159 343.495 548.463C343.045 548.734 342.459 548.779 341.958 548.582C341.485 548.369 341.13 547.969 341.017 547.463C338.053 535.264 333.448 526.389 326.091 518.669C319.573 511.901 311.468 505.932 299.827 499.369C296.008 497.221 292.032 495.129 288.209 493.099C275.284 486.312 261.954 479.232 251.256 468.694C238.119 455.753 230.86 435.451 231.877 414.389C232.781 394.352 241.09 376.568 254.538 365.615C256.631 363.936 258.865 362.364 261.201 360.961C281.009 349.059 308.116 348.856 330.333 360.401C345.206 368.2 357.881 380.882 367.006 397.153C370.528 402.504 373.758 408.453 376.656 414.869C377.559 392.535 383.45 370.919 389.117 350.012C390.426 345.242 391.745 340.428 392.992 335.62C401.809 301.79 401.65 275.077 392.582 251.572C390.766 246.957 388.579 242.488 385.998 238.256C377.103 230.081 367.557 224.328 357.624 221.181C343.418 216.658 326.147 218.571 313.598 226.111C307.154 229.983 302.249 235.075 299.044 241.214C292.077 254.668 295.532 268.83 299.139 283.82C301.256 292.506 303.424 301.467 303.334 310.177C303.085 325.952 294.717 339.941 280.367 348.564C275.528 351.472 270.203 353.637 264.507 354.991C244.547 359.823 222.959 353.722 206.713 338.666C190.974 324.072 183.445 304.085 185.525 282.307C185.581 281.699 185.907 281.159 186.442 280.838C187.033 280.483 187.815 280.51 188.384 280.819C188.959 281.202 189.241 281.799 189.235 282.491C188.211 299.651 196.003 317.91 210.092 331.542C210.66 331.469 211.179 331.694 211.578 332.104C222.424 344.163 241.352 346.729 255.674 338.124C262.709 333.897 267.529 327.516 269.601 319.683C273.094 306.631 270.406 292.851 267.796 279.521C266.079 270.864 264.356 261.941 264.294 253.17C264.151 232.345 274.958 213.366 293.22 202.394L293.839 202.022C312.556 191.044 336.161 190.494 357.07 200.565C368.39 206.019 378.236 214.12 386.361 224.519C409.612 242.565 424.678 270.125 431.64 284.899C444.032 311.386 448.164 336.746 443.85 360.287C441.898 371.187 438.578 381.914 435.348 392.281C430.741 407.112 425.977 422.383 425.211 438.316C423.917 465.864 431.884 493.4 447.69 515.882C460.307 533.884 477.678 547.88 502.232 559.936C502.26 559.919 502.305 559.93 502.35 559.941C471.929 537.165 454.66 498.673 458.03 460.686C459.88 440.502 466.375 421.165 472.623 402.437C476.635 390.566 480.776 378.274 483.661 365.932C488.063 346.934 488.554 331.626 485.178 317.722C480.188 297.053 466.66 280.594 452.751 265.858C449.799 262.729 446.818 259.618 443.827 256.551C420.555 232.352 396.443 207.392 393.357 171.217C393.261 170.356 393.198 169.551 393.147 168.7C392.197 152.842 394.832 136.705 400.818 122.002C406.534 107.997 420.83 94.3134 433.892 86.3505C437.045 88.2853 420.766 108.101 419.075 113.253C415.26 124.622 413.528 136.654 413.941 148.623C414.721 169.487 421.924 191.163 434.773 211.208C443.846 225.289 456.155 237.616 472.455 248.81C476.048 251.285 479.788 253.748 483.358 256.122C494.949 263.749 506.929 271.64 517.018 281.548C540.796 304.869 546.224 339.906 531.893 377.624C526.498 391.78 519.025 405.347 511.822 418.407C500.683 438.619 489.167 459.479 485.348 482.761C483.167 496.021 482.898 515.331 494.157 532.157C502.542 544.774 516.307 552.896 530.916 553.883C531.479 553.928 532.29 553.939 533.084 553.921C536.557 553.902 540.825 553.866 542.836 556.257C543.726 557.293 544.026 558.683 543.739 560.31C543.212 563.193 541.435 565.525 538.508 567.283Z" fill="#7EE6AC"/>
</g>
</svg>
