<svg width="69" height="110" viewBox="0 0 69 110" fill="none" xmlns="http://www.w3.org/2000/svg">
<path fill-rule="evenodd" clip-rule="evenodd" d="M17.8044 58.5082C22.1612 72.3366 28.6117 88.2915 24.885 107C21.9041 89.8117 12.4333 74.5118 9.97933 60.5023C5.50674 34.9829 17.8044 18 17.8044 18C17.8044 18 12.9589 43.1293 17.8044 58.5082Z" fill="#7EE6AC"/>
<mask id="mask0" mask-type="alpha" maskUnits="userSpaceOnUse" x="22" y="0" width="14" height="107">
<path fill-rule="evenodd" clip-rule="evenodd" d="M22 0H36V107H22V0Z" fill="white"/>
</mask>
<g mask="url(#mask0)">
<path fill-rule="evenodd" clip-rule="evenodd" d="M29.9169 48.5377C32.0737 65.3282 35.9466 84.7719 29.5161 107C29.1996 86.2529 22.2938 67.4412 22.0133 50.5283C21.4996 19.7243 36 0 36 0C36 0 27.5182 29.8645 29.9169 48.5377Z" fill="#7EE6AC"/>
</g>
<mask id="mask1" mask-type="alpha" maskUnits="userSpaceOnUse" x="39" y="48" width="30" height="57">
<path fill-rule="evenodd" clip-rule="evenodd" d="M39 48H69V105H39V48Z" fill="white"/>
</mask>
<g mask="url(#mask1)">
<path fill-rule="evenodd" clip-rule="evenodd" d="M56.86 74.4006C49.561 82.7956 39.7946 92.2786 39 105C45.7754 94.2214 58.2397 85.5943 63.7857 76.8113C73.8897 60.8147 66.1978 48 66.1978 48C66.1978 48 64.9782 65.065 56.86 74.4006Z" fill="#7EE6AC"/>
</g>
<mask id="mask2" mask-type="alpha" maskUnits="userSpaceOnUse" x="36" y="11" width="14" height="99">
<path fill-rule="evenodd" clip-rule="evenodd" d="M36 11H50V110H36V11Z" fill="white"/>
</mask>
<g mask="url(#mask2)">
<path fill-rule="evenodd" clip-rule="evenodd" d="M42.0699 56.0039C38.6098 71.4424 33.2773 89.2788 37.6431 110C39.6543 90.8509 47.8558 73.6898 49.5212 58.0813C52.5517 29.6524 40.2058 11 40.2058 11C40.2058 11 45.9175 38.833 42.0699 56.0039Z" fill="#7EE6AC"/>
</g>
<path fill-rule="evenodd" clip-rule="evenodd" d="M9.18545 74.5627C14.3632 83.4096 21.6729 93.5417 19.6571 106C15.5033 94.881 5.41577 85.3307 2.00619 76.269C-4.20284 59.7623 5.98284 48 5.98284 48C5.98284 48 3.42864 64.7252 9.18545 74.5627Z" fill="#7EE6AC"/>
</svg>
