<svg xmlns="http://www.w3.org/2000/svg" fill="none" viewBox="0 0 1920 982" height="982" width="1920">
<rect fill="#2399CC" height="982" width="1920"></rect>
<g opacity="0.587937">
<path fill="#7DE6AB" d="M1547.59 441.022C1548.55 438.794 1547.09 436.002 1544.78 435.151C1541.56 433.958 1536.82 432.664 1531.05 431.812C1528.22 431.534 1525.02 431.058 1521.7 431.197C1520.02 431.208 1518.24 431.193 1516.43 431.37C1515.52 431.439 1514.61 431.588 1513.66 431.683C1512.7 431.766 1511.73 431.882 1510.74 432.034C1503.82 433.144 1494.61 435.941 1484.14 437.857C1473.73 439.838 1462.09 440.851 1452.04 440.087C1449.69 439.888 1446.91 439.505 1444.2 438.689C1442.83 438.317 1441.45 437.911 1440.1 437.495C1438.75 437.077 1437.49 436.514 1436.27 436.041C1433.84 435.063 1431.69 434.158 1430.24 433.336C1428.76 432.552 1427.87 432.075 1427.87 432.075C1426.4 431.271 1425.08 430.788 1424.95 431.001C1424.81 431.215 1424.7 431.389 1424.7 431.389C1424.7 431.389 1424.59 431.565 1424.46 431.778C1424.32 431.992 1425.43 432.836 1426.93 433.653C1426.93 433.653 1427.82 434.158 1429.3 434.989C1430.75 435.883 1432.87 436.922 1435.22 438.166C1436.4 438.772 1437.62 439.501 1438.91 440.125C1440.2 440.749 1441.52 441.403 1442.81 442.076C1445.37 443.489 1447.95 444.676 1450.06 445.947C1459.02 451.255 1470.55 456.857 1482.61 460.221C1494.61 463.668 1507 464.779 1515.96 463.331C1517.23 463.133 1518.47 462.91 1519.66 462.661C1520.86 462.401 1522 462.029 1523.11 461.685C1525.33 460.959 1527.41 460.226 1529.29 459.314C1533.05 457.371 1536.22 455.454 1538.69 453.13C1543.74 448.764 1546.27 444.081 1547.59 441.022Z" clip-rule="evenodd" fill-rule="evenodd"></path>
<path fill="#40D3FD" d="M1661.62 461.421C1664.02 461.904 1666.79 460.278 1667.2 457.807C1667.76 454.422 1668.21 448.869 1666.11 442.271C1665.86 441.436 1665.59 440.58 1665.27 439.703C1664.95 438.842 1664.54 438.01 1664.11 437.137C1663.26 435.403 1662.25 433.604 1661.08 431.764C1659.88 429.961 1658.4 428.253 1656.8 426.466C1655.98 425.594 1655.15 424.665 1654.21 423.839C1653.26 423.025 1652.27 422.212 1651.23 421.409C1643.93 415.672 1632.17 410.88 1619.71 408.955C1607.24 406.901 1594.3 407.666 1584.01 409.49C1581.58 409.948 1578.75 410.122 1575.86 410.621C1574.42 410.822 1572.96 410.996 1571.54 411.149C1570.11 411.303 1568.73 411.632 1567.42 411.825C1564.79 412.255 1562.46 412.56 1560.81 413.004C1559.16 413.358 1558.15 413.574 1558.15 413.574C1556.48 413.907 1555.16 414.388 1555.22 414.641C1555.28 414.893 1555.33 415.1 1555.33 415.1C1555.33 415.1 1555.38 415.307 1555.44 415.56C1555.51 415.812 1556.89 415.75 1558.53 415.422C1558.53 415.422 1559.52 415.235 1561.15 414.929C1562.77 414.559 1565.08 414.398 1567.67 414.255C1568.97 414.204 1570.33 414.055 1571.72 414.123C1573.12 414.192 1574.54 414.283 1575.93 414.4C1578.72 414.538 1581.41 415.21 1583.63 415.873C1593.1 418.831 1603.15 424.417 1611.39 430.623C1619.73 436.79 1626.27 443.424 1631.55 447.557C1632.31 448.141 1633.07 448.683 1633.83 449.187C1634.59 449.702 1635.27 450.268 1636 450.748C1637.42 451.747 1638.92 452.544 1640.32 453.348C1641.67 454.185 1643.05 454.906 1644.43 455.538C1645.13 455.843 1645.82 456.142 1646.49 456.432C1647.13 456.746 1647.77 457.038 1648.41 457.311C1653.67 459.388 1658.27 460.75 1661.62 461.421Z" clip-rule="evenodd" fill-rule="evenodd"></path>
<path fill="#40D3FD" d="M1725.61 481.789C1727.84 482.928 1730.93 482.04 1731.94 479.735C1733.32 476.563 1735.11 471.322 1734.87 464.425C1734.85 463.558 1734.81 462.662 1734.75 461.74C1734.67 460.827 1734.51 459.911 1734.35 458.958C1734.01 457.057 1733.55 455.057 1732.95 452.971C1732.31 450.906 1731.4 448.832 1730.39 446.655C1729.87 445.581 1729.35 444.459 1728.7 443.381C1728.04 442.312 1727.34 441.23 1726.59 440.142C1721.38 432.425 1711.78 423.997 1700.63 417.59C1689.5 411.075 1677.02 406.622 1666.56 403.899C1664.08 403.276 1661.33 402.241 1658.41 401.41C1656.97 400.958 1655.52 400.477 1654.12 399.989C1652.71 399.501 1651.28 399.156 1649.96 398.739C1647.32 397.938 1645 397.159 1643.28 396.774C1641.58 396.316 1640.54 396.038 1640.54 396.038C1638.84 395.556 1637.4 395.366 1637.34 395.616C1637.28 395.866 1637.23 396.069 1637.23 396.069C1637.23 396.069 1637.18 396.274 1637.11 396.522C1637.05 396.772 1638.37 397.363 1640.05 397.833C1640.05 397.833 1641.06 398.133 1642.72 398.623C1644.4 399.065 1646.64 399.964 1649.14 401.007C1650.38 401.545 1651.72 402.04 1653.01 402.716C1654.3 403.392 1655.61 404.1 1656.88 404.82C1659.46 406.188 1661.76 407.933 1663.61 409.489C1671.46 416.226 1679.09 425.458 1685.06 434.541C1691.12 443.62 1695.56 452.458 1699.6 458.422C1700.19 459.268 1700.78 460.076 1701.39 460.847C1701.99 461.624 1702.52 462.416 1703.1 463.147C1704.24 464.629 1705.49 465.944 1706.66 467.216C1707.79 468.504 1708.96 469.683 1710.15 470.765C1711.37 471.831 1712.53 472.847 1713.63 473.814C1718.27 477.545 1722.49 480.205 1725.61 481.789Z" clip-rule="evenodd" fill-rule="evenodd"></path>
<path fill="#40D3FD" d="M1707.07 523.815C1708.7 521.809 1708.1 518.713 1705.89 517.393C1702.81 515.567 1697.94 513.199 1691.61 511.49C1685.27 509.759 1677.57 508.702 1668.6 508.945C1660.71 509.113 1650.4 510.769 1639.31 510.531C1633.84 510.434 1628.05 509.769 1622.45 508.416C1616.84 507.072 1611.43 505.03 1606.74 502.442C1602.3 500.063 1597.22 495.221 1594.09 490.507C1592.53 488.156 1591.31 485.95 1590.61 484.289C1590.24 483.466 1589.92 482.811 1589.74 482.344C1589.58 481.871 1589.49 481.612 1589.49 481.612C1588.91 479.9 1588.23 478.553 1587.99 478.619C1587.74 478.689 1587.54 478.745 1587.54 478.745L1587.09 478.872C1586.84 478.939 1587.13 480.452 1587.74 482.234C1587.74 482.234 1587.83 482.505 1587.99 482.996C1588.17 483.483 1588.48 484.169 1588.83 485.036C1589.5 486.789 1590.64 489.133 1592.02 491.733C1594.81 496.94 1599.2 502.73 1602.52 507.07C1606 511.734 1610.4 516.54 1615.61 520.922C1620.82 525.308 1626.83 529.271 1633.28 532.364C1646.08 538.554 1659.65 541.17 1669.4 540.936C1680.53 540.626 1688.9 537.497 1694.94 534.028C1700.99 530.52 1704.81 526.599 1707.07 523.815Z" clip-rule="evenodd" fill-rule="evenodd"></path>
<path fill="#40D3FD" d="M1822.88 526.856C1823.1 523.74 1820.44 521.929 1817.55 522.863C1813.58 524.199 1807.6 526.453 1800.49 529.862C1793.32 533.272 1785.02 537.76 1775.2 543.745C1766.53 548.952 1755.12 556.616 1741.25 562.262C1734.35 565.107 1726.87 567.475 1719.3 569.086C1711.73 570.706 1704.08 571.563 1696.94 571.662C1690.24 571.809 1681.08 570.235 1673.85 567.98C1670.25 566.849 1667.08 565.701 1664.86 564.74C1662.61 563.844 1661.29 563.184 1661.29 563.184C1659.11 562.127 1657.22 561.45 1657.1 561.677C1656.98 561.906 1656.89 562.093 1656.89 562.093C1656.89 562.093 1656.79 562.279 1656.67 562.508C1656.55 562.736 1658.27 563.801 1660.49 564.873C1660.49 564.873 1661.83 565.539 1664.09 566.512C1666.31 567.551 1669.48 568.845 1673.06 570.261C1680.23 573.086 1689.28 575.792 1695.97 577.908C1703.08 580.212 1711.08 582.248 1719.61 583.51C1728.12 584.781 1737.16 585.272 1746.08 584.735C1755.01 584.213 1763.77 582.658 1771.66 580.313C1779.55 577.98 1786.56 574.868 1792.14 571.536C1798.46 567.717 1803.57 563.342 1807.66 559.017C1809.68 556.806 1811.5 554.675 1813.01 552.487C1814.57 550.359 1815.86 548.229 1816.96 546.184C1821.36 537.984 1822.61 531.181 1822.88 526.856Z" clip-rule="evenodd" fill-rule="evenodd"></path>
<path fill="#40D3FD" d="M1749.66 710.028C1751.91 711.562 1755.05 710.872 1756.12 708.37C1757.58 704.929 1759.53 699.19 1759.32 691.459C1759.31 690.486 1759.28 689.481 1759.22 688.444C1759.14 687.416 1758.97 686.383 1758.81 685.304C1758.46 683.154 1757.98 680.881 1757.36 678.499C1756.7 676.14 1755.72 673.756 1754.66 671.242C1754.1 670 1753.56 668.701 1752.87 667.447C1752.16 666.203 1751.41 664.94 1750.61 663.665C1745.04 654.627 1734.68 644.419 1722.39 636.397C1710.13 628.255 1696.16 622.363 1684.31 618.663C1681.5 617.814 1678.37 616.499 1675.03 615.446C1673.38 614.875 1671.72 614.274 1670.11 613.67C1668.5 613.068 1666.85 612.641 1665.34 612.128C1662.3 611.146 1659.63 610.203 1657.64 609.74C1655.67 609.19 1654.48 608.855 1654.48 608.855C1652.51 608.284 1650.85 608.017 1650.79 608.265C1650.73 608.511 1650.67 608.714 1650.67 608.714C1650.67 608.714 1650.62 608.916 1650.56 609.163C1650.49 609.411 1652.03 610.074 1653.96 610.635C1653.96 610.635 1655.13 610.988 1657.06 611.569C1659 612.088 1661.59 613.149 1664.48 614.368C1665.92 614.998 1667.47 615.574 1668.96 616.362C1670.45 617.151 1671.96 617.972 1673.44 618.804C1676.43 620.383 1679.08 622.392 1681.23 624.152C1690.37 631.772 1699.29 642.25 1706.22 652.701C1713.26 663.142 1718.34 673.441 1722.76 680.594C1723.4 681.61 1724.05 682.584 1724.72 683.518C1725.35 684.471 1725.96 685.402 1726.56 686.311C1727.76 688.118 1729.11 689.743 1730.34 691.319C1731.51 692.915 1732.73 694.388 1733.98 695.755C1734.61 696.431 1735.23 697.091 1735.84 697.733C1736.41 698.386 1736.98 699.015 1737.56 699.618C1742.32 704.392 1746.53 707.895 1749.66 710.028Z" clip-rule="evenodd" fill-rule="evenodd"></path>
<path fill="#40D3FD" d="M1817.38 741.696C1819.57 743.352 1822.72 742.725 1823.86 740.217C1825.42 736.763 1827.51 731.057 1827.71 723.301C1827.97 719.376 1827.43 715.075 1826.56 710.228C1826.06 707.83 1825.29 705.373 1824.44 702.791C1823.99 701.507 1823.54 700.178 1822.97 698.869C1822.39 697.565 1821.76 696.242 1821.08 694.9C1816.38 685.411 1807.28 674.185 1796.23 664.487C1785.22 654.695 1772.4 646.502 1761.37 640.514C1758.75 639.12 1755.88 637.214 1752.8 635.458C1751.29 634.546 1749.77 633.607 1748.3 632.669C1746.83 631.732 1745.31 630.928 1743.92 630.09C1741.13 628.44 1738.7 626.915 1736.86 625.972C1735.05 624.962 1733.95 624.35 1733.95 624.35C1732.15 623.318 1730.57 622.658 1730.45 622.883C1730.33 623.106 1730.23 623.291 1730.23 623.291C1730.23 623.291 1730.13 623.476 1730.01 623.701C1729.89 623.924 1731.24 624.942 1733.03 625.96C1733.03 625.96 1734.1 626.588 1735.86 627.622C1737.65 628.612 1739.99 630.236 1742.59 632.091C1743.88 633.035 1745.28 633.966 1746.61 635.064C1747.93 636.161 1749.26 637.294 1750.56 638.432C1753.2 640.646 1755.48 643.152 1757.3 645.337C1765 654.729 1772.31 666.783 1777.99 678.459C1783.77 690.137 1787.96 701.374 1791.89 709.278C1792.45 710.4 1793.03 711.481 1793.63 712.523C1794.2 713.576 1794.75 714.603 1795.3 715.605C1796.4 717.601 1797.64 719.42 1798.78 721.166C1800.94 724.697 1803.5 727.653 1805.62 730.343C1810.18 735.615 1814.32 739.397 1817.38 741.696Z" clip-rule="evenodd" fill-rule="evenodd"></path>
<path fill="#40D3FD" d="M1843.05 741.449C1845.06 743.323 1848.2 742.898 1849.53 740.487C1851.38 737.152 1853.85 731.72 1855.07 724.214C1856.33 716.717 1856.39 707.097 1853.43 695.858C1850.85 685.962 1844.95 673.425 1837.57 661.145C1830.22 648.825 1821.42 636.803 1813.86 626.876C1812.07 624.544 1810.21 621.655 1808.26 618.722C1806.35 615.765 1804.48 612.693 1802.74 609.962C1799.35 604.453 1796.71 600.171 1796.71 600.171C1795.64 598.393 1794.59 597.047 1794.38 597.182C1794.16 597.316 1793.99 597.427 1793.99 597.427C1793.99 597.427 1793.81 597.537 1793.59 597.673C1793.38 597.807 1794.07 599.366 1795.14 601.134C1795.14 601.134 1795.77 602.213 1796.81 603.984C1797.86 605.748 1799.2 608.277 1800.66 611.143C1802.15 613.991 1803.65 617.242 1805 620.46C1806.39 623.656 1807.49 626.889 1808.27 629.672C1811.54 641.55 1814.19 655.717 1816.28 669.083C1818.42 682.462 1820.02 695.039 1822.38 704.108C1825.1 714.4 1828.82 722.343 1832.61 728.47C1836.44 734.579 1840.26 738.851 1843.05 741.449Z" clip-rule="evenodd" fill-rule="evenodd"></path>
<path fill="#40D3FD" d="M1957.22 807.427C1960.01 806.346 1960.52 803.174 1958.73 800.962C1957.48 799.434 1955.87 797.626 1954.01 795.457C1953.54 794.943 1953.06 794.411 1952.55 793.857C1952.05 793.292 1951.54 792.704 1951 792.097C1949.94 790.944 1948.81 789.713 1947.6 788.406C1947 787.758 1946.38 787.115 1945.74 786.476C1945.11 785.795 1944.47 785.092 1943.8 784.41C1942.43 783.092 1941.06 781.561 1939.54 780.142C1936.56 777.136 1933.21 774.003 1929.38 770.539C1922.69 764.427 1912.95 756.391 1903.85 745.709C1894.65 735.074 1886.01 722.076 1879.72 710.29C1876.73 704.767 1873.78 696.7 1871.66 690.006C1869.54 683.311 1868.16 678.02 1868.16 678.02C1867.59 675.84 1866.92 674.11 1866.67 674.174C1866.42 674.24 1866.21 674.293 1866.21 674.293C1866.21 674.293 1866.01 674.347 1865.76 674.413C1865.51 674.478 1865.78 676.316 1866.35 678.498C1866.35 678.498 1871.84 699.624 1873.69 712.246C1875.53 725.682 1878.2 741.834 1883.84 757.094C1886.63 764.729 1890.2 772.105 1894.28 778.515C1898.34 784.943 1902.92 790.443 1907.42 794.59C1912.58 799.268 1918.02 802.698 1923.2 805.124C1925.85 806.269 1928.33 807.29 1930.83 807.946C1932.06 808.292 1933.25 808.611 1934.42 808.872C1935.61 809.094 1936.76 809.279 1937.87 809.434C1940.07 809.783 1942.19 809.848 1944.13 809.838C1945.1 809.83 1946.02 809.82 1946.9 809.757C1947.8 809.667 1948.66 809.563 1949.47 809.445C1952.69 809.032 1955.28 808.183 1957.22 807.427Z" clip-rule="evenodd" fill-rule="evenodd"></path>
<path fill="#40D3FD" d="M1980.87 864.354C1982.68 862.05 1981.65 858.974 1978.97 857.922C1975.22 856.438 1969.55 854.824 1962.26 853.449C1961.35 853.299 1960.42 853.163 1959.47 853.046C1958.51 852.892 1957.52 852.734 1956.5 852.571C1954.47 852.28 1952.35 852.064 1950.13 851.953C1947.9 851.794 1945.55 851.55 1943.11 851.526C1941.88 851.522 1940.63 851.518 1939.34 851.513C1938.06 851.465 1936.74 851.449 1935.39 851.465C1925.91 851.655 1913.07 852.963 1899.07 852.617C1885.1 852.374 1870.04 850.395 1857.5 846.665C1854.57 845.763 1851.11 844.571 1847.81 842.836C1846.14 842.014 1844.46 841.152 1842.81 840.289C1841.16 839.423 1839.67 838.386 1838.2 837.482C1835.28 835.634 1832.69 833.961 1830.99 832.546C1829.25 831.185 1828.19 830.355 1828.19 830.355C1826.45 828.971 1824.9 827.999 1824.73 828.199C1824.56 828.397 1824.43 828.559 1824.43 828.559C1824.43 828.559 1824.29 828.722 1824.13 828.922C1823.96 829.119 1825.26 830.428 1827.02 831.83C1827.02 831.83 1828.08 832.69 1829.82 834.101C1831.5 835.588 1834.03 837.395 1836.84 839.505C1838.25 840.539 1839.68 841.741 1841.23 842.809C1842.79 843.877 1844.37 844.984 1845.93 846.103C1848.98 848.429 1852.13 850.417 1854.66 852.385C1865.44 860.617 1879.39 869.382 1894.19 875.366C1908.92 881.451 1924.32 884.627 1935.87 884.382C1937.51 884.36 1939.1 884.304 1940.66 884.218C1942.21 884.115 1943.72 883.858 1945.19 883.645C1948.12 883.164 1950.89 882.681 1953.46 881.946C1956.02 881.158 1958.41 880.309 1960.61 879.42C1961.71 878.966 1962.77 878.54 1963.77 878.039C1964.78 877.514 1965.73 876.984 1966.65 876.454C1974.01 872.362 1978.38 867.512 1980.87 864.354Z" clip-rule="evenodd" fill-rule="evenodd"></path>
<path fill="#40D3FD" d="M1828.07 785.083C1830.88 783.533 1830.91 780.354 1828.33 778.502C1824.73 775.911 1818.99 772.552 1811.17 768.918C1809.21 768.077 1807.12 767.182 1804.9 766.234C1802.68 765.308 1800.32 764.422 1797.81 763.598C1795.3 762.728 1792.68 761.747 1789.87 760.934C1788.46 760.534 1787.02 760.126 1785.54 759.706C1784.07 759.249 1782.55 758.809 1780.99 758.392C1770.01 755.522 1754.94 752.661 1739.14 747.995C1723.36 743.431 1706.91 737.023 1693.6 729.78C1690.5 728.059 1686.86 725.898 1683.45 723.254C1681.72 721.969 1679.98 720.643 1678.28 719.326C1676.58 718.007 1675.06 716.559 1673.55 715.252C1670.57 712.604 1667.93 710.222 1666.21 708.34C1664.44 706.499 1663.37 705.378 1663.37 705.378C1661.61 703.515 1660.02 702.129 1659.83 702.297C1659.64 702.467 1659.48 702.607 1659.48 702.607C1659.48 702.607 1659.32 702.744 1659.13 702.914C1658.94 703.084 1660.23 704.759 1662 706.638C1662 706.638 1663.07 707.785 1664.82 709.669C1666.5 711.614 1669.06 714.112 1671.89 716.987C1673.31 718.41 1674.74 720 1676.31 721.497C1677.88 722.992 1679.47 724.533 1681.03 726.077C1684.09 729.238 1687.26 732.098 1689.76 734.758C1700.45 745.959 1714.24 758.485 1729.2 768.561C1744.08 778.711 1760.01 786.29 1772.62 789.576C1774.41 790.054 1776.16 790.487 1777.87 790.879C1779.59 791.258 1781.3 791.484 1782.95 791.736C1786.27 792.188 1789.41 792.586 1792.42 792.698C1795.43 792.765 1798.27 792.718 1800.94 792.579C1802.27 792.502 1803.56 792.437 1804.81 792.289C1806.06 792.118 1807.27 791.93 1808.44 791.728C1817.75 790.255 1824.2 787.2 1828.07 785.083Z" clip-rule="evenodd" fill-rule="evenodd"></path>
<path fill="#40D3FD" d="M1685.85 594.873C1688.01 592.992 1687.51 589.836 1685.13 588.299C1681.81 586.135 1676.77 583.547 1670.36 580.581C1669.55 580.239 1668.73 579.907 1667.88 579.589C1667.04 579.214 1666.17 578.828 1665.28 578.432C1663.5 577.668 1661.62 576.96 1659.64 576.333C1657.67 575.637 1655.62 574.777 1653.42 574.14C1652.33 573.783 1651.19 573.546 1650.04 573.16C1648.9 572.761 1647.72 572.384 1646.51 572.033C1637.98 569.649 1626.05 567.102 1613.65 562.054C1612.1 561.403 1610.55 560.747 1608.99 560.089C1608.21 559.751 1607.4 559.449 1606.63 559.079L1604.36 557.911C1601.34 556.33 1598.13 554.867 1595.3 552.967C1593.83 552.056 1592.36 551.151 1590.92 550.254C1590.17 549.819 1589.47 549.337 1588.82 548.82C1588.14 548.314 1587.47 547.812 1586.8 547.314C1585.46 546.298 1584.13 545.296 1582.82 544.311C1582.15 543.828 1581.53 543.303 1580.96 542.751C1580.37 542.21 1579.78 541.672 1579.2 541.141C1577.04 539.117 1574.48 536.63 1572.45 533.65C1571.38 532.197 1570.31 530.705 1569.28 529.227C1568.25 527.748 1567.5 526.151 1566.66 524.701C1565.87 523.225 1565.12 521.833 1564.45 520.572C1563.72 519.329 1563.37 518.088 1562.94 517.112C1562.16 515.119 1561.68 513.906 1561.68 513.906C1560.92 511.899 1560.09 510.32 1559.85 510.398C1559.6 510.476 1559.4 510.542 1559.4 510.542C1559.4 510.542 1559.2 510.606 1558.96 510.686C1558.71 510.763 1559.15 512.5 1559.93 514.547C1559.93 514.547 1560.39 515.791 1561.15 517.834C1561.56 518.841 1561.87 520.124 1562.53 521.424C1563.13 522.752 1563.8 524.22 1564.5 525.777C1565.23 527.322 1565.85 529.037 1566.71 530.663C1567.58 532.287 1568.45 533.958 1569.28 535.627C1570.85 539.041 1572.79 542.115 1574.16 544.941C1574.53 545.692 1574.9 546.451 1575.28 547.218C1575.64 548.001 1576.04 548.765 1576.51 549.495C1577.39 550.999 1578.3 552.531 1579.22 554.083C1579.68 554.868 1580.15 555.659 1580.62 556.453C1581.08 557.266 1581.58 558.053 1582.13 558.797C1583.21 560.33 1584.3 561.88 1585.4 563.44C1587.54 566.676 1590.15 569.556 1592.7 572.598L1594.64 574.866C1595.3 575.604 1596.02 576.274 1596.71 576.982C1598.13 578.38 1599.55 579.775 1600.96 581.161C1601.68 581.846 1602.38 582.564 1603.12 583.215C1603.88 583.842 1604.63 584.467 1605.39 585.09C1606.93 586.328 1608.45 587.555 1609.95 588.765C1611.44 590.02 1613.04 591.059 1614.63 592.089C1616.22 593.112 1617.79 594.118 1619.33 595.104C1620.12 595.583 1620.88 596.09 1621.67 596.517C1622.47 596.923 1623.26 597.325 1624.04 597.721C1625.62 598.504 1627.17 599.25 1628.69 599.951C1631.69 601.45 1634.73 602.35 1637.53 603.178C1639.12 603.637 1640.68 604.051 1642.21 604.422C1643.74 604.777 1645.29 604.925 1646.78 605.127C1649.77 605.459 1652.59 605.768 1655.29 605.724C1658.01 605.61 1660.55 605.384 1662.92 605.072C1664.11 604.904 1665.24 604.768 1666.35 604.518C1667.45 604.236 1668.51 603.938 1669.53 603.629C1677.68 601.376 1682.87 597.427 1685.85 594.873Z" clip-rule="evenodd" fill-rule="evenodd"></path>
<path fill="#40D3FD" d="M2023.15 839.236C2025.34 837.265 2024.89 834.064 2022.37 832.59C2018.87 830.529 2013.37 827.957 2006.01 825.657C2002.34 824.642 1998.19 823.404 1993.57 822.71C1991.25 822.308 1988.81 821.874 1986.24 821.61C1984.96 821.458 1983.64 821.38 1982.29 821.249C1980.94 821.108 1979.55 820.994 1978.13 820.912C1968.13 820.376 1954.6 821.028 1940.06 820.695C1925.54 820.433 1910.03 819.144 1896.92 816.568C1893.86 815.946 1890.25 815.045 1886.69 813.736C1884.89 813.111 1883.08 812.452 1881.32 811.787C1879.55 811.119 1877.88 810.328 1876.27 809.629C1873.06 808.204 1870.22 806.9 1868.26 805.81C1866.28 804.751 1865.07 804.106 1865.07 804.106C1863.1 803.024 1861.37 802.323 1861.25 802.548C1861.12 802.773 1861.02 802.958 1861.02 802.958C1861.02 802.958 1860.91 803.142 1860.79 803.368C1860.66 803.593 1862.18 804.668 1864.18 805.757C1864.18 805.757 1865.38 806.428 1867.35 807.532C1869.3 808.692 1872.09 810.129 1875.21 811.821C1876.77 812.653 1878.39 813.609 1880.09 814.486C1881.78 815.359 1883.5 816.268 1885.2 817.195C1888.56 819.106 1891.91 820.814 1894.64 822.516C1906.28 829.672 1920.65 837.572 1935.37 843.402C1950.03 849.295 1964.97 853.06 1976.3 853.661C1977.9 853.754 1979.47 853.811 1981 853.838C1982.54 853.852 1984.04 853.754 1985.49 853.673C1988.4 853.474 1991.15 853.23 1993.74 852.78C1998.92 851.773 2003.44 850.629 2007.3 848.966C2015.04 845.903 2020.14 841.946 2023.15 839.236Z" clip-rule="evenodd" fill-rule="evenodd"></path>
<path fill="#40D3FD" d="M1914.49 683.919C1916.36 685.732 1919.55 685.578 1921.08 683.459C1923.19 680.531 1926.13 675.667 1927.79 668.712C1928.74 665.221 1929.11 661.261 1929.22 656.777C1929.23 654.544 1929.03 652.211 1928.74 649.752C1928.49 647.288 1927.97 644.742 1927.26 642.107C1924.88 632.795 1918.96 621.11 1911.22 610.157C1903.54 599.144 1894.12 588.935 1885.93 580.864C1883.98 578.971 1881.94 576.565 1879.75 574.186C1878.67 572.979 1877.61 571.744 1876.58 570.522C1875.55 569.301 1874.47 568.163 1873.51 567.04C1871.55 564.811 1869.87 562.791 1868.57 561.417C1867.31 560.006 1866.55 559.148 1866.55 559.148C1865.3 557.717 1864.13 556.687 1863.94 556.858C1863.75 557.03 1863.59 557.169 1863.59 557.169C1863.59 557.169 1863.44 557.31 1863.25 557.481C1863.06 557.653 1863.92 558.952 1865.15 560.368C1865.15 560.368 1865.89 561.234 1867.11 562.659C1868.35 564.063 1869.9 566.152 1871.62 568.525C1872.47 569.72 1873.4 570.95 1874.24 572.282C1875.08 573.616 1875.92 574.984 1876.73 576.35C1878.39 579.048 1879.69 581.87 1880.67 584.306C1884.74 594.736 1887.99 607.367 1890.23 619.233C1892.54 631.12 1893.88 642.219 1895.92 650.189C1896.53 652.45 1897.21 654.576 1897.85 656.604C1898.51 658.625 1899.31 660.512 1900.07 662.304C1901.5 665.903 1903.36 669.032 1904.97 671.82C1908.42 677.357 1911.89 681.398 1914.49 683.919Z" clip-rule="evenodd" fill-rule="evenodd"></path>
<path fill="#40D3FD" d="M1457.84 497.271C1460.48 495.744 1460.54 492.539 1458.18 490.642C1454.9 487.982 1449.7 484.561 1442.73 480.733C1441.86 480.276 1440.95 479.826 1440.02 479.384C1439.09 478.902 1438.14 478.406 1437.15 477.895C1435.18 476.905 1433.09 475.954 1430.86 475.064C1428.63 474.121 1426.32 473.041 1423.82 472.138C1422.58 471.692 1421.29 471.235 1419.98 470.766C1418.68 470.249 1417.34 469.75 1415.96 469.271C1406.22 465.98 1392.73 462.405 1378.73 456.703C1364.74 451.119 1350.36 443.363 1339.14 434.856C1336.54 432.838 1333.49 430.341 1330.8 427.366C1329.41 425.913 1328.03 424.42 1326.68 422.939C1325.34 421.458 1324.2 419.858 1323.05 418.403C1320.77 415.463 1318.77 412.825 1317.56 410.773C1316.3 408.759 1315.52 407.533 1315.52 407.533C1314.27 405.501 1313.06 403.942 1312.84 404.069C1312.62 404.198 1312.44 404.303 1312.44 404.303C1312.44 404.303 1312.26 404.407 1312.04 404.535C1311.81 404.662 1312.67 406.45 1313.94 408.506C1313.94 408.506 1314.7 409.759 1315.94 411.818C1317.11 413.93 1319.02 416.675 1321.1 419.82C1322.16 421.377 1323.17 423.106 1324.37 424.747C1325.56 426.387 1326.77 428.074 1327.94 429.76C1330.21 433.205 1332.7 436.335 1334.58 439.209C1342.65 451.306 1353.74 464.999 1366.61 476.21C1379.38 487.498 1393.81 496.12 1405.51 500.059C1407.16 500.632 1408.79 501.157 1410.38 501.64C1411.98 502.105 1413.59 502.401 1415.14 502.729C1418.26 503.325 1421.21 503.87 1424.05 504.095C1426.9 504.266 1429.6 504.315 1432.12 504.265C1433.39 504.229 1434.6 504.211 1435.79 504.096C1436.98 503.956 1438.13 503.796 1439.24 503.62C1448.09 502.385 1454.21 499.353 1457.84 497.271Z" clip-rule="evenodd" fill-rule="evenodd"></path>
<path fill="#2399CC" d="M1621.16 634.198C1623.14 632.371 1622.73 629.195 1620.61 627.595C1617.64 625.347 1613.12 622.572 1607.37 619.583C1606.65 619.233 1605.91 618.894 1605.15 618.566C1604.4 618.195 1603.62 617.815 1602.82 617.425C1601.22 616.674 1599.53 615.979 1597.75 615.366C1595.98 614.695 1594.13 613.902 1592.15 613.31C1591.17 612.983 1590.14 612.757 1589.11 612.418C1588.07 612.062 1587.01 611.732 1585.91 611.429C1578.2 609.362 1567.37 607.489 1555.91 603.563C1544.47 599.756 1532.53 593.82 1523.41 586.791C1521.3 585.124 1518.84 583.041 1516.78 580.508C1515.71 579.274 1514.64 578.002 1513.6 576.74C1512.57 575.478 1511.76 574.102 1510.9 572.855C1509.22 570.331 1507.75 568.064 1506.95 566.297C1506.08 564.563 1505.56 563.508 1505.56 563.508C1504.71 561.759 1503.82 560.411 1503.58 560.511C1503.34 560.614 1503.15 560.698 1503.15 560.698C1503.15 560.698 1502.96 560.782 1502.72 560.884C1502.49 560.985 1503 562.527 1503.87 564.309C1503.87 564.309 1504.39 565.393 1505.23 567.176C1505.99 569.007 1507.36 571.379 1508.84 574.103C1509.59 575.45 1510.28 576.952 1511.16 578.37C1512.03 579.788 1512.92 581.246 1513.77 582.709C1515.38 585.702 1517.27 588.402 1518.63 590.912C1524.49 601.45 1533.18 613.489 1543.94 623.156C1544.6 623.767 1545.25 624.406 1545.93 624.987C1546.63 625.548 1547.32 626.106 1548.02 626.662C1549.43 627.766 1550.83 628.86 1552.21 629.942C1553.58 631.056 1555.04 631.986 1556.48 632.907C1557.93 633.833 1559.36 634.73 1560.79 635.595C1561.5 636.022 1562.2 636.471 1562.92 636.852C1563.65 637.215 1564.37 637.572 1565.08 637.926C1566.51 638.625 1567.92 639.287 1569.3 639.909C1572.04 641.23 1574.79 642.031 1577.33 642.749C1578.77 643.149 1580.19 643.504 1581.57 643.818C1582.97 644.119 1584.37 644.243 1585.71 644.408C1588.42 644.676 1590.98 644.903 1593.42 644.823C1595.88 644.686 1598.18 644.44 1600.33 644.112C1601.4 643.937 1602.43 643.786 1603.43 643.538C1604.43 643.263 1605.39 642.975 1606.32 642.673C1613.7 640.445 1618.44 636.688 1621.16 634.198Z" clip-rule="evenodd" fill-rule="evenodd"></path>
<path fill="#40D3FD" d="M1560.73 503.032C1562.22 500.507 1560.83 497.635 1557.95 497.044C1553.94 496.213 1547.8 495.509 1539.93 495.791C1536.03 496.027 1531.61 496.307 1526.88 497.209C1524.5 497.624 1521.99 498.078 1519.41 498.719C1516.83 499.382 1514.13 500.082 1511.32 500.926C1501.45 503.974 1488.67 509.511 1474.77 514.812C1460.9 520.151 1445.9 525.231 1432.71 528.427C1429.62 529.162 1425.91 529.856 1422.08 530.236C1418.25 530.679 1414.31 531.006 1410.75 531.101C1407.2 531.245 1404.03 531.33 1401.76 531.259C1399.49 531.213 1398.1 531.185 1398.1 531.185C1395.82 531.117 1393.94 531.27 1393.93 531.524C1393.92 531.779 1393.91 531.988 1393.91 531.988C1393.91 531.988 1393.9 532.197 1393.89 532.453C1393.88 532.708 1395.75 532.971 1398.04 533.037C1398.04 533.037 1399.43 533.091 1401.72 533.178C1404 533.317 1407.18 533.368 1410.76 533.5C1414.34 533.64 1418.32 533.795 1422.21 533.947C1426.1 534.187 1429.9 534.323 1433.12 534.693C1446.82 536.204 1463.22 537.54 1479.08 537.242C1494.92 537.003 1510.15 535.121 1520.96 531.775C1524.04 530.85 1526.92 529.825 1529.59 528.646C1532.26 527.487 1534.76 526.324 1537.04 525.053C1541.6 522.436 1545.49 519.861 1548.63 517.103C1554.99 511.766 1558.66 506.516 1560.73 503.032Z" clip-rule="evenodd" fill-rule="evenodd"></path>
<path fill="#40D3FD" d="M1775.69 522.354C1777.92 521.554 1779.42 518.72 1778.71 516.441C1777.74 513.295 1775.82 508.629 1771.93 503.94C1768.07 499.232 1762.22 494.446 1753.81 491.334C1746.42 488.57 1735.71 487.239 1724.57 487.179C1713.41 487.078 1701.87 488.244 1692.31 489.356C1687.81 489.858 1681.78 489.733 1676.86 489.66C1671.95 489.511 1668.13 489.397 1668.13 489.397C1666.56 489.319 1665.26 489.467 1665.25 489.725C1665.24 489.982 1665.24 490.193 1665.24 490.193C1665.24 490.193 1665.23 490.404 1665.22 490.661C1665.21 490.918 1666.48 491.189 1668.05 491.265C1668.05 491.265 1668.99 491.323 1670.55 491.419C1672.1 491.503 1674.26 491.747 1676.67 492.074C1681.51 492.697 1687.36 493.927 1691.45 495.633C1700.19 499.222 1709.95 504.424 1718.89 509.499C1727.86 514.549 1736.02 519.454 1742.55 521.891C1749.97 524.634 1756.59 525.284 1762.26 525C1767.93 524.683 1772.59 523.467 1775.69 522.354Z" clip-rule="evenodd" fill-rule="evenodd"></path>
<path fill="#2399CC" d="M1629.58 664.061C1631.19 665.872 1634.35 666.19 1636.15 664.549C1638.63 662.285 1642.2 658.4 1644.75 652.423C1646.15 649.437 1647.02 645.953 1647.7 641.959C1647.99 639.966 1648.08 637.86 1648.1 635.634C1648.15 633.403 1647.95 631.075 1647.57 628.654C1646.35 620.099 1641.86 609.159 1635.48 598.996C1629.15 588.769 1621.04 579.411 1613.93 572.16C1612.24 570.458 1610.51 568.292 1608.62 566.163C1607.71 565.084 1606.8 563.977 1605.93 562.884C1605.06 561.79 1604.12 560.779 1603.3 559.777C1601.63 557.788 1600.21 555.984 1599.08 554.768C1598 553.515 1597.35 552.752 1597.35 552.752C1596.28 551.479 1595.25 550.577 1595.06 550.749C1594.87 550.919 1594.71 551.058 1594.71 551.058C1594.71 551.058 1594.56 551.197 1594.36 551.367C1594.17 551.538 1594.88 552.704 1595.93 553.959C1595.93 553.959 1596.56 554.726 1597.6 555.989C1598.66 557.233 1599.96 559.099 1601.38 561.22C1602.08 562.288 1602.86 563.383 1603.54 564.581C1604.22 565.778 1604.9 567.007 1605.54 568.233C1606.87 570.652 1607.85 573.196 1608.53 575.388C1611.41 584.782 1613.14 596.07 1613.89 606.487C1614.72 616.939 1614.62 626.497 1615.62 633.403C1615.93 635.367 1616.33 637.219 1616.69 638.986C1617.08 640.752 1617.63 642.417 1618.15 644.003C1619.09 647.177 1620.53 650.015 1621.76 652.559C1624.45 657.638 1627.34 661.541 1629.58 664.061Z" clip-rule="evenodd" fill-rule="evenodd"></path>
<path fill="#40D3FD" d="M1710.79 727.024C1713.54 725.479 1713.55 722.28 1711.05 720.406C1707.57 717.773 1702.05 714.425 1694.71 710.585C1693.79 710.13 1692.83 709.681 1691.85 709.241C1690.87 708.753 1689.87 708.251 1688.83 707.735C1686.76 706.733 1684.55 705.766 1682.21 704.863C1679.87 703.902 1677.44 702.78 1674.83 701.846C1673.53 701.346 1672.16 700.946 1670.8 700.419C1669.44 699.874 1668.04 699.349 1666.59 698.841C1656.39 695.36 1642.3 691.401 1627.78 685.082C1613.27 678.891 1598.47 670.296 1587.09 660.967C1584.45 658.756 1581.35 656.039 1578.67 652.819C1577.28 651.248 1575.9 649.634 1574.55 648.037C1573.2 646.438 1572.1 644.716 1570.95 643.149C1568.71 639.986 1566.73 637.149 1565.57 634.952C1564.35 632.795 1563.61 631.481 1563.61 631.481C1562.4 629.305 1561.22 627.619 1560.99 627.734C1560.76 627.849 1560.57 627.945 1560.57 627.945C1560.57 627.945 1560.38 628.039 1560.15 628.156C1559.92 628.271 1560.73 630.167 1561.96 632.37C1561.96 632.37 1562.69 633.71 1563.89 635.914C1565 638.172 1566.88 641.11 1568.93 644.474C1569.97 646.138 1570.95 647.985 1572.14 649.739C1573.33 651.491 1574.53 653.291 1575.69 655.092C1577.93 658.765 1580.45 662.097 1582.33 665.142C1590.43 677.956 1601.79 692.441 1615.16 704.288C1615.98 705.035 1616.79 705.812 1617.64 706.529C1618.5 707.222 1619.36 707.912 1620.22 708.6C1621.95 709.969 1623.68 711.324 1625.38 712.662C1627.07 714.041 1628.85 715.218 1630.61 716.381C1632.39 717.541 1634.13 718.681 1635.85 719.797C1636.71 720.341 1637.56 720.913 1638.43 721.406C1639.31 721.882 1640.19 722.351 1641.05 722.817C1642.78 723.738 1644.48 724.619 1646.15 725.454C1649.45 727.21 1652.77 728.395 1655.83 729.483C1657.57 730.093 1659.28 730.653 1660.95 731.168C1662.63 731.667 1664.33 731.98 1665.96 732.333C1669.24 732.972 1672.33 733.567 1675.32 733.822C1678.33 734.015 1681.16 734.085 1683.81 734.055C1685.15 734.027 1686.42 734.02 1687.67 733.909C1688.92 733.77 1690.13 733.611 1691.29 733.436C1700.59 732.225 1706.99 729.123 1710.79 727.024Z" clip-rule="evenodd" fill-rule="evenodd"></path>
<path fill="#F2A877" d="M1793.04 841.449C1795.67 839.533 1795.21 836.357 1792.38 834.842C1788.42 832.702 1782.3 830.184 1774.27 827.243C1773.27 826.904 1772.23 826.576 1771.17 826.263C1770.1 825.888 1769.01 825.502 1767.88 825.103C1765.63 824.335 1763.25 823.622 1760.74 822.987C1758.23 822.279 1755.61 821.387 1752.82 820.724C1751.43 820.352 1749.98 820.101 1748.53 819.697C1747.07 819.273 1745.58 818.871 1744.03 818.493C1733.21 815.936 1718.33 813.034 1702.92 807.401C1700.99 806.674 1699.06 805.942 1697.13 805.21C1696.16 804.832 1695.16 804.499 1694.2 804.085L1691.36 802.784C1687.58 801.024 1683.62 799.408 1680.04 797.3C1678.2 796.293 1676.36 795.294 1674.55 794.303C1673.62 793.827 1672.75 793.289 1671.9 792.717C1671.04 792.158 1670.19 791.604 1669.34 791.054C1667.64 789.934 1665.95 788.831 1664.3 787.747C1663.45 787.217 1662.66 786.636 1661.91 786.028C1661.14 785.429 1660.39 784.836 1659.64 784.25C1656.83 782.017 1653.5 779.29 1650.64 775.973C1649.16 774.364 1647.68 772.709 1646.23 771.071C1644.79 769.43 1643.62 767.634 1642.4 766.016C1641.22 764.366 1640.1 762.807 1639.09 761.397C1638.57 760.702 1638.13 760.009 1637.76 759.338C1637.37 758.675 1637.01 758.059 1636.68 757.498C1635.39 755.246 1634.61 753.874 1634.61 753.874C1633.33 751.603 1632.1 749.839 1631.87 749.956C1631.64 750.073 1631.45 750.168 1631.45 750.168C1631.45 750.168 1631.27 750.264 1631.04 750.381C1630.81 750.497 1631.68 752.476 1632.98 754.779C1632.98 754.779 1633.75 756.179 1635.02 758.482C1635.34 759.06 1635.68 759.694 1636.05 760.378C1636.41 761.073 1636.83 761.792 1637.32 762.519C1638.26 764.003 1639.31 765.645 1640.41 767.383C1641.54 769.106 1642.59 771.033 1643.88 772.837C1645.18 774.638 1646.48 776.489 1647.76 778.339C1650.2 782.133 1652.98 785.508 1655.07 788.615C1655.63 789.441 1656.2 790.275 1656.78 791.117C1657.34 791.977 1657.94 792.815 1658.6 793.611C1659.88 795.247 1661.19 796.913 1662.52 798.603C1663.19 799.454 1663.87 800.313 1664.54 801.177C1665.21 802.059 1665.91 802.911 1666.68 803.711C1668.17 805.36 1669.68 807.026 1671.2 808.704C1674.19 812.186 1677.63 815.245 1681.02 818.473L1683.58 820.878C1684.45 821.661 1685.38 822.362 1686.28 823.107C1688.11 824.578 1689.93 826.042 1691.75 827.498C1692.67 828.217 1693.57 828.972 1694.51 829.652C1695.47 830.304 1696.42 830.955 1697.37 831.601C1699.3 832.889 1701.21 834.163 1703.09 835.421C1704.97 836.727 1706.93 837.794 1708.87 838.851C1710.83 839.902 1712.76 840.937 1714.64 841.951C1715.6 842.439 1716.53 842.965 1717.48 843.398C1718.45 843.81 1719.4 844.218 1720.35 844.618C1722.24 845.415 1724.11 846.171 1725.92 846.883C1729.53 848.413 1733.12 849.298 1736.41 850.128C1738.29 850.586 1740.13 851.001 1741.93 851.371C1743.73 851.723 1745.53 851.858 1747.26 852.054C1750.75 852.367 1754.04 852.673 1757.18 852.608C1760.32 852.47 1763.28 852.226 1766.03 851.899C1767.41 851.722 1768.74 851.579 1770.02 851.319C1771.3 851.026 1772.54 850.717 1773.72 850.399C1783.22 848.076 1789.42 844.052 1793.04 841.449Z" clip-rule="evenodd" fill-rule="evenodd"></path>
<path fill="#2399CC" d="M1930.69 840.604C1933.42 839.154 1933.62 835.997 1931.23 834.074C1927.92 831.391 1922.56 827.808 1915.11 824.116C1911.36 822.397 1907.13 820.375 1902.27 818.768C1899.86 817.916 1897.31 817.006 1894.58 816.233C1893.22 815.862 1891.82 815.48 1890.38 815.089C1888.95 814.681 1887.48 814.292 1885.96 813.927C1875.27 811.397 1860.58 809.307 1845.05 806.106C1829.54 802.976 1813.2 798.703 1799.63 793.683C1796.46 792.489 1792.75 790.919 1789.14 788.962C1787.32 788.012 1785.49 787.022 1783.7 786.035C1781.91 785.046 1780.23 783.955 1778.62 782.966C1775.4 780.964 1772.55 779.149 1770.61 777.711C1768.64 776.3 1767.44 775.441 1767.44 775.441C1765.48 774.006 1763.74 772.998 1763.58 773.198C1763.43 773.399 1763.3 773.563 1763.3 773.563C1763.3 773.563 1763.17 773.728 1763.01 773.931C1762.85 774.131 1764.34 775.474 1766.32 776.916C1766.32 776.916 1767.51 777.801 1769.46 779.253C1771.38 780.756 1774.16 782.692 1777.25 784.937C1778.8 786.048 1780.39 787.29 1782.08 788.468C1783.76 789.646 1785.47 790.864 1787.15 792.091C1790.46 794.598 1793.79 796.907 1796.46 799.093C1807.85 808.308 1821.95 818.747 1836.62 827.24C1851.24 835.785 1866.37 842.32 1878.24 845.125C1879.92 845.531 1881.57 845.895 1883.18 846.22C1884.8 846.534 1886.4 846.738 1887.95 846.946C1891.07 847.331 1894.02 847.637 1896.84 847.718C1902.5 847.779 1907.51 847.576 1911.92 846.753C1920.71 845.36 1926.93 842.594 1930.69 840.604Z" clip-rule="evenodd" fill-rule="evenodd"></path>
<path fill="#F2A877" d="M1852.98 752.774C1855.26 754.357 1858.4 753.671 1859.39 751.047C1860.73 747.447 1862.58 741.343 1861.82 733.157C1861.75 732.127 1861.66 731.061 1861.54 729.958C1861.38 728.87 1861.11 727.792 1860.86 726.658C1860.32 724.399 1859.64 722.011 1858.8 719.513C1857.9 717.051 1856.63 714.608 1855.28 712.018C1854.58 710.745 1853.9 709.394 1853.04 708.131C1852.16 706.879 1851.24 705.612 1850.26 704.336C1848.52 702.101 1846.63 699.674 1844.21 697.492C1843.03 696.367 1841.81 695.232 1840.54 694.088C1839.9 693.522 1839.25 692.951 1838.6 692.37C1837.93 691.81 1837.2 691.303 1836.49 690.765C1835.06 689.705 1833.58 688.643 1832.08 687.588C1830.59 686.525 1829.07 685.454 1827.4 684.549C1825.77 683.625 1824.12 682.687 1822.45 681.741C1821.61 681.283 1820.78 680.822 1819.94 680.36C1819.08 679.925 1818.18 679.548 1817.3 679.144C1815.55 678.368 1813.78 677.587 1812 676.804C1811.11 676.429 1810.25 676.021 1809.34 675.684L1806.6 674.742C1802.93 673.525 1799.39 672.209 1795.7 671.432C1793.89 670.996 1792.1 670.562 1790.32 670.134C1789.45 669.901 1788.56 669.732 1787.66 669.608C1786.77 669.468 1785.89 669.326 1785.01 669.188C1783.28 668.913 1781.57 668.643 1779.89 668.376C1778.25 668.054 1776.54 668.054 1774.93 667.88C1771.89 667.652 1768.42 666.99 1764.77 666.781C1762.97 666.612 1761.15 666.415 1759.37 666.205C1757.6 665.997 1755.83 666.04 1754.17 665.927C1752.52 665.837 1750.95 665.752 1749.54 665.676C1748.13 665.532 1746.86 665.699 1745.8 665.679C1743.68 665.71 1742.4 665.729 1742.4 665.729C1740.27 665.739 1738.54 665.958 1738.56 666.213C1738.57 666.469 1738.58 666.679 1738.58 666.679C1738.58 666.679 1738.59 666.89 1738.61 667.146C1738.62 667.402 1740.34 667.605 1742.43 667.594C1742.43 667.594 1743.69 667.599 1745.77 667.61C1746.81 667.664 1748.05 667.548 1749.43 667.766C1750.81 667.938 1752.33 668.127 1753.94 668.329C1755.55 668.576 1757.26 668.702 1758.95 669.117C1760.65 669.535 1762.38 669.98 1764.06 670.445C1767.47 671.247 1770.61 672.694 1773.19 673.953C1784.17 679.502 1795.3 688.397 1804 697.885C1812.83 707.342 1819.23 717.194 1824.35 724.006C1825.09 724.974 1825.84 725.896 1826.61 726.779C1827.35 727.668 1827.97 728.606 1828.68 729.458C1830.02 731.198 1831.53 732.731 1832.86 734.249C1834.13 735.797 1835.44 737.22 1836.77 738.54C1837.45 739.196 1838.11 739.835 1838.76 740.456C1839.35 741.099 1839.95 741.716 1840.55 742.312C1845.56 746.985 1849.78 750.571 1852.98 752.774Z" clip-rule="evenodd" fill-rule="evenodd"></path>
<path fill="#2399CC" d="M1787.72 748.675C1790.09 747.416 1790.57 744.277 1788.9 742.207C1786.58 739.315 1782.8 735.434 1777.59 731.255C1774.94 729.317 1772.02 726.976 1768.57 725.058C1766.86 724.04 1765.07 722.937 1763.13 721.97C1762.16 721.465 1761.14 721.026 1760.12 720.516C1759.1 719.996 1758.04 719.492 1756.95 719.005C1749.24 715.639 1738.29 712.242 1726.82 707.357C1715.36 702.561 1703.43 696.232 1694.05 689.373C1691.87 687.75 1689.37 685.699 1687.13 683.289C1685.99 682.108 1684.84 680.89 1683.74 679.681C1682.63 678.472 1681.68 677.18 1680.72 675.996C1678.84 673.606 1677.19 671.455 1676.17 669.797C1675.12 668.165 1674.47 667.17 1674.47 667.17C1673.43 665.521 1672.39 664.276 1672.17 664.404C1671.95 664.534 1671.77 664.641 1671.77 664.641C1671.77 664.641 1671.59 664.747 1671.37 664.877C1671.15 665.005 1671.84 666.478 1672.9 668.148C1672.9 668.148 1673.53 669.167 1674.56 670.84C1675.54 672.554 1677.09 674.806 1678.78 677.392C1679.63 678.675 1680.46 680.09 1681.41 681.453C1682.36 682.814 1683.32 684.217 1684.25 685.622C1686.04 688.481 1687.97 691.137 1689.4 693.579C1695.51 703.876 1703.81 715.814 1713.63 725.956C1723.36 736.146 1734.52 744.401 1743.87 748.468C1745.19 749.055 1746.49 749.596 1747.77 750.095C1749.06 750.581 1750.36 750.941 1751.62 751.31C1754.15 752.009 1756.55 752.622 1758.89 752.975C1763.6 753.564 1767.78 753.852 1771.56 753.383C1779.04 752.751 1784.46 750.398 1787.72 748.675Z" clip-rule="evenodd" fill-rule="evenodd"></path>
<path fill="#F2A877" d="M1516.6 562.388C1519.3 560.689 1519.15 557.498 1516.49 555.774C1512.79 553.353 1506.95 550.31 1499.13 546.974C1498.15 546.579 1497.14 546.192 1496.1 545.816C1495.06 545.399 1493.98 544.97 1492.88 544.529C1490.67 543.676 1488.32 542.87 1485.84 542.132C1483.36 541.343 1480.76 540.419 1477.98 539.686C1476.6 539.324 1475.17 538.953 1473.71 538.572C1472.27 538.142 1470.78 537.733 1469.24 537.347C1458.43 534.705 1443.59 532.014 1428.07 527.226C1412.56 522.555 1396.45 515.739 1383.6 507.952C1380.61 506.099 1377.09 503.797 1373.87 500.974C1372.22 499.604 1370.57 498.191 1368.97 496.789C1367.36 495.385 1365.95 493.84 1364.54 492.448C1361.76 489.628 1359.3 487.096 1357.75 485.093C1356.14 483.136 1355.16 481.945 1355.16 481.945C1353.56 479.967 1352.09 478.473 1351.88 478.628C1351.68 478.781 1351.51 478.907 1351.51 478.907C1351.51 478.907 1351.34 479.035 1351.14 479.189C1350.93 479.343 1352.08 481.103 1353.7 483.102C1353.7 483.102 1354.67 484.321 1356.26 486.324C1357.78 488.39 1360.15 491.036 1362.77 494.08C1364.09 495.583 1365.39 497.268 1366.86 498.846C1368.34 500.422 1369.83 502.045 1371.29 503.67C1374.13 507.002 1377.16 509.99 1379.51 512.766C1389.6 524.439 1402.97 537.43 1417.8 547.741C1432.54 558.141 1448.62 565.701 1461.33 568.797C1463.13 569.25 1464.9 569.658 1466.63 570.026C1468.36 570.376 1470.08 570.557 1471.75 570.773C1475.1 571.148 1478.26 571.482 1481.28 571.506C1484.31 571.477 1487.16 571.338 1489.83 571.111C1491.16 570.989 1492.45 570.885 1493.69 570.69C1494.94 570.467 1496.15 570.228 1497.31 569.976C1506.58 568.136 1512.87 564.705 1516.6 562.388Z" clip-rule="evenodd" fill-rule="evenodd"></path>
<path fill="#8164A6" d="M1585.74 614.553C1587.94 616.261 1591.06 615.624 1592.14 613.034C1593.61 609.465 1595.59 603.552 1595.55 595.523C1595.56 594.515 1595.55 593.474 1595.52 592.395C1595.47 591.328 1595.33 590.247 1595.19 589.122C1594.9 586.877 1594.5 584.502 1593.95 582.009C1593.36 579.533 1592.48 577.008 1591.52 574.349C1591.01 573.031 1590.52 571.659 1589.88 570.318C1589.23 568.984 1588.54 567.629 1587.79 566.255C1582.63 556.542 1572.85 545.181 1561.04 535.624C1549.28 525.962 1535.65 518.181 1523.93 512.723C1521.15 511.458 1518.08 509.679 1514.79 508.104C1513.16 507.279 1511.54 506.422 1509.95 505.568C1508.37 504.713 1506.74 504.017 1505.25 503.264C1502.25 501.795 1499.63 500.425 1497.65 499.623C1495.71 498.747 1494.52 498.214 1494.52 498.214C1492.58 497.314 1490.91 496.771 1490.81 497.005C1490.71 497.239 1490.63 497.43 1490.63 497.43C1490.63 497.43 1490.55 497.621 1490.45 497.855C1490.35 498.091 1491.84 499.008 1493.76 499.893C1493.76 499.893 1494.91 500.443 1496.82 501.346C1498.74 502.195 1501.28 503.673 1504.1 505.36C1505.5 506.222 1507.03 507.054 1508.47 508.076C1509.92 509.101 1511.38 510.16 1512.8 511.226C1515.7 513.283 1518.23 515.698 1520.27 517.796C1528.91 526.848 1537.25 538.744 1543.75 550.423C1550.35 562.099 1555.14 573.472 1559.41 581.48C1560.02 582.616 1560.65 583.71 1561.29 584.764C1561.9 585.833 1562.5 586.876 1563.08 587.894C1564.26 589.92 1565.57 591.765 1566.76 593.54C1567.91 595.332 1569.11 596.992 1570.33 598.537C1571.56 600.07 1572.73 601.52 1573.84 602.894C1578.51 608.278 1582.66 612.18 1585.74 614.553Z" clip-rule="evenodd" fill-rule="evenodd"></path>
<path fill="#2399CC" d="M1858.65 697.608C1860.96 699.448 1864.06 698.729 1864.98 695.797C1865.62 693.769 1866.32 691.082 1866.63 687.776C1866.82 686.111 1866.93 684.284 1866.87 682.327C1866.84 680.359 1866.75 678.21 1866.39 675.967C1866.23 674.839 1866.04 673.672 1865.82 672.464C1865.58 671.265 1865.26 670.055 1864.92 668.793C1864.28 666.254 1863.32 663.671 1862.21 660.946C1859.87 655.569 1856.6 649.817 1851.96 644.223C1847.86 639.326 1842.33 634.205 1835.7 629.602C1829.08 624.989 1821.36 620.905 1813.16 617.848C1804.97 614.774 1796.37 612.737 1788.06 611.659C1779.73 610.567 1771.7 610.422 1764.46 610.817C1757.65 611.13 1748.5 611.467 1741.09 612.445C1737.39 612.942 1734.11 613.429 1731.78 613.905C1730.61 614.119 1729.67 614.294 1729.02 614.413C1728.38 614.558 1728.02 614.638 1728.02 614.638C1725.69 615.154 1723.83 615.778 1723.89 616.027C1723.95 616.276 1724 616.479 1724 616.479C1724 616.479 1724.05 616.683 1724.11 616.931C1724.18 617.178 1726.1 616.966 1728.4 616.459C1728.4 616.459 1728.75 616.382 1729.38 616.246C1730.01 616.117 1730.95 615.985 1732.1 615.803C1734.41 615.399 1737.65 615.056 1741.3 614.841C1748.6 614.425 1757.56 615.211 1763.76 617.074C1770.37 618.994 1777.25 621.817 1783.8 625.382C1790.35 628.939 1796.54 633.226 1802.01 637.829C1813.04 647.021 1820.96 657.517 1827.13 664.926C1834.1 673.408 1840.13 680.112 1845.49 685.545C1850.81 690.956 1855.48 695.025 1858.65 697.608Z" clip-rule="evenodd" fill-rule="evenodd"></path>
<path fill="#2399CC" d="M2036.7 813.101C2038.58 811.377 2038.36 808.219 2036.45 806.554C2033.79 804.225 2029.67 801.244 2024.31 798.245C2022.95 797.562 2021.53 796.841 2020.03 796.083C2018.53 795.353 2016.94 794.675 2015.25 794.073C2013.57 793.433 2011.81 792.722 2009.93 792.18C2009 791.888 2008.02 791.672 2007.04 791.384C2006.05 791.084 2005.04 790.807 2003.99 790.556C1996.63 788.851 1986.34 787.751 1975.26 785.229C1964.2 782.797 1952.43 778.873 1942.96 773.895C1940.76 772.712 1938.21 771.176 1935.89 769.24C1934.71 768.302 1933.53 767.327 1932.38 766.354C1931.23 765.381 1930.23 764.3 1929.23 763.326C1927.25 761.351 1925.52 759.565 1924.43 758.147C1923.31 756.759 1922.62 755.914 1922.62 755.914C1921.51 754.509 1920.43 753.481 1920.23 753.632C1920.02 753.781 1919.85 753.903 1919.85 753.903C1919.85 753.903 1919.68 754.027 1919.48 754.177C1919.27 754.328 1920.03 755.617 1921.16 757.044C1921.16 757.044 1921.83 757.915 1922.94 759.35C1923.99 760.831 1925.64 762.729 1927.45 764.926C1928.37 766.013 1929.26 767.23 1930.27 768.376C1931.29 769.521 1932.32 770.703 1933.32 771.894C1935.26 774.334 1937.32 776.548 1938.89 778.647C1945.6 787.473 1954.69 797.541 1965.15 805.594C1975.53 813.706 1987.18 819.65 1996.51 821.798C1997.83 822.113 1999.13 822.387 2000.4 822.624C2001.67 822.849 2002.93 822.941 2004.16 823.053C2006.62 823.233 2008.95 823.358 2011.17 823.233C2013.39 823.071 2015.49 822.804 2017.44 822.461C2018.42 822.282 2019.36 822.115 2020.27 821.876C2021.18 821.617 2022.06 821.344 2022.9 821.06C2029.65 818.908 2034.1 815.464 2036.7 813.101Z" clip-rule="evenodd" fill-rule="evenodd"></path>
<path fill="#8163A6" d="M2004.53 884.137C2007.38 885.096 2010.01 883.284 2009.88 880.257C2009.69 876.086 2008.94 869.433 2005.57 861.381C2004 857.258 2001.53 853.02 1998.51 848.352C1996.95 846.061 1995.11 843.797 1993.13 841.436C1992.13 840.272 1991.11 839.057 1989.97 837.902C1988.83 836.757 1987.64 835.606 1986.39 834.449C1977.64 826.255 1963.88 817.601 1948.67 810.843C1933.48 803.992 1916.96 799.065 1903.01 795.77C1899.71 795.016 1895.95 793.811 1892.01 792.791C1890.06 792.244 1888.09 791.665 1886.17 791.082C1884.25 790.498 1882.33 790.052 1880.54 789.541C1876.95 788.552 1873.78 787.605 1871.45 787.086C1869.15 786.498 1867.75 786.14 1867.75 786.14C1865.44 785.53 1863.5 785.234 1863.44 785.483C1863.38 785.732 1863.33 785.936 1863.33 785.936C1863.33 785.936 1863.28 786.14 1863.22 786.389C1863.16 786.639 1864.99 787.338 1867.28 787.942C1867.28 787.942 1868.66 788.32 1870.94 788.944C1873.23 789.522 1876.33 790.595 1879.81 791.836C1881.54 792.472 1883.39 793.076 1885.22 793.857C1887.04 794.64 1888.9 795.454 1890.71 796.283C1894.37 797.87 1897.76 799.824 1900.55 801.575C1912.38 809.123 1925.02 819.472 1936.05 829.976C1947.15 840.446 1956.64 851.018 1964.31 858.198C1965.41 859.213 1966.5 860.18 1967.59 861.103C1968.66 862.043 1969.7 862.961 1970.72 863.856C1972.77 865.629 1974.85 867.176 1976.81 868.669C1980.63 871.735 1984.53 874.048 1987.87 876.193C1994.8 880.278 2000.55 882.814 2004.53 884.137Z" clip-rule="evenodd" fill-rule="evenodd"></path>
<path fill="#2399CC" d="M1695.99 626.818C1697.99 628.338 1701.18 627.919 1702.58 625.827C1704.5 622.938 1707.11 618.196 1708.38 611.627C1709.12 608.326 1709.31 604.623 1709.19 600.466C1709.09 598.398 1708.79 596.248 1708.4 593.992C1708.02 591.73 1707.41 589.407 1706.61 587.014C1703.89 578.55 1697.66 568.112 1689.87 558.366C1682.11 548.565 1672.84 539.512 1664.89 532.295C1663.01 530.602 1661.03 528.434 1658.93 526.27C1656.91 524.054 1654.84 521.791 1652.98 519.756C1651.13 517.715 1649.54 515.863 1648.32 514.594C1647.14 513.293 1646.42 512.502 1646.42 512.502C1645.25 511.182 1644.14 510.243 1643.95 510.415C1643.75 510.588 1643.6 510.728 1643.6 510.728C1643.6 510.728 1643.44 510.869 1643.25 511.042C1643.06 511.214 1643.85 512.426 1645.01 513.732C1645.01 513.732 1645.71 514.533 1646.85 515.85C1648 517.15 1649.48 519.076 1651.09 521.266C1652.75 523.428 1654.41 525.959 1655.92 528.49C1657.48 530.986 1658.74 533.593 1659.66 535.858C1663.52 545.556 1666.7 557.304 1669.08 568.323C1671.51 579.359 1673.17 589.656 1675.53 596.95C1676.22 599.018 1676.98 600.952 1677.72 602.791C1678.48 604.625 1679.35 606.324 1680.21 607.933C1681.84 611.169 1683.84 613.937 1685.64 616.392C1689.43 621.258 1693.21 624.708 1695.99 626.818Z" clip-rule="evenodd" fill-rule="evenodd"></path>
<path fill="#2399CC" d="M1899.29 716.199C1900.92 718.611 1904.09 718.908 1905.85 716.557C1908.27 713.318 1911.89 707.777 1913.94 699.389C1914.21 698.342 1914.48 697.251 1914.73 696.116C1914.95 694.986 1915.08 693.819 1915.23 692.606C1915.5 690.18 1915.69 687.582 1915.78 684.818C1915.8 682.064 1915.51 679.187 1915.18 676.137C1914.99 674.619 1914.83 673.045 1914.5 671.47C1914.15 669.904 1913.77 668.301 1913.33 666.667C1910.38 655.129 1902.92 640.739 1892.67 628.074C1882.5 615.294 1869.74 604.381 1858.4 596.603C1855.7 594.793 1852.79 592.381 1849.55 590.223C1847.97 589.1 1846.39 587.945 1844.85 586.8C1843.31 585.657 1841.68 584.707 1840.22 583.7C1837.25 581.728 1834.68 579.913 1832.67 578.836C1830.73 577.671 1829.55 576.962 1829.55 576.962C1827.6 575.773 1825.91 574.986 1825.79 575.211C1825.67 575.436 1825.56 575.62 1825.56 575.62C1825.56 575.62 1825.46 575.803 1825.34 576.03C1825.22 576.255 1826.68 577.397 1828.6 578.568C1828.6 578.568 1829.76 579.288 1831.65 580.472C1833.59 581.59 1836.06 583.497 1838.81 585.66C1840.17 586.762 1841.68 587.831 1843.05 589.122C1844.43 590.415 1845.81 591.747 1847.15 593.078C1849.92 595.653 1852.19 598.609 1854.02 601.127C1861.71 611.982 1868.38 625.936 1872.82 639.396C1877.38 652.877 1879.77 665.736 1882.16 675.021C1882.51 676.342 1882.89 677.622 1883.29 678.866C1883.67 680.112 1883.93 681.348 1884.29 682.536C1884.96 684.918 1885.82 687.151 1886.54 689.287C1887.21 691.43 1887.96 693.453 1888.75 695.367C1889.16 696.322 1889.57 697.252 1889.96 698.157C1890.3 699.064 1890.66 699.943 1891.02 700.799C1894.15 707.62 1896.99 712.838 1899.29 716.199Z" clip-rule="evenodd" fill-rule="evenodd"></path>
<mask height="103" width="103" y="339" x="1325" maskUnits="userSpaceOnUse" id="mask0">
<path fill="white" d="M1325.7 339.677H1427.8V441.61H1325.7V339.677Z" clip-rule="evenodd" fill-rule="evenodd"></path>
</mask>
<g mask="url(#mask0)">
<path fill="#2399CC" d="M1424.78 439.93C1427.33 439.177 1428.5 436.207 1427.37 433.842C1425.78 430.543 1423.02 425.953 1418.88 420.843C1416.74 418.407 1414.39 415.583 1411.44 413.032C1409.99 411.711 1408.48 410.309 1406.78 408.998C1405.94 408.329 1405.04 407.704 1404.15 407.023C1403.26 406.333 1402.33 405.65 1401.36 404.98C1394.5 400.305 1384.46 395.129 1374.08 388.612C1363.69 382.174 1353.01 374.36 1344.8 366.503C1342.89 364.649 1340.73 362.335 1338.86 359.727C1337.9 358.443 1336.95 357.121 1336.03 355.813C1335.11 354.504 1334.34 353.145 1333.56 351.883C1332.02 349.346 1330.69 347.066 1329.88 345.35C1329.04 343.649 1328.53 342.614 1328.53 342.614C1327.71 340.899 1326.85 339.578 1326.61 339.682C1326.38 339.787 1326.18 339.872 1326.18 339.872C1326.18 339.872 1325.99 339.956 1325.75 340.06C1325.52 340.164 1326.01 341.669 1326.84 343.403C1326.84 343.403 1327.33 344.46 1328.14 346.195C1328.89 347.961 1330.12 350.325 1331.43 353.028C1332.09 354.373 1332.72 355.835 1333.47 357.273C1334.21 358.711 1334.95 360.188 1335.66 361.664C1337.03 364.651 1338.51 367.481 1339.54 370.032C1343.98 380.813 1350.11 393.532 1357.82 404.854C1365.45 416.199 1374.61 426.027 1382.77 431.584C1383.92 432.379 1385.06 433.129 1386.19 433.832C1387.33 434.526 1388.5 435.112 1389.63 435.69C1391.91 436.819 1394.09 437.835 1396.26 438.601C1400.64 440.044 1404.59 441.072 1408.29 441.35C1415.59 442.146 1421.27 440.958 1424.78 439.93Z" clip-rule="evenodd" fill-rule="evenodd"></path>
</g>
<path fill="#F2A877" d="M1555.46 515.305C1557.28 516.992 1560.51 516.901 1562.15 515.035C1564.41 512.454 1567.53 508.197 1569.69 502.111C1571.88 496.042 1573.17 488.101 1571.72 478.597C1570.47 470.233 1566.33 459.455 1560.86 448.818C1555.42 438.15 1548.68 427.661 1542.96 418.985C1540.29 414.892 1537.42 409.026 1535.05 404.244C1532.75 399.433 1530.97 395.696 1530.97 395.696C1530.26 394.141 1529.49 392.96 1529.26 393.068C1529.02 393.176 1528.83 393.264 1528.83 393.264C1528.83 393.264 1528.64 393.353 1528.4 393.462C1528.17 393.571 1528.55 394.923 1529.26 396.466C1529.26 396.466 1529.67 397.408 1530.36 398.954C1531.05 400.496 1531.9 402.69 1532.8 405.175C1534.64 410.134 1536.45 416.358 1536.96 421.117C1538.11 431.241 1538.37 443.175 1538.36 454.319C1538.38 465.48 1538.16 475.859 1539.29 483.403C1540.6 491.968 1543.34 498.675 1546.43 503.939C1549.54 509.186 1552.94 512.963 1555.46 515.305Z" clip-rule="evenodd" fill-rule="evenodd"></path>
<path fill="#2399CC" d="M1499.7 722.109C1500.35 724.619 1503.15 726.195 1505.59 725.208C1508.95 723.842 1514.11 721.255 1519.19 716.079C1521.86 713.552 1524.2 710.275 1526.62 706.407C1527.77 704.454 1528.76 702.295 1529.76 699.99C1530.24 698.832 1530.75 697.645 1531.16 696.394C1531.55 695.139 1531.92 693.841 1532.27 692.503C1534.8 683.092 1535.15 669.804 1533.17 656.466C1531.27 643.082 1527.09 629.789 1522.89 619.119C1521.87 616.607 1521.01 613.592 1519.93 610.553C1519.42 609.027 1518.93 607.479 1518.47 605.959C1518.01 604.439 1517.44 602.982 1516.99 601.581C1516.05 598.788 1515.29 596.29 1514.58 594.543C1513.95 592.775 1513.56 591.699 1513.56 591.699C1512.94 589.915 1512.23 588.531 1511.99 588.621C1511.75 588.711 1511.55 588.785 1511.55 588.785C1511.55 588.785 1511.35 588.858 1511.11 588.948C1510.87 589.039 1511.17 590.554 1511.79 592.313C1511.79 592.313 1512.15 593.385 1512.74 595.145C1513.37 596.891 1513.99 599.401 1514.65 602.227C1514.96 603.644 1515.36 605.121 1515.6 606.665C1515.84 608.209 1516.06 609.786 1516.25 611.342C1516.7 614.443 1516.72 617.529 1516.61 620.119C1516.02 631.189 1513.46 643.818 1510.07 655.16C1506.75 666.562 1502.67 676.665 1500.61 684.378C1500.32 685.479 1500.07 686.56 1499.86 687.623C1499.64 688.686 1499.37 689.703 1499.18 690.721C1498.76 692.743 1498.54 694.726 1498.31 696.605C1497.74 700.319 1497.83 703.89 1497.78 707.032C1497.96 713.427 1498.79 718.611 1499.7 722.109Z" clip-rule="evenodd" fill-rule="evenodd"></path>
<path fill="#81DC6C" d="M1786.07 593.526C1788.53 592.517 1789.34 589.416 1788.07 587.201C1786.28 584.17 1783.49 579.752 1779.76 575.011C1776.01 570.222 1771.4 565.116 1765.19 559.696C1759.77 554.893 1751.67 549.095 1744.35 540.782C1740.69 536.656 1737.21 531.925 1734.3 526.864C1731.39 521.811 1729.05 516.436 1727.45 511.24C1725.91 506.363 1725.4 499.307 1725.86 493.576C1726.1 490.714 1726.44 488.173 1726.81 486.372C1727.12 484.559 1727.42 483.477 1727.42 483.477C1727.88 481.69 1728.05 480.169 1727.81 480.098C1727.56 480.027 1727.36 479.969 1727.36 479.969C1727.36 479.969 1727.15 479.913 1726.9 479.842C1726.66 479.769 1726.07 481.208 1725.6 483.038C1725.6 483.038 1725.3 484.142 1724.91 485.983C1724.47 487.811 1723.98 490.38 1723.46 493.287C1722.43 499.106 1721.8 506.321 1721.14 511.733C1720.38 517.484 1719.99 523.934 1720.37 530.705C1720.73 537.469 1721.86 544.547 1723.91 551.368C1725.94 558.193 1728.87 564.7 1732.32 570.299C1735.77 575.908 1739.74 580.605 1743.63 584.063C1752.58 591.886 1762.07 595.052 1769.54 595.767C1777.08 596.484 1782.68 594.961 1786.07 593.526Z" clip-rule="evenodd" fill-rule="evenodd"></path>
</g>
<mask height="121" width="2047" y="861" x="-47" maskUnits="userSpaceOnUse" id="mask1">
<path fill="white" d="M-47 861H2000V982H-47V861Z" clip-rule="evenodd" fill-rule="evenodd"></path>
</mask>
<g mask="url(#mask1)">
<path fill="#40D3FD" d="M1051.68 879.386C659 819.711 548.662 923.311 259.292 935.86C108.649 942.392 11.5181 963.381 -47 982H2000C1911.77 959.938 1809.32 948.394 1703.27 911.637C1387.76 802.276 1387.76 930.462 1051.68 879.386Z" clip-rule="evenodd" fill-rule="evenodd"></path>
</g>
<mask height="91" width="712" y="891" x="-236" maskUnits="userSpaceOnUse" id="mask2">
<path fill="white" d="M-236 891H476V982H-236V891Z" clip-rule="evenodd" fill-rule="evenodd"></path>
</mask>
<g mask="url(#mask2)">
<path fill="#8164A6" d="M292.154 922.896C241.054 886.89 201.984 882.359 154.428 904.31C123.625 918.528 95.2907 909.37 71.1325 911.184C25.549 914.611 -28.5017 954.646 -74.3687 944.289C-126.306 932.568 -182.517 949.947 -227.528 971.682C-230.59 973.157 -234.339 975.638 -236 982H476C476 978.379 472.995 974.72 470.549 972.141C415.469 914.097 398.66 997.949 292.154 922.896Z" clip-rule="evenodd" fill-rule="evenodd"></path>
</g>
</svg>
