<svg xmlns="http://www.w3.org/2000/svg" fill="none" viewBox="0 0 1920 964" height="964" width="1920">
  <rect fill="url(#paint0_linear)" height="849" width="1920" y="112.677" opacity="0.5"></rect>
  <g opacity="0.315901">
    <path fill="#FDFDFD" d="M584.308 602.168C577.346 610.328 582.521 641.862 589.265 651.866C613.406 687.673 634.019 677.002 647.462 696.04C651.881 702.298 650.524 719.692 650.865 722.364C650.968 723.169 655.061 722.421 656.568 720.11C658.828 716.642 656.642 710.071 656.908 708.52C656.97 708.155 656.958 707.875 657.458 708.209C658.444 708.872 660.464 712.993 663.87 715.703C666.16 717.524 670.777 715.413 670.997 714.549C671.218 713.685 657.9 701.671 652.686 691.312C641.69 669.463 637.162 649.9 621.647 627.928C611.36 613.358 587.185 598.797 584.308 602.168Z" clip-rule="evenodd" fill-rule="evenodd"></path>
    <path fill="white" d="M1067.96 48.6521C1065.76 56.5076 1047.15 65.9835 1039.64 65.6688C1012.76 64.5439 1012.01 46.7824 997.529 45.7884C992.767 45.4612 983.828 53.429 982.282 54.2952C981.817 54.5559 980.93 51.5874 981.701 49.6658C982.856 46.7824 991.893 44.7612 992.644 43.9562C992.821 43.7661 992.976 43.6602 992.638 43.4722C991.971 43.0993 984.307 44.2314 981.775 43.118C980.074 42.3701 979.757 38.5052 980.153 38.0097C980.548 37.5143 991.211 41.2888 998.431 40.462C1013.66 38.7191 1025.62 33.6982 1042.33 34.8449C1053.42 35.6052 1068.87 45.4062 1067.96 48.6521Z" clip-rule="evenodd" fill-rule="evenodd"></path>
    <path fill="white" d="M932.997 64.8159C933.272 72.2454 913.818 89.2621 904.384 92.8008C870.617 105.468 862.9 91.5591 844.557 98.0725C838.527 100.215 830.489 111.134 828.903 112.612C828.426 113.057 826.191 111.117 826.412 109.182C826.742 106.28 828.228 104.678 828.851 103.651C828.998 103.41 829.15 103.246 828.659 103.265C827.689 103.303 827.564 103.497 823.998 103.88C821.602 104.137 819.731 101.189 820.032 100.591C820.334 99.9921 835 97.6446 843.637 93.3342C861.854 84.2445 874.765 74.1681 895.934 66.6501C909.972 61.6651 932.884 61.7463 932.997 64.8159Z" clip-rule="evenodd" fill-rule="evenodd"></path>
    <path fill="white" d="M694.195 125.18C699.159 132.158 692.939 156.943 686.928 164.459C665.405 191.364 649.805 181.457 637.88 195.72C633.961 200.409 633.863 214.366 633.414 216.472C633.279 217.106 630.088 216.232 629.051 214.288C627.495 211.371 629.668 206.281 629.562 205.027C629.537 204.732 629.566 204.509 629.148 204.742C628.321 205.203 626.446 208.351 623.567 210.279C621.631 211.576 618.117 209.579 618.001 208.876C617.886 208.172 629.237 199.5 634.062 191.596C644.238 174.926 649.139 159.64 662.901 143.179C672.027 132.263 692.145 122.298 694.195 125.18Z" clip-rule="evenodd" fill-rule="evenodd"></path>
    <path fill="white" d="M816.404 72.3446C819.417 80.0554 810.342 98.9761 804.169 103.25C782.072 118.546 770.703 104.565 758.562 112.491C754.57 115.097 752.284 126.961 751.578 128.597C751.366 129.09 748.859 127.213 748.306 125.186C747.477 122.148 753.448 115.056 753.558 113.948C753.584 113.688 753.643 113.508 753.26 113.559C752.502 113.659 747.084 119.201 744.392 119.823C742.583 120.241 739.985 117.292 740 116.65C740.015 116.009 750.798 112.645 756.048 107.62C767.119 97.0218 773.6 85.7306 787.611 76.5817C796.903 70.5148 815.159 69.1601 816.404 72.3446Z" clip-rule="evenodd" fill-rule="evenodd"></path>
    <path fill="white" d="M694.19 178.9C698.506 183.925 694.337 206.652 689.701 214.386C673.102 242.075 659.983 236.689 650.764 251.474C647.733 256.334 648.17 268.435 647.88 270.35C647.793 270.927 645.153 270.823 644.232 269.351C642.853 267.145 643.004 265.198 642.87 264.134C642.84 263.884 642.854 263.685 642.521 263.972C641.863 264.539 641.884 264.745 639.602 267.004C638.068 268.521 635.123 267.511 635.001 266.926C634.88 266.34 643.839 256.513 647.491 248.684C655.192 232.175 658.633 217.941 669.274 200.878C676.33 189.564 692.407 176.825 694.19 178.9Z" clip-rule="evenodd" fill-rule="evenodd"></path>
    <path fill="white" d="M982.12 812.645C987.356 824.284 1023.64 834.607 1037.7 832.369C1088.04 824.363 1086.94 796.713 1114.01 791.798C1122.91 790.183 1140.81 800.425 1143.84 801.404C1144.75 801.701 1146 796.9 1144.28 794.108C1141.71 789.917 1133.59 788.962 1132.07 787.891C1131.71 787.64 1131.4 787.513 1132.01 787.142C1133.21 786.41 1138.63 786.308 1143.22 783.997C1146.32 782.442 1146.37 776.39 1145.56 775.715C1144.74 775.041 1125.25 783.364 1111.57 783.769C1082.72 784.622 1059.56 779.641 1028.32 785.313C1007.6 789.073 979.956 807.837 982.12 812.645Z" clip-rule="evenodd" fill-rule="evenodd"></path>
    <path fill="white" d="M894.071 777.291C897.273 786.584 919.938 796.569 928.763 795.613C960.359 792.189 959.863 770.737 976.857 768.425C982.443 767.664 993.594 776.575 995.483 777.5C996.052 777.779 996.867 774.134 995.81 771.878C994.226 768.494 983.42 766.754 982.473 765.841C982.25 765.627 982.058 765.512 982.442 765.258C983.2 764.758 992.32 765.533 995.217 763.997C997.165 762.964 997.241 758.285 996.736 757.718C996.23 757.152 983.956 762.517 975.384 762.078C957.304 761.149 942.82 756.021 923.207 758.687C910.202 760.456 892.749 773.452 894.071 777.291Z" clip-rule="evenodd" fill-rule="evenodd"></path>
    <path fill="#FDFDFD" d="M1026.05 747.979C1029.26 756.185 1058.28 765.327 1070.13 764.64C1112.53 762.178 1114.28 743.356 1137.15 741.622C1144.66 741.051 1158.49 749.055 1160.89 749.899C1161.62 750.153 1163.11 746.971 1161.96 744.975C1160.24 741.98 1157.88 740.953 1156.72 740.136C1156.45 739.945 1156.21 739.84 1156.74 739.624C1157.81 739.198 1158.04 739.35 1162.06 738.053C1164.77 737.181 1165.39 733.079 1164.79 732.573C1164.18 732.067 1147.25 736.563 1135.9 736.03C1111.96 734.906 1093.28 730.161 1066.89 732.164C1049.4 733.493 1024.72 744.591 1026.05 747.979Z" clip-rule="evenodd" fill-rule="evenodd"></path>
    <path fill="white" d="M1193.28 718.411C1200.74 728.591 1238.33 731.217 1251.64 726.212C1299.3 708.297 1292.67 681.822 1318.17 671.601C1326.56 668.241 1346.14 674.509 1349.3 674.842C1350.25 674.944 1350.51 670.056 1348.27 667.706C1344.91 664.181 1336.77 664.901 1335.06 664.176C1334.66 664.005 1334.34 663.943 1334.86 663.463C1335.89 662.513 1341.16 661.322 1345.2 658.158C1347.91 656.032 1346.75 650.176 1345.82 649.691C1344.89 649.204 1327.48 661.185 1314.17 664.342C1286.11 671 1262.43 670.878 1233 682.673C1213.48 690.495 1190.19 714.207 1193.28 718.411Z" clip-rule="evenodd" fill-rule="evenodd"></path>
    <path fill="white" d="M1158.28 780.88C1163.96 788.771 1188.33 791.699 1196.44 788.245C1225.49 775.881 1218.93 755.677 1234.42 748.58C1239.51 746.247 1252.63 751.481 1254.69 751.813C1255.31 751.912 1255.05 748.22 1253.41 746.386C1250.94 743.634 1240.18 745.101 1239.02 744.51C1238.75 744.371 1238.53 744.316 1238.83 743.965C1239.4 743.273 1248.29 741.375 1250.61 739.082C1252.16 737.541 1250.91 733.082 1250.27 732.689C1249.62 732.298 1239.49 740.93 1231.22 742.985C1213.77 747.324 1198.56 746.637 1180.68 754.828C1168.82 760.258 1155.93 777.62 1158.28 780.88Z" clip-rule="evenodd" fill-rule="evenodd"></path>
    <path fill="white" d="M1242.47 656.64C1250.03 661.058 1278.64 650.401 1287.63 642.611C1319.81 614.725 1309.73 599.001 1326.82 583.648C1332.44 578.601 1348.3 576.364 1350.73 575.545C1351.46 575.298 1350.71 571.907 1348.58 571.058C1345.38 569.784 1342.88 570.43 1341.46 570.504C1341.13 570.522 1340.87 570.587 1341.17 570.09C1341.76 569.108 1342.03 569.087 1344.43 565.611C1346.05 563.275 1344.05 559.698 1343.26 559.676C1342.47 559.656 1331.77 573.522 1322.43 580.06C1302.73 593.847 1285 601.597 1265.27 619.315C1252.18 631.066 1239.35 654.814 1242.47 656.64Z" clip-rule="evenodd" fill-rule="evenodd"></path>
    <path fill="white" d="M615.612 380.946C605.369 388.35 602.415 426.06 607.301 439.468C624.795 487.466 651.325 481.046 661.32 506.738C664.606 515.184 658.169 534.79 657.807 537.956C657.698 538.909 662.581 539.212 664.951 536.983C668.505 533.638 667.855 525.466 668.595 523.758C668.77 523.358 668.834 523.031 669.31 523.559C670.25 524.599 671.397 529.908 674.524 533.988C676.626 536.731 682.491 535.613 682.985 534.682C683.479 533.752 671.653 516.169 668.613 502.784C662.201 474.557 662.531 450.79 650.996 421.138C643.346 401.475 619.842 377.887 615.612 380.946Z" clip-rule="evenodd" fill-rule="evenodd"></path>
    <path fill="white" d="M599.468 312.771C608.494 316.424 617.237 339.53 615.855 348.29C610.904 379.647 589.728 378.099 586.6 394.941C585.572 400.478 593.826 412.042 594.646 413.973C594.893 414.554 591.251 415.188 589.073 414.023C585.808 412.276 584.624 401.408 583.77 400.417C583.569 400.185 583.463 399.988 583.195 400.359C582.663 401.091 582.976 410.229 581.314 413.044C580.198 414.936 575.569 414.781 575.034 414.25C574.499 413.718 580.412 401.735 580.401 393.159C580.38 375.073 576.03 360.369 579.637 340.93C582.031 328.039 595.739 311.263 599.468 312.771Z" clip-rule="evenodd" fill-rule="evenodd"></path>
    <path fill="white" d="M686.027 727.962C685.026 740.593 711.862 767.126 725.257 772.001C773.207 789.451 785.526 764.947 811.6 773.803C820.173 776.713 830.944 794.272 833.124 796.588C833.78 797.286 837.179 793.73 837.017 790.475C836.774 785.594 830.122 780.834 829.3 779.167C829.107 778.775 828.899 778.516 829.611 778.49C831.014 778.437 835.806 780.972 840.946 781.196C844.4 781.347 847.354 776.125 846.965 775.145C846.576 774.167 825.496 771.936 813.318 765.658C787.634 752.418 769.726 736.872 739.633 726.652C719.677 719.874 686.44 722.744 686.027 727.962Z" clip-rule="evenodd" fill-rule="evenodd"></path>
    <path fill="white" d="M676.93 571.413C670.979 579.127 675.049 603.525 680.644 610.404C700.671 635.031 718.158 623.004 729.319 635.995C732.988 640.265 731.68 654.433 731.943 656.518C732.021 657.144 735.481 655.855 736.774 653.749C738.713 650.591 734.273 640.592 734.512 639.303C734.569 639.001 734.56 638.777 734.979 638.962C735.804 639.327 740.127 647.39 742.975 648.986C744.889 650.061 748.803 647.59 748.998 646.86C749.191 646.13 738.071 638.749 733.769 631.326C724.7 615.67 721.064 600.756 708.183 585.763C699.642 575.82 679.387 568.226 676.93 571.413Z" clip-rule="evenodd" fill-rule="evenodd"></path>
    <path fill="white" d="M644.209 642.655C641.879 651.053 659.563 675.762 669.416 682.368C704.688 706.019 717.304 692.26 736.564 704.689C742.894 708.774 749.145 723.418 750.562 725.535C750.989 726.173 754.077 724.57 754.349 722.304C754.759 718.905 753.49 716.673 753.053 715.331C752.95 715.017 752.82 714.788 753.378 714.943C754.48 715.25 754.57 715.506 758.553 716.914C761.231 717.861 764.175 715.01 763.992 714.244C763.808 713.481 747.634 706.804 738.903 699.536C720.488 684.204 708.422 669.194 686.196 654.851C671.456 645.339 645.171 639.186 644.209 642.655Z" clip-rule="evenodd" fill-rule="evenodd"></path>
    <path fill="white" d="M570.032 440.864C564.849 445.887 567.022 471.058 571.241 479.958C586.346 511.82 601.086 507.318 609.539 524.367C612.317 529.971 610.601 543.098 610.718 545.213C610.752 545.851 613.619 546.01 614.764 544.506C616.484 542.246 616.52 540.111 616.774 538.965C616.834 538.698 616.837 538.478 617.168 538.827C617.821 539.513 617.778 539.734 620.014 542.429C621.517 544.24 624.806 543.447 624.997 542.821C625.189 542.196 616.51 530.57 613.364 521.67C606.732 502.9 604.473 487.048 594.719 467.372C588.25 454.323 572.173 438.789 570.032 440.864Z" clip-rule="evenodd" fill-rule="evenodd"></path>
    <path fill="white" d="M509.619 396.717C506.397 398.512 504.268 411.088 505.235 415.975C508.694 433.464 516.61 433.138 518.645 442.544C519.315 445.636 516.786 451.832 516.574 452.881C516.51 453.196 517.917 453.639 518.68 453.049C519.824 452.163 520.116 451.125 520.387 450.597C520.452 450.474 520.481 450.367 520.602 450.58C520.84 450.997 520.79 451.101 521.56 452.701C522.078 453.777 523.817 453.807 523.992 453.526C524.168 453.245 521.328 446.461 520.896 441.712C519.987 431.697 520.883 423.663 518.534 412.807C516.977 405.609 510.95 395.975 509.619 396.717Z" clip-rule="evenodd" fill-rule="evenodd"></path>
    <path fill="white" d="M628.555 558.994C623.574 564.537 626.652 586.491 631.177 593.538C647.378 618.77 661.895 611.711 670.931 625.136C673.902 629.55 672.669 641.587 672.862 643.446C672.92 644.006 675.78 643.555 676.867 641.977C678.497 639.612 677.086 635.018 677.296 633.947C677.345 633.695 677.341 633.499 677.683 633.741C678.358 634.216 679.695 637.108 682.02 639.044C683.583 640.344 686.83 638.957 686.998 638.362C687.166 637.766 678.1 629.214 674.645 621.945C667.357 606.611 664.532 592.971 654.104 577.477C647.187 567.202 630.612 556.703 628.555 558.994Z" clip-rule="evenodd" fill-rule="evenodd"></path>
    <path fill="white" d="M501.033 468.697C496.458 469.955 490.858 480.893 491.003 485.327C491.52 501.203 501.837 501.735 502.34 510.292C502.506 513.104 497.831 518.339 497.321 519.247C497.167 519.521 498.887 520.06 500.008 519.615C501.688 518.948 502.909 513.624 503.38 513.186C503.491 513.081 503.553 512.99 503.661 513.191C503.874 513.587 503.177 518.105 503.812 519.605C504.238 520.614 506.482 520.822 506.772 520.591C507.061 520.36 504.923 514.045 505.439 509.787C506.529 500.808 509.507 493.775 508.925 483.9C508.54 477.351 502.923 468.178 501.033 468.697Z" clip-rule="evenodd" fill-rule="evenodd"></path>
    <path fill="#FDFDFD" d="M597.568 547.733C593.929 550.024 592.089 565.061 593.447 570.813C598.311 591.406 607.45 590.626 610.268 601.693C611.195 605.33 608.575 612.812 608.382 614.068C608.324 614.446 609.973 614.902 610.825 614.163C612.106 613.055 612.391 611.807 612.679 611.168C612.747 611.018 612.776 610.891 612.927 611.136C613.223 611.621 613.169 611.745 614.139 613.607C614.791 614.86 616.804 614.81 616.993 614.468C617.181 614.124 613.562 606.211 612.829 600.594C611.283 588.748 611.923 579.166 608.672 566.395C606.516 557.926 599.071 546.787 597.568 547.733Z" clip-rule="evenodd" fill-rule="evenodd"></path>
    <path fill="white" d="M743.106 567.025C741.954 572.652 750.464 584.481 755.224 586.656C772.264 594.442 778.417 583.528 787.723 587.479C790.782 588.778 793.775 596.604 794.456 597.637C794.661 597.948 796.162 596.364 796.3 594.914C796.507 592.739 791.549 588.616 791.34 587.873C791.292 587.699 791.229 587.583 791.5 587.571C792.032 587.548 796.425 590.68 798.352 590.781C799.648 590.848 801.084 588.523 800.996 588.086C800.91 587.65 793.085 586.652 788.871 583.851C779.981 577.946 774.17 571.016 763.431 566.454C756.309 563.43 743.582 564.701 743.106 567.025Z" clip-rule="evenodd" fill-rule="evenodd"></path>
    <path fill="white" d="M745.152 626.207C743.641 631.109 753.732 645.913 759.467 649.949C779.993 664.402 787.682 656.507 798.897 664.113C802.584 666.613 806.059 675.32 806.865 676.588C807.108 676.97 808.963 676.074 809.159 674.746C809.454 672.754 808.737 671.422 808.499 670.626C808.443 670.439 808.371 670.302 808.699 670.403C809.346 670.6 809.396 670.752 811.734 671.642C813.305 672.24 815.093 670.608 814.996 670.157C814.9 669.704 805.423 665.528 800.363 661.119C789.693 651.819 782.778 642.805 769.834 634.027C761.251 628.206 745.776 624.181 745.152 626.207Z" clip-rule="evenodd" fill-rule="evenodd"></path>
    <path fill="#FDFDFD" d="M913.003 712.044C913.638 719.445 931.766 732.22 940.01 733.757C969.518 739.256 974.308 723.902 990.295 726.527C995.55 727.389 1003.49 736.513 1004.98 737.644C1005.43 737.984 1007.06 735.602 1006.65 733.735C1006.04 730.935 1001.72 728.819 1001.08 727.933C1000.93 727.726 1000.79 727.595 1001.2 727.512C1002.01 727.347 1005.03 728.355 1008.04 727.991C1010.06 727.748 1011.27 724.444 1010.95 723.916C1010.63 723.388 998.18 724.116 990.508 721.652C974.328 716.455 962.437 709.179 943.988 706.15C931.754 704.141 912.74 708.986 913.003 712.044Z" clip-rule="evenodd" fill-rule="evenodd"></path>
    <path fill="white" d="M838.016 671.387C839.198 677.056 851.611 684.573 856.795 684.67C875.352 685.014 876.617 672.44 886.632 672.35C889.925 672.322 895.742 678.356 896.77 679.038C897.079 679.242 897.815 677.173 897.366 675.776C896.693 673.68 890.557 671.862 890.073 671.259C889.96 671.116 889.858 671.035 890.098 670.916C890.573 670.68 895.802 671.808 897.592 671.127C898.796 670.668 899.178 667.939 898.927 667.57C898.674 667.202 891.174 669.426 886.237 668.533C875.826 666.648 867.804 662.576 856.246 662.678C848.58 662.748 837.527 669.046 838.016 671.387Z" clip-rule="evenodd" fill-rule="evenodd"></path>
    <path fill="white" d="M946.029 602.819C947.881 607.572 964.937 612.998 971.923 612.662C996.928 611.456 998.058 600.599 1011.54 599.714C1015.97 599.421 1024.08 604.113 1025.5 604.613C1025.92 604.763 1026.82 602.933 1026.15 601.775C1025.15 600.038 1023.76 599.432 1023.08 598.955C1022.93 598.844 1022.78 598.781 1023.1 598.66C1023.73 598.419 1023.87 598.507 1026.24 597.779C1027.84 597.289 1028.23 594.925 1027.88 594.63C1027.52 594.334 1017.52 596.845 1010.83 596.479C996.731 595.708 985.742 592.873 970.182 593.896C959.863 594.574 945.264 600.855 946.029 602.819Z" clip-rule="evenodd" fill-rule="evenodd"></path>
    <path fill="white" d="M929.08 662.633C933.424 672.106 968.623 681.058 982.717 679.499C1033.17 673.921 1034.09 651.615 1061.26 648.124C1070.2 646.977 1087.19 655.545 1090.12 656.387C1091 656.641 1092.59 652.794 1091.09 650.513C1088.84 647.091 1085.96 646.028 1084.53 645.139C1084.2 644.93 1083.9 644.821 1084.53 644.533C1085.77 643.965 1086.05 644.128 1090.78 642.345C1093.95 641.146 1094.44 636.268 1093.69 635.711C1092.93 635.152 1073.01 641.522 1059.43 641.61C1030.79 641.795 1008.2 637.379 976.837 641.405C956.04 644.076 927.285 658.719 929.08 662.633Z" clip-rule="evenodd" fill-rule="evenodd"></path>
    <path fill="white" d="M1087.08 705.573C1090.71 713.969 1116.99 721.901 1127.26 720.519C1164.06 715.574 1163.68 695.805 1183.48 692.711C1189.98 691.693 1202.87 699.287 1205.06 700.032C1205.72 700.258 1206.7 696.849 1205.5 694.826C1203.68 691.793 1197.79 690.986 1196.69 690.199C1196.44 690.013 1196.22 689.917 1196.66 689.662C1197.55 689.157 1201.49 689.169 1204.88 687.587C1207.16 686.525 1207.29 682.201 1206.71 681.707C1206.13 681.213 1191.79 686.859 1181.82 686.938C1160.8 687.103 1144 683.188 1121.16 686.759C1106.01 689.126 1085.58 702.105 1087.08 705.573Z" clip-rule="evenodd" fill-rule="evenodd"></path>
    <path fill="white" d="M1011 699.63C1011.66 706.602 1025.95 717.399 1032.36 718.258C1055.28 721.331 1058.64 706.425 1071.05 707.752C1075.13 708.188 1081.47 716.264 1082.65 717.227C1083 717.518 1084.21 715.14 1083.85 713.4C1083.32 710.789 1075.98 707.727 1075.47 706.934C1075.35 706.747 1075.23 706.634 1075.55 706.525C1076.17 706.311 1082.48 708.416 1084.8 707.853C1086.35 707.476 1087.21 704.256 1086.95 703.777C1086.7 703.299 1077.09 704.893 1071.11 703.114C1058.49 699.36 1049.14 693.324 1034.82 691.792C1025.32 690.775 1010.73 696.749 1011 699.63Z" clip-rule="evenodd" fill-rule="evenodd"></path>
    <path fill="white" d="M1295.2 526.676C1302.52 526.754 1316.75 510.353 1319.04 502.495C1327.21 474.366 1312.59 468.275 1316.67 453.002C1318.01 447.982 1327.71 441.128 1328.96 439.789C1329.33 439.385 1327.15 437.58 1325.28 437.8C1322.48 438.13 1319.99 442.125 1319.06 442.661C1318.85 442.787 1318.71 442.915 1318.66 442.51C1318.58 441.708 1319.85 438.866 1319.78 435.915C1319.73 433.932 1316.6 432.445 1316.05 432.706C1315.5 432.968 1315.05 445.121 1311.91 452.339C1305.29 467.558 1297.03 478.418 1292.33 496.044C1289.21 507.733 1292.17 526.645 1295.2 526.676Z" clip-rule="evenodd" fill-rule="evenodd"></path>
    <path fill="white" d="M1184.17 645.147C1188.02 651.097 1205.72 654.162 1211.78 651.966C1233.48 644.105 1229.45 629.178 1241.04 624.619C1244.85 623.121 1254.25 627.427 1255.74 627.748C1256.18 627.844 1256.14 625.153 1255 623.758C1253.31 621.662 1245.39 622.315 1244.56 621.84C1244.37 621.729 1244.21 621.681 1244.44 621.437C1244.89 620.956 1251.45 619.921 1253.24 618.345C1254.43 617.285 1253.68 613.997 1253.23 613.688C1252.78 613.38 1245.04 619.258 1238.92 620.433C1226 622.911 1214.91 621.828 1201.53 627.087C1192.66 630.576 1182.58 642.69 1184.17 645.147Z" clip-rule="evenodd" fill-rule="evenodd"></path>
    <path fill="white" d="M1273.36 584.005C1278.87 587.095 1299.26 578.848 1305.59 573.022C1328.25 552.165 1320.74 540.886 1332.77 529.413C1336.72 525.643 1348.09 523.744 1349.82 523.107C1350.34 522.915 1349.74 520.457 1348.19 519.875C1345.87 519.001 1344.09 519.515 1343.07 519.593C1342.83 519.611 1342.65 519.664 1342.85 519.297C1343.26 518.57 1343.45 518.55 1345.12 515.978C1346.24 514.249 1344.75 511.678 1344.18 511.676C1343.61 511.675 1336.15 521.955 1329.54 526.875C1315.62 537.251 1303 543.196 1289.12 556.436C1279.91 565.214 1271.09 582.729 1273.36 584.005Z" clip-rule="evenodd" fill-rule="evenodd"></path>
    <path fill="white" d="M1268.07 313.672C1260.22 313.988 1244.42 296.876 1241.71 288.533C1232.04 258.669 1247.52 251.683 1242.66 235.457C1241.06 230.123 1230.43 223.091 1229.05 221.697C1228.63 221.278 1230.92 219.274 1232.93 219.451C1235.95 219.715 1238.74 223.914 1239.76 224.458C1239.99 224.586 1240.15 224.72 1240.18 224.284C1240.25 223.423 1238.79 220.42 1238.78 217.257C1238.76 215.132 1242.07 213.441 1242.67 213.703C1243.27 213.964 1244.15 226.965 1247.75 234.594C1255.34 250.684 1264.55 262.052 1270.16 280.777C1273.89 293.196 1271.31 313.542 1268.07 313.672Z" clip-rule="evenodd" fill-rule="evenodd"></path>
    <path fill="white" d="M1248.12 505.524C1257.17 507.456 1278.96 490.593 1283.77 481.376C1301 448.38 1284.43 437.13 1293.35 419.125C1296.28 413.207 1310.03 407.099 1311.91 405.744C1312.48 405.337 1310.23 402.539 1307.86 402.345C1304.3 402.054 1300.21 406.408 1298.93 406.843C1298.62 406.944 1298.42 407.07 1298.46 406.552C1298.56 405.533 1300.86 402.311 1301.51 398.617C1301.95 396.133 1298.45 393.498 1297.71 393.686C1296.96 393.873 1293.32 408.899 1287.61 417.104C1275.56 434.404 1262.59 445.865 1252.3 466.642C1245.48 480.421 1244.38 504.725 1248.12 505.524Z" clip-rule="evenodd" fill-rule="evenodd"></path>
    <path fill="white" d="M1338.37 426.657C1331.41 425.201 1322.15 409.761 1322.01 403.304C1321.53 380.188 1336.96 378.574 1337.03 366.097C1337.06 361.995 1329.63 354.768 1328.8 353.489C1328.54 353.104 1331.08 352.181 1332.8 352.736C1335.37 353.568 1337.62 361.206 1338.36 361.807C1338.54 361.948 1338.64 362.076 1338.78 361.775C1339.07 361.183 1337.67 354.672 1338.5 352.44C1339.06 350.939 1342.41 350.454 1342.86 350.766C1343.31 351.08 1340.61 360.431 1341.72 366.577C1344.07 379.54 1349.09 389.521 1349 403.92C1348.94 413.469 1341.25 427.259 1338.37 426.657Z" clip-rule="evenodd" fill-rule="evenodd"></path>
    <path fill="white" d="M1276.14 411.674C1271.99 411.144 1264.29 398.435 1263.18 392.708C1259.2 372.211 1267.64 369.083 1265.69 357.983C1265.04 354.334 1259.7 348.724 1259.02 347.678C1258.82 347.365 1260.1 346.265 1261.16 346.57C1262.74 347.027 1263.5 348.026 1264.01 348.479C1264.13 348.585 1264.21 348.687 1264.24 348.404C1264.31 347.846 1264.21 347.756 1264.33 345.681C1264.4 344.286 1266.21 343.488 1266.52 343.715C1266.82 343.943 1266.79 352.554 1268.41 357.895C1271.81 369.162 1276.24 377.484 1278.49 390.294C1279.99 398.79 1277.86 411.893 1276.14 411.674Z" clip-rule="evenodd" fill-rule="evenodd"></path>
    <path fill="white" d="M1154.06 874.28C1156.45 877.941 1171.79 879.608 1177.63 878.152C1198.54 872.943 1197.62 863.681 1208.85 860.675C1212.55 859.688 1220.21 862.244 1221.49 862.423C1221.87 862.478 1222.32 860.799 1221.55 859.943C1220.4 858.659 1219.13 858.387 1218.48 858.102C1218.32 858.036 1218.19 858.008 1218.44 857.852C1218.93 857.546 1219.06 857.598 1220.94 856.589C1222.21 855.911 1222.13 853.869 1221.78 853.683C1221.42 853.496 1213.41 857.273 1207.7 858.093C1195.66 859.819 1185.89 859.297 1172.92 862.766C1164.32 865.066 1153.08 872.768 1154.06 874.28Z" clip-rule="evenodd" fill-rule="evenodd"></path>
    <path fill="white" d="M1176.71 81.3091C1172.39 84.6468 1156.47 81.2732 1151.54 77.6159C1133.9 64.5232 1139.82 54.3222 1130.46 47.0529C1127.38 44.6621 1118.49 44.9384 1117.14 44.7022C1116.74 44.6305 1117.21 42.572 1118.43 41.8633C1120.24 40.7992 1123.54 42.0636 1124.33 41.9656C1124.52 41.9424 1124.66 41.9561 1124.5 41.6945C1124.19 41.1788 1122.14 40.0568 1120.84 38.265C1119.97 37.0607 1121.15 34.7691 1121.6 34.6773C1122.04 34.5856 1127.84 41.6249 1132.99 44.5156C1143.84 50.6111 1153.69 53.3709 1164.5 61.7612C1171.67 67.3252 1178.5 79.9297 1176.71 81.3091Z" clip-rule="evenodd" fill-rule="evenodd"></path>
    <path fill="white" d="M1222.1 836.701C1224.12 839.427 1232.69 840.374 1235.53 839.15C1245.7 834.765 1243.34 827.763 1248.76 825.251C1250.54 824.425 1255.17 826.205 1255.89 826.314C1256.11 826.348 1256.01 825.065 1255.43 824.432C1254.55 823.482 1250.77 824.024 1250.37 823.823C1250.27 823.775 1250.19 823.756 1250.3 823.633C1250.5 823.392 1253.61 822.705 1254.42 821.902C1254.96 821.361 1254.51 819.815 1254.28 819.681C1254.06 819.546 1250.52 822.577 1247.62 823.316C1241.5 824.874 1236.15 824.681 1229.9 827.58C1225.75 829.502 1221.27 835.576 1222.1 836.701Z" clip-rule="evenodd" fill-rule="evenodd"></path>
    <path fill="white" d="M1125.9 68.2213C1123.56 69.8682 1112.37 66.7033 1108.49 64.1847C1094.58 55.167 1096.89 49.5968 1089.46 44.6219C1087.02 42.9855 1081.12 42.4909 1080.18 42.2519C1079.9 42.1802 1079.89 41.003 1080.58 40.6747C1081.63 40.1822 1082.58 40.3609 1083.09 40.3619C1083.21 40.363 1083.31 40.3806 1083.17 40.2144C1082.87 39.8871 1082.77 39.885 1081.62 38.7338C1080.84 37.9597 1081.26 36.6973 1081.54 36.6765C1081.83 36.6557 1086.84 41.2305 1090.74 43.3138C1098.98 47.7068 1106.01 50.0612 1114.58 55.8029C1120.27 59.6109 1126.87 67.5418 1125.9 68.2213Z" clip-rule="evenodd" fill-rule="evenodd"></path>
    <path fill="white" d="M1370.72 172.647C1367.85 173.204 1358.77 165.758 1356.21 161.869C1347.05 147.947 1351.53 143.773 1346.7 136.189C1345.11 133.696 1339.84 130.849 1339.06 130.247C1338.83 130.067 1339.31 128.981 1340.09 128.963C1341.27 128.934 1342.08 129.485 1342.56 129.696C1342.67 129.745 1342.76 129.801 1342.69 129.589C1342.55 129.17 1342.46 129.127 1341.87 127.601C1341.47 126.575 1342.39 125.588 1342.66 125.683C1342.93 125.779 1345.68 132.012 1348.44 135.51C1354.27 142.887 1359.82 147.9 1365.4 156.653C1369.09 162.458 1371.91 172.416 1370.72 172.647Z" clip-rule="evenodd" fill-rule="evenodd"></path>
    <path fill="white" d="M933.994 19.4766C933.21 24.8827 919.435 33.4766 913.357 34.247C891.599 37.0051 888.771 25.5262 876.999 26.7602C873.13 27.1656 866.942 33.5199 865.807 34.2851C865.466 34.5159 864.381 32.6965 864.759 31.344C865.326 29.314 868.567 27.9477 869.071 27.3264C869.188 27.1793 869.3 27.0904 869.005 27.011C868.422 26.8555 866.172 27.464 863.996 27.0671C862.534 26.8004 861.794 24.3228 862.05 23.9481C862.306 23.5745 871.353 24.6488 877.055 23.1724C889.081 20.0576 898.068 15.2315 911.653 13.808C920.663 12.8629 934.318 17.2434 933.994 19.4766Z" clip-rule="evenodd" fill-rule="evenodd"></path>
    <path fill="#FDFDFD" d="M718.582 53.0256C720.375 56.5219 716.009 67.3922 712.828 70.4203C701.442 81.262 695.046 75.7429 688.779 81.4573C686.718 83.3366 685.793 89.6785 685.457 90.6076C685.356 90.8879 683.975 90.2827 683.631 89.3313C683.115 87.9033 684.415 85.7288 684.447 85.1512C684.453 85.0153 684.481 84.9155 684.278 84.9951C683.877 85.1512 682.835 86.4614 681.416 87.1515C680.463 87.6155 679.008 86.4794 679 86.1524C678.993 85.8243 684.649 82.6168 687.321 79.3338C692.954 72.4122 696.127 65.7762 703.361 59.1816C708.158 54.8082 717.842 51.5816 718.582 53.0256Z" clip-rule="evenodd" fill-rule="evenodd"></path>
    <mask height="15" width="37" y="0" x="825" maskUnits="userSpaceOnUse" id="mask0">
      <path fill="white" d="M825.617 0H861.847V14.6038H825.617V0Z" clip-rule="evenodd" fill-rule="evenodd"></path>
    </mask>
    <g mask="url(#mask0)">
      <path fill="white" d="M861.847 1.66296C861.864 4.50118 855.523 9.99011 852.492 10.8601C841.647 13.9737 839.329 8.29725 833.442 9.84975C831.506 10.3597 828.849 14.1055 828.331 14.5876C828.175 14.7322 827.485 13.8826 827.572 13.1583C827.706 12.0719 829.248 11.1172 829.455 10.7583C829.505 10.6737 829.554 10.619 829.398 10.6019C829.089 10.5665 827.993 11.0551 826.857 11.0208C826.093 10.9972 825.528 9.78332 825.628 9.57011C825.73 9.35796 830.411 9.20475 833.194 8.00153C839.067 5.46332 843.264 2.28439 850.059 0.492963C854.564 -0.695251 861.841 0.490821 861.847 1.66296Z" clip-rule="evenodd" fill-rule="evenodd"></path>
    </g>
    <path fill="#FDFDFD" d="M1335.26 153.576C1331.45 154.571 1321.83 147.943 1319.59 144.175C1311.57 130.688 1318.39 125.629 1314.22 118.26C1312.85 115.837 1306.87 113.556 1306.04 113.027C1305.79 112.867 1306.69 111.647 1307.7 111.518C1309.21 111.323 1311.03 113.065 1311.59 113.222C1311.72 113.259 1311.81 113.307 1311.78 113.091C1311.72 112.665 1310.67 111.361 1310.32 109.824C1310.08 108.791 1311.52 107.615 1311.84 107.679C1312.16 107.742 1314.02 113.97 1316.62 117.295C1322.11 124.306 1327.86 128.848 1332.67 137.353C1335.86 142.993 1336.83 153.165 1335.26 153.576Z" clip-rule="evenodd" fill-rule="evenodd"></path>
    <path fill="white" d="M675 839.4C675.162 842.238 684.706 848.925 689.151 850.367C705.064 855.527 708.05 850.282 716.679 852.945C719.516 853.82 723.61 858.07 724.391 858.65C724.626 858.824 725.572 858.104 725.397 857.363C725.134 856.25 724.393 855.623 724.068 855.225C723.992 855.132 723.916 855.067 724.141 855.08C724.586 855.102 724.651 855.178 726.293 855.358C727.398 855.478 728.138 854.37 727.978 854.139C727.817 853.907 721.028 852.871 716.916 851.142C708.244 847.496 701.958 843.522 691.999 840.451C685.394 838.412 674.934 838.228 675 839.4Z" clip-rule="evenodd" fill-rule="evenodd"></path>
    <mask height="17" width="53" y="896" x="749" maskUnits="userSpaceOnUse" id="mask1">
      <path fill="white" d="M749.934 896.056H801.745V912.676H749.934V896.056Z" clip-rule="evenodd" fill-rule="evenodd"></path>
    </mask>
    <g mask="url(#mask1)">
      <path fill="white" d="M749.935 899.58C750.313 903.51 759.958 910.195 764.319 910.965C779.929 913.719 782.371 905.534 790.826 906.836C793.605 907.264 797.851 912.067 798.643 912.66C798.882 912.838 799.729 911.562 799.503 910.573C799.164 909.089 796.872 907.989 796.531 907.523C796.45 907.412 796.373 907.345 796.589 907.298C797.015 907.206 798.618 907.723 800.203 907.514C801.267 907.373 801.888 905.61 801.716 905.331C801.545 905.051 794.976 905.51 790.911 904.245C782.339 901.576 776.019 897.777 766.262 896.273C759.79 895.275 749.78 897.958 749.935 899.58Z" clip-rule="evenodd" fill-rule="evenodd"></path>
    </g>
    <path fill="white" d="M1059.96 25.6148C1058.35 29.518 1048.35 33.2343 1044.58 32.6068C1031.06 30.3579 1031.79 21.1791 1024.54 19.7681C1022.15 19.3049 1017.13 22.8473 1016.3 23.1963C1016.05 23.3019 1015.78 21.7202 1016.29 20.7799C1017.06 19.3689 1021.75 18.8908 1022.18 18.5236C1022.28 18.4371 1022.37 18.3923 1022.21 18.2738C1021.89 18.0412 1017.95 18.1479 1016.74 17.4179C1015.93 16.9269 1016.01 14.9204 1016.24 14.6909C1016.47 14.4603 1021.62 17.0624 1025.33 17.0859C1033.13 17.135 1039.49 15.296 1047.87 16.9237C1053.42 18.0027 1060.62 24.0021 1059.96 25.6148Z" clip-rule="evenodd" fill-rule="evenodd"></path>
    <path fill="white" d="M1409.07 241.623C1404.96 242.323 1396.58 235.965 1395.11 232.506C1389.85 220.125 1397.9 215.959 1395.24 209.205C1394.36 206.983 1388.76 204.666 1388.03 204.155C1387.81 204.001 1388.99 202.961 1390.04 202.895C1391.62 202.793 1394.5 206.437 1395.03 206.603C1395.16 206.642 1395.24 206.689 1395.26 206.497C1395.28 206.114 1393.11 202.898 1393.08 201.515C1393.06 200.586 1394.78 199.608 1395.09 199.68C1395.41 199.752 1395.96 205.381 1397.89 208.462C1401.97 214.961 1406.87 219.278 1409.93 227.073C1411.97 232.243 1410.76 241.333 1409.07 241.623Z" clip-rule="evenodd" fill-rule="evenodd"></path>
    <path fill="white" d="M1002.99 26.0075C1002.17 29.2963 990.453 34.6472 985.377 35.1746C967.205 37.062 965.212 30.1226 955.389 30.9861C952.159 31.2705 946.818 35.188 945.851 35.6638C945.56 35.8065 944.715 34.7123 945.07 33.8881C945.605 32.6512 946.54 32.1093 946.977 31.7266C947.08 31.6366 947.176 31.5818 946.933 31.5363C946.453 31.4474 946.367 31.5198 944.57 31.2995C943.364 31.1526 942.826 29.6551 943.05 29.4255C943.275 29.1959 950.762 29.7596 955.548 28.8081C965.641 26.7997 973.262 23.7819 984.599 22.785C992.116 22.1231 1003.33 24.6486 1002.99 26.0075Z" clip-rule="evenodd" fill-rule="evenodd"></path>
    <path fill="#FDFDFD" d="M1356.84 500.602C1351.16 497.695 1346.84 479.153 1348.28 472.108C1353.42 446.889 1367.18 448.068 1370.25 434.52C1371.25 430.067 1366.56 420.799 1366.14 419.251C1366.01 418.784 1368.43 418.262 1369.79 419.192C1371.82 420.586 1372.11 424.702 1372.61 425.495C1372.72 425.682 1372.78 425.839 1372.98 425.541C1373.37 424.952 1373.54 422.222 1374.8 419.953C1375.65 418.429 1378.67 418.539 1378.98 418.965C1379.3 419.391 1374.71 429.04 1374.19 435.933C1373.11 450.469 1375.06 462.273 1371.52 477.908C1369.18 488.274 1359.19 501.803 1356.84 500.602Z" clip-rule="evenodd" fill-rule="evenodd"></path>
    <path fill="white" d="M1416.05 654.518C1412.12 651.5 1411.01 639.035 1412.89 634.952C1419.63 620.337 1429.81 623.99 1433.66 616.203C1434.93 613.643 1432.47 606.875 1432.33 605.821C1432.29 605.503 1434.17 605.692 1435.07 606.559C1436.44 607.858 1435.52 613.32 1435.81 613.92C1435.87 614.062 1435.9 614.171 1436.08 614.028C1436.44 613.744 1437.54 609.244 1438.75 608.098C1439.55 607.327 1441.81 608.037 1441.99 608.37C1442.18 608.702 1437.63 613.738 1436.46 617.921C1433.98 626.745 1434.1 634.511 1429.65 643.498C1426.71 649.457 1417.67 655.763 1416.05 654.518Z" clip-rule="evenodd" fill-rule="evenodd"></path>
    <path fill="white" d="M1374.37 601.6C1370.8 598.964 1370.15 583.524 1372.03 577.79C1378.77 557.267 1388.15 558.83 1391.98 547.818C1393.24 544.199 1391.16 536.371 1391.06 535.079C1391.03 534.69 1392.78 534.367 1393.6 535.189C1394.83 536.423 1395.02 537.715 1395.26 538.389C1395.32 538.548 1395.34 538.681 1395.52 538.442C1395.86 537.975 1395.82 537.844 1396.97 536.032C1397.75 534.814 1399.83 535.034 1400 535.4C1400.16 535.764 1395.76 543.502 1394.54 549.151C1391.95 561.062 1391.82 570.856 1387.4 583.565C1384.46 591.993 1375.84 602.689 1374.37 601.6Z" clip-rule="evenodd" fill-rule="evenodd"></path>
    <path fill="white" d="M670.892 250.742C675.059 253.377 677.053 270.483 675.444 277.01C669.682 300.376 659.176 299.414 655.846 311.969C654.751 316.096 657.702 324.622 657.914 326.049C657.978 326.479 656.078 326.983 655.102 326.138C653.64 324.868 653.322 323.447 652.995 322.718C652.918 322.547 652.886 322.402 652.712 322.679C652.367 323.229 652.427 323.37 651.296 325.48C650.536 326.897 648.222 326.823 648.008 326.433C647.794 326.042 652.021 317.076 652.91 310.699C654.784 297.247 654.126 286.351 657.969 271.863C660.518 262.254 669.172 249.654 670.892 250.742Z" clip-rule="evenodd" fill-rule="evenodd"></path>
    <path fill="white" d="M782.496 195.092C786.633 200.857 781.45 221.331 776.439 227.54C758.504 249.765 745.504 241.582 735.567 253.365C732.3 257.238 732.219 268.767 731.845 270.507C731.732 271.032 729.073 270.31 728.208 268.703C726.912 266.294 728.723 262.089 728.635 261.052C728.614 260.809 728.638 260.624 728.29 260.818C727.601 261.198 726.038 263.799 723.639 265.392C722.026 266.463 719.098 264.814 719.001 264.233C718.903 263.65 728.364 256.487 732.385 249.958C740.865 236.187 744.949 223.56 756.418 209.961C764.022 200.943 780.788 192.711 782.496 195.092Z" clip-rule="evenodd" fill-rule="evenodd"></path>
    <path fill="white" d="M799.605 126.77C801.601 131.821 795.59 144.218 791.501 147.017C776.866 157.039 769.336 147.879 761.294 153.072C758.651 154.779 757.136 162.552 756.669 163.624C756.528 163.948 754.867 162.717 754.501 161.389C753.952 159.399 757.907 154.753 757.98 154.027C757.997 153.857 758.037 153.739 757.783 153.772C757.281 153.837 753.692 157.468 751.909 157.875C750.71 158.15 748.991 156.218 749 155.798C749.009 155.378 756.152 153.173 759.629 149.881C766.962 142.937 771.254 135.539 780.534 129.546C786.689 125.57 798.78 124.683 799.605 126.77Z" clip-rule="evenodd" fill-rule="evenodd"></path>
    <path fill="#FDFDFD" d="M655.988 339.776C652.181 342.88 652.308 359.958 654.708 366.184C663.297 388.469 673.596 386.232 678.443 398.176C680.037 402.102 678.16 410.856 678.126 412.287C678.115 412.718 680.062 412.981 680.925 412.027C682.219 410.598 682.359 409.161 682.593 408.404C682.649 408.227 682.663 408.079 682.87 408.331C683.279 408.829 683.238 408.976 684.618 410.912C685.545 412.214 687.833 411.857 687.996 411.446C688.16 411.035 682.866 402.732 681.2 396.565C677.685 383.559 676.997 372.756 671.403 358.971C667.693 349.829 657.561 338.494 655.988 339.776Z" clip-rule="evenodd" fill-rule="evenodd"></path>
    <path fill="white" d="M574.854 224.83C581.319 229.259 583.657 252.47 580.796 260.803C570.558 290.631 553.98 287.026 548.108 303.001C546.177 308.252 550.439 320.255 550.705 322.202C550.786 322.789 547.755 323.04 546.252 321.697C543.998 319.683 544.293 314.635 543.81 313.593C543.696 313.347 543.652 313.147 543.364 313.478C542.793 314.132 542.15 317.422 540.261 319.978C538.99 321.698 535.33 321.087 535.01 320.52C534.69 319.953 541.808 308.954 543.521 300.661C547.134 283.171 546.614 268.521 553.391 250.085C557.885 237.859 572.183 223.001 574.854 224.83Z" clip-rule="evenodd" fill-rule="evenodd"></path>
    <path fill="white" d="M601.347 270.89C605.473 274.454 605.924 288.256 603.603 292.638C595.298 308.327 584.347 303.676 579.637 312.018C578.09 314.76 580.371 322.369 580.457 323.539C580.482 323.891 578.436 323.568 577.492 322.557C576.076 321.042 577.417 315.081 577.143 314.402C577.079 314.243 577.06 314.121 576.85 314.267C576.435 314.558 574.945 319.447 573.554 320.636C572.619 321.435 570.193 320.515 570.005 320.138C569.818 319.76 575.124 314.491 576.672 309.955C579.937 300.385 580.294 291.822 585.729 282.195C589.334 275.81 599.643 269.418 601.347 270.89Z" clip-rule="evenodd" fill-rule="evenodd"></path>
    <path fill="white" d="M675.425 434.761C670.652 437.972 668.775 458.161 670.817 465.804C678.121 493.157 690.308 491.747 694.505 506.439C695.885 511.268 692.675 521.382 692.466 523.07C692.403 523.577 694.625 524.121 695.736 523.098C697.404 521.565 697.736 519.884 698.098 519.018C698.183 518.814 698.217 518.642 698.427 518.964C698.841 519.602 698.775 519.77 700.144 522.222C701.064 523.871 703.754 523.723 703.992 523.259C704.23 522.793 699.084 512.35 697.885 504.865C695.358 489.08 695.84 476.237 690.996 459.282C687.784 448.038 677.397 433.434 675.425 434.761Z" clip-rule="evenodd" fill-rule="evenodd"></path>
    <path fill="white" d="M776.023 712.61C777.971 720.882 800.265 732.276 809.685 732.618C843.406 733.84 846.154 715.642 864.363 715.902C870.348 715.987 880.707 724.972 882.55 726C883.106 726.309 884.517 723.335 883.752 721.29C882.602 718.223 877.447 716.559 876.59 715.665C876.389 715.455 876.205 715.332 876.647 715.167C877.519 714.845 881.051 715.472 884.33 714.551C886.533 713.932 887.325 709.986 886.882 709.441C886.437 708.897 872.722 711.834 863.781 710.344C844.924 707.203 830.488 700.981 809.474 700.68C795.538 700.481 775.219 709.192 776.023 712.61Z" clip-rule="evenodd" fill-rule="evenodd"></path>
    <path fill="#FDFDFD" d="M817.034 847.522C819.156 852.995 838.356 859.106 846.197 858.653C874.26 857.031 875.432 844.482 890.562 843.336C895.536 842.959 904.682 848.302 906.274 848.867C906.754 849.037 907.745 846.916 906.985 845.584C905.844 843.585 904.284 842.9 903.517 842.355C903.337 842.227 903.177 842.157 903.534 842.014C904.238 841.73 904.388 841.832 907.053 840.968C908.844 840.388 909.262 837.653 908.859 837.316C908.457 836.978 897.253 839.968 889.74 839.608C873.897 838.846 861.534 835.673 844.072 836.995C832.493 837.874 816.158 845.261 817.034 847.522Z" clip-rule="evenodd" fill-rule="evenodd"></path>
    <path fill="white" d="M1035.1 608.196C1039.6 617.877 1070.43 626.325 1082.35 624.401C1125.02 617.509 1123.97 594.464 1146.92 590.252C1154.46 588.867 1169.7 597.327 1172.27 598.132C1173.04 598.374 1174.08 594.368 1172.61 592.046C1170.41 588.564 1163.52 587.803 1162.22 586.917C1161.92 586.708 1161.66 586.604 1162.17 586.292C1163.19 585.676 1167.78 585.569 1171.67 583.621C1174.29 582.313 1174.31 577.267 1173.61 576.708C1172.92 576.15 1156.41 583.172 1144.81 583.568C1120.34 584.402 1100.67 580.35 1074.19 585.212C1056.63 588.435 1033.25 604.197 1035.1 608.196Z" clip-rule="evenodd" fill-rule="evenodd"></path>
    <path fill="white" d="M710.887 500.442C706.25 507.29 710.996 527.729 716.105 533.254C734.393 553.035 748.583 541.92 758.736 552.324C762.074 555.744 761.717 567.807 762.049 569.557C762.149 570.083 765.015 568.808 766 566.957C767.476 564.178 763.181 555.95 763.316 554.847C763.346 554.588 763.328 554.399 763.693 554.533C764.413 554.798 768.505 561.393 771.005 562.593C772.685 563.399 775.872 561.101 775.999 560.472C776.125 559.844 766.303 554.187 762.263 548.132C753.741 535.361 749.866 522.93 738.15 510.924C730.38 502.962 712.801 497.613 710.887 500.442Z" clip-rule="evenodd" fill-rule="evenodd"></path>
    <path fill="white" d="M784.005 626.482C785.089 637.223 811.592 655.381 823.548 657.43C866.345 664.763 872.931 642.349 896.108 645.806C903.728 646.941 915.416 660.022 917.595 661.631C918.25 662.116 920.554 658.618 919.924 655.915C918.977 651.861 912.684 648.882 911.742 647.61C911.521 647.312 911.307 647.125 911.898 646.994C913.066 646.738 917.464 648.134 921.801 647.539C924.717 647.14 926.395 642.314 925.92 641.553C925.446 640.79 907.458 642.127 896.308 638.718C872.792 631.526 855.433 621.22 828.685 617.23C810.946 614.584 783.558 622.047 784.005 626.482Z" clip-rule="evenodd" fill-rule="evenodd"></path>
    <path fill="white" d="M1200.4 589.658C1206.53 594.47 1229.28 589.823 1236.35 584.655C1261.67 566.152 1253.33 551.527 1266.77 541.25C1271.19 537.871 1283.86 538.358 1285.79 538.035C1286.37 537.939 1285.72 534.994 1283.99 533.97C1281.41 532.432 1276.7 534.202 1275.57 534.054C1275.3 534.018 1275.1 534.035 1275.32 533.664C1275.78 532.932 1278.71 531.351 1280.58 528.806C1281.84 527.096 1280.18 523.813 1279.54 523.678C1278.91 523.543 1270.56 533.53 1263.19 537.6C1247.64 546.185 1233.56 550.021 1218.04 561.883C1207.75 569.75 1197.87 587.672 1200.4 589.658Z" clip-rule="evenodd" fill-rule="evenodd"></path>
    <path fill="white" d="M1140.03 610.478C1141.58 613.923 1154.17 617.178 1159.21 616.612C1177.25 614.584 1177.58 606.472 1187.29 605.203C1190.49 604.786 1196.57 607.902 1197.61 608.208C1197.93 608.3 1198.49 606.901 1197.96 606.071C1197.16 604.827 1196.13 604.441 1195.61 604.117C1195.49 604.041 1195.39 604.003 1195.61 603.897C1196.06 603.69 1196.16 603.75 1197.85 603.102C1198.98 602.666 1199.16 600.892 1198.89 600.689C1198.62 600.486 1191.49 602.802 1186.64 602.834C1176.4 602.902 1168.32 601.296 1157.11 602.761C1149.67 603.731 1139.39 609.056 1140.03 610.478Z" clip-rule="evenodd" fill-rule="evenodd"></path>
    <path fill="#FDFDFD" d="M1082.24 510.277C1087.2 515.42 1108.53 514.132 1115.64 510.358C1141.1 496.851 1135.41 482.537 1148.99 474.954C1153.45 472.461 1164.93 474.528 1166.73 474.484C1167.27 474.469 1167.05 471.719 1165.62 470.571C1163.46 468.846 1158.94 469.846 1157.93 469.566C1157.69 469.5 1157.5 469.488 1157.76 469.181C1158.27 468.576 1161.15 467.522 1163.18 465.459C1164.55 464.071 1163.46 460.883 1162.9 460.68C1162.34 460.477 1153.44 468.449 1146.2 471.19C1130.91 476.97 1117.59 478.638 1101.92 487.389C1091.53 493.192 1080.19 508.154 1082.24 510.277Z" clip-rule="evenodd" fill-rule="evenodd"></path>
    <path fill="white" d="M1389.72 399.676C1378.98 399.384 1359.01 374.37 1356.11 362.638C1345.7 320.639 1367.47 312.455 1362.34 289.671C1360.66 282.182 1346.81 271.521 1345.06 269.475C1344.53 268.858 1347.83 266.312 1350.56 266.741C1354.66 267.385 1358.07 273.423 1359.41 274.266C1359.72 274.463 1359.92 274.662 1360.01 274.064C1360.18 272.885 1358.47 268.617 1358.74 264.262C1358.92 261.336 1363.59 259.315 1364.38 259.731C1365.17 260.146 1365.16 278.122 1369.36 288.955C1378.22 311.802 1389.73 328.299 1395.64 354.593C1399.57 372.03 1394.16 399.797 1389.72 399.676Z" clip-rule="evenodd" fill-rule="evenodd"></path>
    <path fill="white" d="M1123.01 254.743C1114.84 259.967 1091.14 253.618 1084.87 247.384C1062.43 225.07 1075.93 208.723 1064.14 196.357C1060.27 192.292 1046.16 192.273 1044.13 191.815C1043.52 191.677 1045.12 188.34 1047.31 187.246C1050.61 185.605 1060.07 190.977 1061.36 190.857C1061.66 190.83 1061.88 190.859 1061.74 190.424C1061.46 189.564 1053.9 184.492 1052.59 181.497C1051.71 179.483 1054.51 175.804 1055.25 175.677C1055.99 175.553 1062.24 187.354 1069.17 192.345C1083.77 202.873 1098.16 207.902 1111.76 222.174C1120.77 231.638 1126.38 252.586 1123.01 254.743Z" clip-rule="evenodd" fill-rule="evenodd"></path>
    <path fill="white" d="M1314.84 369.674C1307.49 369.915 1290.76 350.414 1287.31 340.978C1274.94 307.201 1288.72 299.556 1282.36 281.21C1280.27 275.179 1269.51 267.105 1268.06 265.515C1267.63 265.036 1269.55 262.813 1271.46 263.041C1274.33 263.384 1275.91 264.874 1276.92 265.502C1277.16 265.649 1277.32 265.802 1277.3 265.312C1277.27 264.343 1277.08 264.217 1276.71 260.655C1276.47 258.261 1279.39 256.405 1279.98 256.709C1280.57 257.013 1282.83 271.668 1287.05 280.313C1295.95 298.544 1305.85 311.481 1313.19 332.654C1318.05 346.696 1317.87 369.575 1314.84 369.674Z" clip-rule="evenodd" fill-rule="evenodd"></path>
    <path fill="white" d="M1292.36 154.441C1283.58 160.676 1252.55 152.677 1243.16 145.037C1209.55 117.686 1222.06 98.024 1204.25 82.8737C1198.39 77.8934 1180.89 77.6946 1178.25 77.1141C1177.46 76.9396 1178.57 72.9119 1181.02 71.6122C1184.68 69.6615 1191.05 72.4366 1192.62 72.3094C1192.99 72.2789 1193.27 72.3178 1192.98 71.7867C1192.41 70.7415 1188.47 68.3522 1186.07 64.7032C1184.46 62.2498 1186.98 57.8205 1187.86 57.6775C1188.75 57.5345 1199.55 71.9298 1209.44 78.0711C1230.28 91.0257 1249.41 97.3048 1269.97 114.79C1283.61 126.383 1295.99 151.866 1292.36 154.441Z" clip-rule="evenodd" fill-rule="evenodd"></path>
    <path fill="white" d="M1319.3 259.098C1311.54 262.07 1292.57 252.933 1288.3 246.756C1273.04 224.643 1287.13 213.361 1279.23 201.214C1276.63 197.22 1264.72 194.888 1263.08 194.176C1262.59 193.962 1264.48 191.469 1266.52 190.927C1269.58 190.113 1276.67 196.102 1277.79 196.216C1278.05 196.243 1278.23 196.302 1278.18 195.92C1278.08 195.164 1272.54 189.734 1271.93 187.046C1271.51 185.238 1274.49 182.66 1275.13 182.676C1275.78 182.695 1279.11 193.467 1284.13 198.727C1294.73 209.82 1306.04 216.334 1315.17 230.353C1321.22 239.651 1322.5 257.87 1319.3 259.098Z" clip-rule="evenodd" fill-rule="evenodd"></path>
    <path fill="white" d="M1225.73 160.936C1219.96 165.568 1194.74 160.087 1186.28 154.631C1155.97 135.1 1162.47 120.658 1146.3 109.83C1140.99 106.271 1127.46 106.317 1125.33 105.924C1124.69 105.806 1124.91 102.864 1126.58 101.89C1129.1 100.432 1131.26 100.671 1132.46 100.561C1132.74 100.534 1132.96 100.56 1132.65 100.177C1132.04 99.4216 1131.81 99.4373 1129.37 96.8084C1127.74 95.0408 1128.97 91.7916 1129.63 91.6774C1130.29 91.5631 1140.93 101.919 1149.53 106.279C1167.68 115.476 1183.45 119.836 1202.1 132.332C1214.48 140.618 1228.11 159.022 1225.73 160.936Z" clip-rule="evenodd" fill-rule="evenodd"></path>
  </g>
  <g opacity="0.214568">
    <mask height="170" width="1323" y="792" x="1012" maskUnits="userSpaceOnUse" id="mask2">
      <path fill="white" d="M1012 792.677H2335V961.677H1012V792.677Z" clip-rule="evenodd" fill-rule="evenodd"></path>
    </mask>
    <g mask="url(#mask2)">
      <path fill="#2399CC" d="M1993.39 851.913C1898.44 785.044 1825.84 776.63 1737.47 817.395C1680.24 843.8 1627.59 826.792 1582.7 830.162C1498 836.526 1397.56 910.875 1312.33 891.641C1215.83 869.874 1111.38 902.149 1027.74 942.514C1022.05 945.254 1015.09 949.862 1012 961.677H2335C2335 954.951 2329.42 948.156 2324.87 943.367C2222.52 835.571 2191.29 991.296 1993.39 851.913Z" clip-rule="evenodd" fill-rule="evenodd"></path>
    </g>
  </g>
  <g opacity="0.534375">
    <mask height="85" width="1292" y="877" x="114" maskUnits="userSpaceOnUse" id="mask3">
      <path fill="white" d="M114 877.677H1406V961.677H114V877.677Z" clip-rule="evenodd" fill-rule="evenodd"></path>
    </mask>
    <g mask="url(#mask3)">
      <path fill="#2399CC" d="M1072.39 907.119C979.666 873.883 908.768 869.7 822.473 889.963C766.578 903.087 715.162 894.633 671.325 896.308C588.608 899.471 490.528 936.426 407.297 926.866C313.052 916.047 211.05 932.089 129.374 952.152C123.817 953.514 117.013 955.804 114 961.677H1406C1406 958.334 1400.55 954.956 1396.11 952.576C1296.16 898.997 1265.66 976.399 1072.39 907.119Z" clip-rule="evenodd" fill-rule="evenodd"></path>
    </g>
  </g>
  <g opacity="0.208249">
    <mask height="92" width="712" y="872" x="-484" maskUnits="userSpaceOnUse" id="mask4">
      <path fill="white" d="M-484 872.677H228V963.677H-484V872.677Z" clip-rule="evenodd" fill-rule="evenodd"></path>
    </mask>
    <g mask="url(#mask4)">
      <path fill="#2399CC" d="M44.1539 904.573C-6.94556 868.567 -46.0162 864.036 -93.5723 885.987C-124.375 900.204 -152.709 891.047 -176.868 892.861C-222.451 896.288 -276.502 936.322 -322.369 925.965C-374.306 914.245 -430.517 931.623 -475.528 953.358C-478.59 954.834 -482.339 957.315 -484 963.677H228C228 960.055 224.995 956.396 222.549 953.817C167.469 895.774 150.66 979.626 44.1539 904.573Z" clip-rule="evenodd" fill-rule="evenodd"></path>
    </g>
  </g>
  <g opacity="0.683686" style="mix-blend-mode:luminosity">
    <path fill="#40D3FD" d="M1690 454.722C1690 459.209 1686.36 462.849 1681.87 462.849C1677.38 462.849 1673.74 459.209 1673.74 454.722C1673.74 450.23 1677.38 446.588 1681.87 446.588C1686.36 446.588 1690 450.23 1690 454.722Z" clip-rule="evenodd" fill-rule="evenodd" opacity="0.683686"></path>
    <path fill="#40D3FD" d="M1673.87 484.559C1673.87 486.632 1672.19 488.311 1670.12 488.311C1668.05 488.311 1666.37 486.632 1666.37 484.559C1666.37 482.487 1668.05 480.806 1670.12 480.806C1672.19 480.806 1673.87 482.487 1673.87 484.559Z" clip-rule="evenodd" fill-rule="evenodd" opacity="0.683686"></path>
    <g opacity="0.683686">
      <mask height="15" width="14" y="413" x="1651" maskUnits="userSpaceOnUse" id="mask5">
        <path fill="white" d="M1651 413.732H1664.76V427.492H1651V413.732Z" clip-rule="evenodd" fill-rule="evenodd"></path>
      </mask>
      <g mask="url(#mask5)">
        <path fill="#40D3FD" d="M1664.76 420.613C1664.76 424.41 1661.68 427.492 1657.88 427.492C1654.08 427.492 1651 424.41 1651 420.613C1651 416.813 1654.08 413.732 1657.88 413.732C1661.68 413.732 1664.76 416.813 1664.76 420.613Z" clip-rule="evenodd" fill-rule="evenodd" opacity="0.683686"></path>
      </g>
    </g>
    <path fill="#40D3FD" d="M1685.4 426.866C1685.4 428.594 1684 429.992 1682.27 429.992C1680.54 429.992 1679.14 428.594 1679.14 426.866C1679.14 425.139 1680.54 423.738 1682.27 423.738C1684 423.738 1685.4 425.139 1685.4 426.866Z" clip-rule="evenodd" fill-rule="evenodd" opacity="0.683686"></path>
    <path fill="#40D3FD" d="M1684.77 355.887C1684.77 358.823 1682.39 361.201 1679.45 361.201C1676.52 361.201 1674.14 358.823 1674.14 355.887C1674.14 352.95 1676.52 350.568 1679.45 350.568C1682.39 350.568 1684.77 352.95 1684.77 355.887Z" clip-rule="evenodd" fill-rule="evenodd" opacity="0.683686"></path>
    <path fill="#40D3FD" d="M1670.79 291.831C1670.79 296.15 1667.29 299.652 1662.97 299.652C1658.65 299.652 1655.15 296.15 1655.15 291.831C1655.15 287.519 1658.65 284.017 1662.97 284.017C1667.29 284.017 1670.79 287.519 1670.79 291.831Z" clip-rule="evenodd" fill-rule="evenodd" opacity="0.683686"></path>
    <path fill="#40D3FD" d="M1687.44 249.005C1687.44 251.768 1685.2 254.007 1682.43 254.007C1679.67 254.007 1677.43 251.768 1677.43 249.005C1677.43 246.24 1679.67 244 1682.43 244C1685.2 244 1687.44 246.24 1687.44 249.005Z" clip-rule="evenodd" fill-rule="evenodd" opacity="0.683686"></path>
  </g>
  <g style="mix-blend-mode:screen">
    <path fill="#40D3FD" d="M307.13 810.938C302.641 810.938 299 807.298 299 802.811C299 798.319 302.641 794.677 307.13 794.677C311.621 794.677 315.259 798.319 315.259 802.811C315.259 807.298 311.621 810.938 307.13 810.938Z" clip-rule="evenodd" fill-rule="evenodd" opacity="0.683686"></path>
    <path fill="#40D3FD" d="M291.505 534.43C291.505 536.503 289.823 538.182 287.752 538.182C285.679 538.182 284 536.503 284 534.43C284 532.358 285.679 530.677 287.752 530.677C289.823 530.677 291.505 532.358 291.505 534.43Z" clip-rule="evenodd" fill-rule="evenodd" opacity="0.683686"></path>
    <g opacity="0.683686">
      <mask height="15" width="14" y="722" x="285" maskUnits="userSpaceOnUse" id="mask6">
        <path fill="white" d="M285 722.409H298.759V736.169H285V722.409Z" clip-rule="evenodd" fill-rule="evenodd"></path>
      </mask>
      <g mask="url(#mask6)">
        <path fill="#40D3FD" d="M298.759 729.29C298.759 733.087 295.679 736.169 291.879 736.169C288.078 736.169 285 733.087 285 729.29C285 725.49 288.078 722.409 291.879 722.409C295.679 722.409 298.759 725.49 298.759 729.29Z" clip-rule="evenodd" fill-rule="evenodd" opacity="0.683686"></path>
      </g>
    </g>
    <path fill="#40D3FD" d="M319.396 735.543C319.396 737.271 317.997 738.669 316.269 738.669C314.541 738.669 313.141 737.271 313.141 735.543C313.141 733.816 314.541 732.415 316.269 732.415C317.997 732.415 319.396 733.816 319.396 735.543Z" clip-rule="evenodd" fill-rule="evenodd" opacity="0.683686"></path>
    <path fill="#40D3FD" d="M318.77 664.564C318.77 667.5 316.391 669.878 313.454 669.878C310.518 669.878 308.139 667.5 308.139 664.564C308.139 661.627 310.518 659.245 313.454 659.245C316.391 659.245 318.77 661.627 318.77 664.564Z" clip-rule="evenodd" fill-rule="evenodd" opacity="0.683686"></path>
    <path fill="#40D3FD" d="M292.635 651.491C292.635 655.81 289.135 659.312 284.818 659.312C280.5 659.312 277 655.81 277 651.491C277 647.179 280.5 643.677 284.818 643.677C289.135 643.677 292.635 647.179 292.635 651.491Z" clip-rule="evenodd" fill-rule="evenodd" opacity="0.683686"></path>
    <path fill="#40D3FD" d="M321.438 557.682C321.438 560.445 319.197 562.684 316.433 562.684C313.67 562.684 311.431 560.445 311.431 557.682C311.431 554.917 313.67 552.677 316.433 552.677C319.197 552.677 321.438 554.917 321.438 557.682Z" clip-rule="evenodd" fill-rule="evenodd" opacity="0.683686"></path>
  </g>
  <g style="mix-blend-mode:screen">
    <path fill="#40D3FD" d="M1605 541.398C1605 545.885 1608.64 549.525 1613.13 549.525C1617.62 549.525 1621.26 545.885 1621.26 541.398C1621.26 536.906 1617.62 533.264 1613.13 533.264C1608.64 533.264 1605 536.906 1605 541.398Z" clip-rule="evenodd" fill-rule="evenodd" opacity="0.683686"></path>
    <path fill="#40D3FD" d="M1621.13 571.235C1621.13 573.308 1622.81 574.987 1624.88 574.987C1626.95 574.987 1628.63 573.308 1628.63 571.235C1628.63 569.163 1626.95 567.482 1624.88 567.482C1622.81 567.482 1621.13 569.163 1621.13 571.235Z" clip-rule="evenodd" fill-rule="evenodd" opacity="0.683686"></path>
    <g opacity="0.683686">
      <mask height="15" width="14" y="500" x="1630" maskUnits="userSpaceOnUse" id="mask7">
        <path fill="white" d="M1644 500.409H1630.24V514.169H1644V500.409Z" clip-rule="evenodd" fill-rule="evenodd"></path>
      </mask>
      <g mask="url(#mask7)">
        <path fill="#40D3FD" d="M1630.24 507.29C1630.24 511.087 1633.32 514.169 1637.12 514.169C1640.92 514.169 1644 511.087 1644 507.29C1644 503.49 1640.92 500.409 1637.12 500.409C1633.32 500.409 1630.24 503.49 1630.24 507.29Z" clip-rule="evenodd" fill-rule="evenodd" opacity="0.683686"></path>
      </g>
    </g>
    <path fill="#40D3FD" d="M1609.6 513.543C1609.6 515.271 1611 516.669 1612.73 516.669C1614.46 516.669 1615.86 515.271 1615.86 513.543C1615.86 511.816 1614.46 510.415 1612.73 510.415C1611 510.415 1609.6 511.816 1609.6 513.543Z" clip-rule="evenodd" fill-rule="evenodd" opacity="0.683686"></path>
    <path fill="#40D3FD" d="M1610.23 442.563C1610.23 445.499 1612.61 447.877 1615.55 447.877C1618.48 447.877 1620.86 445.499 1620.86 442.563C1620.86 439.626 1618.48 437.244 1615.55 437.244C1612.61 437.244 1610.23 439.626 1610.23 442.563Z" clip-rule="evenodd" fill-rule="evenodd" opacity="0.683686"></path>
    <path fill="#40D3FD" d="M1624.21 378.508C1624.21 382.827 1627.71 386.329 1632.03 386.329C1636.35 386.329 1639.85 382.827 1639.85 378.508C1639.85 374.196 1636.35 370.694 1632.03 370.694C1627.71 370.694 1624.21 374.196 1624.21 378.508Z" clip-rule="evenodd" fill-rule="evenodd" opacity="0.683686"></path>
    <path fill="#40D3FD" d="M1607.56 335.682C1607.56 338.445 1609.8 340.684 1612.57 340.684C1615.33 340.684 1617.57 338.445 1617.57 335.682C1617.57 332.917 1615.33 330.677 1612.57 330.677C1609.8 330.677 1607.56 332.917 1607.56 335.682Z" clip-rule="evenodd" fill-rule="evenodd" opacity="0.683686"></path>
  </g>
  <g style="mix-blend-mode:screen">
    <path fill="#40D3FD" d="M1605 318.399C1605 322.886 1601.36 326.526 1596.87 326.526C1592.38 326.526 1588.74 322.886 1588.74 318.399C1588.74 313.907 1592.38 310.265 1596.87 310.265C1601.36 310.265 1605 313.907 1605 318.399Z" clip-rule="evenodd" fill-rule="evenodd" opacity="0.683686"></path>
    <path fill="#40D3FD" d="M1600.51 203.43C1600.51 205.503 1598.82 207.182 1596.75 207.182C1594.68 207.182 1593 205.503 1593 203.43C1593 201.358 1594.68 199.677 1596.75 199.677C1598.82 199.677 1600.51 201.358 1600.51 203.43Z" clip-rule="evenodd" fill-rule="evenodd" opacity="0.683686"></path>
    <g opacity="0.683686">
      <mask height="15" width="14" y="277" x="1566" maskUnits="userSpaceOnUse" id="mask8">
        <path fill="white" d="M1566 277.409H1579.76V291.169H1566V277.409Z" clip-rule="evenodd" fill-rule="evenodd"></path>
      </mask>
      <g mask="url(#mask8)">
        <path fill="#40D3FD" d="M1579.76 284.29C1579.76 288.087 1576.68 291.169 1572.88 291.169C1569.08 291.169 1566 288.087 1566 284.29C1566 280.49 1569.08 277.409 1572.88 277.409C1576.68 277.409 1579.76 280.49 1579.76 284.29Z" clip-rule="evenodd" fill-rule="evenodd" opacity="0.683686"></path>
      </g>
    </g>
    <path fill="#40D3FD" d="M1600.4 290.543C1600.4 292.271 1599 293.669 1597.27 293.669C1595.54 293.669 1594.14 292.271 1594.14 290.543C1594.14 288.816 1595.54 287.415 1597.27 287.415C1599 287.415 1600.4 288.816 1600.4 290.543Z" clip-rule="evenodd" fill-rule="evenodd" opacity="0.683686"></path>
    <path fill="#40D3FD" d="M1599.63 263.996C1599.63 266.932 1597.25 269.31 1594.32 269.31C1591.38 269.31 1589 266.932 1589 263.996C1589 261.059 1591.38 258.677 1594.32 258.677C1597.25 258.677 1599.63 261.059 1599.63 263.996Z" clip-rule="evenodd" fill-rule="evenodd" opacity="0.683686"></path>
    <path fill="#40D3FD" d="M1588.64 229.491C1588.64 233.81 1585.14 237.312 1580.82 237.312C1576.5 237.312 1573 233.81 1573 229.491C1573 225.179 1576.5 221.677 1580.82 221.677C1585.14 221.677 1588.64 225.179 1588.64 229.491Z" clip-rule="evenodd" fill-rule="evenodd" opacity="0.683686"></path>
    <path fill="#40D3FD" d="M1602.01 154.682C1602.01 157.445 1599.77 159.684 1597 159.684C1594.24 159.684 1592 157.445 1592 154.682C1592 151.917 1594.24 149.677 1597 149.677C1599.77 149.677 1602.01 151.917 1602.01 154.682Z" clip-rule="evenodd" fill-rule="evenodd" opacity="0.683686"></path>
  </g>
  <defs>
    <linearGradient gradientUnits="userSpaceOnUse" y2="2558.2" x2="560.484" y1="-44.2657" x1="1920" id="paint0_linear">
      <stop stop-color="#A6EEFA"></stop>
      <stop stop-color="#2399CC" offset="1"></stop>
    </linearGradient>
  </defs>
</svg>
