<svg xmlns="http://www.w3.org/2000/svg" fill="none" viewBox="0 0 961 833" height="833" width="961">
<rect fill="url(#paint0_linear)" height="700" width="961"></rect>
<mask height="700" width="961" y="0" x="0" maskUnits="userSpaceOnUse" id="mask0">
<rect fill="white" height="700" width="961"></rect>
</mask>
<g mask="url(#mask0)">
</g>
<g opacity="0.2">
<path fill="#40D3FD" d="M1.87563 452.18C2.10295 449.063 -0.554825 447.253 -3.44521 448.186C-7.42195 449.522 -13.401 451.776 -20.5126 455.186C-27.681 458.596 -35.9808 463.084 -45.8044 469.068C-54.4649 474.276 -65.8811 481.939 -79.7541 487.586C-86.6543 490.43 -94.1267 492.798 -101.701 494.409C-109.268 496.029 -116.925 496.887 -124.056 496.985C-130.765 497.133 -139.923 495.559 -147.147 493.303C-150.753 492.173 -153.922 491.025 -156.141 490.063C-158.39 489.168 -159.708 488.508 -159.708 488.508C-161.893 487.45 -163.779 486.773 -163.899 487.001C-164.016 487.229 -164.113 487.416 -164.113 487.416C-164.113 487.416 -164.209 487.603 -164.327 487.832C-164.447 488.059 -162.727 489.124 -160.505 490.196C-160.505 490.196 -159.169 490.863 -156.913 491.836C-154.686 492.875 -151.523 494.169 -147.942 495.585C-140.767 498.409 -131.717 501.116 -125.025 503.232C-117.924 505.535 -109.916 507.571 -101.392 508.833C-92.8751 510.105 -83.8445 510.595 -74.9196 510.059C-65.9947 509.537 -57.2258 507.981 -49.341 505.637C-41.447 503.304 -34.4438 500.191 -28.8639 496.859C-22.536 493.04 -17.4306 488.665 -13.3349 484.34C-11.322 482.13 -9.49954 479.998 -7.99158 477.81C-6.42941 475.683 -5.13953 473.552 -4.03993 471.508C0.361053 463.307 1.60602 456.505 1.87563 452.18Z" clip-rule="evenodd" fill-rule="evenodd"></path>
<path fill="#40D3FD" d="M-3.61788 667.02C-1.42676 668.675 1.7234 668.048 2.86447 665.541C4.42371 662.087 6.50535 656.381 6.71246 648.624C6.97233 644.7 6.43016 640.399 5.5582 635.551C5.06351 633.154 4.29443 630.697 3.43566 628.115C2.98582 626.831 2.54391 625.502 1.97008 624.193C1.38569 622.889 0.755127 621.565 0.0810394 620.224C-4.62177 610.734 -13.7213 599.509 -24.7733 589.811C-35.7817 580.019 -48.5986 571.826 -59.6347 565.838C-62.2519 564.444 -65.1185 562.538 -68.1974 560.782C-69.7118 559.87 -71.2262 558.93 -72.6983 557.992C-74.1705 557.056 -75.6915 556.252 -77.0766 555.413C-79.8667 553.763 -82.3005 552.238 -84.1447 551.295C-85.9506 550.285 -87.0482 549.674 -87.0482 549.674C-88.8501 548.642 -90.4252 547.982 -90.5466 548.207C-90.6693 548.43 -90.7695 548.614 -90.7695 548.614C-90.7695 548.614 -90.8698 548.8 -90.9925 549.024C-91.1138 549.248 -89.7551 550.266 -87.9729 551.283C-87.9729 551.283 -86.8991 551.912 -85.1354 552.945C-83.3466 553.936 -81.0091 555.56 -78.4103 557.415C-77.1202 558.358 -75.7179 559.29 -74.3935 560.387C-73.0704 561.485 -71.7354 562.617 -70.4386 563.755C-67.795 565.97 -65.5155 568.476 -63.6951 570.66C-55.9978 580.053 -48.6896 592.106 -43.0067 603.783C-37.2314 615.46 -33.0418 626.697 -29.1146 634.602C-28.5487 635.724 -27.9669 636.804 -27.3707 637.847C-26.8008 638.9 -26.2454 639.927 -25.7019 640.929C-24.5952 642.924 -23.3591 644.744 -22.218 646.49C-20.0573 650.021 -17.4968 652.976 -15.3769 655.666C-10.8231 660.938 -6.67965 664.72 -3.61788 667.02Z" clip-rule="evenodd" fill-rule="evenodd"></path>
<path fill="#40D3FD" d="M22.0549 666.772C24.0607 668.646 27.1966 668.222 28.5346 665.811C30.3805 662.475 32.8474 657.043 34.0685 649.537C35.3286 642.04 35.3923 632.421 32.4253 621.182C29.8492 611.286 23.949 598.748 16.5665 586.468C9.21515 574.148 0.415394 562.127 -7.14247 552.199C-8.92996 549.868 -10.7889 546.979 -12.7427 544.045C-14.6536 541.088 -16.5216 538.016 -18.2636 535.285C-21.6541 529.776 -24.2899 525.495 -24.2899 525.495C-25.3564 523.716 -26.4061 522.371 -26.6204 522.505C-26.8373 522.64 -27.0127 522.751 -27.0127 522.751C-27.0127 522.751 -27.1894 522.861 -27.405 522.996C-27.6207 523.131 -26.927 524.689 -25.8644 526.457C-25.8644 526.457 -25.2304 527.536 -24.1925 529.307C-23.1377 531.072 -21.7996 533.6 -20.3395 536.466C-18.8456 539.315 -17.3504 542.566 -16.0033 545.784C-14.6133 548.98 -13.5091 552.212 -12.731 554.996C-9.46257 566.873 -6.81251 581.04 -4.71845 594.407C-2.58151 607.785 -0.979786 620.363 1.38318 629.431C4.10079 639.723 7.82127 647.667 11.6132 653.794C15.4376 659.902 19.2633 664.174 22.0549 666.772Z" clip-rule="evenodd" fill-rule="evenodd"></path>
<path fill="#40D3FD" d="M136.215 732.75C139.01 731.669 139.525 728.498 137.731 726.285C136.482 724.758 134.872 722.949 133.014 720.78C132.544 720.267 132.055 719.735 131.549 719.18C131.051 718.615 130.536 718.028 130.003 717.421C128.939 716.267 127.806 715.037 126.6 713.729C126.001 713.081 125.381 712.439 124.737 711.8C124.109 711.119 123.468 710.416 122.796 709.733C121.43 708.415 120.063 706.885 118.538 705.465C115.562 702.46 112.212 699.327 108.376 695.863C101.689 689.751 91.9526 681.715 82.8551 671.032C73.6469 660.398 65.0148 647.399 58.7183 635.613C55.7288 630.09 52.7763 622.023 50.6621 615.329C48.5413 608.635 47.1613 603.343 47.1613 603.343C46.5892 601.164 45.9157 599.433 45.6665 599.498C45.4174 599.564 45.2131 599.616 45.2131 599.616C45.2131 599.616 45.0101 599.67 44.7597 599.736C44.5119 599.802 44.7781 601.639 45.3528 603.821C45.3528 603.821 50.8414 624.947 52.6933 637.569C54.5307 651.005 57.2051 667.158 62.836 682.418C65.6264 690.052 69.205 697.429 73.2766 703.839C77.3389 710.267 81.9193 715.767 86.4206 719.914C91.5835 724.592 97.0233 728.021 102.201 730.447C104.849 731.593 107.333 732.613 109.831 733.269C111.065 733.616 112.252 733.934 113.419 734.195C114.609 734.418 115.761 734.602 116.872 734.758C119.072 735.107 121.193 735.171 123.128 735.162C124.098 735.154 125.016 735.143 125.904 735.08C126.803 734.991 127.658 734.887 128.469 734.768C131.693 734.356 134.283 733.506 136.215 732.75Z" clip-rule="evenodd" fill-rule="evenodd"></path>
<path fill="#40D3FD" d="M159.873 789.678C161.676 787.374 160.654 784.297 157.967 783.245C154.224 781.761 148.552 780.147 141.262 778.773C140.355 778.622 139.423 778.486 138.469 778.369C137.507 778.216 136.518 778.057 135.501 777.895C133.474 777.603 131.353 777.388 129.132 777.277C126.904 777.117 124.555 776.873 122.108 776.849C120.884 776.845 119.63 776.841 118.344 776.836C117.056 776.788 115.738 776.772 114.387 776.788C104.908 776.979 92.073 778.287 78.0655 777.94C64.1041 777.698 49.0451 775.719 36.4985 771.988C33.5701 771.087 30.1087 769.895 26.8118 768.159C25.1403 767.337 23.4557 766.476 21.8092 765.613C20.1641 764.747 18.6663 763.709 17.1962 762.805C14.2784 760.958 11.6922 759.285 9.99045 757.869C8.24922 756.508 7.18843 755.678 7.18843 755.678C5.45378 754.294 3.89681 753.322 3.72966 753.522C3.56383 753.72 3.42827 753.883 3.42827 753.883C3.42827 753.883 3.29271 754.045 3.12556 754.245C2.95973 754.442 4.26269 755.752 6.02234 757.154C6.02234 757.154 7.07919 758.013 8.81647 759.425C10.4998 760.911 13.032 762.718 15.8367 764.828C17.2515 765.863 18.6782 767.064 20.2351 768.132C21.7934 769.201 23.3741 770.307 24.9258 771.426C27.9805 773.753 31.13 775.74 33.6596 777.708C44.4439 785.941 58.3935 794.706 73.1933 800.69C87.9154 806.775 103.323 809.95 114.867 809.705C116.506 809.684 118.103 809.628 119.658 809.541C121.213 809.439 122.723 809.182 124.192 808.968C127.124 808.488 129.889 808.004 132.457 807.269C135.021 806.482 137.406 805.632 139.607 804.744C140.706 804.29 141.767 803.863 142.773 803.363C143.776 802.838 144.734 802.308 145.647 801.778C153.009 797.685 157.38 792.836 159.873 789.678Z" clip-rule="evenodd" fill-rule="evenodd"></path>
<path fill="#40D3FD" d="M7.07338 710.407C9.87556 708.857 9.91364 705.677 7.32671 703.825C3.73441 701.234 -2.01039 697.876 -9.82631 694.241C-11.7937 693.4 -13.8819 692.506 -16.0948 691.558C-18.3169 690.632 -20.678 689.745 -23.1915 688.921C-25.697 688.051 -28.3246 687.071 -31.1334 686.257C-32.5404 685.857 -33.9828 685.45 -35.462 685.029C-36.9307 684.572 -38.4453 684.132 -40.0059 683.716C-50.9849 680.845 -66.0576 677.984 -81.8548 673.318C-97.6415 668.754 -114.087 662.346 -127.397 655.104C-130.501 653.382 -134.141 651.221 -137.548 648.578C-139.282 647.293 -141.023 645.966 -142.722 644.65C-144.418 643.331 -145.944 641.883 -147.451 640.575C-150.434 637.927 -153.071 635.545 -154.792 633.663C-156.556 631.822 -157.63 630.702 -157.63 630.702C-159.387 628.838 -160.98 627.452 -161.172 627.621C-161.363 627.791 -161.521 627.93 -161.521 627.93C-161.521 627.93 -161.677 628.068 -161.87 628.237C-162.061 628.407 -160.769 630.083 -158.995 631.962C-158.995 631.962 -157.931 633.108 -156.183 634.993C-154.495 636.937 -151.936 639.435 -149.112 642.311C-147.687 643.733 -146.262 645.324 -144.689 646.82C-143.117 648.316 -141.525 649.856 -139.968 651.4C-136.914 654.562 -133.739 657.422 -131.239 660.082C-120.552 671.282 -106.763 683.808 -91.8009 693.885C-76.9238 704.034 -60.9848 711.614 -48.3809 714.899C-46.5946 715.377 -44.8437 715.811 -43.1296 716.203C-41.4115 716.581 -39.7027 716.807 -38.0489 717.059C-34.7309 717.511 -31.5901 717.909 -28.5845 718.022C-25.5697 718.088 -22.7269 718.041 -20.0612 717.903C-18.7264 717.826 -17.4414 717.76 -16.1919 717.613C-14.9385 717.442 -13.7284 717.254 -12.5642 717.051C-3.25464 715.578 3.20284 712.524 7.07338 710.407Z" clip-rule="evenodd" fill-rule="evenodd"></path>
<path fill="#40D3FD" d="M202.154 764.559C204.335 762.589 203.89 759.388 201.37 757.913C197.869 755.852 192.368 753.281 185.014 750.981C181.343 749.966 177.192 748.727 172.566 748.033C170.252 747.631 167.813 747.197 165.243 746.933C163.957 746.782 162.639 746.704 161.287 746.572C159.935 746.432 158.55 746.317 157.128 746.235C147.127 745.699 133.598 746.352 119.055 746.019C104.541 745.756 89.0294 744.468 75.9229 741.892C72.8557 741.269 69.2466 740.368 65.6849 739.06C63.8922 738.435 62.0838 737.775 60.3161 737.11C58.5484 736.443 56.8753 735.652 55.2655 734.952C52.0589 733.527 49.2206 732.224 47.2569 731.133C45.2788 730.074 44.074 729.429 44.074 729.429C42.0972 728.348 40.3742 727.647 40.2466 727.871C40.1203 728.097 40.0164 728.281 40.0164 728.281C40.0164 728.281 39.9125 728.466 39.7849 728.691C39.656 728.917 41.1831 729.992 43.177 731.08C43.177 731.08 44.3791 731.751 46.3533 732.856C48.2973 734.015 51.0935 735.453 54.2093 737.145C55.7732 737.977 57.3883 738.932 59.085 739.809C60.7817 740.683 62.5033 741.592 64.1961 742.518C67.5578 744.429 70.9078 746.137 73.6409 747.84C85.2809 754.995 99.6461 762.895 114.366 768.725C129.034 774.619 143.966 778.384 155.296 778.985C156.904 779.078 158.473 779.135 160.004 779.161C161.537 779.176 163.035 779.078 164.489 778.997C167.4 778.798 170.152 778.553 172.74 778.104C177.917 777.096 182.44 775.952 186.3 774.29C194.043 771.227 199.138 767.269 202.154 764.559Z" clip-rule="evenodd" fill-rule="evenodd"></path>
<path fill="#40D3FD" d="M93.494 609.243C95.3629 611.055 98.548 610.902 100.083 608.782C102.191 605.855 105.132 600.991 106.794 594.036C107.74 590.545 108.115 586.584 108.222 582.101C108.232 579.867 108.029 577.534 107.744 575.076C107.486 572.611 106.966 570.066 106.26 567.43C103.88 558.119 97.956 546.433 90.2251 535.48C82.5375 524.467 73.1224 514.259 64.9266 506.188C62.9805 504.294 60.9453 501.888 58.749 499.51C57.6725 498.302 56.609 497.067 55.5822 495.845C54.5542 494.625 53.4711 493.486 52.5059 492.363C50.5532 490.135 48.8742 488.115 47.5737 486.74C46.3152 485.329 45.5503 484.471 45.5503 484.471C44.3022 483.041 43.1275 482.01 42.9376 482.181C42.749 482.353 42.5944 482.493 42.5944 482.493C42.5944 482.493 42.4386 482.634 42.2487 482.805C42.0601 482.977 42.9166 484.276 44.1529 485.692C44.1529 485.692 44.8929 486.558 46.1069 487.983C47.3459 489.386 48.9043 491.475 50.62 493.849C51.466 495.043 52.3998 496.273 53.2432 497.606C54.0827 498.94 54.9235 500.308 55.7289 501.673C57.3856 504.371 58.6953 507.193 59.6657 509.629C63.744 520.059 66.9893 532.691 69.2301 544.557C71.5364 556.443 72.8814 567.542 74.9245 575.513C75.5322 577.774 76.2132 579.9 76.8497 581.928C77.511 583.949 78.3099 585.836 79.0695 587.628C80.4984 591.227 82.3581 594.355 83.9689 597.144C87.4212 602.681 90.8891 606.722 93.494 609.243Z" clip-rule="evenodd" fill-rule="evenodd"></path>
<path fill="#40D3FD" d="M325.766 757.372C327.798 755.389 327.213 752.234 324.8 750.798C321.436 748.782 316.287 746.359 309.633 743.868C308.804 743.578 307.948 743.3 307.071 743.037C306.19 742.734 305.287 742.421 304.358 742.101C302.501 741.492 300.548 740.944 298.489 740.484C296.432 739.971 294.275 739.345 291.992 738.926C290.854 738.687 289.679 738.547 288.482 738.302C287.287 738.041 286.057 737.807 284.794 737.601C275.92 736.224 263.693 735.336 250.607 732.527C237.555 729.831 223.751 725.135 212.708 719.114C210.142 717.679 207.126 715.864 204.406 713.542C203.011 712.422 201.613 711.261 200.251 710.107C198.891 708.95 197.722 707.649 196.54 706.487C194.211 704.127 192.154 702.003 190.888 700.298C189.567 698.636 188.764 697.624 188.764 697.624C187.455 695.943 186.215 694.691 186.005 694.842C185.798 694.992 185.628 695.116 185.628 695.116C185.628 695.116 185.459 695.241 185.252 695.391C185.043 695.541 185.961 697.061 187.291 698.764C187.291 698.764 188.085 699.805 189.392 701.516C190.625 703.289 192.603 705.532 194.766 708.122C195.866 709.401 196.933 710.843 198.165 712.179C199.398 713.514 200.644 714.891 201.86 716.275C204.221 719.12 206.77 721.639 208.733 724.027C217.136 734.045 228.58 745.165 241.527 753.668C254.371 762.26 268.572 768.054 279.679 769.762C281.253 770.017 282.794 770.234 284.299 770.411C285.807 770.574 287.299 770.568 288.741 770.604C291.634 770.617 294.364 770.604 296.944 770.302C299.53 769.945 301.951 769.496 304.2 768.98C305.324 768.712 306.407 768.468 307.446 768.136C308.488 767.777 309.486 767.408 310.443 767.032C318.115 764.185 322.965 760.081 325.766 757.372Z" clip-rule="evenodd" fill-rule="evenodd"></path>
<path fill="#40D3FD" d="M204.89 672.259C207.215 673.556 210.253 672.567 211.12 670.045C212.304 666.566 213.76 660.892 213.216 653.479C213.08 649.716 212.155 645.676 210.841 641.163C210.132 638.935 209.16 636.68 208.083 634.319C207.526 633.149 206.97 631.934 206.294 630.751C205.608 629.574 204.876 628.384 204.098 627.181C198.663 618.675 188.843 609.006 177.36 600.958C165.905 592.817 152.926 586.35 141.884 581.742C139.27 580.674 136.375 579.14 133.3 577.751C131.784 577.026 130.265 576.27 128.788 575.513C127.309 574.759 125.8 574.128 124.416 573.452C121.63 572.132 119.193 570.897 117.37 570.153C115.576 569.348 114.485 568.858 114.485 568.858C112.691 568.03 111.143 567.543 111.043 567.777C110.939 568.01 110.857 568.202 110.857 568.202C110.857 568.202 110.774 568.393 110.672 568.628C110.571 568.862 111.938 569.722 113.711 570.539C113.711 570.539 114.779 571.047 116.534 571.88C118.311 572.674 120.66 574.019 123.277 575.56C124.577 576.347 125.981 577.117 127.329 578.046C128.675 578.975 130.035 579.939 131.358 580.911C134.046 582.793 136.418 584.979 138.322 586.909C146.391 595.213 154.331 606.065 160.748 616.654C167.252 627.237 172.273 637.497 176.799 644.57C177.45 645.574 178.113 646.534 178.786 647.457C179.448 648.385 180.045 649.32 180.696 650.194C181.961 651.958 183.331 653.545 184.613 655.065C187.067 658.156 189.842 660.658 192.194 662.946C197.174 667.392 201.645 670.459 204.89 672.259Z" clip-rule="evenodd" fill-rule="evenodd"></path>
<path fill="#2399CC" d="M109.693 765.927C112.417 764.477 112.619 761.32 110.231 759.397C106.919 756.715 101.558 753.131 94.1054 749.439C90.3599 747.72 86.1302 745.699 81.2748 744.092C78.8557 743.239 76.306 742.33 73.5834 741.557C72.2174 741.185 70.8185 740.803 69.3839 740.412C67.952 740.004 66.4792 739.616 64.9588 739.251C54.2689 736.72 39.5841 734.631 24.0534 731.43C8.53848 728.3 -7.80389 724.027 -21.3709 719.007C-24.5448 717.813 -28.252 716.242 -31.8615 714.286C-33.6827 713.336 -35.5132 712.346 -37.3028 711.359C-39.0897 710.37 -40.7658 709.279 -42.3825 708.29C-45.6027 706.288 -48.448 704.473 -50.3946 703.035C-52.3624 701.624 -53.5594 700.765 -53.5594 700.765C-55.5232 699.329 -57.2573 698.321 -57.4157 698.521C-57.574 698.723 -57.7021 698.886 -57.7021 698.886C-57.7021 698.886 -57.8314 699.051 -57.9884 699.254C-58.1468 699.454 -56.6581 700.797 -54.6812 702.24C-54.6812 702.24 -53.4908 703.124 -51.5362 704.577C-49.6173 706.08 -46.8353 708.016 -43.7497 710.261C-42.1977 711.372 -40.6061 712.614 -38.9195 713.792C-37.2355 714.969 -35.5264 716.188 -33.853 717.414C-30.5365 719.922 -27.2107 722.23 -24.5382 724.417C-13.1462 733.632 0.946003 744.071 15.6202 752.564C30.2377 761.108 45.3672 767.643 57.2357 770.448C58.9184 770.855 60.568 771.219 62.1821 771.543C63.8001 771.858 65.3983 772.062 66.9516 772.27C70.0662 772.654 73.0198 772.961 75.8414 773.041C81.5031 773.102 86.5076 772.9 90.9182 772.076C99.713 770.683 105.926 767.917 109.693 765.927Z" clip-rule="evenodd" fill-rule="evenodd"></path>
<path fill="#F2A877" d="M31.98 678.097C34.2613 679.681 37.3962 678.995 38.3933 676.371C39.7342 672.77 41.5795 666.667 40.8248 658.48C40.755 657.45 40.6602 656.384 40.535 655.282C40.3809 654.194 40.1135 653.115 39.8554 651.981C39.318 649.722 38.6396 647.335 37.7953 644.837C36.8957 642.374 35.6299 639.932 34.2811 637.342C33.5751 636.068 32.8967 634.718 32.0353 633.455C31.1607 632.203 30.236 630.936 29.2587 629.66C27.5213 627.425 25.6299 624.998 23.2076 622.815C22.0314 621.69 20.8064 620.555 19.5366 619.412C18.8991 618.846 18.2537 618.274 17.6017 617.693C16.9326 617.133 16.2015 616.626 15.4903 616.089C14.0559 615.028 12.582 613.967 11.0817 612.912C9.58539 611.849 8.07327 610.778 6.40309 609.872C4.7698 608.948 3.11543 608.01 1.44524 607.064C0.612793 606.607 -0.22361 606.146 -1.06396 605.683C-1.91882 605.248 -2.81844 604.871 -3.69568 604.468C-5.45411 603.691 -7.22308 602.911 -8.99731 602.127C-9.8864 601.753 -10.7491 601.344 -11.6567 601.008L-14.4043 600.066C-18.07 598.849 -21.6079 597.532 -25.3039 596.756C-27.1084 596.319 -28.9024 595.886 -30.6767 595.457C-31.5473 595.225 -32.4377 595.055 -33.3387 594.932C-34.2265 594.791 -35.1103 594.649 -35.9862 594.511C-37.7196 594.237 -39.428 593.966 -41.1074 593.699C-42.7538 593.377 -44.4635 593.377 -46.0665 593.204C-49.1118 592.975 -52.5813 592.313 -56.2259 592.104C-58.0331 591.936 -59.8508 591.739 -61.6263 591.529C-63.4032 591.321 -65.1735 591.363 -66.8278 591.25C-68.4835 591.161 -70.047 591.075 -71.4616 590.999C-72.871 590.856 -74.1434 591.023 -75.1998 591.003C-77.3165 591.033 -78.6047 591.053 -78.6047 591.053C-80.7319 591.062 -82.4587 591.282 -82.4442 591.536C-82.4298 591.793 -82.4192 592.003 -82.4192 592.003C-82.4192 592.003 -82.4074 592.213 -82.3942 592.469C-82.3784 592.726 -80.6608 592.928 -78.5744 592.917C-78.5744 592.917 -77.3099 592.923 -75.2327 592.933C-74.1948 592.987 -72.9487 592.872 -71.571 593.09C-70.1932 593.262 -68.6706 593.451 -67.057 593.652C-65.4527 593.899 -63.7443 594.025 -62.0452 594.44C-60.3473 594.858 -58.6245 595.304 -56.9359 595.769C-53.5296 596.57 -50.3895 598.017 -47.8078 599.276C-36.8252 604.825 -25.6951 613.721 -17.0018 623.208C-8.16881 632.665 -1.77393 642.518 3.35252 649.329C4.09277 650.298 4.84356 651.219 5.6062 652.102C6.35435 652.992 6.97079 653.93 7.6768 654.781C9.02427 656.521 10.5298 658.055 11.8615 659.572C13.1299 661.12 14.4418 662.543 15.7722 663.864C16.4518 664.519 17.113 665.158 17.7558 665.78C18.3499 666.422 18.9479 667.04 19.5485 667.635C24.5577 672.309 28.7766 675.895 31.98 678.097Z" clip-rule="evenodd" fill-rule="evenodd"></path>
<path fill="#2399CC" d="M37.647 622.931C39.9617 624.772 43.0641 624.052 43.9825 621.121C44.6212 619.093 45.3188 616.406 45.6271 613.099C45.8178 611.434 45.9328 609.608 45.8727 607.651C45.8387 605.683 45.7486 603.533 45.3946 601.29C45.2339 600.162 45.0445 598.995 44.8211 597.787C44.5807 596.589 44.2581 595.378 43.9224 594.117C43.281 591.578 42.3183 588.994 41.2053 586.269C38.871 580.893 35.5961 575.14 30.9588 569.547C26.857 564.65 21.334 559.529 14.702 554.925C8.08172 550.312 0.356331 546.229 -7.84063 543.171C-16.0324 540.098 -24.6291 538.061 -32.9449 536.983C-41.2673 535.89 -49.3035 535.746 -56.5417 536.14C-63.3501 536.453 -72.5006 536.79 -79.9112 537.769C-83.6119 538.265 -86.8868 538.752 -89.2211 539.228C-90.3902 539.443 -91.3321 539.617 -91.98 539.736C-92.624 539.882 -92.9767 539.962 -92.9767 539.962C-95.3136 540.478 -97.1725 541.101 -97.1098 541.35C-97.0484 541.599 -96.9974 541.802 -96.9974 541.802C-96.9974 541.802 -96.9478 542.007 -96.8864 542.254C-96.8237 542.502 -94.8956 542.29 -92.6031 541.783C-92.6031 541.783 -92.2543 541.705 -91.6208 541.569C-90.9859 541.441 -90.0519 541.308 -88.8972 541.126C-86.5929 540.723 -83.3506 540.38 -79.7035 540.165C-72.4 539.748 -63.4441 540.534 -57.2379 542.397C-50.6255 544.318 -43.7453 547.141 -37.2034 550.705C-30.6537 554.262 -24.4553 558.55 -18.9859 563.152C-7.96342 572.345 -0.0368576 582.841 6.13013 590.249C13.0979 598.732 19.1251 605.435 24.4939 610.868C29.8066 616.28 34.4831 620.349 37.647 622.931Z" clip-rule="evenodd" fill-rule="evenodd"></path>
<path fill="#2399CC" d="M215.696 738.425C217.58 736.701 217.357 733.542 215.449 731.878C212.788 729.548 208.667 726.568 203.305 723.569C201.951 722.885 200.531 722.164 199.033 721.407C197.529 720.677 195.939 719.998 194.254 719.397C192.573 718.756 190.814 718.046 188.935 717.504C187.998 717.211 187.024 716.996 186.038 716.707C185.054 716.407 184.037 716.13 182.99 715.88C175.629 714.175 165.336 713.074 154.256 710.553C143.202 708.12 131.429 704.196 121.964 699.219C119.764 698.035 117.21 696.499 114.895 694.563C113.711 693.625 112.528 692.651 111.377 691.678C110.228 690.705 109.229 689.624 108.229 688.649C106.253 686.674 104.517 684.889 103.432 683.47C102.307 682.082 101.623 681.238 101.623 681.238C100.511 679.832 99.4332 678.804 99.2267 678.955C99.0216 679.105 98.853 679.227 98.853 679.227C98.853 679.227 98.6844 679.35 98.478 679.501C98.2728 679.652 99.0281 680.94 100.157 682.367C100.157 682.367 100.833 683.239 101.94 684.673C102.99 686.154 104.645 688.053 106.449 690.25C107.365 691.336 108.258 692.553 109.274 693.699C110.292 694.844 111.318 696.026 112.317 697.218C114.257 699.658 116.323 701.872 117.89 703.97C124.598 712.796 133.686 722.865 144.155 730.918C154.53 739.029 166.18 744.973 175.508 747.121C176.829 747.437 178.125 747.711 179.395 747.947C180.665 748.172 181.934 748.264 183.16 748.376C185.619 748.557 187.947 748.681 190.166 748.557C192.392 748.394 194.486 748.128 196.439 747.785C197.417 747.606 198.355 747.438 199.267 747.199C200.179 746.94 201.057 746.668 201.899 746.383C208.646 744.231 213.099 740.787 215.696 738.425Z" clip-rule="evenodd" fill-rule="evenodd"></path>
<path fill="#8163A6" d="M183.526 809.461C186.383 810.419 189.013 808.607 188.885 805.58C188.693 801.41 187.944 794.757 184.569 786.704C183.004 782.581 180.531 778.344 177.507 773.675C175.952 771.384 174.112 769.12 172.131 766.76C171.127 765.595 170.108 764.381 168.973 763.225C167.83 762.081 166.636 760.929 165.388 759.772C156.641 751.578 142.88 742.924 127.674 736.166C112.479 729.315 95.9652 724.388 82.0061 721.094C78.7101 720.34 74.9458 719.134 71.0109 718.114C69.0572 717.567 67.0931 716.989 65.1722 716.405C63.2526 715.822 61.3291 715.376 59.5381 714.864C55.9457 713.875 52.7784 712.928 50.4534 712.409C48.1481 711.822 46.7468 711.464 46.7468 711.464C44.4375 710.854 42.4996 710.557 42.4405 710.807C42.3815 711.056 42.333 711.259 42.333 711.259C42.333 711.259 42.2831 711.464 42.224 711.713C42.165 711.962 43.9901 712.661 46.2797 713.266C46.2797 713.266 47.6652 713.643 49.9403 714.267C52.2286 714.846 55.3343 715.919 58.8086 717.159C60.5406 717.795 62.3906 718.4 64.217 719.18C66.0447 719.963 67.8974 720.778 69.7133 721.606C73.3726 723.193 76.763 725.147 79.5472 726.898C91.3756 734.447 104.024 744.796 115.049 755.299C126.151 765.77 135.641 776.341 143.314 783.521C144.411 784.537 145.504 785.503 146.591 786.426C147.658 787.367 148.7 788.285 149.717 789.179C151.766 790.952 153.854 792.5 155.81 793.992C159.632 797.058 163.532 799.372 166.875 801.516C173.8 805.601 179.547 808.137 183.526 809.461Z" clip-rule="evenodd" fill-rule="evenodd"></path>
<path fill="#2399CC" d="M78.2849 641.522C79.9198 643.935 83.0852 644.231 84.8544 641.88C87.2669 638.642 90.8916 633.1 92.9348 624.712C93.2114 623.666 93.4789 622.575 93.7281 621.44C93.9512 620.309 94.0778 619.143 94.2252 617.929C94.5018 615.503 94.6936 612.906 94.7758 610.142C94.8019 607.388 94.5097 604.51 94.1822 601.46C93.9878 599.943 93.8338 598.368 93.5024 596.794C93.154 595.227 92.7652 593.624 92.332 591.99C89.3793 580.453 81.9226 566.062 71.6711 553.398C61.5031 540.617 48.7412 529.705 37.4002 521.926C34.702 520.116 31.7898 517.705 28.5487 515.546C26.966 514.423 25.386 513.269 23.8503 512.124C22.3133 510.981 20.6784 510.031 19.2158 509.024C16.254 507.052 13.6757 505.236 11.6742 504.16C9.73014 502.995 8.54542 502.285 8.54542 502.285C6.60394 501.096 4.91296 500.309 4.79032 500.534C4.66636 500.76 4.56459 500.944 4.56459 500.944C4.56459 500.944 4.46413 501.127 4.34017 501.353C4.21753 501.578 5.68408 502.721 7.59947 503.891C7.59947 503.891 8.75549 504.611 10.6526 505.796C12.5915 506.913 15.0614 508.821 17.8131 510.984C19.1727 512.085 20.6771 513.154 22.051 514.446C23.4249 515.738 24.8093 517.07 26.1532 518.401C28.9193 520.976 31.187 523.933 33.0162 526.451C40.7143 537.305 47.383 551.26 51.8205 564.72C56.3819 578.2 58.7735 591.06 61.1626 600.344C61.5135 601.666 61.8893 602.945 62.286 604.189C62.6656 605.436 62.9292 606.672 63.2932 607.859C63.956 610.242 64.8185 612.474 65.5439 614.611C66.2133 616.754 66.957 618.777 67.7529 620.691C68.1639 621.645 68.5658 622.576 68.9559 623.48C69.3004 624.387 69.6592 625.267 70.0245 626.122C73.1455 632.943 75.986 638.161 78.2849 641.522Z" clip-rule="evenodd" fill-rule="evenodd"></path>
<path fill="#2399CC" d="M253.564 696.689C255.641 694.759 255.186 691.565 252.826 690.047C249.54 687.921 244.448 685.296 237.779 682.695C236.107 682.115 234.34 681.498 232.473 680.849C230.601 680.222 228.629 679.654 226.545 679.173C224.462 678.647 222.276 678.036 219.964 677.615C218.806 677.414 217.619 677.209 216.403 676.998C215.188 676.75 213.942 676.529 212.661 676.337C203.649 675.042 191.285 674.424 178.018 672.205C164.781 670.086 150.707 666.299 139.206 661.244C136.526 660.036 133.382 658.474 130.447 656.438C128.951 655.457 127.451 654.435 125.988 653.418C124.526 652.399 123.218 651.242 121.922 650.209C119.358 648.112 117.093 646.217 115.626 644.683C114.121 643.19 113.202 642.28 113.202 642.28C111.706 640.767 110.328 639.671 110.141 639.848C109.956 640.026 109.804 640.172 109.804 640.172C109.804 640.172 109.651 640.317 109.465 640.495C109.278 640.671 110.366 642.071 111.884 643.602C111.884 643.602 112.794 644.54 114.289 646.081C115.728 647.683 117.924 649.702 120.341 652.04C121.564 653.196 122.782 654.503 124.132 655.711C125.481 656.919 126.847 658.167 128.182 659.424C130.803 662.011 133.533 664.312 135.68 666.516C144.848 675.77 156.848 686.039 169.977 693.89C183.021 701.82 197.063 707.198 207.977 708.752C209.524 708.983 211.039 709.177 212.517 709.333C213.998 709.475 215.459 709.471 216.873 709.496C219.711 709.497 222.39 709.461 224.924 709.163C227.46 708.82 229.837 708.385 232.051 707.882C233.158 707.623 234.224 707.379 235.251 707.061C236.277 706.72 237.263 706.369 238.209 706.007C245.792 703.262 250.699 699.332 253.564 696.689Z" clip-rule="evenodd" fill-rule="evenodd"></path>
<path fill="#F2A877" d="M302.867 760.407C304.659 762.53 307.861 762.675 309.498 760.387C311.719 757.243 315.077 751.796 316.456 743.658C316.655 742.64 316.839 741.58 317.002 740.478C317.133 739.383 317.152 738.266 317.195 737.098C317.257 734.77 317.216 732.278 317.046 729.635C316.811 727.013 316.218 724.316 315.582 721.454C315.228 720.037 314.921 718.551 314.414 717.104C313.892 715.665 313.324 714.197 312.708 712.706C311.608 710.092 310.404 707.25 308.628 704.511C307.782 703.118 306.891 701.7 305.96 700.265C305.489 699.553 305.014 698.831 304.533 698.102C304.032 697.387 303.457 696.706 302.907 696.003C301.795 694.607 300.647 693.201 299.469 691.789C298.297 690.376 297.113 688.948 295.734 687.646C294.395 686.328 293.04 684.997 291.669 683.651C290.984 682.994 290.295 682.332 289.603 681.669C288.891 681.028 288.119 680.433 287.377 679.817C285.879 678.616 284.372 677.405 282.86 676.193C282.099 675.602 281.37 674.984 280.582 674.427L278.175 672.813C274.949 670.696 271.873 668.517 268.507 666.821C266.877 665.939 265.257 665.063 263.657 664.194C262.876 663.748 262.06 663.357 261.224 663.008C260.404 662.644 259.588 662.284 258.778 661.926C257.176 661.217 255.598 660.521 254.047 659.836C252.54 659.106 250.892 658.674 249.392 658.096C246.513 657.102 243.336 655.577 239.876 654.452C238.177 653.831 236.474 653.179 234.816 652.524C233.155 651.872 231.438 651.465 229.87 650.937C228.297 650.429 226.811 649.952 225.467 649.52C224.146 649.023 222.877 648.866 221.862 648.578C219.814 648.073 218.568 647.767 218.568 647.767C216.515 647.238 214.794 647.013 214.744 647.267C214.692 647.519 214.65 647.728 214.65 647.728C214.65 647.728 214.608 647.934 214.557 648.187C214.507 648.442 216.112 649.071 218.126 649.588C218.126 649.588 219.342 649.914 221.344 650.449C222.33 650.762 223.559 650.964 224.834 651.526C226.118 652.041 227.537 652.612 229.042 653.216C230.525 653.862 232.141 654.416 233.673 655.251C235.204 656.089 236.752 656.957 238.261 657.837C241.341 659.478 244 661.681 246.168 663.559C247.293 664.607 248.525 665.517 249.586 666.73C250.667 667.888 251.766 669.066 252.879 670.261C253.426 670.853 253.977 671.45 254.532 672.052C255.095 672.632 255.63 673.254 256.124 673.932C257.133 675.235 258.15 676.552 259.175 677.879C261.286 680.415 263.015 683.36 264.838 686.113L266.187 688.182C266.621 688.881 266.992 689.636 267.394 690.353C268.183 691.787 268.97 693.215 269.749 694.636C275.839 706.066 279.475 717.257 282.667 725.172C283.132 726.298 283.619 727.386 284.126 728.435C284.62 729.489 284.972 730.556 285.434 731.563C286.287 733.594 287.342 735.465 288.236 737.278C289.062 739.104 289.96 740.819 290.903 742.441C291.389 743.251 291.863 744.038 292.323 744.805C292.731 745.58 293.147 746.335 293.575 747.064C297.202 752.881 300.346 757.445 302.867 760.407Z" clip-rule="evenodd" fill-rule="evenodd"></path>
<path fill="#7EE6AC" d="M424.063 821.77C426.737 820.001 426.605 816.804 423.9 815.144C420.143 812.841 414.124 809.762 405.863 806.896C397.588 804.028 387.103 801.485 373.986 799.953C368.206 799.283 361.413 798.849 353.973 798.446C346.54 797.999 338.461 797.56 330.144 796.918C321.856 796.299 313.212 795.406 305.023 794.293C296.868 793.085 288.942 791.47 281.933 789.013C278.624 787.889 274.871 786.117 271.243 783.898C267.675 781.615 264.156 778.973 261.435 776.129C260.009 774.772 258.885 773.286 257.767 772.027C256.795 770.658 255.904 769.441 255.206 768.396C253.963 766.205 253.207 764.873 253.207 764.873C252.17 762.572 251.162 760.741 250.916 760.833C250.677 760.923 250.482 761 250.482 761C250.482 761 250.286 761.075 250.048 761.167C249.814 761.251 250.46 763.309 251.548 765.712C251.548 765.712 252.313 767.111 253.571 769.411C254.287 770.507 255.143 771.819 256.1 773.285C257.197 774.643 258.293 776.26 259.674 777.773C262.313 780.933 265.689 784.006 269.067 786.925C272.498 789.775 276.002 792.377 278.978 794.588C285.278 799.366 292.69 803.835 300.548 807.995C308.444 812.061 316.528 815.881 324.76 819.245C332.958 822.613 341.17 825.512 348.918 827.748C356.673 829.941 363.956 831.496 370.261 832.228C384.606 833.901 396.373 832.408 405.286 830.013C414.225 827.614 420.365 824.218 424.063 821.77Z" clip-rule="evenodd" fill-rule="evenodd"></path>
</g>
<defs>
<linearGradient gradientUnits="userSpaceOnUse" y2="700" x2="0" y1="0" x1="0" id="paint0_linear">
<stop stop-color="#F5ECE6"></stop>
<stop stop-color="white" offset="1"></stop>
</linearGradient>
</defs>
</svg>
