<svg width="1920" height="750" viewBox="0 0 1920 750" fill="none" xmlns="http://www.w3.org/2000/svg">
<rect width="1922" height="750" fill="#2399CC"/>
<g opacity="0.5">
<path fill-rule="evenodd" clip-rule="evenodd" d="M1650.8 613.508C1655.16 627.337 1661.61 643.292 1657.88 662C1654.9 644.812 1645.43 629.512 1642.98 615.502C1638.51 589.983 1650.8 573 1650.8 573C1650.8 573 1645.96 598.129 1650.8 613.508Z" fill="#7EE6AC"/>
<mask id="mask0" mask-type="alpha" maskUnits="userSpaceOnUse" x="1655" y="555" width="14" height="107">
<path fill-rule="evenodd" clip-rule="evenodd" d="M1655 555H1669V662H1655V555Z" fill="white"/>
</mask>
<g mask="url(#mask0)">
<path fill-rule="evenodd" clip-rule="evenodd" d="M1662.92 603.538C1665.07 620.328 1668.95 639.772 1662.52 662C1662.2 641.253 1655.29 622.441 1655.01 605.528C1654.5 574.724 1669 555 1669 555C1669 555 1660.52 584.864 1662.92 603.538Z" fill="#7EE6AC"/>
</g>
<mask id="mask1" mask-type="alpha" maskUnits="userSpaceOnUse" x="1672" y="603" width="30" height="57">
<path fill-rule="evenodd" clip-rule="evenodd" d="M1672 603H1702V660H1672V603Z" fill="white"/>
</mask>
<g mask="url(#mask1)">
<path fill-rule="evenodd" clip-rule="evenodd" d="M1689.86 629.401C1682.56 637.796 1672.79 647.279 1672 660C1678.78 649.221 1691.24 640.594 1696.79 631.811C1706.89 615.815 1699.2 603 1699.2 603C1699.2 603 1697.98 620.065 1689.86 629.401Z" fill="#7EE6AC"/>
</g>
<mask id="mask2" mask-type="alpha" maskUnits="userSpaceOnUse" x="1669" y="566" width="14" height="99">
<path fill-rule="evenodd" clip-rule="evenodd" d="M1669 566H1683V665H1669V566Z" fill="white"/>
</mask>
<g mask="url(#mask2)">
<path fill-rule="evenodd" clip-rule="evenodd" d="M1675.07 611.004C1671.61 626.442 1666.28 644.279 1670.64 665C1672.65 645.851 1680.86 628.69 1682.52 613.081C1685.55 584.652 1673.21 566 1673.21 566C1673.21 566 1678.92 593.833 1675.07 611.004Z" fill="#7EE6AC"/>
</g>
<path fill-rule="evenodd" clip-rule="evenodd" d="M1642.19 629.563C1647.36 638.41 1654.67 648.542 1652.66 661C1648.5 649.881 1638.42 640.331 1635.01 631.269C1628.8 614.762 1638.98 603 1638.98 603C1638.98 603 1636.43 619.725 1642.19 629.563Z" fill="#7EE6AC"/>
</g>
<g opacity="0.134513">
<mask id="mask3" mask-type="alpha" maskUnits="userSpaceOnUse" x="-47" y="629" width="2047" height="121">
<path fill-rule="evenodd" clip-rule="evenodd" d="M-47 629H2000V750H-47V629Z" fill="white"/>
</mask>
<g mask="url(#mask3)">
<path fill-rule="evenodd" clip-rule="evenodd" d="M1051.68 647.386C659 587.711 548.662 691.311 259.292 703.86C108.649 710.392 11.5181 731.381 -47 750H2000C1911.77 727.938 1809.32 716.394 1703.27 679.637C1387.76 570.276 1387.76 698.462 1051.68 647.386Z" fill="#8164A6"/>
</g>
</g>
<g opacity="0.208249">
<mask id="mask4" mask-type="alpha" maskUnits="userSpaceOnUse" x="-236" y="659" width="712" height="91">
<path fill-rule="evenodd" clip-rule="evenodd" d="M-236 659H476V750H-236V659Z" fill="white"/>
</mask>
<g mask="url(#mask4)">
<path fill-rule="evenodd" clip-rule="evenodd" d="M292.154 690.896C241.054 654.89 201.984 650.359 154.428 672.31C123.625 686.528 95.2907 677.37 71.1325 679.184C25.549 682.611 -28.5017 722.646 -74.3687 712.289C-126.306 700.568 -182.517 717.947 -227.528 739.682C-230.59 741.157 -234.339 743.638 -236 750H476C476 746.379 472.995 742.72 470.549 740.141C415.469 682.097 398.66 765.949 292.154 690.896Z" fill="#40D3FD"/>
</g>
</g>
<g opacity="0.683686">
<path opacity="0.683686" fill-rule="evenodd" clip-rule="evenodd" d="M497.998 604.722C497.998 609.209 501.636 612.849 506.127 612.849C510.616 612.849 514.257 609.209 514.257 604.722C514.257 600.23 510.616 596.588 506.127 596.588C501.636 596.588 497.998 600.23 497.998 604.722Z" fill="#40D3FD"/>
<path opacity="0.683686" fill-rule="evenodd" clip-rule="evenodd" d="M514.128 634.559C514.128 636.632 515.81 638.311 517.881 638.311C519.954 638.311 521.633 636.632 521.633 634.559C521.633 632.487 519.954 630.806 517.881 630.806C515.81 630.806 514.128 632.487 514.128 634.559Z" fill="#40D3FD"/>
<g opacity="0.683686">
<mask id="mask5" mask-type="alpha" maskUnits="userSpaceOnUse" x="523" y="563" width="14" height="15">
<path fill-rule="evenodd" clip-rule="evenodd" d="M537 563.733H523.241V577.493H537V563.733Z" fill="white"/>
</mask>
<g mask="url(#mask5)">
<path opacity="0.683686" fill-rule="evenodd" clip-rule="evenodd" d="M523.241 570.614C523.241 574.411 526.321 577.493 530.121 577.493C533.922 577.493 537 574.411 537 570.614C537 566.814 533.922 563.733 530.121 563.733C526.321 563.733 523.241 566.814 523.241 570.614Z" fill="#40D3FD"/>
</g>
</g>
<path opacity="0.683686" fill-rule="evenodd" clip-rule="evenodd" d="M502.604 576.867C502.604 578.595 504.003 579.993 505.731 579.993C507.459 579.993 508.859 578.595 508.859 576.867C508.859 575.14 507.459 573.739 505.731 573.739C504.003 573.739 502.604 575.14 502.604 576.867Z" fill="#40D3FD"/>
<path opacity="0.683686" fill-rule="evenodd" clip-rule="evenodd" d="M503.23 505.887C503.23 508.823 505.609 511.201 508.546 511.201C511.482 511.201 513.861 508.823 513.861 505.887C513.861 502.95 511.482 500.568 508.546 500.568C505.609 500.568 503.23 502.95 503.23 505.887Z" fill="#40D3FD"/>
<path opacity="0.683686" fill-rule="evenodd" clip-rule="evenodd" d="M517.211 441.831C517.211 446.15 520.711 449.652 525.028 449.652C529.346 449.652 532.846 446.15 532.846 441.831C532.846 437.519 529.346 434.017 525.028 434.017C520.711 434.017 517.211 437.519 517.211 441.831Z" fill="#40D3FD"/>
<path opacity="0.683686" fill-rule="evenodd" clip-rule="evenodd" d="M500.562 399.005C500.562 401.768 502.803 404.007 505.567 404.007C508.33 404.007 510.569 401.768 510.569 399.005C510.569 396.24 508.33 394 505.567 394C502.803 394 500.562 396.24 500.562 399.005Z" fill="#40D3FD"/>
</g>
<g opacity="0.4">
<path fill-rule="evenodd" clip-rule="evenodd" d="M1878.94 162.609C1876.98 163.004 1874.72 161.674 1874.38 159.652C1873.92 156.882 1873.56 152.339 1875.27 146.941C1875.48 146.258 1875.7 145.557 1875.96 144.84C1876.23 144.135 1876.56 143.455 1876.91 142.741C1877.61 141.322 1878.43 139.85 1879.39 138.344C1880.37 136.869 1881.58 135.471 1882.89 134.009C1883.56 133.296 1884.24 132.536 1885.01 131.86C1885.78 131.194 1886.6 130.529 1887.45 129.872C1893.42 125.178 1903.04 121.258 1913.23 119.682C1923.44 118.001 1934.02 118.627 1942.44 120.12C1944.43 120.494 1946.75 120.637 1949.11 121.045C1950.29 121.21 1951.48 121.352 1952.65 121.478C1953.82 121.604 1954.95 121.873 1956.02 122.031C1958.17 122.382 1960.08 122.632 1961.43 122.995C1962.78 123.285 1963.61 123.461 1963.61 123.461C1964.97 123.734 1966.05 124.127 1966 124.334C1965.95 124.541 1965.91 124.71 1965.91 124.71C1965.91 124.71 1965.87 124.88 1965.82 125.087C1965.77 125.292 1964.63 125.242 1963.3 124.973C1963.3 124.973 1962.48 124.821 1961.15 124.57C1959.82 124.268 1957.93 124.136 1955.81 124.019C1954.75 123.977 1953.64 123.855 1952.5 123.911C1951.36 123.967 1950.2 124.041 1949.06 124.137C1946.77 124.25 1944.57 124.8 1942.76 125.342C1935.01 127.763 1926.79 132.333 1920.05 137.41C1913.22 142.456 1907.87 147.885 1903.55 151.266C1902.93 151.744 1902.31 152.187 1901.68 152.6C1901.06 153.021 1900.51 153.484 1899.91 153.877C1898.75 154.694 1897.52 155.346 1896.38 156.004C1895.27 156.689 1894.14 157.279 1893.01 157.796C1892.44 158.045 1891.87 158.29 1891.33 158.527C1890.8 158.784 1890.28 159.023 1889.75 159.246C1885.45 160.945 1881.69 162.06 1878.94 162.609Z" fill="#40D3FD"/>
<path fill-rule="evenodd" clip-rule="evenodd" d="M1826.59 179.274C1824.77 180.206 1822.24 179.479 1821.41 177.593C1820.28 174.998 1818.82 170.71 1819.02 165.066C1819.03 164.357 1819.06 163.624 1819.11 162.87C1819.18 162.123 1819.31 161.374 1819.44 160.594C1819.72 159.039 1820.09 157.402 1820.59 155.695C1821.11 154.006 1821.85 152.309 1822.68 150.528C1823.11 149.649 1823.53 148.731 1824.06 147.849C1824.6 146.974 1825.17 146.09 1825.79 145.199C1830.05 138.885 1837.91 131.99 1847.03 126.747C1856.13 121.417 1866.35 117.773 1874.91 115.546C1876.93 115.036 1879.19 114.189 1881.57 113.509C1882.76 113.139 1883.94 112.746 1885.09 112.346C1886.24 111.947 1887.41 111.665 1888.48 111.324C1890.65 110.669 1892.54 110.031 1893.95 109.716C1895.35 109.341 1896.19 109.114 1896.19 109.114C1897.58 108.719 1898.76 108.564 1898.81 108.769C1898.87 108.973 1898.91 109.139 1898.91 109.139C1898.91 109.139 1898.95 109.307 1899 109.51C1899.05 109.714 1897.97 110.198 1896.6 110.583C1896.6 110.583 1895.77 110.828 1894.41 111.229C1893.04 111.591 1891.21 112.326 1889.16 113.179C1888.14 113.62 1887.05 114.025 1885.99 114.577C1884.93 115.131 1883.86 115.71 1882.82 116.299C1880.71 117.419 1878.83 118.846 1877.32 120.119C1870.9 125.632 1864.65 133.185 1859.77 140.616C1854.81 148.044 1851.18 155.276 1847.87 160.155C1847.39 160.847 1846.91 161.508 1846.41 162.139C1845.92 162.775 1845.49 163.423 1845.01 164.021C1844.08 165.234 1843.05 166.31 1842.1 167.35C1841.17 168.405 1840.22 169.369 1839.24 170.254C1838.24 171.127 1837.3 171.957 1836.39 172.748C1832.6 175.802 1829.14 177.978 1826.59 179.274Z" fill="#40D3FD"/>
<path fill-rule="evenodd" clip-rule="evenodd" d="M1841.76 213.659C1840.42 212.017 1840.91 209.485 1842.73 208.404C1845.25 206.911 1849.23 204.973 1854.41 203.575C1859.59 202.159 1865.9 201.293 1873.23 201.492C1879.69 201.63 1888.12 202.985 1897.2 202.79C1901.68 202.711 1906.41 202.166 1911 201.059C1915.58 199.96 1920.01 198.289 1923.85 196.172C1927.49 194.225 1931.64 190.263 1934.2 186.406C1935.47 184.483 1936.48 182.678 1937.05 181.319C1937.35 180.646 1937.61 180.11 1937.76 179.728C1937.89 179.341 1937.96 179.129 1937.96 179.129C1938.44 177.728 1938.99 176.626 1939.19 176.68C1939.39 176.738 1939.56 176.783 1939.56 176.783L1939.93 176.887C1940.13 176.942 1939.89 178.18 1939.4 179.638C1939.4 179.638 1939.32 179.859 1939.19 180.262C1939.05 180.66 1938.79 181.221 1938.5 181.93C1937.96 183.364 1937.02 185.283 1935.89 187.41C1933.61 191.67 1930.01 196.407 1927.3 199.959C1924.46 203.774 1920.86 207.706 1916.59 211.292C1912.33 214.88 1907.41 218.123 1902.13 220.653C1891.66 225.718 1880.56 227.858 1872.59 227.667C1863.48 227.414 1856.62 224.853 1851.69 222.014C1846.74 219.145 1843.61 215.936 1841.76 213.659Z" fill="#40D3FD"/>
<path fill-rule="evenodd" clip-rule="evenodd" d="M1747.01 216.147C1746.83 213.597 1749 212.116 1751.36 212.88C1754.62 213.973 1759.51 215.817 1765.33 218.607C1771.19 221.396 1777.98 225.068 1786.02 229.965C1793.11 234.225 1802.45 240.496 1813.8 245.116C1819.44 247.443 1825.56 249.38 1831.76 250.698C1837.95 252.024 1844.21 252.725 1850.05 252.806C1855.53 252.927 1863.03 251.639 1868.94 249.794C1871.89 248.868 1874.48 247.929 1876.3 247.143C1878.14 246.41 1879.22 245.87 1879.22 245.87C1881 245.005 1882.55 244.451 1882.64 244.637C1882.74 244.824 1882.82 244.977 1882.82 244.977C1882.82 244.977 1882.9 245.13 1883 245.317C1883.09 245.503 1881.69 246.374 1879.87 247.251C1879.87 247.251 1878.77 247.797 1876.93 248.593C1875.11 249.443 1872.52 250.502 1869.59 251.66C1863.72 253.971 1856.31 256.186 1850.84 257.917C1845.03 259.802 1838.48 261.467 1831.5 262.5C1824.53 263.54 1817.15 263.942 1809.84 263.503C1802.54 263.076 1795.37 261.803 1788.92 259.884C1782.46 257.976 1776.73 255.429 1772.16 252.703C1766.98 249.578 1762.81 245.999 1759.46 242.46C1757.81 240.652 1756.32 238.908 1755.08 237.117C1753.81 235.377 1752.75 233.634 1751.85 231.961C1748.25 225.251 1747.23 219.686 1747.01 216.147Z" fill="#40D3FD"/>
<path fill-rule="evenodd" clip-rule="evenodd" d="M1806.91 366.015C1805.08 367.27 1802.5 366.705 1801.63 364.658C1800.44 361.843 1798.84 357.147 1799.01 350.822C1799.02 350.026 1799.04 349.204 1799.09 348.355C1799.15 347.514 1799.29 346.669 1799.43 345.786C1799.72 344.027 1800.1 342.167 1800.61 340.218C1801.16 338.288 1801.96 336.338 1802.83 334.281C1803.28 333.265 1803.73 332.202 1804.29 331.176C1804.87 330.158 1805.48 329.124 1806.14 328.082C1810.7 320.686 1819.17 312.335 1829.23 305.771C1839.25 299.109 1850.69 294.289 1860.38 291.262C1862.68 290.567 1865.24 289.491 1867.98 288.63C1869.33 288.162 1870.68 287.671 1872 287.177C1873.32 286.684 1874.66 286.335 1875.9 285.915C1878.39 285.111 1880.57 284.34 1882.21 283.961C1883.81 283.511 1884.79 283.237 1884.79 283.237C1886.4 282.769 1887.76 282.552 1887.81 282.754C1887.86 282.955 1887.9 283.122 1887.9 283.122C1887.9 283.122 1887.95 283.287 1888 283.489C1888.05 283.692 1886.8 284.234 1885.21 284.693C1885.21 284.693 1884.25 284.982 1882.68 285.457C1881.09 285.882 1878.97 286.75 1876.61 287.748C1875.43 288.263 1874.16 288.734 1872.94 289.379C1871.72 290.025 1870.49 290.696 1869.28 291.377C1866.83 292.669 1864.66 294.312 1862.9 295.752C1855.43 301.987 1848.13 310.56 1842.46 319.111C1836.7 327.653 1832.54 336.08 1828.92 341.932C1828.4 342.764 1827.86 343.56 1827.32 344.325C1826.81 345.105 1826.31 345.866 1825.82 346.61C1824.83 348.088 1823.73 349.418 1822.72 350.708C1821.76 352.013 1820.76 353.218 1819.75 354.337C1819.23 354.89 1818.72 355.43 1818.23 355.955C1817.76 356.49 1817.29 357.004 1816.82 357.498C1812.92 361.403 1809.48 364.269 1806.91 366.015Z" fill="#40D3FD"/>
<path fill-rule="evenodd" clip-rule="evenodd" d="M1751.51 391.925C1749.71 393.28 1747.14 392.767 1746.2 390.715C1744.93 387.889 1743.22 383.221 1743.05 376.874C1742.84 373.663 1743.28 370.144 1744 366.178C1744.4 364.217 1745.03 362.206 1745.73 360.094C1746.1 359.043 1746.46 357.956 1746.93 356.885C1747.41 355.818 1747.93 354.735 1748.48 353.637C1752.33 345.874 1759.77 336.689 1768.81 328.754C1777.82 320.742 1788.31 314.039 1797.34 309.14C1799.48 307.999 1801.82 306.44 1804.34 305.003C1805.58 304.257 1806.82 303.488 1808.03 302.721C1809.23 301.954 1810.47 301.297 1811.61 300.611C1813.89 299.261 1815.88 298.013 1817.39 297.241C1818.87 296.415 1819.77 295.915 1819.77 295.915C1821.24 295.07 1822.53 294.531 1822.63 294.714C1822.73 294.897 1822.81 295.048 1822.81 295.048C1822.81 295.048 1822.89 295.2 1822.99 295.384C1823.09 295.566 1821.98 296.399 1820.52 297.232C1820.52 297.232 1819.64 297.746 1818.2 298.592C1816.74 299.402 1814.83 300.73 1812.7 302.248C1811.64 303.02 1810.5 303.782 1809.41 304.68C1808.33 305.578 1807.24 306.505 1806.18 307.436C1804.01 309.248 1802.15 311.298 1800.66 313.085C1794.36 320.77 1788.38 330.632 1783.73 340.186C1779.01 349.74 1775.58 358.934 1772.37 365.401C1771.9 366.32 1771.43 367.204 1770.94 368.057C1770.47 368.918 1770.02 369.758 1769.57 370.578C1768.67 372.211 1767.66 373.7 1766.72 375.128C1764.96 378.017 1762.86 380.435 1761.13 382.636C1757.4 386.949 1754.01 390.044 1751.51 391.925Z" fill="#40D3FD"/>
<path fill-rule="evenodd" clip-rule="evenodd" d="M1730.5 391.723C1728.86 393.256 1726.29 392.909 1725.2 390.936C1723.69 388.207 1721.67 383.763 1720.67 377.621C1719.64 371.487 1719.59 363.617 1722.02 354.421C1724.12 346.324 1728.95 336.067 1734.99 326.02C1741.01 315.939 1748.21 306.104 1754.39 297.981C1755.85 296.074 1757.37 293.71 1758.97 291.31C1760.53 288.89 1762.06 286.377 1763.49 284.143C1766.26 279.635 1768.42 276.132 1768.42 276.132C1769.29 274.677 1770.15 273.576 1770.33 273.686C1770.5 273.796 1770.65 273.887 1770.65 273.887C1770.65 273.887 1770.79 273.977 1770.97 274.088C1771.14 274.198 1770.58 275.473 1769.71 276.92C1769.71 276.92 1769.19 277.802 1768.34 279.251C1767.48 280.695 1766.38 282.764 1765.19 285.109C1763.96 287.439 1762.74 290.099 1761.64 292.732C1760.5 295.347 1759.6 297.992 1758.96 300.269C1756.29 309.987 1754.12 321.578 1752.41 332.515C1750.66 343.461 1749.35 353.751 1747.41 361.171C1745.19 369.592 1742.15 376.091 1739.04 381.104C1735.91 386.102 1732.78 389.597 1730.5 391.723Z" fill="#40D3FD"/>
<path fill-rule="evenodd" clip-rule="evenodd" d="M1637.1 445.705C1634.81 444.82 1634.39 442.225 1635.86 440.415C1636.88 439.165 1638.2 437.686 1639.72 435.911C1640.1 435.491 1640.5 435.056 1640.91 434.602C1641.32 434.14 1641.74 433.659 1642.18 433.162C1643.05 432.218 1643.98 431.212 1644.96 430.142C1645.45 429.612 1645.96 429.086 1646.49 428.563C1647 428.006 1647.53 427.431 1648.08 426.873C1649.19 425.794 1650.31 424.542 1651.56 423.38C1653.99 420.922 1656.74 418.358 1659.87 415.524C1665.35 410.523 1673.31 403.948 1680.76 395.208C1688.29 386.507 1695.35 375.872 1700.5 366.229C1702.95 361.71 1705.37 355.11 1707.09 349.633C1708.83 344.156 1709.96 339.826 1709.96 339.826C1710.43 338.043 1710.98 336.627 1711.18 336.68C1711.39 336.734 1711.55 336.777 1711.55 336.777C1711.55 336.777 1711.72 336.821 1711.92 336.875C1712.13 336.929 1711.91 338.432 1711.44 340.217C1711.44 340.217 1706.95 357.502 1705.43 367.829C1703.93 378.822 1701.74 392.038 1697.13 404.524C1694.85 410.77 1691.92 416.805 1688.59 422.05C1685.27 427.309 1681.52 431.809 1677.84 435.202C1673.61 439.03 1669.16 441.835 1664.93 443.82C1662.76 444.758 1660.73 445.593 1658.68 446.129C1657.67 446.413 1656.7 446.674 1655.75 446.887C1654.77 447.069 1653.83 447.22 1652.92 447.347C1651.12 447.633 1649.39 447.685 1647.8 447.678C1647.01 447.671 1646.26 447.663 1645.53 447.611C1644.8 447.538 1644.1 447.453 1643.43 447.356C1640.8 447.018 1638.68 446.323 1637.1 445.705Z" fill="#40D3FD"/>
<path fill-rule="evenodd" clip-rule="evenodd" d="M1617.74 492.282C1616.27 490.397 1617.1 487.879 1619.3 487.019C1622.36 485.805 1627 484.484 1632.97 483.359C1633.71 483.236 1634.47 483.125 1635.25 483.029C1636.04 482.904 1636.85 482.774 1637.68 482.641C1639.34 482.403 1641.08 482.226 1642.89 482.136C1644.71 482.005 1646.64 481.805 1648.64 481.786C1649.64 481.783 1650.67 481.779 1651.72 481.775C1652.77 481.736 1653.85 481.723 1654.96 481.736C1662.71 481.892 1673.21 482.962 1684.67 482.678C1696.1 482.48 1708.42 480.861 1718.68 477.808C1721.08 477.071 1723.91 476.095 1726.61 474.676C1727.98 474.003 1729.35 473.298 1730.7 472.592C1732.05 471.884 1733.27 471.035 1734.48 470.295C1736.86 468.784 1738.98 467.415 1740.37 466.257C1741.8 465.143 1742.66 464.464 1742.66 464.464C1744.08 463.332 1745.36 462.536 1745.49 462.7C1745.63 462.862 1745.74 462.995 1745.74 462.995C1745.74 462.995 1745.85 463.128 1745.99 463.291C1746.12 463.453 1745.06 464.524 1743.62 465.671C1743.62 465.671 1742.75 466.374 1741.33 467.529C1739.95 468.745 1737.88 470.224 1735.59 471.95C1734.43 472.797 1733.26 473.78 1731.99 474.654C1730.71 475.528 1729.42 476.433 1728.15 477.349C1725.65 479.252 1723.08 480.878 1721.01 482.489C1712.18 489.224 1700.77 496.395 1688.66 501.291C1676.61 506.27 1664.01 508.868 1654.56 508.668C1653.22 508.65 1651.92 508.604 1650.64 508.534C1649.37 508.45 1648.14 508.239 1646.93 508.065C1644.54 507.672 1642.27 507.276 1640.17 506.675C1638.07 506.031 1636.12 505.335 1634.32 504.609C1633.42 504.237 1632.55 503.888 1631.73 503.479C1630.91 503.049 1630.13 502.615 1629.38 502.182C1623.36 498.833 1619.78 494.866 1617.74 492.282Z" fill="#40D3FD"/>
<path fill-rule="evenodd" clip-rule="evenodd" d="M1742.76 427.424C1740.47 426.156 1740.43 423.554 1742.55 422.039C1745.49 419.919 1750.19 417.171 1756.59 414.197C1758.2 413.509 1759.9 412.777 1761.71 412.002C1763.53 411.244 1765.46 410.519 1767.52 409.844C1769.57 409.133 1771.72 408.33 1774.02 407.665C1775.17 407.338 1776.35 407.004 1777.56 406.66C1778.76 406.286 1780 405.926 1781.28 405.586C1790.26 403.237 1802.59 400.896 1815.52 397.078C1828.43 393.344 1841.89 388.101 1852.78 382.176C1855.32 380.767 1858.3 378.999 1861.08 376.836C1862.5 375.785 1863.93 374.7 1865.32 373.623C1866.71 372.543 1867.95 371.358 1869.19 370.289C1871.63 368.122 1873.79 366.173 1875.19 364.634C1876.64 363.127 1877.52 362.21 1877.52 362.21C1878.95 360.686 1880.26 359.552 1880.41 359.69C1880.57 359.829 1880.7 359.943 1880.7 359.943C1880.7 359.943 1880.83 360.055 1880.98 360.194C1881.14 360.333 1880.08 361.704 1878.63 363.241C1878.63 363.241 1877.76 364.179 1876.33 365.721C1874.95 367.312 1872.86 369.356 1870.55 371.709C1869.38 372.872 1868.21 374.174 1866.93 375.398C1865.64 376.622 1864.34 377.883 1863.07 379.145C1860.57 381.732 1857.97 384.072 1855.92 386.249C1847.18 395.413 1835.9 405.661 1823.66 413.906C1811.48 422.21 1798.44 428.411 1788.13 431.099C1786.67 431.49 1785.24 431.845 1783.83 432.166C1782.43 432.476 1781.03 432.66 1779.68 432.867C1776.96 433.236 1774.39 433.562 1771.93 433.654C1769.47 433.709 1767.14 433.67 1764.96 433.557C1763.87 433.494 1762.82 433.44 1761.79 433.32C1760.77 433.18 1759.78 433.026 1758.83 432.86C1751.21 431.655 1745.93 429.156 1742.76 427.424Z" fill="#40D3FD"/>
<path fill-rule="evenodd" clip-rule="evenodd" d="M1859.12 271.797C1857.36 270.258 1857.76 267.676 1859.71 266.419C1862.43 264.648 1866.55 262.53 1871.8 260.104C1872.46 259.824 1873.13 259.552 1873.82 259.292C1874.51 258.985 1875.22 258.669 1875.95 258.346C1877.41 257.72 1878.94 257.141 1880.56 256.628C1882.18 256.059 1883.86 255.355 1885.66 254.833C1886.55 254.542 1887.48 254.348 1888.42 254.032C1889.35 253.705 1890.32 253.397 1891.31 253.11C1898.29 251.159 1908.05 249.075 1918.2 244.945C1919.46 244.412 1920.73 243.876 1922.01 243.337C1922.64 243.061 1923.31 242.814 1923.94 242.511L1925.8 241.556C1928.27 240.262 1930.89 239.065 1933.21 237.51C1934.42 236.765 1935.61 236.025 1936.79 235.291C1937.41 234.935 1937.98 234.54 1938.51 234.117C1939.07 233.703 1939.62 233.292 1940.16 232.885C1941.26 232.054 1942.35 231.234 1943.42 230.428C1943.97 230.033 1944.47 229.603 1944.94 229.152C1945.43 228.709 1945.91 228.269 1946.38 227.835C1948.15 226.178 1950.24 224.143 1951.9 221.705C1952.78 220.517 1953.65 219.296 1954.5 218.087C1955.34 216.877 1955.96 215.57 1956.64 214.384C1957.29 213.176 1957.9 212.037 1958.45 211.005C1959.05 209.988 1959.33 208.973 1959.69 208.174C1960.33 206.544 1960.72 205.551 1960.72 205.551C1961.34 203.909 1962.02 202.617 1962.22 202.681C1962.42 202.745 1962.58 202.799 1962.58 202.799C1962.58 202.799 1962.74 202.851 1962.94 202.917C1963.14 202.98 1962.79 204.401 1962.15 206.076C1962.15 206.076 1961.77 207.094 1961.15 208.765C1960.82 209.589 1960.56 210.639 1960.02 211.702C1959.53 212.789 1958.98 213.99 1958.41 215.264C1957.81 216.528 1957.31 217.931 1956.6 219.262C1955.89 220.591 1955.18 221.957 1954.5 223.323C1953.22 226.116 1951.63 228.632 1950.51 230.943C1950.21 231.558 1949.9 232.179 1949.59 232.807C1949.29 233.447 1948.96 234.072 1948.59 234.67C1947.86 235.9 1947.12 237.153 1946.37 238.423C1945.99 239.066 1945.6 239.713 1945.22 240.363C1944.85 241.028 1944.44 241.671 1943.98 242.281C1943.1 243.535 1942.21 244.803 1941.31 246.079C1939.55 248.727 1937.43 251.083 1935.34 253.572L1933.75 255.428C1933.21 256.032 1932.62 256.58 1932.05 257.159C1930.89 258.303 1929.73 259.444 1928.58 260.578C1927.99 261.139 1927.42 261.726 1926.81 262.259C1926.19 262.771 1925.57 263.283 1924.96 263.793C1923.7 264.805 1922.45 265.809 1921.22 266.8C1920 267.826 1918.69 268.677 1917.4 269.519C1916.09 270.357 1914.8 271.179 1913.55 271.986C1912.9 272.378 1912.28 272.793 1911.64 273.142C1910.98 273.474 1910.33 273.803 1909.69 274.127C1908.4 274.768 1907.13 275.378 1905.89 275.952C1903.43 277.178 1900.95 277.915 1898.66 278.592C1897.36 278.967 1896.08 279.306 1894.83 279.61C1893.57 279.9 1892.31 280.022 1891.09 280.187C1888.64 280.458 1886.34 280.711 1884.13 280.675C1881.9 280.582 1879.82 280.397 1877.88 280.142C1876.91 280.005 1875.98 279.893 1875.08 279.688C1874.18 279.457 1873.31 279.214 1872.47 278.961C1865.81 277.118 1861.56 273.887 1859.12 271.797Z" fill="#40D3FD"/>
<path fill-rule="evenodd" clip-rule="evenodd" d="M1583.15 471.73C1581.36 470.118 1581.73 467.499 1583.79 466.293C1586.65 464.607 1591.15 462.502 1597.17 460.621C1600.17 459.79 1603.57 458.777 1607.35 458.209C1609.25 457.88 1611.24 457.525 1613.35 457.309C1614.4 457.185 1615.48 457.121 1616.58 457.014C1617.69 456.898 1618.82 456.805 1619.99 456.738C1628.17 456.299 1639.24 456.833 1651.14 456.561C1663.01 456.346 1675.7 455.292 1686.43 453.184C1688.94 452.675 1691.89 451.938 1694.8 450.867C1696.27 450.356 1697.75 449.816 1699.2 449.272C1700.64 448.726 1702.01 448.079 1703.33 447.506C1705.95 446.34 1708.27 445.274 1709.88 444.382C1711.5 443.515 1712.48 442.987 1712.48 442.987C1714.1 442.102 1715.51 441.529 1715.62 441.713C1715.72 441.897 1715.8 442.048 1715.8 442.048C1715.8 442.048 1715.89 442.199 1715.99 442.384C1716.1 442.568 1714.85 443.448 1713.22 444.338C1713.22 444.338 1712.23 444.888 1710.62 445.791C1709.03 446.74 1706.74 447.916 1704.19 449.3C1702.91 449.981 1701.59 450.763 1700.2 451.48C1698.81 452.195 1697.41 452.939 1696.02 453.697C1693.27 455.26 1690.53 456.657 1688.29 458.051C1678.77 463.905 1667.02 470.369 1654.97 475.139C1642.97 479.961 1630.75 483.041 1621.48 483.533C1620.17 483.609 1618.89 483.656 1617.63 483.677C1616.38 483.689 1615.15 483.609 1613.96 483.543C1611.58 483.38 1609.33 483.18 1607.21 482.812C1602.98 481.988 1599.28 481.052 1596.12 479.691C1589.78 477.185 1585.61 473.948 1583.15 471.73Z" fill="#40D3FD"/>
<path fill-rule="evenodd" clip-rule="evenodd" d="M1672.05 344.653C1670.52 346.136 1667.92 346.01 1666.66 344.276C1664.93 341.881 1662.53 337.901 1661.17 332.211C1660.39 329.355 1660.09 326.114 1660 322.446C1659.99 320.618 1660.16 318.71 1660.39 316.698C1660.6 314.682 1661.03 312.599 1661.61 310.443C1663.55 302.825 1668.4 293.263 1674.73 284.302C1681.02 275.291 1688.72 266.939 1695.42 260.336C1697.02 258.786 1698.68 256.818 1700.48 254.872C1701.36 253.884 1702.23 252.873 1703.07 251.873C1703.91 250.875 1704.8 249.943 1705.59 249.025C1707.18 247.201 1708.56 245.548 1709.62 244.424C1710.65 243.269 1711.28 242.567 1711.28 242.567C1712.3 241.397 1713.26 240.554 1713.42 240.694C1713.57 240.834 1713.7 240.949 1713.7 240.949C1713.7 240.949 1713.82 241.064 1713.98 241.204C1714.13 241.344 1713.43 242.407 1712.42 243.566C1712.42 243.566 1711.82 244.274 1710.82 245.441C1709.81 246.589 1708.53 248.298 1707.13 250.24C1706.44 251.217 1705.67 252.223 1704.98 253.314C1704.3 254.405 1703.61 255.525 1702.95 256.642C1701.59 258.849 1700.52 261.158 1699.73 263.151C1696.39 271.685 1693.74 282.02 1691.9 291.728C1690.02 301.453 1688.92 310.534 1687.24 317.056C1686.75 318.906 1686.19 320.645 1685.67 322.304C1685.13 323.958 1684.47 325.502 1683.85 326.968C1682.68 329.913 1681.16 332.473 1679.84 334.754C1677.02 339.284 1674.18 342.591 1672.05 344.653Z" fill="#40D3FD"/>
<path fill-rule="evenodd" clip-rule="evenodd" d="M1482.01 465.85C1480.35 464.227 1480.83 461.646 1482.8 460.471C1485.55 458.821 1489.77 456.839 1495.21 454.801C1495.89 454.564 1496.59 454.337 1497.31 454.121C1498.03 453.873 1498.76 453.617 1499.53 453.355C1501.04 452.857 1502.64 452.409 1504.33 452.033C1506.01 451.612 1507.78 451.1 1509.64 450.757C1510.57 450.562 1511.54 450.448 1512.51 450.247C1513.49 450.034 1514.5 449.842 1515.53 449.674C1522.79 448.547 1532.8 447.821 1543.5 445.522C1554.18 443.316 1565.48 439.474 1574.51 434.548C1576.61 433.374 1579.08 431.888 1581.3 429.989C1582.45 429.072 1583.59 428.123 1584.7 427.178C1585.82 426.232 1586.77 425.168 1587.74 424.217C1589.65 422.286 1591.33 420.548 1592.36 419.153C1593.44 417.793 1594.1 416.965 1594.1 416.965C1595.17 415.59 1596.19 414.566 1596.36 414.688C1596.53 414.811 1596.67 414.913 1596.67 414.913C1596.67 414.913 1596.81 415.015 1596.98 415.138C1597.15 415.261 1596.4 416.504 1595.31 417.898C1595.31 417.898 1594.66 418.75 1593.59 420.149C1592.58 421.6 1590.96 423.435 1589.19 425.555C1588.29 426.6 1587.42 427.781 1586.41 428.874C1585.4 429.966 1584.38 431.093 1583.39 432.225C1581.46 434.552 1579.37 436.614 1577.76 438.567C1570.89 446.764 1561.53 455.862 1550.93 462.819C1540.42 469.849 1528.8 474.59 1519.72 475.987C1518.43 476.196 1517.17 476.373 1515.94 476.518C1514.7 476.651 1513.48 476.647 1512.3 476.676C1509.94 476.687 1507.7 476.676 1505.59 476.429C1503.48 476.137 1501.49 475.769 1499.65 475.348C1498.73 475.128 1497.85 474.928 1497 474.657C1496.15 474.363 1495.33 474.061 1494.55 473.753C1488.27 471.424 1484.3 468.066 1482.01 465.85Z" fill="#40D3FD"/>
<path fill-rule="evenodd" clip-rule="evenodd" d="M1580.91 396.212C1579.01 397.273 1576.52 396.464 1575.81 394.4C1574.84 391.554 1573.65 386.912 1574.1 380.847C1574.21 377.767 1574.96 374.462 1576.04 370.769C1576.62 368.947 1577.41 367.102 1578.3 365.17C1578.75 364.213 1579.21 363.218 1579.76 362.251C1580.32 361.288 1580.92 360.314 1581.56 359.33C1586 352.37 1594.04 344.459 1603.43 337.875C1612.8 331.214 1623.42 325.923 1632.46 322.152C1634.6 321.278 1636.97 320.024 1639.48 318.887C1640.72 318.294 1641.96 317.675 1643.17 317.056C1644.38 316.439 1645.62 315.923 1646.75 315.37C1649.03 314.29 1651.02 313.28 1652.52 312.671C1653.98 312.012 1654.88 311.611 1654.88 311.611C1656.34 310.933 1657.61 310.535 1657.69 310.727C1657.78 310.917 1657.84 311.074 1657.84 311.074C1657.84 311.074 1657.91 311.231 1658 311.423C1658.08 311.615 1656.96 312.318 1655.51 312.986C1655.51 312.986 1654.64 313.402 1653.2 314.083C1651.75 314.733 1649.82 315.834 1647.68 317.095C1646.62 317.738 1645.47 318.368 1644.37 319.128C1643.27 319.888 1642.15 320.677 1641.07 321.472C1638.87 323.013 1636.93 324.801 1635.37 326.38C1628.77 333.174 1622.27 342.053 1617.02 350.717C1611.7 359.376 1607.6 367.77 1603.89 373.557C1603.36 374.379 1602.82 375.164 1602.27 375.919C1601.72 376.679 1601.24 377.443 1600.7 378.158C1599.67 379.602 1598.55 380.9 1597.5 382.144C1595.49 384.673 1593.22 386.72 1591.3 388.592C1587.22 392.23 1583.56 394.739 1580.91 396.212Z" fill="#40D3FD"/>
<path fill-rule="evenodd" clip-rule="evenodd" d="M1912.05 303.972C1910.43 302.478 1910.76 299.879 1912.5 298.57C1914.93 296.73 1918.63 294.459 1923.33 292.015C1923.92 291.728 1924.52 291.45 1925.15 291.183C1925.77 290.878 1926.4 290.568 1927.06 290.248C1928.37 289.634 1929.74 289.066 1931.2 288.564C1932.65 288.015 1934.17 287.366 1935.78 286.882C1936.59 286.614 1937.43 286.43 1938.28 286.152C1939.12 285.861 1939.99 285.591 1940.89 285.343C1947.2 283.652 1956.06 282.12 1965.44 278.907C1974.8 275.793 1984.57 270.935 1992.03 265.185C1993.75 263.82 1995.77 262.116 1997.45 260.044C1998.33 259.034 1999.21 257.993 2000.05 256.961C2000.9 255.928 2001.56 254.802 2002.26 253.782C2003.63 251.717 2004.84 249.862 2005.49 248.416C2006.2 246.998 2006.64 246.135 2006.64 246.135C2007.33 244.704 2008.06 243.601 2008.25 243.683C2008.45 243.767 2008.6 243.835 2008.6 243.835C2008.6 243.835 2008.76 243.904 2008.95 243.988C2009.15 244.071 2008.72 245.332 2008.01 246.79C2008.01 246.79 2007.59 247.677 2006.9 249.136C2006.28 250.634 2005.16 252.575 2003.95 254.804C2003.33 255.905 2002.77 257.134 2002.05 258.294C2001.34 259.454 2000.62 260.648 1999.92 261.844C1998.6 264.293 1997.05 266.503 1995.94 268.556C1991.15 277.178 1984.03 287.028 1975.23 294.938C1974.69 295.438 1974.16 295.96 1973.6 296.435C1973.03 296.895 1972.46 297.351 1971.9 297.806C1970.74 298.709 1969.6 299.605 1968.47 300.49C1967.34 301.401 1966.15 302.163 1964.97 302.916C1963.79 303.673 1962.61 304.407 1961.45 305.115C1960.86 305.464 1960.29 305.832 1959.7 306.144C1959.11 306.44 1958.52 306.733 1957.94 307.022C1956.77 307.594 1955.61 308.136 1954.48 308.644C1952.24 309.726 1949.99 310.381 1947.92 310.969C1946.73 311.295 1945.57 311.586 1944.44 311.843C1943.3 312.089 1942.15 312.191 1941.05 312.325C1938.84 312.545 1936.75 312.731 1934.75 312.665C1932.74 312.553 1930.85 312.352 1929.1 312.083C1928.22 311.94 1927.37 311.817 1926.56 311.614C1925.74 311.389 1924.95 311.154 1924.2 310.906C1918.15 309.083 1914.27 306.009 1912.05 303.972Z" fill="#2399CC"/>
<path fill-rule="evenodd" clip-rule="evenodd" d="M1785.62 212.463C1783.8 211.809 1782.57 209.49 1783.14 207.625C1783.94 205.051 1785.51 201.234 1788.7 197.398C1791.85 193.546 1796.64 189.63 1803.52 187.084C1809.57 184.822 1818.33 183.733 1827.44 183.683C1836.57 183.601 1846.01 184.555 1853.84 185.465C1857.52 185.876 1862.45 185.773 1866.48 185.714C1870.5 185.592 1873.62 185.498 1873.62 185.498C1874.91 185.435 1875.97 185.556 1875.97 185.767C1875.98 185.977 1875.99 186.15 1875.99 186.15C1875.99 186.15 1875.99 186.322 1876 186.533C1876.01 186.743 1874.97 186.965 1873.69 187.026C1873.69 187.026 1872.92 187.074 1871.64 187.153C1870.37 187.222 1868.61 187.421 1866.63 187.689C1862.68 188.199 1857.89 189.205 1854.54 190.6C1847.39 193.537 1839.4 197.793 1832.09 201.945C1824.75 206.078 1818.07 210.091 1812.74 212.085C1806.66 214.329 1801.25 214.86 1796.61 214.629C1791.97 214.369 1788.16 213.374 1785.62 212.463Z" fill="#40D3FD"/>
<path fill-rule="evenodd" clip-rule="evenodd" d="M1905.16 328.406C1903.85 329.887 1901.26 330.147 1899.78 328.804C1897.76 326.952 1894.84 323.774 1892.75 318.883C1891.61 316.44 1890.89 313.59 1890.34 310.322C1890.1 308.692 1890.03 306.968 1890.01 305.147C1889.96 303.322 1890.13 301.417 1890.44 299.436C1891.44 292.437 1895.12 283.485 1900.34 275.171C1905.51 266.803 1912.15 259.146 1917.97 253.213C1919.35 251.821 1920.76 250.049 1922.31 248.307C1923.06 247.424 1923.8 246.518 1924.51 245.624C1925.23 244.729 1925.99 243.902 1926.66 243.082C1928.03 241.455 1929.19 239.979 1930.11 238.984C1931 237.958 1931.54 237.335 1931.54 237.335C1932.41 236.293 1933.25 235.555 1933.41 235.696C1933.56 235.835 1933.69 235.949 1933.69 235.949C1933.69 235.949 1933.82 236.062 1933.97 236.202C1934.13 236.341 1933.55 237.295 1932.69 238.322C1932.69 238.322 1932.17 238.95 1931.33 239.983C1930.46 241 1929.4 242.528 1928.23 244.263C1927.66 245.137 1927.02 246.033 1926.47 247.013C1925.91 247.992 1925.36 248.998 1924.83 250.001C1923.74 251.98 1922.94 254.061 1922.38 255.854C1920.03 263.541 1918.61 272.776 1918 281.3C1917.32 289.851 1917.4 297.672 1916.59 303.322C1916.33 304.928 1916.01 306.444 1915.71 307.89C1915.39 309.335 1914.94 310.697 1914.51 311.994C1913.74 314.591 1912.56 316.913 1911.56 318.995C1909.36 323.15 1906.99 326.343 1905.16 328.406Z" fill="#2399CC"/>
<path fill-rule="evenodd" clip-rule="evenodd" d="M1838.72 379.92C1836.47 378.657 1836.46 376.039 1838.51 374.506C1841.35 372.352 1845.86 369.612 1851.88 366.47C1852.63 366.099 1853.41 365.731 1854.21 365.371C1855.01 364.971 1855.84 364.561 1856.68 364.139C1858.38 363.319 1860.18 362.528 1862.1 361.789C1864.01 361.002 1866 360.085 1868.14 359.321C1869.2 358.911 1870.32 358.584 1871.44 358.153C1872.55 357.707 1873.7 357.277 1874.88 356.861C1883.22 354.014 1894.76 350.775 1906.63 345.604C1918.5 340.539 1930.61 333.507 1939.93 325.874C1942.09 324.065 1944.62 321.842 1946.82 319.207C1947.95 317.922 1949.09 316.602 1950.19 315.295C1951.29 313.986 1952.19 312.578 1953.13 311.296C1954.97 308.708 1956.59 306.387 1957.53 304.589C1958.53 302.824 1959.14 301.749 1959.14 301.749C1960.13 299.969 1961.1 298.589 1961.28 298.683C1961.47 298.778 1961.63 298.856 1961.63 298.856C1961.63 298.856 1961.78 298.933 1961.97 299.029C1962.16 299.122 1961.49 300.674 1960.49 302.477C1960.49 302.477 1959.89 303.573 1958.91 305.376C1958 307.224 1956.46 309.627 1954.79 312.38C1953.93 313.741 1953.13 315.252 1952.16 316.688C1951.19 318.121 1950.2 319.594 1949.25 321.067C1947.42 324.072 1945.36 326.798 1943.82 329.29C1937.2 339.774 1927.9 351.626 1916.96 361.318C1916.29 361.93 1915.63 362.566 1914.93 363.152C1914.23 363.719 1913.52 364.284 1912.82 364.847C1911.4 365.966 1909.99 367.075 1908.6 368.17C1907.22 369.298 1905.76 370.261 1904.32 371.213C1902.86 372.162 1901.44 373.094 1900.04 374.008C1899.33 374.452 1898.63 374.921 1897.92 375.324C1897.2 375.714 1896.48 376.097 1895.78 376.479C1894.36 377.232 1892.97 377.953 1891.6 378.636C1888.9 380.073 1886.19 381.042 1883.69 381.933C1882.26 382.431 1880.86 382.89 1879.49 383.311C1878.12 383.72 1876.73 383.975 1875.4 384.264C1872.71 384.788 1870.18 385.274 1867.74 385.483C1865.28 385.641 1862.96 385.698 1860.79 385.673C1859.7 385.65 1858.66 385.645 1857.63 385.554C1856.61 385.44 1855.62 385.31 1854.67 385.167C1847.06 384.176 1841.82 381.638 1838.72 379.92Z" fill="#40D3FD"/>
<path fill-rule="evenodd" clip-rule="evenodd" d="M1771.42 473.541C1769.27 471.973 1769.64 469.375 1771.97 468.135C1775.2 466.384 1780.21 464.324 1786.78 461.918C1787.6 461.641 1788.45 461.373 1789.32 461.116C1790.19 460.809 1791.08 460.494 1792.01 460.167C1793.85 459.539 1795.79 458.955 1797.85 458.436C1799.9 457.856 1802.05 457.127 1804.33 456.584C1805.47 456.28 1806.65 456.074 1807.84 455.744C1809.03 455.397 1810.26 455.068 1811.52 454.759C1820.38 452.667 1832.55 450.292 1845.16 445.684C1846.73 445.089 1848.31 444.49 1849.9 443.891C1850.69 443.582 1851.51 443.309 1852.29 442.971L1854.61 441.906C1857.71 440.466 1860.94 439.144 1863.88 437.419C1865.39 436.595 1866.88 435.777 1868.37 434.967C1869.13 434.577 1869.84 434.138 1870.53 433.669C1871.24 433.212 1871.93 432.759 1872.63 432.308C1874.02 431.393 1875.4 430.49 1876.75 429.603C1877.45 429.169 1878.09 428.694 1878.71 428.196C1879.34 427.706 1879.96 427.221 1880.57 426.742C1882.87 424.915 1885.59 422.684 1887.93 419.97C1889.14 418.653 1890.36 417.299 1891.54 415.959C1892.72 414.617 1893.67 413.147 1894.67 411.823C1895.64 410.473 1896.56 409.198 1897.38 408.044C1897.81 407.475 1898.17 406.908 1898.47 406.359C1898.79 405.817 1899.08 405.313 1899.35 404.854C1900.41 403.012 1901.05 401.889 1901.05 401.889C1902.09 400.031 1903.1 398.587 1903.29 398.683C1903.48 398.779 1903.63 398.856 1903.63 398.856C1903.63 398.856 1903.78 398.935 1903.97 399.031C1904.16 399.126 1903.44 400.745 1902.38 402.629C1902.38 402.629 1901.75 403.774 1900.71 405.659C1900.45 406.132 1900.17 406.651 1899.86 407.21C1899.58 407.779 1899.23 408.367 1898.83 408.962C1898.06 410.176 1897.2 411.519 1896.3 412.941C1895.38 414.352 1894.52 415.928 1893.46 417.404C1892.4 418.877 1891.33 420.392 1890.29 421.906C1888.29 425.01 1886.02 427.771 1884.3 430.313C1883.85 430.989 1883.38 431.672 1882.91 432.36C1882.45 433.064 1881.96 433.75 1881.42 434.401C1880.37 435.74 1879.3 437.103 1878.21 438.485C1877.66 439.182 1877.11 439.884 1876.55 440.591C1876.01 441.313 1875.43 442.01 1874.81 442.665C1873.59 444.014 1872.35 445.376 1871.11 446.75C1868.66 449.599 1865.85 452.101 1863.08 454.743L1860.98 456.71C1860.27 457.351 1859.51 457.924 1858.77 458.534C1857.28 459.737 1855.78 460.935 1854.3 462.127C1853.54 462.715 1852.81 463.332 1852.04 463.889C1851.25 464.423 1850.47 464.955 1849.7 465.484C1848.12 466.537 1846.56 467.58 1845.02 468.609C1843.48 469.678 1841.87 470.55 1840.28 471.415C1838.68 472.275 1837.11 473.122 1835.57 473.951C1834.79 474.351 1834.02 474.781 1833.24 475.135C1832.45 475.473 1831.67 475.807 1830.9 476.134C1829.35 476.786 1827.82 477.404 1826.33 477.987C1823.38 479.239 1820.45 479.963 1817.75 480.642C1816.22 481.017 1814.71 481.356 1813.24 481.659C1811.77 481.947 1810.29 482.057 1808.87 482.218C1806.02 482.474 1803.33 482.724 1800.77 482.671C1798.19 482.558 1795.77 482.359 1793.52 482.091C1792.39 481.946 1791.31 481.829 1790.26 481.617C1789.21 481.376 1788.2 481.124 1787.23 480.864C1779.46 478.963 1774.39 475.671 1771.42 473.541Z" fill="#F2A877"/>
<path fill-rule="evenodd" clip-rule="evenodd" d="M1658.8 472.849C1656.57 471.663 1656.4 469.08 1658.36 467.507C1661.07 465.312 1665.45 462.38 1671.55 459.359C1674.61 457.953 1678.08 456.299 1682.05 454.984C1684.03 454.287 1686.11 453.543 1688.34 452.91C1689.46 452.606 1690.6 452.294 1691.78 451.974C1692.95 451.64 1694.15 451.322 1695.4 451.023C1704.14 448.953 1716.16 447.243 1728.87 444.624C1741.56 442.064 1754.93 438.567 1766.03 434.46C1768.63 433.483 1771.66 432.198 1774.61 430.597C1776.1 429.82 1777.6 429.01 1779.07 428.202C1780.53 427.393 1781.9 426.501 1783.22 425.692C1785.86 424.054 1788.18 422.569 1789.78 421.392C1791.39 420.238 1792.37 419.535 1792.37 419.535C1793.97 418.36 1795.39 417.535 1795.52 417.699C1795.65 417.864 1795.76 417.998 1795.76 417.998C1795.76 417.998 1795.86 418.133 1795.99 418.299C1796.12 418.462 1794.9 419.562 1793.28 420.741C1793.28 420.741 1792.31 421.465 1790.71 422.654C1789.14 423.884 1786.87 425.467 1784.34 427.304C1783.07 428.213 1781.77 429.229 1780.39 430.193C1779.01 431.156 1777.61 432.153 1776.24 433.157C1773.53 435.208 1770.81 437.097 1768.62 438.886C1759.3 446.426 1747.77 454.967 1735.77 461.916C1723.81 468.907 1711.43 474.254 1701.72 476.549C1700.34 476.881 1698.99 477.179 1697.67 477.445C1696.35 477.702 1695.04 477.869 1693.77 478.039C1691.22 478.353 1688.8 478.604 1686.49 478.67C1681.86 478.72 1677.77 478.554 1674.16 477.88C1666.96 476.741 1661.88 474.478 1658.8 472.849Z" fill="#1B79AC"/>
<path fill-rule="evenodd" clip-rule="evenodd" d="M1722.38 400.989C1720.51 402.284 1717.95 401.723 1717.13 399.576C1716.04 396.63 1714.53 391.636 1715.14 384.938C1715.2 384.095 1715.28 383.224 1715.38 382.322C1715.51 381.431 1715.73 380.549 1715.94 379.621C1716.38 377.773 1716.93 375.819 1717.62 373.776C1718.36 371.761 1719.39 369.762 1720.5 367.643C1721.08 366.601 1721.63 365.496 1722.33 364.463C1723.05 363.438 1723.81 362.402 1724.61 361.358C1726.03 359.529 1727.58 357.544 1729.56 355.758C1730.52 354.838 1731.52 353.909 1732.56 352.973C1733.08 352.51 1733.61 352.042 1734.14 351.567C1734.69 351.109 1735.29 350.694 1735.87 350.254C1737.05 349.387 1738.25 348.518 1739.48 347.655C1740.7 346.785 1741.94 345.909 1743.31 345.168C1744.64 344.412 1746 343.645 1747.36 342.871C1748.04 342.496 1748.73 342.119 1749.42 341.741C1750.12 341.385 1750.85 341.076 1751.57 340.746C1753.01 340.111 1754.46 339.472 1755.91 338.831C1756.63 338.525 1757.34 338.191 1758.08 337.915L1760.33 337.145C1763.33 336.149 1766.22 335.072 1769.25 334.436C1770.73 334.08 1772.19 333.725 1773.64 333.374C1774.36 333.184 1775.09 333.045 1775.82 332.944C1776.55 332.829 1777.27 332.713 1777.99 332.6C1779.41 332.375 1780.8 332.154 1782.18 331.936C1783.53 331.672 1784.92 331.672 1786.24 331.53C1788.73 331.343 1791.57 330.802 1794.55 330.631C1796.03 330.493 1797.51 330.332 1798.97 330.16C1800.42 329.99 1801.87 330.024 1803.22 329.932C1804.58 329.859 1805.86 329.789 1807.01 329.726C1808.17 329.609 1809.21 329.746 1810.07 329.73C1811.8 329.754 1812.86 329.77 1812.86 329.77C1814.6 329.778 1816.01 329.958 1816 330.166C1815.99 330.376 1815.98 330.548 1815.98 330.548C1815.98 330.548 1815.97 330.72 1815.96 330.929C1815.95 331.139 1814.54 331.305 1812.83 331.296C1812.83 331.296 1811.8 331.3 1810.1 331.309C1809.25 331.353 1808.23 331.258 1807.1 331.437C1805.98 331.578 1804.73 331.733 1803.41 331.897C1802.1 332.099 1800.7 332.202 1799.31 332.542C1797.92 332.884 1796.51 333.248 1795.13 333.629C1792.34 334.285 1789.77 335.469 1787.66 336.498C1778.68 341.039 1769.57 348.317 1762.46 356.079C1755.23 363.817 1750 371.878 1745.8 377.451C1745.2 378.244 1744.58 378.997 1743.96 379.72C1743.35 380.448 1742.84 381.215 1742.26 381.912C1741.16 383.335 1739.93 384.59 1738.84 385.832C1737.8 387.098 1736.73 388.263 1735.64 389.343C1735.08 389.88 1734.54 390.402 1734.02 390.911C1733.53 391.436 1733.04 391.942 1732.55 392.429C1728.45 396.253 1725 399.187 1722.38 400.989Z" fill="#F2A877"/>
<path fill-rule="evenodd" clip-rule="evenodd" d="M1775.77 397.635C1773.83 396.605 1773.44 394.037 1774.81 392.343C1776.71 389.977 1779.8 386.802 1784.06 383.382C1786.23 381.797 1788.62 379.881 1791.44 378.312C1792.84 377.479 1794.3 376.577 1795.89 375.785C1796.69 375.373 1797.52 375.013 1798.36 374.596C1799.19 374.17 1800.05 373.758 1800.95 373.36C1807.26 370.606 1816.21 367.826 1825.6 363.829C1834.98 359.905 1844.74 354.727 1852.41 349.115C1854.2 347.787 1856.25 346.109 1858.07 344.137C1859.01 343.171 1859.95 342.175 1860.85 341.186C1861.76 340.196 1862.53 339.139 1863.32 338.17C1864.86 336.215 1866.21 334.455 1867.04 333.099C1867.91 331.763 1868.43 330.949 1868.43 330.949C1869.29 329.6 1870.13 328.581 1870.31 328.686C1870.49 328.793 1870.64 328.88 1870.64 328.88C1870.64 328.88 1870.79 328.966 1870.97 329.073C1871.15 329.178 1870.59 330.383 1869.72 331.749C1869.72 331.749 1869.2 332.583 1868.36 333.952C1867.56 335.354 1866.29 337.197 1864.91 339.313C1864.21 340.362 1863.53 341.52 1862.76 342.635C1861.98 343.749 1861.19 344.897 1860.43 346.046C1858.96 348.386 1857.38 350.558 1856.22 352.556C1851.22 360.981 1844.42 370.749 1836.39 379.047C1828.43 387.384 1819.3 394.138 1811.65 397.466C1810.57 397.946 1809.51 398.388 1808.46 398.797C1807.41 399.195 1806.34 399.489 1805.31 399.791C1803.24 400.363 1801.28 400.864 1799.37 401.153C1795.51 401.635 1792.09 401.871 1789 401.487C1782.88 400.97 1778.44 399.044 1775.77 397.635Z" fill="#1B79AC"/>
<path fill-rule="evenodd" clip-rule="evenodd" d="M1717.74 355.853C1715.85 357.359 1713.31 356.77 1712.56 354.371C1712.04 352.712 1711.47 350.514 1711.21 347.808C1711.06 346.446 1710.96 344.952 1711.01 343.35C1711.04 341.741 1711.11 339.982 1711.4 338.147C1711.54 337.224 1711.69 336.269 1711.87 335.28C1712.07 334.3 1712.33 333.309 1712.61 332.277C1713.13 330.2 1713.92 328.086 1714.83 325.857C1716.74 321.458 1719.42 316.751 1723.22 312.174C1726.57 308.168 1731.09 303.978 1736.52 300.211C1741.93 296.437 1748.25 293.096 1754.96 290.595C1761.66 288.08 1768.7 286.413 1775.5 285.531C1782.31 284.637 1788.88 284.519 1794.81 284.842C1800.38 285.098 1807.86 285.374 1813.93 286.174C1816.96 286.58 1819.63 286.979 1821.54 287.368C1822.5 287.544 1823.27 287.687 1823.8 287.784C1824.33 287.903 1824.62 287.969 1824.62 287.969C1826.53 288.391 1828.05 288.901 1828 289.105C1827.95 289.308 1827.91 289.474 1827.91 289.474C1827.91 289.474 1827.87 289.642 1827.82 289.844C1827.76 290.047 1826.19 289.873 1824.31 289.458C1824.31 289.458 1824.03 289.395 1823.51 289.284C1822.99 289.179 1822.22 289.07 1821.28 288.921C1819.39 288.591 1816.74 288.31 1813.76 288.135C1807.78 287.794 1800.45 288.437 1795.38 289.961C1789.97 291.532 1784.34 293.842 1778.98 296.759C1773.63 299.669 1768.55 303.177 1764.08 306.943C1755.06 314.464 1748.58 323.052 1743.53 329.113C1737.83 336.053 1732.9 341.538 1728.5 345.983C1724.16 350.411 1720.33 353.74 1717.74 355.853Z" fill="#1B79AC"/>
<path fill-rule="evenodd" clip-rule="evenodd" d="M1572.07 450.348C1570.53 448.937 1570.71 446.353 1572.27 444.991C1574.45 443.085 1577.82 440.646 1582.2 438.193C1583.31 437.633 1584.47 437.043 1585.7 436.424C1586.93 435.826 1588.23 435.271 1589.61 434.779C1590.99 434.255 1592.43 433.674 1593.96 433.23C1594.73 432.991 1595.53 432.815 1596.33 432.579C1597.14 432.333 1597.97 432.107 1598.83 431.901C1604.85 430.507 1613.27 429.606 1622.34 427.543C1631.38 425.553 1641.01 422.342 1648.76 418.27C1650.56 417.301 1652.65 416.045 1654.54 414.461C1655.51 413.693 1656.48 412.896 1657.42 412.1C1658.36 411.304 1659.18 410.419 1659.99 409.622C1661.61 408.006 1663.03 406.545 1663.92 405.385C1664.84 404.249 1665.4 403.558 1665.4 403.558C1666.31 402.408 1667.19 401.567 1667.36 401.69C1667.53 401.813 1667.67 401.913 1667.67 401.913C1667.67 401.913 1667.8 402.014 1667.97 402.137C1668.14 402.26 1667.52 403.315 1666.6 404.482C1666.6 404.482 1666.05 405.195 1665.14 406.369C1664.28 407.581 1662.93 409.134 1661.45 410.932C1660.7 411.82 1659.97 412.816 1659.14 413.754C1658.31 414.691 1657.47 415.658 1656.65 416.633C1655.06 418.629 1653.37 420.441 1652.09 422.157C1646.6 429.379 1639.17 437.616 1630.6 444.205C1622.11 450.842 1612.58 455.705 1604.95 457.463C1603.87 457.721 1602.81 457.945 1601.77 458.139C1600.73 458.323 1599.69 458.398 1598.69 458.49C1596.67 458.637 1594.77 458.739 1592.96 458.637C1591.13 458.504 1589.42 458.286 1587.82 458.006C1587.02 457.859 1586.25 457.722 1585.51 457.526C1584.76 457.315 1584.04 457.092 1583.36 456.859C1577.84 455.098 1574.19 452.28 1572.07 450.348Z" fill="#1B79AC"/>
<path fill-rule="evenodd" clip-rule="evenodd" d="M1598.39 508.468C1596.05 509.252 1593.9 507.769 1594 505.293C1594.16 501.881 1594.77 496.437 1597.53 489.849C1598.82 486.475 1600.84 483.009 1603.31 479.189C1604.59 477.314 1606.09 475.462 1607.71 473.531C1608.53 472.578 1609.37 471.584 1610.3 470.639C1611.23 469.702 1612.21 468.76 1613.23 467.814C1620.39 461.11 1631.64 454.029 1644.09 448.5C1656.52 442.894 1670.03 438.863 1681.45 436.167C1684.15 435.55 1687.23 434.564 1690.45 433.73C1692.04 433.282 1693.65 432.809 1695.22 432.331C1696.79 431.854 1698.37 431.489 1699.83 431.071C1702.77 430.262 1705.36 429.487 1707.27 429.062C1709.15 428.581 1710.3 428.288 1710.3 428.288C1712.19 427.789 1713.77 427.547 1713.82 427.751C1713.87 427.955 1713.91 428.121 1713.91 428.121C1713.91 428.121 1713.95 428.288 1714 428.492C1714.05 428.696 1712.55 429.268 1710.68 429.763C1710.68 429.763 1709.55 430.072 1707.69 430.582C1705.81 431.056 1703.27 431.933 1700.43 432.948C1699.01 433.469 1697.5 433.963 1696 434.602C1694.51 435.242 1692.99 435.909 1691.51 436.587C1688.51 437.885 1685.74 439.484 1683.46 440.917C1673.78 447.093 1663.44 455.56 1654.41 464.154C1645.33 472.721 1637.57 481.37 1631.29 487.245C1630.39 488.075 1629.5 488.866 1628.61 489.622C1627.73 490.391 1626.88 491.142 1626.05 491.874C1624.37 493.324 1622.67 494.591 1621.06 495.812C1617.94 498.32 1614.75 500.213 1612.01 501.968C1606.35 505.31 1601.64 507.385 1598.39 508.468Z" fill="#8163A6"/>
<path fill-rule="evenodd" clip-rule="evenodd" d="M1850.83 297.934C1849.19 299.177 1846.58 298.835 1845.43 297.123C1843.86 294.759 1841.73 290.88 1840.69 285.505C1840.09 282.804 1839.93 279.774 1840.03 276.373C1840.11 274.681 1840.35 272.922 1840.68 271.076C1840.98 269.226 1841.48 267.325 1842.13 265.367C1844.37 258.442 1849.46 249.902 1855.84 241.928C1862.19 233.908 1869.77 226.501 1876.27 220.597C1877.81 219.212 1879.43 217.438 1881.15 215.667C1882.8 213.854 1884.49 212.003 1886.02 210.338C1887.53 208.668 1888.83 207.153 1889.83 206.115C1890.8 205.05 1891.39 204.402 1891.39 204.402C1892.34 203.322 1893.25 202.554 1893.41 202.695C1893.56 202.836 1893.69 202.951 1893.69 202.951C1893.69 202.951 1893.82 203.067 1893.98 203.208C1894.13 203.349 1893.48 204.34 1892.53 205.409C1892.53 205.409 1891.97 206.064 1891.03 207.142C1890.09 208.206 1888.88 209.781 1887.56 211.573C1886.21 213.342 1884.85 215.413 1883.61 217.484C1882.33 219.526 1881.3 221.659 1880.55 223.512C1877.39 231.447 1874.79 241.059 1872.85 250.074C1870.86 259.104 1869.49 267.528 1867.57 273.496C1867 275.188 1866.38 276.771 1865.78 278.276C1865.16 279.776 1864.44 281.166 1863.74 282.483C1862.4 285.13 1860.76 287.395 1859.29 289.404C1856.2 293.385 1853.1 296.207 1850.83 297.934Z" fill="#1B79AC"/>
<path fill-rule="evenodd" clip-rule="evenodd" d="M1684.49 371.063C1683.16 373.038 1680.57 373.28 1679.12 371.356C1677.14 368.707 1674.18 364.173 1672.51 357.31C1672.28 356.454 1672.06 355.561 1671.86 354.633C1671.68 353.707 1671.57 352.753 1671.45 351.76C1671.23 349.775 1671.07 347.65 1671 345.389C1670.98 343.135 1671.22 340.781 1671.49 338.286C1671.65 337.044 1671.77 335.756 1672.04 334.468C1672.33 333.186 1672.65 331.874 1673 330.538C1675.42 321.098 1681.52 309.324 1689.91 298.962C1698.22 288.505 1708.67 279.577 1717.94 273.212C1720.15 271.732 1722.54 269.758 1725.19 267.992C1726.48 267.073 1727.77 266.129 1729.03 265.192C1730.29 264.257 1731.63 263.479 1732.82 262.656C1735.25 261.042 1737.36 259.557 1738.99 258.676C1740.58 257.723 1741.55 257.142 1741.55 257.142C1743.14 256.17 1744.53 255.526 1744.63 255.71C1744.73 255.894 1744.81 256.045 1744.81 256.045C1744.81 256.045 1744.89 256.195 1744.99 256.38C1745.09 256.564 1743.89 257.499 1742.33 258.456C1742.33 258.456 1741.38 259.045 1739.83 260.015C1738.24 260.929 1736.22 262.49 1733.97 264.259C1732.86 265.161 1731.63 266.035 1730.5 267.092C1729.38 268.149 1728.25 269.239 1727.15 270.328C1724.88 272.435 1723.03 274.854 1721.53 276.914C1715.23 285.795 1709.78 297.213 1706.15 308.225C1702.41 319.255 1700.46 329.776 1698.5 337.372C1698.22 338.454 1697.91 339.501 1697.58 340.518C1697.27 341.538 1697.06 342.55 1696.76 343.521C1696.22 345.47 1695.51 347.297 1694.92 349.045C1694.37 350.798 1693.76 352.454 1693.11 354.02C1692.77 354.801 1692.45 355.562 1692.13 356.302C1691.84 357.044 1691.55 357.763 1691.25 358.463C1688.7 364.045 1686.37 368.314 1684.49 371.063Z" fill="#1B79AC"/>
<path fill-rule="evenodd" clip-rule="evenodd" d="M1541.08 416.2C1539.38 414.621 1539.76 412.008 1541.69 410.766C1544.38 409.027 1548.54 406.878 1554 404.75C1555.37 404.275 1556.81 403.771 1558.34 403.24C1559.87 402.727 1561.49 402.263 1563.19 401.869C1564.89 401.438 1566.68 400.939 1568.57 400.594C1569.52 400.43 1570.49 400.262 1571.49 400.089C1572.48 399.887 1573.5 399.706 1574.55 399.548C1581.92 398.489 1592.04 397.983 1602.89 396.168C1613.72 394.434 1625.24 391.336 1634.65 387.199C1636.84 386.211 1639.41 384.933 1641.82 383.267C1643.04 382.465 1644.27 381.628 1645.46 380.797C1646.66 379.963 1647.73 379.016 1648.79 378.171C1650.89 376.456 1652.74 374.905 1653.94 373.65C1655.17 372.428 1655.93 371.684 1655.93 371.684C1657.15 370.445 1658.28 369.549 1658.43 369.694C1658.58 369.839 1658.71 369.959 1658.71 369.959C1658.71 369.959 1658.83 370.078 1658.98 370.223C1659.14 370.367 1658.25 371.513 1657 372.765C1657 372.765 1656.26 373.533 1655.04 374.793C1653.86 376.104 1652.06 377.756 1650.08 379.669C1649.08 380.615 1648.09 381.684 1646.98 382.673C1645.88 383.661 1644.76 384.682 1643.67 385.71C1641.53 387.827 1639.29 389.71 1637.53 391.513C1630.03 399.084 1620.22 407.487 1609.47 413.91C1598.8 420.398 1587.31 424.798 1578.38 426.07C1577.12 426.259 1575.88 426.417 1574.67 426.545C1573.46 426.661 1572.26 426.658 1571.1 426.678C1568.78 426.68 1566.59 426.65 1564.52 426.406C1562.44 426.125 1560.5 425.77 1558.69 425.358C1557.78 425.146 1556.91 424.947 1556.07 424.686C1555.23 424.408 1554.42 424.12 1553.65 423.824C1547.44 421.578 1543.43 418.363 1541.08 416.2Z" fill="#1B79AC"/>
<path fill-rule="evenodd" clip-rule="evenodd" d="M1777.12 270.695C1775.11 269.87 1774.45 267.332 1775.49 265.52C1776.95 263.04 1779.24 259.425 1782.29 255.546C1785.36 251.628 1789.12 247.45 1794.21 243.016C1798.65 239.086 1805.27 234.343 1811.26 227.541C1814.26 224.165 1817.1 220.295 1819.48 216.153C1821.86 212.019 1823.78 207.621 1825.09 203.37C1826.35 199.38 1826.76 193.607 1826.39 188.918C1826.19 186.576 1825.91 184.498 1825.61 183.024C1825.36 181.54 1825.11 180.655 1825.11 180.655C1824.74 179.193 1824.59 177.948 1824.8 177.89C1825 177.832 1825.16 177.785 1825.16 177.785C1825.16 177.785 1825.33 177.739 1825.53 177.681C1825.73 177.621 1826.22 178.798 1826.6 180.296C1826.6 180.296 1826.85 181.199 1827.16 182.705C1827.53 184.201 1827.93 186.303 1828.35 188.681C1829.2 193.442 1829.71 199.346 1830.25 203.774C1830.87 208.479 1831.19 213.756 1830.88 219.296C1830.59 224.83 1829.66 230.622 1827.99 236.202C1826.32 241.787 1823.93 247.11 1821.1 251.691C1818.28 256.28 1815.03 260.123 1811.85 262.953C1804.52 269.353 1796.76 271.944 1790.65 272.529C1784.48 273.115 1779.9 271.869 1777.12 270.695Z" fill="#81DC6C"/>
<path fill-rule="evenodd" clip-rule="evenodd" d="M1500.75 468.333C1499.28 470.07 1496.66 470.189 1495.32 468.316C1493.5 465.744 1490.76 461.288 1489.63 454.629C1489.46 453.796 1489.31 452.929 1489.18 452.028C1489.07 451.131 1489.06 450.218 1489.02 449.262C1488.97 447.357 1489.01 445.318 1489.14 443.156C1489.34 441.011 1489.82 438.804 1490.34 436.462C1490.63 435.303 1490.88 434.087 1491.3 432.903C1491.73 431.726 1492.19 430.525 1492.69 429.305C1493.59 427.166 1494.58 424.841 1496.03 422.6C1496.72 421.46 1497.45 420.3 1498.21 419.126C1498.6 418.543 1498.99 417.953 1499.38 417.356C1499.79 416.771 1500.26 416.214 1500.71 415.639C1501.62 414.496 1502.56 413.346 1503.53 412.191C1504.48 411.034 1505.45 409.867 1506.58 408.801C1507.68 407.723 1508.79 406.634 1509.91 405.532C1510.47 404.995 1511.03 404.453 1511.6 403.911C1512.18 403.386 1512.81 402.9 1513.42 402.396C1514.64 401.413 1515.88 400.422 1517.11 399.43C1517.74 398.947 1518.33 398.441 1518.98 397.986L1520.95 396.665C1523.59 394.933 1526.1 393.15 1528.86 391.763C1530.19 391.041 1531.52 390.324 1532.83 389.614C1533.47 389.248 1534.13 388.928 1534.82 388.643C1535.49 388.345 1536.16 388.05 1536.82 387.757C1538.13 387.178 1539.42 386.608 1540.69 386.048C1541.92 385.45 1543.27 385.096 1544.5 384.624C1546.85 383.811 1549.45 382.563 1552.28 381.642C1553.67 381.134 1555.07 380.601 1556.42 380.065C1557.78 379.532 1559.19 379.199 1560.47 378.766C1561.76 378.351 1562.97 377.961 1564.07 377.607C1565.15 377.201 1566.19 377.072 1567.02 376.836C1568.7 376.423 1569.72 376.173 1569.72 376.173C1571.4 375.74 1572.81 375.556 1572.85 375.764C1572.89 375.97 1572.92 376.141 1572.92 376.141C1572.92 376.141 1572.96 376.31 1573 376.516C1573.04 376.725 1571.73 377.24 1570.08 377.662C1570.08 377.662 1569.08 377.929 1567.45 378.367C1566.64 378.624 1565.63 378.789 1564.59 379.248C1563.54 379.67 1562.38 380.137 1561.15 380.631C1559.93 381.16 1558.61 381.613 1557.36 382.296C1556.11 382.982 1554.84 383.692 1553.6 384.412C1551.08 385.755 1548.91 387.557 1547.13 389.093C1546.22 389.951 1545.21 390.696 1544.34 391.688C1543.45 392.635 1542.55 393.6 1541.64 394.577C1541.2 395.061 1540.75 395.55 1540.29 396.042C1539.83 396.517 1539.39 397.026 1538.99 397.581C1538.16 398.647 1537.33 399.725 1536.49 400.81C1534.77 402.885 1533.35 405.295 1531.86 407.547L1530.76 409.24C1530.4 409.812 1530.1 410.429 1529.77 411.016C1529.12 412.189 1528.48 413.358 1527.84 414.52C1522.86 423.872 1519.88 433.028 1517.27 439.505C1516.89 440.426 1516.49 441.316 1516.08 442.174C1515.68 443.037 1515.39 443.909 1515.01 444.733C1514.31 446.395 1513.45 447.926 1512.72 449.409C1512.04 450.903 1511.31 452.307 1510.53 453.633C1510.14 454.296 1509.75 454.94 1509.37 455.567C1509.04 456.202 1508.7 456.819 1508.35 457.416C1505.38 462.175 1502.81 465.91 1500.75 468.333Z" fill="#F2A877"/>
<path fill-rule="evenodd" clip-rule="evenodd" d="M1401.58 518.539C1399.4 517.091 1399.51 514.476 1401.72 513.117C1404.79 511.233 1409.72 508.714 1416.48 506.37C1423.25 504.023 1431.82 501.942 1442.56 500.689C1447.29 500.141 1452.84 499.786 1458.93 499.455C1465.01 499.09 1471.62 498.731 1478.43 498.206C1485.21 497.699 1492.28 496.969 1498.98 496.058C1505.65 495.07 1512.14 493.748 1517.87 491.738C1520.58 490.818 1523.65 489.368 1526.62 487.553C1529.54 485.685 1532.42 483.523 1534.64 481.197C1535.81 480.086 1536.73 478.87 1537.65 477.84C1538.44 476.721 1539.17 475.725 1539.74 474.87C1540.76 473.077 1541.38 471.987 1541.38 471.987C1542.22 470.104 1543.05 468.606 1543.25 468.681C1543.45 468.755 1543.61 468.818 1543.61 468.818C1543.61 468.818 1543.77 468.879 1543.96 468.954C1544.15 469.023 1543.62 470.707 1542.73 472.673C1542.73 472.673 1542.11 473.818 1541.08 475.7C1540.49 476.597 1539.79 477.67 1539.01 478.869C1538.11 479.98 1537.21 481.303 1536.08 482.541C1533.93 485.127 1531.16 487.641 1528.4 490.03C1525.59 492.361 1522.73 494.49 1520.29 496.299C1515.14 500.208 1509.07 503.865 1502.64 507.269C1496.18 510.595 1489.57 513.721 1482.83 516.473C1476.13 519.228 1469.41 521.601 1463.07 523.43C1456.72 525.224 1450.76 526.497 1445.6 527.096C1433.87 528.465 1424.24 527.243 1416.95 525.283C1409.63 523.321 1404.61 520.542 1401.58 518.539Z" fill="#7EE6AC"/>
</g>
</svg>
