<svg xmlns="http://www.w3.org/2000/svg" fill="none" viewBox="0 0 961 700" height="700" width="961">
<rect fill-opacity="0.15" fill="url(#paint0_linear)" transform="rotate(-180 961 700)" height="700" width="961" y="700" x="961"></rect>
<g opacity="0.2">
<path fill="#7EE6AC" d="M1058.51 674.283C1047.23 681.063 1020.62 678.016 1010.57 676.851L1009.3 676.7C1005.15 676.241 1001.02 675.619 996.931 674.861C934.778 663.454 884.364 621.362 868.369 567.59C866.732 562.062 865.214 556.157 863.73 550.5C857.25 525.249 850.528 499.147 828.23 483.898C821.173 479.101 813.076 476.268 805.515 475.985C799.16 477.391 793.188 479.754 787.758 483.017C782.327 486.28 777.607 490.342 773.562 495.146C769.699 501.91 767.509 509.928 767.418 517.681C767.09 549.703 790.843 569.669 813.899 588.982C817.819 592.257 821.835 595.626 825.66 598.996L826.02 599.278C826.251 599.407 826.516 599.593 826.781 599.778C844.162 611.624 864.751 630.657 864.299 654.061C864.299 654.635 864.001 655.159 863.495 655.463C863.045 655.734 862.459 655.779 861.958 655.582C861.485 655.369 861.13 654.969 861.017 654.463C858.053 642.264 853.448 633.389 846.091 625.669C839.573 618.901 831.468 612.932 819.827 606.369C816.008 604.221 812.032 602.129 808.209 600.099C795.284 593.312 781.954 586.232 771.256 575.694C758.119 562.753 750.86 542.451 751.877 521.389C752.781 501.352 761.09 483.568 774.538 472.615C776.631 470.936 778.865 469.364 781.201 467.961C801.009 456.059 828.116 455.856 850.333 467.401C865.206 475.2 877.881 487.882 887.006 504.153C890.528 509.504 893.758 515.453 896.656 521.869C897.559 499.535 903.45 477.919 909.117 457.012C910.426 452.242 911.745 447.428 912.992 442.62C921.809 408.79 921.65 382.077 912.582 358.572C910.766 353.957 908.579 349.488 905.998 345.256C897.103 337.081 887.557 331.328 877.624 328.181C863.418 323.658 846.147 325.571 833.598 333.111C827.154 336.983 822.249 342.075 819.044 348.214C812.077 361.668 815.532 375.83 819.139 390.82C821.256 399.506 823.424 408.467 823.334 417.177C823.085 432.952 814.717 446.941 800.367 455.564C795.528 458.472 790.203 460.637 784.507 461.991C764.547 466.823 742.959 460.722 726.713 445.666C710.974 431.072 703.445 411.085 705.525 389.307C705.581 388.699 705.907 388.159 706.442 387.838C707.033 387.483 707.815 387.51 708.384 387.819C708.959 388.202 709.241 388.799 709.235 389.491C708.211 406.651 716.003 424.91 730.092 438.542C730.66 438.469 731.179 438.694 731.578 439.104C742.424 451.163 761.352 453.729 775.674 445.124C782.709 440.897 787.529 434.516 789.601 426.683C793.094 413.631 790.406 399.851 787.796 386.521C786.079 377.864 784.356 368.941 784.294 360.17C784.151 339.345 794.958 320.366 813.22 309.394L813.839 309.022C832.556 298.044 856.161 297.494 877.07 307.565C888.39 313.019 898.236 321.12 906.361 331.519C929.612 349.565 944.678 377.125 951.64 391.899C964.032 418.386 968.164 443.746 963.85 467.287C961.898 478.187 958.578 488.914 955.348 499.281C950.741 514.112 945.977 529.383 945.211 545.316C943.917 572.864 951.884 600.4 967.69 622.882C980.307 640.884 997.678 654.88 1022.23 666.936C1022.26 666.919 1022.3 666.93 1022.35 666.941C991.929 644.165 974.66 605.673 978.03 567.686C979.88 547.502 986.375 528.165 992.623 509.437C996.635 497.566 1000.78 485.274 1003.66 472.932C1008.06 453.934 1008.55 438.626 1005.18 424.722C1000.19 404.053 986.66 387.594 972.751 372.858C969.799 369.729 966.818 366.618 963.827 363.551C940.555 339.352 916.443 314.392 913.357 278.217C913.261 277.356 913.198 276.551 913.147 275.7C912.197 259.842 914.832 243.705 920.818 229.002C926.534 214.997 940.83 201.313 953.892 193.351C957.045 195.285 940.766 215.101 939.075 220.253C935.26 231.622 933.528 243.654 933.941 255.623C934.721 276.487 941.924 298.163 954.773 318.208C963.846 332.289 976.155 344.616 992.455 355.81C996.048 358.285 999.788 360.748 1003.36 363.122C1014.95 370.749 1026.93 378.64 1037.02 388.548C1060.8 411.869 1066.22 446.906 1051.89 484.624C1046.5 498.78 1039.02 512.347 1031.82 525.407C1020.68 545.619 1009.17 566.479 1005.35 589.761C1003.17 603.021 1002.9 622.331 1014.16 639.157C1022.54 651.774 1036.31 659.896 1050.92 660.883C1051.48 660.928 1052.29 660.939 1053.08 660.921C1056.56 660.902 1060.82 660.866 1062.84 663.257C1063.73 664.293 1064.03 665.683 1063.74 667.31C1063.21 670.193 1061.43 672.525 1058.51 674.283Z" clip-rule="evenodd" fill-rule="evenodd"></path>
</g>
<g opacity="0.134513">
<mask height="121" width="2047" y="581" x="104" maskUnits="userSpaceOnUse" id="mask0">
<path fill="white" d="M104 581H2151V700H104V581Z" clip-rule="evenodd" fill-rule="evenodd"></path>
</mask>
<g mask="url(#mask0)">
<path fill="#7EE6AC" d="M1202.68 599.386C810 539.711 699.662 643.311 410.292 655.86C259.649 662.392 162.518 683.381 104 700H2151C2062.77 679.938 1960.32 668.394 1854.27 631.637C1538.76 522.276 1538.76 650.462 1202.68 599.386Z" clip-rule="evenodd" fill-rule="evenodd"></path>
</g>
</g>
<defs>
<linearGradient gradientUnits="userSpaceOnUse" y2="1404" x2="1441.5" y1="700" x1="1441.5" id="paint0_linear">
<stop stop-color="#7EE6AC"></stop>
<stop stop-opacity="0.171875" stop-color="#CBF1FF" offset="0.828125"></stop>
<stop stop-opacity="0" stop-color="#E8F8FF" offset="1"></stop>
</linearGradient>
</defs>
</svg>
