<svg width="1920" height="300" viewBox="0 437 1920 300" fill="none" xmlns="http://www.w3.org/2000/svg">
  <g opacity="0.315901">
    <path fill-rule="evenodd" clip-rule="evenodd" d="M584.308 1156.17C577.346 1164.33 582.521 1195.86 589.265 1205.87C613.406 1241.67 634.019 1231 647.462 1250.04C651.881 1256.3 650.524 1273.69 650.865 1276.36C650.968 1277.17 655.061 1276.42 656.568 1274.11C658.828 1270.64 656.642 1264.07 656.908 1262.52C656.97 1262.15 656.958 1261.87 657.458 1262.21C658.444 1262.87 660.464 1266.99 663.87 1269.7C666.16 1271.52 670.777 1269.41 670.997 1268.55C671.218 1267.69 657.9 1255.67 652.686 1245.31C641.69 1223.46 637.162 1203.9 621.647 1181.93C611.36 1167.36 587.185 1152.8 584.308 1156.17Z" fill="#FDFDFD"/>
    <path fill-rule="evenodd" clip-rule="evenodd" d="M1067.96 602.652C1065.76 610.508 1047.15 619.984 1039.64 619.669C1012.76 618.544 1012.01 600.782 997.529 599.788C992.767 599.461 983.828 607.429 982.282 608.295C981.817 608.556 980.93 605.587 981.701 603.666C982.856 600.782 991.893 598.761 992.644 597.956C992.821 597.766 992.976 597.66 992.638 597.472C991.971 597.099 984.307 598.231 981.775 597.118C980.074 596.37 979.757 592.505 980.153 592.01C980.548 591.514 991.211 595.289 998.431 594.462C1013.66 592.719 1025.62 587.698 1042.33 588.845C1053.42 589.605 1068.87 599.406 1067.96 602.652Z" fill="white"/>
    <path fill-rule="evenodd" clip-rule="evenodd" d="M932.997 618.816C933.272 626.245 913.818 643.262 904.384 646.801C870.617 659.468 862.9 645.559 844.557 652.073C838.527 654.215 830.489 665.134 828.903 666.612C828.426 667.057 826.191 665.117 826.412 663.182C826.742 660.28 828.228 658.678 828.851 657.651C828.998 657.41 829.15 657.246 828.659 657.265C827.689 657.303 827.564 657.497 823.998 657.88C821.602 658.137 819.731 655.189 820.032 654.591C820.334 653.992 835 651.645 843.637 647.334C861.854 638.245 874.765 628.168 895.934 620.65C909.972 615.665 932.884 615.746 932.997 618.816Z" fill="white"/>
    <path fill-rule="evenodd" clip-rule="evenodd" d="M694.195 679.18C699.159 686.158 692.939 710.943 686.928 718.459C665.405 745.364 649.805 735.457 637.88 749.72C633.961 754.409 633.863 768.366 633.414 770.472C633.279 771.106 630.088 770.232 629.051 768.288C627.495 765.371 629.668 760.281 629.562 759.027C629.537 758.732 629.566 758.509 629.148 758.742C628.321 759.203 626.446 762.351 623.567 764.279C621.631 765.576 618.117 763.579 618.001 762.876C617.886 762.172 629.237 753.5 634.062 745.596C644.238 728.926 649.139 713.64 662.901 697.179C672.027 686.263 692.145 676.298 694.195 679.18Z" fill="white"/>
    <path fill-rule="evenodd" clip-rule="evenodd" d="M816.404 626.345C819.417 634.055 810.342 652.976 804.169 657.25C782.072 672.546 770.703 658.565 758.562 666.491C754.57 669.097 752.284 680.961 751.578 682.597C751.366 683.09 748.859 681.213 748.306 679.186C747.477 676.148 753.448 669.056 753.558 667.948C753.584 667.688 753.643 667.508 753.26 667.559C752.502 667.659 747.084 673.201 744.392 673.823C742.583 674.241 739.985 671.292 740 670.65C740.015 670.009 750.798 666.645 756.048 661.62C767.119 651.022 773.6 639.731 787.611 630.582C796.903 624.515 815.159 623.16 816.404 626.345Z" fill="white"/>
    <path fill-rule="evenodd" clip-rule="evenodd" d="M694.19 732.9C698.506 737.925 694.337 760.652 689.701 768.386C673.102 796.075 659.983 790.689 650.764 805.474C647.733 810.334 648.17 822.435 647.88 824.35C647.793 824.927 645.153 824.823 644.232 823.351C642.853 821.145 643.004 819.198 642.87 818.134C642.84 817.884 642.854 817.685 642.521 817.972C641.863 818.539 641.884 818.745 639.602 821.004C638.068 822.521 635.123 821.511 635.001 820.926C634.88 820.34 643.839 810.513 647.491 802.684C655.192 786.175 658.633 771.941 669.274 754.878C676.33 743.564 692.407 730.825 694.19 732.9Z" fill="white"/>
    <path fill-rule="evenodd" clip-rule="evenodd" d="M982.12 1366.64C987.356 1378.28 1023.64 1388.61 1037.7 1386.37C1088.04 1378.36 1086.94 1350.71 1114.01 1345.8C1122.91 1344.18 1140.81 1354.43 1143.84 1355.4C1144.75 1355.7 1146 1350.9 1144.28 1348.11C1141.71 1343.92 1133.59 1342.96 1132.07 1341.89C1131.71 1341.64 1131.4 1341.51 1132.01 1341.14C1133.21 1340.41 1138.63 1340.31 1143.22 1338C1146.32 1336.44 1146.37 1330.39 1145.56 1329.72C1144.74 1329.04 1125.25 1337.36 1111.57 1337.77C1082.72 1338.62 1059.56 1333.64 1028.32 1339.31C1007.6 1343.07 979.956 1361.84 982.12 1366.64Z" fill="white"/>
    <path fill-rule="evenodd" clip-rule="evenodd" d="M894.071 1331.29C897.273 1340.58 919.938 1350.57 928.763 1349.61C960.359 1346.19 959.863 1324.74 976.857 1322.42C982.443 1321.66 993.594 1330.57 995.483 1331.5C996.052 1331.78 996.867 1328.13 995.81 1325.88C994.226 1322.49 983.42 1320.75 982.473 1319.84C982.25 1319.63 982.058 1319.51 982.442 1319.26C983.2 1318.76 992.32 1319.53 995.217 1318C997.165 1316.96 997.241 1312.28 996.736 1311.72C996.23 1311.15 983.956 1316.52 975.384 1316.08C957.304 1315.15 942.82 1310.02 923.207 1312.69C910.202 1314.46 892.749 1327.45 894.071 1331.29Z" fill="white"/>
    <path fill-rule="evenodd" clip-rule="evenodd" d="M1026.05 1301.98C1029.26 1310.19 1058.28 1319.33 1070.13 1318.64C1112.53 1316.18 1114.28 1297.36 1137.15 1295.62C1144.66 1295.05 1158.49 1303.06 1160.89 1303.9C1161.62 1304.15 1163.11 1300.97 1161.96 1298.97C1160.24 1295.98 1157.88 1294.95 1156.72 1294.14C1156.45 1293.95 1156.21 1293.84 1156.74 1293.62C1157.81 1293.2 1158.04 1293.35 1162.06 1292.05C1164.77 1291.18 1165.39 1287.08 1164.79 1286.57C1164.18 1286.07 1147.25 1290.56 1135.9 1290.03C1111.96 1288.91 1093.28 1284.16 1066.89 1286.16C1049.4 1287.49 1024.72 1298.59 1026.05 1301.98Z" fill="#FDFDFD"/>
    <path fill-rule="evenodd" clip-rule="evenodd" d="M1193.28 1272.41C1200.74 1282.59 1238.33 1285.22 1251.64 1280.21C1299.3 1262.3 1292.67 1235.82 1318.17 1225.6C1326.56 1222.24 1346.14 1228.51 1349.3 1228.84C1350.25 1228.94 1350.51 1224.06 1348.27 1221.71C1344.91 1218.18 1336.77 1218.9 1335.06 1218.18C1334.66 1218.01 1334.34 1217.94 1334.86 1217.46C1335.89 1216.51 1341.16 1215.32 1345.2 1212.16C1347.91 1210.03 1346.75 1204.18 1345.82 1203.69C1344.89 1203.2 1327.48 1215.18 1314.17 1218.34C1286.11 1225 1262.43 1224.88 1233 1236.67C1213.48 1244.49 1190.19 1268.21 1193.28 1272.41Z" fill="white"/>
    <path fill-rule="evenodd" clip-rule="evenodd" d="M1158.28 1334.88C1163.96 1342.77 1188.33 1345.7 1196.44 1342.24C1225.49 1329.88 1218.93 1309.68 1234.42 1302.58C1239.51 1300.25 1252.63 1305.48 1254.69 1305.81C1255.31 1305.91 1255.05 1302.22 1253.41 1300.39C1250.94 1297.63 1240.18 1299.1 1239.02 1298.51C1238.75 1298.37 1238.53 1298.32 1238.83 1297.96C1239.4 1297.27 1248.29 1295.37 1250.61 1293.08C1252.16 1291.54 1250.91 1287.08 1250.27 1286.69C1249.62 1286.3 1239.49 1294.93 1231.22 1296.99C1213.77 1301.32 1198.56 1300.64 1180.68 1308.83C1168.82 1314.26 1155.93 1331.62 1158.28 1334.88Z" fill="white"/>
    <path fill-rule="evenodd" clip-rule="evenodd" d="M1242.47 1210.64C1250.03 1215.06 1278.64 1204.4 1287.63 1196.61C1319.81 1168.72 1309.73 1153 1326.82 1137.65C1332.44 1132.6 1348.3 1130.36 1350.73 1129.55C1351.46 1129.3 1350.71 1125.91 1348.58 1125.06C1345.38 1123.78 1342.88 1124.43 1341.46 1124.5C1341.13 1124.52 1340.87 1124.59 1341.17 1124.09C1341.76 1123.11 1342.03 1123.09 1344.43 1119.61C1346.05 1117.27 1344.05 1113.7 1343.26 1113.68C1342.47 1113.66 1331.77 1127.52 1322.43 1134.06C1302.73 1147.85 1285 1155.6 1265.27 1173.31C1252.18 1185.07 1239.35 1208.81 1242.47 1210.64Z" fill="white"/>
    <path fill-rule="evenodd" clip-rule="evenodd" d="M615.612 934.946C605.369 942.35 602.415 980.06 607.301 993.468C624.795 1041.47 651.325 1035.05 661.32 1060.74C664.606 1069.18 658.169 1088.79 657.807 1091.96C657.698 1092.91 662.581 1093.21 664.951 1090.98C668.505 1087.64 667.855 1079.47 668.595 1077.76C668.77 1077.36 668.834 1077.03 669.31 1077.56C670.25 1078.6 671.397 1083.91 674.524 1087.99C676.626 1090.73 682.491 1089.61 682.985 1088.68C683.479 1087.75 671.653 1070.17 668.613 1056.78C662.201 1028.56 662.531 1004.79 650.996 975.138C643.346 955.475 619.842 931.887 615.612 934.946Z" fill="white"/>
    <path fill-rule="evenodd" clip-rule="evenodd" d="M599.468 866.771C608.494 870.424 617.237 893.53 615.855 902.29C610.904 933.647 589.728 932.099 586.6 948.941C585.572 954.478 593.826 966.042 594.646 967.973C594.893 968.554 591.251 969.188 589.073 968.023C585.808 966.276 584.624 955.408 583.77 954.417C583.569 954.185 583.463 953.988 583.195 954.359C582.663 955.091 582.976 964.229 581.314 967.044C580.198 968.936 575.569 968.781 575.034 968.25C574.499 967.718 580.412 955.735 580.401 947.159C580.38 929.073 576.03 914.369 579.637 894.93C582.031 882.039 595.739 865.263 599.468 866.771Z" fill="white"/>
    <path fill-rule="evenodd" clip-rule="evenodd" d="M686.027 1281.96C685.026 1294.59 711.862 1321.13 725.257 1326C773.207 1343.45 785.526 1318.95 811.6 1327.8C820.173 1330.71 830.944 1348.27 833.124 1350.59C833.78 1351.29 837.179 1347.73 837.017 1344.48C836.774 1339.59 830.122 1334.83 829.3 1333.17C829.107 1332.78 828.899 1332.52 829.611 1332.49C831.014 1332.44 835.806 1334.97 840.946 1335.2C844.4 1335.35 847.354 1330.12 846.965 1329.15C846.576 1328.17 825.496 1325.94 813.318 1319.66C787.634 1306.42 769.726 1290.87 739.633 1280.65C719.677 1273.87 686.44 1276.74 686.027 1281.96Z" fill="white"/>
    <path fill-rule="evenodd" clip-rule="evenodd" d="M676.93 1125.41C670.979 1133.13 675.049 1157.53 680.644 1164.4C700.671 1189.03 718.158 1177 729.319 1190C732.988 1194.27 731.68 1208.43 731.943 1210.52C732.021 1211.14 735.481 1209.86 736.774 1207.75C738.713 1204.59 734.273 1194.59 734.512 1193.3C734.569 1193 734.56 1192.78 734.979 1192.96C735.804 1193.33 740.127 1201.39 742.975 1202.99C744.889 1204.06 748.803 1201.59 748.998 1200.86C749.191 1200.13 738.071 1192.75 733.769 1185.33C724.7 1169.67 721.064 1154.76 708.183 1139.76C699.642 1129.82 679.387 1122.23 676.93 1125.41Z" fill="white"/>
    <path fill-rule="evenodd" clip-rule="evenodd" d="M644.209 1196.65C641.879 1205.05 659.563 1229.76 669.416 1236.37C704.688 1260.02 717.304 1246.26 736.564 1258.69C742.894 1262.77 749.145 1277.42 750.562 1279.54C750.989 1280.17 754.077 1278.57 754.349 1276.3C754.759 1272.91 753.49 1270.67 753.053 1269.33C752.95 1269.02 752.82 1268.79 753.378 1268.94C754.48 1269.25 754.57 1269.51 758.553 1270.91C761.231 1271.86 764.175 1269.01 763.992 1268.24C763.808 1267.48 747.634 1260.8 738.903 1253.54C720.488 1238.2 708.422 1223.19 686.196 1208.85C671.456 1199.34 645.171 1193.19 644.209 1196.65Z" fill="white"/>
    <path fill-rule="evenodd" clip-rule="evenodd" d="M570.032 994.864C564.849 999.887 567.022 1025.06 571.241 1033.96C586.346 1065.82 601.086 1061.32 609.539 1078.37C612.317 1083.97 610.601 1097.1 610.718 1099.21C610.752 1099.85 613.619 1100.01 614.764 1098.51C616.484 1096.25 616.52 1094.11 616.774 1092.96C616.834 1092.7 616.837 1092.48 617.168 1092.83C617.821 1093.51 617.778 1093.73 620.014 1096.43C621.517 1098.24 624.806 1097.45 624.997 1096.82C625.189 1096.2 616.51 1084.57 613.364 1075.67C606.732 1056.9 604.473 1041.05 594.719 1021.37C588.25 1008.32 572.173 992.789 570.032 994.864Z" fill="white"/>
    <path fill-rule="evenodd" clip-rule="evenodd" d="M509.619 950.717C506.397 952.512 504.268 965.088 505.235 969.975C508.694 987.464 516.61 987.138 518.645 996.544C519.315 999.636 516.786 1005.83 516.574 1006.88C516.51 1007.2 517.917 1007.64 518.68 1007.05C519.824 1006.16 520.116 1005.12 520.387 1004.6C520.452 1004.47 520.481 1004.37 520.602 1004.58C520.84 1005 520.79 1005.1 521.56 1006.7C522.078 1007.78 523.817 1007.81 523.992 1007.53C524.168 1007.25 521.328 1000.46 520.896 995.712C519.987 985.697 520.883 977.663 518.534 966.807C516.977 959.609 510.95 949.975 509.619 950.717Z" fill="white"/>
    <path fill-rule="evenodd" clip-rule="evenodd" d="M628.555 1112.99C623.574 1118.54 626.652 1140.49 631.177 1147.54C647.378 1172.77 661.895 1165.71 670.931 1179.14C673.902 1183.55 672.669 1195.59 672.862 1197.45C672.92 1198.01 675.78 1197.56 676.867 1195.98C678.497 1193.61 677.086 1189.02 677.296 1187.95C677.345 1187.7 677.341 1187.5 677.683 1187.74C678.358 1188.22 679.695 1191.11 682.02 1193.04C683.583 1194.34 686.83 1192.96 686.998 1192.36C687.166 1191.77 678.1 1183.21 674.645 1175.94C667.357 1160.61 664.532 1146.97 654.104 1131.48C647.187 1121.2 630.612 1110.7 628.555 1112.99Z" fill="white"/>
    <path fill-rule="evenodd" clip-rule="evenodd" d="M501.033 1022.7C496.458 1023.96 490.858 1034.89 491.003 1039.33C491.52 1055.2 501.837 1055.74 502.34 1064.29C502.506 1067.1 497.831 1072.34 497.321 1073.25C497.167 1073.52 498.887 1074.06 500.008 1073.61C501.688 1072.95 502.909 1067.62 503.38 1067.19C503.491 1067.08 503.553 1066.99 503.661 1067.19C503.874 1067.59 503.177 1072.11 503.812 1073.61C504.238 1074.61 506.482 1074.82 506.772 1074.59C507.061 1074.36 504.923 1068.05 505.439 1063.79C506.529 1054.81 509.507 1047.77 508.925 1037.9C508.54 1031.35 502.923 1022.18 501.033 1022.7Z" fill="white"/>
    <path fill-rule="evenodd" clip-rule="evenodd" d="M597.568 1101.73C593.929 1104.02 592.089 1119.06 593.447 1124.81C598.311 1145.41 607.45 1144.63 610.268 1155.69C611.195 1159.33 608.575 1166.81 608.382 1168.07C608.324 1168.45 609.973 1168.9 610.825 1168.16C612.106 1167.05 612.391 1165.81 612.679 1165.17C612.747 1165.02 612.776 1164.89 612.927 1165.14C613.223 1165.62 613.169 1165.74 614.139 1167.61C614.791 1168.86 616.804 1168.81 616.993 1168.47C617.181 1168.12 613.562 1160.21 612.829 1154.59C611.283 1142.75 611.923 1133.17 608.672 1120.39C606.516 1111.93 599.071 1100.79 597.568 1101.73Z" fill="#FDFDFD"/>
    <path fill-rule="evenodd" clip-rule="evenodd" d="M743.106 1121.03C741.954 1126.65 750.464 1138.48 755.224 1140.66C772.264 1148.44 778.417 1137.53 787.723 1141.48C790.782 1142.78 793.775 1150.6 794.456 1151.64C794.661 1151.95 796.162 1150.36 796.3 1148.91C796.507 1146.74 791.549 1142.62 791.34 1141.87C791.292 1141.7 791.229 1141.58 791.5 1141.57C792.032 1141.55 796.425 1144.68 798.352 1144.78C799.648 1144.85 801.084 1142.52 800.996 1142.09C800.91 1141.65 793.085 1140.65 788.871 1137.85C779.981 1131.95 774.17 1125.02 763.431 1120.45C756.309 1117.43 743.582 1118.7 743.106 1121.03Z" fill="white"/>
    <path fill-rule="evenodd" clip-rule="evenodd" d="M745.152 1180.21C743.641 1185.11 753.732 1199.91 759.467 1203.95C779.993 1218.4 787.682 1210.51 798.897 1218.11C802.584 1220.61 806.059 1229.32 806.865 1230.59C807.108 1230.97 808.963 1230.07 809.159 1228.75C809.454 1226.75 808.737 1225.42 808.499 1224.63C808.443 1224.44 808.371 1224.3 808.699 1224.4C809.346 1224.6 809.396 1224.75 811.734 1225.64C813.305 1226.24 815.093 1224.61 814.996 1224.16C814.9 1223.7 805.423 1219.53 800.363 1215.12C789.693 1205.82 782.778 1196.81 769.834 1188.03C761.251 1182.21 745.776 1178.18 745.152 1180.21Z" fill="white"/>
    <path fill-rule="evenodd" clip-rule="evenodd" d="M913.003 1266.04C913.638 1273.44 931.766 1286.22 940.01 1287.76C969.518 1293.26 974.308 1277.9 990.295 1280.53C995.55 1281.39 1003.49 1290.51 1004.98 1291.64C1005.43 1291.98 1007.06 1289.6 1006.65 1287.73C1006.04 1284.94 1001.72 1282.82 1001.08 1281.93C1000.93 1281.73 1000.79 1281.59 1001.2 1281.51C1002.01 1281.35 1005.03 1282.36 1008.04 1281.99C1010.06 1281.75 1011.27 1278.44 1010.95 1277.92C1010.63 1277.39 998.18 1278.12 990.508 1275.65C974.328 1270.46 962.437 1263.18 943.988 1260.15C931.754 1258.14 912.74 1262.99 913.003 1266.04Z" fill="#FDFDFD"/>
    <path fill-rule="evenodd" clip-rule="evenodd" d="M838.016 1225.39C839.198 1231.06 851.611 1238.57 856.795 1238.67C875.352 1239.01 876.617 1226.44 886.632 1226.35C889.925 1226.32 895.742 1232.36 896.77 1233.04C897.079 1233.24 897.815 1231.17 897.366 1229.78C896.693 1227.68 890.557 1225.86 890.073 1225.26C889.96 1225.12 889.858 1225.04 890.098 1224.92C890.573 1224.68 895.802 1225.81 897.592 1225.13C898.796 1224.67 899.178 1221.94 898.927 1221.57C898.674 1221.2 891.174 1223.43 886.237 1222.53C875.826 1220.65 867.804 1216.58 856.246 1216.68C848.58 1216.75 837.527 1223.05 838.016 1225.39Z" fill="white"/>
    <path fill-rule="evenodd" clip-rule="evenodd" d="M946.029 1156.82C947.881 1161.57 964.937 1167 971.923 1166.66C996.928 1165.46 998.058 1154.6 1011.54 1153.71C1015.97 1153.42 1024.08 1158.11 1025.5 1158.61C1025.92 1158.76 1026.82 1156.93 1026.15 1155.78C1025.15 1154.04 1023.76 1153.43 1023.08 1152.96C1022.93 1152.84 1022.78 1152.78 1023.1 1152.66C1023.73 1152.42 1023.87 1152.51 1026.24 1151.78C1027.84 1151.29 1028.23 1148.92 1027.88 1148.63C1027.52 1148.33 1017.52 1150.84 1010.83 1150.48C996.731 1149.71 985.742 1146.87 970.182 1147.9C959.863 1148.57 945.264 1154.86 946.029 1156.82Z" fill="white"/>
    <path fill-rule="evenodd" clip-rule="evenodd" d="M929.08 1216.63C933.424 1226.11 968.623 1235.06 982.717 1233.5C1033.17 1227.92 1034.09 1205.62 1061.26 1202.12C1070.2 1200.98 1087.19 1209.54 1090.12 1210.39C1091 1210.64 1092.59 1206.79 1091.09 1204.51C1088.84 1201.09 1085.96 1200.03 1084.53 1199.14C1084.2 1198.93 1083.9 1198.82 1084.53 1198.53C1085.77 1197.96 1086.05 1198.13 1090.78 1196.34C1093.95 1195.15 1094.44 1190.27 1093.69 1189.71C1092.93 1189.15 1073.01 1195.52 1059.43 1195.61C1030.79 1195.8 1008.2 1191.38 976.837 1195.41C956.04 1198.08 927.285 1212.72 929.08 1216.63Z" fill="white"/>
    <path fill-rule="evenodd" clip-rule="evenodd" d="M1087.08 1259.57C1090.71 1267.97 1116.99 1275.9 1127.26 1274.52C1164.06 1269.57 1163.68 1249.81 1183.48 1246.71C1189.98 1245.69 1202.87 1253.29 1205.06 1254.03C1205.72 1254.26 1206.7 1250.85 1205.5 1248.83C1203.68 1245.79 1197.79 1244.99 1196.69 1244.2C1196.44 1244.01 1196.22 1243.92 1196.66 1243.66C1197.55 1243.16 1201.49 1243.17 1204.88 1241.59C1207.16 1240.52 1207.29 1236.2 1206.71 1235.71C1206.13 1235.21 1191.79 1240.86 1181.82 1240.94C1160.8 1241.1 1144 1237.19 1121.16 1240.76C1106.01 1243.13 1085.58 1256.11 1087.08 1259.57Z" fill="white"/>
    <path fill-rule="evenodd" clip-rule="evenodd" d="M1011 1253.63C1011.66 1260.6 1025.95 1271.4 1032.36 1272.26C1055.28 1275.33 1058.64 1260.42 1071.05 1261.75C1075.13 1262.19 1081.47 1270.26 1082.65 1271.23C1083 1271.52 1084.21 1269.14 1083.85 1267.4C1083.32 1264.79 1075.98 1261.73 1075.47 1260.93C1075.35 1260.75 1075.23 1260.63 1075.55 1260.52C1076.17 1260.31 1082.48 1262.42 1084.8 1261.85C1086.35 1261.48 1087.21 1258.26 1086.95 1257.78C1086.7 1257.3 1077.09 1258.89 1071.11 1257.11C1058.49 1253.36 1049.14 1247.32 1034.82 1245.79C1025.32 1244.78 1010.73 1250.75 1011 1253.63Z" fill="white"/>
    <path fill-rule="evenodd" clip-rule="evenodd" d="M1295.2 1080.68C1302.52 1080.75 1316.75 1064.35 1319.04 1056.49C1327.21 1028.37 1312.59 1022.27 1316.67 1007C1318.01 1001.98 1327.71 995.128 1328.96 993.789C1329.33 993.385 1327.15 991.58 1325.28 991.8C1322.48 992.13 1319.99 996.125 1319.06 996.661C1318.85 996.787 1318.71 996.915 1318.66 996.51C1318.58 995.708 1319.85 992.866 1319.78 989.915C1319.73 987.932 1316.6 986.445 1316.05 986.706C1315.5 986.968 1315.05 999.121 1311.91 1006.34C1305.29 1021.56 1297.03 1032.42 1292.33 1050.04C1289.21 1061.73 1292.17 1080.64 1295.2 1080.68Z" fill="white"/>
    <path fill-rule="evenodd" clip-rule="evenodd" d="M1184.17 1199.15C1188.02 1205.1 1205.72 1208.16 1211.78 1205.97C1233.48 1198.1 1229.45 1183.18 1241.04 1178.62C1244.85 1177.12 1254.25 1181.43 1255.74 1181.75C1256.18 1181.84 1256.14 1179.15 1255 1177.76C1253.31 1175.66 1245.39 1176.32 1244.56 1175.84C1244.37 1175.73 1244.21 1175.68 1244.44 1175.44C1244.89 1174.96 1251.45 1173.92 1253.24 1172.35C1254.43 1171.29 1253.68 1168 1253.23 1167.69C1252.78 1167.38 1245.04 1173.26 1238.92 1174.43C1226 1176.91 1214.91 1175.83 1201.53 1181.09C1192.66 1184.58 1182.58 1196.69 1184.17 1199.15Z" fill="white"/>
    <path fill-rule="evenodd" clip-rule="evenodd" d="M1273.36 1138C1278.87 1141.09 1299.26 1132.85 1305.59 1127.02C1328.25 1106.17 1320.74 1094.89 1332.77 1083.41C1336.72 1079.64 1348.09 1077.74 1349.82 1077.11C1350.34 1076.91 1349.74 1074.46 1348.19 1073.87C1345.87 1073 1344.09 1073.52 1343.07 1073.59C1342.83 1073.61 1342.65 1073.66 1342.85 1073.3C1343.26 1072.57 1343.45 1072.55 1345.12 1069.98C1346.24 1068.25 1344.75 1065.68 1344.18 1065.68C1343.61 1065.68 1336.15 1075.95 1329.54 1080.88C1315.62 1091.25 1303 1097.2 1289.12 1110.44C1279.91 1119.21 1271.09 1136.73 1273.36 1138Z" fill="white"/>
    <path fill-rule="evenodd" clip-rule="evenodd" d="M1268.07 867.672C1260.22 867.988 1244.42 850.876 1241.71 842.533C1232.04 812.669 1247.52 805.683 1242.66 789.457C1241.06 784.123 1230.43 777.091 1229.05 775.697C1228.63 775.278 1230.92 773.274 1232.93 773.451C1235.95 773.715 1238.74 777.914 1239.76 778.458C1239.99 778.586 1240.15 778.72 1240.18 778.284C1240.25 777.423 1238.79 774.42 1238.78 771.257C1238.76 769.132 1242.07 767.441 1242.67 767.703C1243.27 767.964 1244.15 780.965 1247.75 788.594C1255.34 804.684 1264.55 816.052 1270.16 834.777C1273.89 847.196 1271.31 867.542 1268.07 867.672Z" fill="white"/>
    <path fill-rule="evenodd" clip-rule="evenodd" d="M1248.12 1059.52C1257.17 1061.46 1278.96 1044.59 1283.77 1035.38C1301 1002.38 1284.43 991.13 1293.35 973.125C1296.28 967.207 1310.03 961.099 1311.91 959.744C1312.48 959.337 1310.23 956.539 1307.86 956.345C1304.3 956.054 1300.21 960.408 1298.93 960.843C1298.62 960.944 1298.42 961.07 1298.46 960.552C1298.56 959.533 1300.86 956.311 1301.51 952.617C1301.95 950.133 1298.45 947.498 1297.71 947.686C1296.96 947.873 1293.32 962.899 1287.61 971.104C1275.56 988.404 1262.59 999.865 1252.3 1020.64C1245.48 1034.42 1244.38 1058.73 1248.12 1059.52Z" fill="white"/>
    <path fill-rule="evenodd" clip-rule="evenodd" d="M1338.37 980.657C1331.41 979.201 1322.15 963.761 1322.01 957.304C1321.53 934.188 1336.96 932.574 1337.03 920.097C1337.06 915.995 1329.63 908.768 1328.8 907.489C1328.54 907.104 1331.08 906.181 1332.8 906.736C1335.37 907.568 1337.62 915.206 1338.36 915.807C1338.54 915.948 1338.64 916.076 1338.78 915.775C1339.07 915.183 1337.67 908.672 1338.5 906.44C1339.06 904.939 1342.41 904.454 1342.86 904.766C1343.31 905.08 1340.61 914.431 1341.72 920.577C1344.07 933.54 1349.09 943.521 1349 957.92C1348.94 967.469 1341.25 981.259 1338.37 980.657Z" fill="white"/>
    <path fill-rule="evenodd" clip-rule="evenodd" d="M1276.14 965.674C1271.99 965.144 1264.29 952.435 1263.18 946.708C1259.2 926.211 1267.64 923.083 1265.69 911.983C1265.04 908.334 1259.7 902.724 1259.02 901.678C1258.82 901.365 1260.1 900.265 1261.16 900.57C1262.74 901.027 1263.5 902.026 1264.01 902.479C1264.13 902.585 1264.21 902.687 1264.24 902.404C1264.31 901.846 1264.21 901.756 1264.33 899.681C1264.4 898.286 1266.21 897.488 1266.52 897.715C1266.82 897.943 1266.79 906.554 1268.41 911.895C1271.81 923.162 1276.24 931.484 1278.49 944.294C1279.99 952.79 1277.86 965.893 1276.14 965.674Z" fill="white"/>
    <path fill-rule="evenodd" clip-rule="evenodd" d="M1154.06 1428.28C1156.45 1431.94 1171.79 1433.61 1177.63 1432.15C1198.54 1426.94 1197.62 1417.68 1208.85 1414.68C1212.55 1413.69 1220.21 1416.24 1221.49 1416.42C1221.87 1416.48 1222.32 1414.8 1221.55 1413.94C1220.4 1412.66 1219.13 1412.39 1218.48 1412.1C1218.32 1412.04 1218.19 1412.01 1218.44 1411.85C1218.93 1411.55 1219.06 1411.6 1220.94 1410.59C1222.21 1409.91 1222.13 1407.87 1221.78 1407.68C1221.42 1407.5 1213.41 1411.27 1207.7 1412.09C1195.66 1413.82 1185.89 1413.3 1172.92 1416.77C1164.32 1419.07 1153.08 1426.77 1154.06 1428.28Z" fill="white"/>
    <path fill-rule="evenodd" clip-rule="evenodd" d="M1176.71 635.309C1172.39 638.647 1156.47 635.273 1151.54 631.616C1133.9 618.523 1139.82 608.322 1130.46 601.053C1127.38 598.662 1118.49 598.938 1117.14 598.702C1116.74 598.631 1117.21 596.572 1118.43 595.863C1120.24 594.799 1123.54 596.064 1124.33 595.966C1124.52 595.942 1124.66 595.956 1124.5 595.695C1124.19 595.179 1122.14 594.057 1120.84 592.265C1119.97 591.061 1121.15 588.769 1121.6 588.677C1122.04 588.586 1127.84 595.625 1132.99 598.516C1143.84 604.611 1153.69 607.371 1164.5 615.761C1171.67 621.325 1178.5 633.93 1176.71 635.309Z" fill="white"/>
    <path fill-rule="evenodd" clip-rule="evenodd" d="M1222.1 1390.7C1224.12 1393.43 1232.69 1394.37 1235.53 1393.15C1245.7 1388.77 1243.34 1381.76 1248.76 1379.25C1250.54 1378.42 1255.17 1380.2 1255.89 1380.31C1256.11 1380.35 1256.01 1379.06 1255.43 1378.43C1254.55 1377.48 1250.77 1378.02 1250.37 1377.82C1250.27 1377.77 1250.19 1377.76 1250.3 1377.63C1250.5 1377.39 1253.61 1376.71 1254.42 1375.9C1254.96 1375.36 1254.51 1373.81 1254.28 1373.68C1254.06 1373.55 1250.52 1376.58 1247.62 1377.32C1241.5 1378.87 1236.15 1378.68 1229.9 1381.58C1225.75 1383.5 1221.27 1389.58 1222.1 1390.7Z" fill="white"/>
    <path fill-rule="evenodd" clip-rule="evenodd" d="M1125.9 622.221C1123.56 623.868 1112.37 620.703 1108.49 618.185C1094.58 609.167 1096.89 603.597 1089.46 598.622C1087.02 596.985 1081.12 596.491 1080.18 596.252C1079.9 596.18 1079.89 595.003 1080.58 594.675C1081.63 594.182 1082.58 594.361 1083.09 594.362C1083.21 594.363 1083.31 594.381 1083.17 594.214C1082.87 593.887 1082.77 593.885 1081.62 592.734C1080.84 591.96 1081.26 590.697 1081.54 590.676C1081.83 590.656 1086.84 595.231 1090.74 597.314C1098.98 601.707 1106.01 604.061 1114.58 609.803C1120.27 613.611 1126.87 621.542 1125.9 622.221Z" fill="white"/>
    <path fill-rule="evenodd" clip-rule="evenodd" d="M1370.72 726.647C1367.85 727.204 1358.77 719.758 1356.21 715.869C1347.05 701.947 1351.53 697.773 1346.7 690.189C1345.11 687.696 1339.84 684.849 1339.06 684.247C1338.83 684.067 1339.31 682.981 1340.09 682.963C1341.27 682.934 1342.08 683.485 1342.56 683.696C1342.67 683.745 1342.76 683.801 1342.69 683.589C1342.55 683.17 1342.46 683.127 1341.87 681.601C1341.47 680.575 1342.39 679.588 1342.66 679.683C1342.93 679.779 1345.68 686.012 1348.44 689.51C1354.27 696.887 1359.82 701.9 1365.4 710.653C1369.09 716.458 1371.91 726.416 1370.72 726.647Z" fill="white"/>
    <path fill-rule="evenodd" clip-rule="evenodd" d="M933.994 573.477C933.21 578.883 919.435 587.477 913.357 588.247C891.599 591.005 888.771 579.526 876.999 580.76C873.13 581.166 866.942 587.52 865.807 588.285C865.466 588.516 864.381 586.697 864.759 585.344C865.326 583.314 868.567 581.948 869.071 581.326C869.188 581.179 869.3 581.09 869.005 581.011C868.422 580.855 866.172 581.464 863.996 581.067C862.534 580.8 861.794 578.323 862.05 577.948C862.306 577.575 871.353 578.649 877.055 577.172C889.081 574.058 898.068 569.231 911.653 567.808C920.663 566.863 934.318 571.243 933.994 573.477Z" fill="white"/>
    <path fill-rule="evenodd" clip-rule="evenodd" d="M718.582 607.026C720.375 610.522 716.009 621.392 712.828 624.42C701.442 635.262 695.046 629.743 688.779 635.457C686.718 637.337 685.793 643.679 685.457 644.608C685.356 644.888 683.975 644.283 683.631 643.331C683.115 641.903 684.415 639.729 684.447 639.151C684.453 639.015 684.481 638.915 684.278 638.995C683.877 639.151 682.835 640.461 681.416 641.152C680.463 641.616 679.008 640.479 679 640.152C678.993 639.824 684.649 636.617 687.321 633.334C692.954 626.412 696.127 619.776 703.361 613.182C708.158 608.808 717.842 605.582 718.582 607.026Z" fill="#FDFDFD"/>
    <mask id="mask0" mask-type="alpha" maskUnits="userSpaceOnUse" x="825" y="554" width="37" height="15">
      <path fill-rule="evenodd" clip-rule="evenodd" d="M825.617 554H861.847V568.604H825.617V554Z" fill="white"/>
    </mask>
    <g mask="url(#mask0)">
      <path fill-rule="evenodd" clip-rule="evenodd" d="M861.847 555.663C861.864 558.501 855.523 563.99 852.492 564.86C841.647 567.974 839.329 562.297 833.442 563.85C831.506 564.36 828.849 568.105 828.331 568.588C828.175 568.732 827.485 567.883 827.572 567.158C827.706 566.072 829.248 565.117 829.455 564.758C829.505 564.674 829.554 564.619 829.398 564.602C829.089 564.567 827.993 565.055 826.857 565.021C826.093 564.997 825.528 563.783 825.628 563.57C825.73 563.358 830.411 563.205 833.194 562.002C839.067 559.463 843.264 556.284 850.059 554.493C854.564 553.305 861.841 554.491 861.847 555.663Z" fill="white"/>
    </g>
    <path fill-rule="evenodd" clip-rule="evenodd" d="M1335.26 707.576C1331.45 708.571 1321.83 701.943 1319.59 698.175C1311.57 684.688 1318.39 679.629 1314.22 672.26C1312.85 669.837 1306.87 667.556 1306.04 667.027C1305.79 666.867 1306.69 665.647 1307.7 665.518C1309.21 665.323 1311.03 667.065 1311.59 667.222C1311.72 667.259 1311.81 667.307 1311.78 667.091C1311.72 666.665 1310.67 665.361 1310.32 663.824C1310.08 662.791 1311.52 661.615 1311.84 661.679C1312.16 661.742 1314.02 667.97 1316.62 671.295C1322.11 678.306 1327.86 682.848 1332.67 691.353C1335.86 696.993 1336.83 707.165 1335.26 707.576Z" fill="#FDFDFD"/>
    <path fill-rule="evenodd" clip-rule="evenodd" d="M675 1393.4C675.162 1396.24 684.706 1402.93 689.151 1404.37C705.064 1409.53 708.05 1404.28 716.679 1406.94C719.516 1407.82 723.61 1412.07 724.391 1412.65C724.626 1412.82 725.572 1412.1 725.397 1411.36C725.134 1410.25 724.393 1409.62 724.068 1409.22C723.992 1409.13 723.916 1409.07 724.141 1409.08C724.586 1409.1 724.651 1409.18 726.293 1409.36C727.398 1409.48 728.138 1408.37 727.978 1408.14C727.817 1407.91 721.028 1406.87 716.916 1405.14C708.244 1401.5 701.958 1397.52 691.999 1394.45C685.394 1392.41 674.934 1392.23 675 1393.4Z" fill="white"/>
    <mask id="mask1" mask-type="alpha" maskUnits="userSpaceOnUse" x="749" y="1450" width="53" height="17">
      <path fill-rule="evenodd" clip-rule="evenodd" d="M749.934 1450.06H801.745V1466.68H749.934V1450.06Z" fill="white"/>
    </mask>
    <g mask="url(#mask1)">
      <path fill-rule="evenodd" clip-rule="evenodd" d="M749.935 1453.58C750.313 1457.51 759.958 1464.19 764.319 1464.97C779.929 1467.72 782.371 1459.53 790.826 1460.84C793.605 1461.26 797.851 1466.07 798.643 1466.66C798.882 1466.84 799.729 1465.56 799.503 1464.57C799.164 1463.09 796.872 1461.99 796.531 1461.52C796.45 1461.41 796.373 1461.35 796.589 1461.3C797.015 1461.21 798.618 1461.72 800.203 1461.51C801.267 1461.37 801.888 1459.61 801.716 1459.33C801.545 1459.05 794.976 1459.51 790.911 1458.24C782.339 1455.58 776.019 1451.78 766.262 1450.27C759.79 1449.28 749.78 1451.96 749.935 1453.58Z" fill="white"/>
    </g>
    <path fill-rule="evenodd" clip-rule="evenodd" d="M1059.96 579.615C1058.35 583.518 1048.35 587.234 1044.58 586.607C1031.06 584.358 1031.79 575.179 1024.54 573.768C1022.15 573.305 1017.13 576.847 1016.3 577.196C1016.05 577.302 1015.78 575.72 1016.29 574.78C1017.06 573.369 1021.75 572.891 1022.18 572.524C1022.28 572.437 1022.37 572.392 1022.21 572.274C1021.89 572.041 1017.95 572.148 1016.74 571.418C1015.93 570.927 1016.01 568.92 1016.24 568.691C1016.47 568.46 1021.62 571.062 1025.33 571.086C1033.13 571.135 1039.49 569.296 1047.87 570.924C1053.42 572.003 1060.62 578.002 1059.96 579.615Z" fill="white"/>
    <path fill-rule="evenodd" clip-rule="evenodd" d="M1409.07 795.623C1404.96 796.323 1396.58 789.965 1395.11 786.506C1389.85 774.125 1397.9 769.959 1395.24 763.205C1394.36 760.983 1388.76 758.666 1388.03 758.155C1387.81 758.001 1388.99 756.961 1390.04 756.895C1391.62 756.793 1394.5 760.437 1395.03 760.603C1395.16 760.642 1395.24 760.689 1395.26 760.497C1395.28 760.114 1393.11 756.898 1393.08 755.515C1393.06 754.586 1394.78 753.608 1395.09 753.68C1395.41 753.752 1395.96 759.381 1397.89 762.462C1401.97 768.961 1406.87 773.278 1409.93 781.073C1411.97 786.243 1410.76 795.333 1409.07 795.623Z" fill="white"/>
    <path fill-rule="evenodd" clip-rule="evenodd" d="M1002.99 580.008C1002.17 583.296 990.453 588.647 985.377 589.175C967.205 591.062 965.212 584.123 955.389 584.986C952.159 585.271 946.818 589.188 945.851 589.664C945.56 589.806 944.715 588.712 945.07 587.888C945.605 586.651 946.54 586.109 946.977 585.727C947.08 585.637 947.176 585.582 946.933 585.536C946.453 585.447 946.367 585.52 944.57 585.299C943.364 585.153 942.826 583.655 943.05 583.426C943.275 583.196 950.762 583.76 955.548 582.808C965.641 580.8 973.262 577.782 984.599 576.785C992.116 576.123 1003.33 578.649 1002.99 580.008Z" fill="white"/>
    <path fill-rule="evenodd" clip-rule="evenodd" d="M1356.84 1054.6C1351.16 1051.7 1346.84 1033.15 1348.28 1026.11C1353.42 1000.89 1367.18 1002.07 1370.25 988.52C1371.25 984.067 1366.56 974.799 1366.14 973.251C1366.01 972.784 1368.43 972.262 1369.79 973.192C1371.82 974.586 1372.11 978.702 1372.61 979.495C1372.72 979.682 1372.78 979.839 1372.98 979.541C1373.37 978.952 1373.54 976.222 1374.8 973.953C1375.65 972.429 1378.67 972.539 1378.98 972.965C1379.3 973.391 1374.71 983.04 1374.19 989.933C1373.11 1004.47 1375.06 1016.27 1371.52 1031.91C1369.18 1042.27 1359.19 1055.8 1356.84 1054.6Z" fill="#FDFDFD"/>
    <path fill-rule="evenodd" clip-rule="evenodd" d="M1416.05 1208.52C1412.12 1205.5 1411.01 1193.04 1412.89 1188.95C1419.63 1174.34 1429.81 1177.99 1433.66 1170.2C1434.93 1167.64 1432.47 1160.87 1432.33 1159.82C1432.29 1159.5 1434.17 1159.69 1435.07 1160.56C1436.44 1161.86 1435.52 1167.32 1435.81 1167.92C1435.87 1168.06 1435.9 1168.17 1436.08 1168.03C1436.44 1167.74 1437.54 1163.24 1438.75 1162.1C1439.55 1161.33 1441.81 1162.04 1441.99 1162.37C1442.18 1162.7 1437.63 1167.74 1436.46 1171.92C1433.98 1180.74 1434.1 1188.51 1429.65 1197.5C1426.71 1203.46 1417.67 1209.76 1416.05 1208.52Z" fill="white"/>
    <path fill-rule="evenodd" clip-rule="evenodd" d="M1374.37 1155.6C1370.8 1152.96 1370.15 1137.52 1372.03 1131.79C1378.77 1111.27 1388.15 1112.83 1391.98 1101.82C1393.24 1098.2 1391.16 1090.37 1391.06 1089.08C1391.03 1088.69 1392.78 1088.37 1393.6 1089.19C1394.83 1090.42 1395.02 1091.72 1395.26 1092.39C1395.32 1092.55 1395.34 1092.68 1395.52 1092.44C1395.86 1091.97 1395.82 1091.84 1396.97 1090.03C1397.75 1088.81 1399.83 1089.03 1400 1089.4C1400.16 1089.76 1395.76 1097.5 1394.54 1103.15C1391.95 1115.06 1391.82 1124.86 1387.4 1137.56C1384.46 1145.99 1375.84 1156.69 1374.37 1155.6Z" fill="white"/>
    <path fill-rule="evenodd" clip-rule="evenodd" d="M670.892 804.742C675.059 807.377 677.053 824.483 675.444 831.01C669.682 854.376 659.176 853.414 655.846 865.969C654.751 870.096 657.702 878.622 657.914 880.049C657.978 880.479 656.078 880.983 655.102 880.138C653.64 878.868 653.322 877.447 652.995 876.718C652.918 876.547 652.886 876.402 652.712 876.679C652.367 877.229 652.427 877.37 651.296 879.48C650.536 880.897 648.222 880.823 648.008 880.433C647.794 880.042 652.021 871.076 652.91 864.699C654.784 851.247 654.126 840.351 657.969 825.863C660.518 816.254 669.172 803.654 670.892 804.742Z" fill="white"/>
    <path fill-rule="evenodd" clip-rule="evenodd" d="M782.496 749.092C786.633 754.857 781.45 775.331 776.439 781.54C758.504 803.765 745.504 795.582 735.567 807.365C732.3 811.238 732.219 822.767 731.845 824.507C731.732 825.032 729.073 824.31 728.208 822.703C726.912 820.294 728.723 816.089 728.635 815.052C728.614 814.809 728.638 814.624 728.29 814.818C727.601 815.198 726.038 817.799 723.639 819.392C722.026 820.463 719.098 818.814 719.001 818.233C718.903 817.65 728.364 810.487 732.385 803.958C740.865 790.187 744.949 777.56 756.418 763.961C764.022 754.943 780.788 746.711 782.496 749.092Z" fill="white"/>
    <path fill-rule="evenodd" clip-rule="evenodd" d="M799.605 680.77C801.601 685.821 795.59 698.218 791.501 701.017C776.866 711.039 769.336 701.879 761.294 707.072C758.651 708.779 757.136 716.552 756.669 717.624C756.528 717.948 754.867 716.717 754.501 715.389C753.952 713.399 757.907 708.753 757.98 708.027C757.997 707.857 758.037 707.739 757.783 707.772C757.281 707.837 753.692 711.468 751.909 711.875C750.71 712.15 748.991 710.218 749 709.798C749.009 709.378 756.152 707.173 759.629 703.881C766.962 696.937 771.254 689.539 780.534 683.546C786.689 679.57 798.78 678.683 799.605 680.77Z" fill="white"/>
    <path fill-rule="evenodd" clip-rule="evenodd" d="M655.988 893.776C652.181 896.88 652.308 913.958 654.708 920.184C663.297 942.469 673.596 940.232 678.443 952.176C680.037 956.102 678.16 964.856 678.126 966.287C678.115 966.718 680.062 966.981 680.925 966.027C682.219 964.598 682.359 963.161 682.593 962.404C682.649 962.227 682.663 962.079 682.87 962.331C683.279 962.829 683.238 962.976 684.618 964.912C685.545 966.214 687.833 965.857 687.996 965.446C688.16 965.035 682.866 956.732 681.2 950.565C677.685 937.559 676.997 926.756 671.403 912.971C667.693 903.829 657.561 892.494 655.988 893.776Z" fill="#FDFDFD"/>
    <path fill-rule="evenodd" clip-rule="evenodd" d="M574.854 778.83C581.319 783.259 583.657 806.47 580.796 814.803C570.558 844.631 553.98 841.026 548.108 857.001C546.177 862.252 550.439 874.255 550.705 876.202C550.786 876.789 547.755 877.04 546.252 875.697C543.998 873.683 544.293 868.635 543.81 867.593C543.696 867.347 543.652 867.147 543.364 867.478C542.793 868.132 542.15 871.422 540.261 873.978C538.99 875.698 535.33 875.087 535.01 874.52C534.69 873.953 541.808 862.954 543.521 854.661C547.134 837.171 546.614 822.521 553.391 804.085C557.885 791.859 572.183 777.001 574.854 778.83Z" fill="white"/>
    <path fill-rule="evenodd" clip-rule="evenodd" d="M601.347 824.89C605.473 828.454 605.924 842.256 603.603 846.638C595.298 862.327 584.347 857.676 579.637 866.018C578.09 868.76 580.371 876.369 580.457 877.539C580.482 877.891 578.436 877.568 577.492 876.557C576.076 875.042 577.417 869.081 577.143 868.402C577.079 868.243 577.06 868.121 576.85 868.267C576.435 868.558 574.945 873.447 573.554 874.636C572.619 875.435 570.193 874.515 570.005 874.138C569.818 873.76 575.124 868.491 576.672 863.955C579.937 854.385 580.294 845.822 585.729 836.195C589.334 829.81 599.643 823.418 601.347 824.89Z" fill="white"/>
    <path fill-rule="evenodd" clip-rule="evenodd" d="M675.425 988.761C670.652 991.972 668.775 1012.16 670.817 1019.8C678.121 1047.16 690.308 1045.75 694.505 1060.44C695.885 1065.27 692.675 1075.38 692.466 1077.07C692.403 1077.58 694.625 1078.12 695.736 1077.1C697.404 1075.57 697.736 1073.88 698.098 1073.02C698.183 1072.81 698.217 1072.64 698.427 1072.96C698.841 1073.6 698.775 1073.77 700.144 1076.22C701.064 1077.87 703.754 1077.72 703.992 1077.26C704.23 1076.79 699.084 1066.35 697.885 1058.86C695.358 1043.08 695.84 1030.24 690.996 1013.28C687.784 1002.04 677.397 987.434 675.425 988.761Z" fill="white"/>
    <path fill-rule="evenodd" clip-rule="evenodd" d="M776.023 1266.61C777.971 1274.88 800.265 1286.28 809.685 1286.62C843.406 1287.84 846.154 1269.64 864.363 1269.9C870.348 1269.99 880.707 1278.97 882.55 1280C883.106 1280.31 884.517 1277.33 883.752 1275.29C882.602 1272.22 877.447 1270.56 876.59 1269.67C876.389 1269.45 876.205 1269.33 876.647 1269.17C877.519 1268.84 881.051 1269.47 884.33 1268.55C886.533 1267.93 887.325 1263.99 886.882 1263.44C886.437 1262.9 872.722 1265.83 863.781 1264.34C844.924 1261.2 830.488 1254.98 809.474 1254.68C795.538 1254.48 775.219 1263.19 776.023 1266.61Z" fill="white"/>
    <path fill-rule="evenodd" clip-rule="evenodd" d="M817.034 1401.52C819.156 1406.99 838.356 1413.11 846.197 1412.65C874.26 1411.03 875.432 1398.48 890.562 1397.34C895.536 1396.96 904.682 1402.3 906.274 1402.87C906.754 1403.04 907.745 1400.92 906.985 1399.58C905.844 1397.59 904.284 1396.9 903.517 1396.35C903.337 1396.23 903.177 1396.16 903.534 1396.01C904.238 1395.73 904.388 1395.83 907.053 1394.97C908.844 1394.39 909.262 1391.65 908.859 1391.32C908.457 1390.98 897.253 1393.97 889.74 1393.61C873.897 1392.85 861.534 1389.67 844.072 1391C832.493 1391.87 816.158 1399.26 817.034 1401.52Z" fill="#FDFDFD"/>
    <path fill-rule="evenodd" clip-rule="evenodd" d="M1035.1 1162.2C1039.6 1171.88 1070.43 1180.33 1082.35 1178.4C1125.02 1171.51 1123.97 1148.46 1146.92 1144.25C1154.46 1142.87 1169.7 1151.33 1172.27 1152.13C1173.04 1152.37 1174.08 1148.37 1172.61 1146.05C1170.41 1142.56 1163.52 1141.8 1162.22 1140.92C1161.92 1140.71 1161.66 1140.6 1162.17 1140.29C1163.19 1139.68 1167.78 1139.57 1171.67 1137.62C1174.29 1136.31 1174.31 1131.27 1173.61 1130.71C1172.92 1130.15 1156.41 1137.17 1144.81 1137.57C1120.34 1138.4 1100.67 1134.35 1074.19 1139.21C1056.63 1142.43 1033.25 1158.2 1035.1 1162.2Z" fill="white"/>
    <path fill-rule="evenodd" clip-rule="evenodd" d="M710.887 1054.44C706.25 1061.29 710.996 1081.73 716.105 1087.25C734.393 1107.03 748.583 1095.92 758.736 1106.32C762.074 1109.74 761.717 1121.81 762.049 1123.56C762.149 1124.08 765.015 1122.81 766 1120.96C767.476 1118.18 763.181 1109.95 763.316 1108.85C763.346 1108.59 763.328 1108.4 763.693 1108.53C764.413 1108.8 768.505 1115.39 771.005 1116.59C772.685 1117.4 775.872 1115.1 775.999 1114.47C776.125 1113.84 766.303 1108.19 762.263 1102.13C753.741 1089.36 749.866 1076.93 738.15 1064.92C730.38 1056.96 712.801 1051.61 710.887 1054.44Z" fill="white"/>
    <path fill-rule="evenodd" clip-rule="evenodd" d="M784.005 1180.48C785.089 1191.22 811.592 1209.38 823.548 1211.43C866.345 1218.76 872.931 1196.35 896.108 1199.81C903.728 1200.94 915.416 1214.02 917.595 1215.63C918.25 1216.12 920.554 1212.62 919.924 1209.92C918.977 1205.86 912.684 1202.88 911.742 1201.61C911.521 1201.31 911.307 1201.12 911.898 1200.99C913.066 1200.74 917.464 1202.13 921.801 1201.54C924.717 1201.14 926.395 1196.31 925.92 1195.55C925.446 1194.79 907.458 1196.13 896.308 1192.72C872.792 1185.53 855.433 1175.22 828.685 1171.23C810.946 1168.58 783.558 1176.05 784.005 1180.48Z" fill="white"/>
    <path fill-rule="evenodd" clip-rule="evenodd" d="M1200.4 1143.66C1206.53 1148.47 1229.28 1143.82 1236.35 1138.66C1261.67 1120.15 1253.33 1105.53 1266.77 1095.25C1271.19 1091.87 1283.86 1092.36 1285.79 1092.04C1286.37 1091.94 1285.72 1088.99 1283.99 1087.97C1281.41 1086.43 1276.7 1088.2 1275.57 1088.05C1275.3 1088.02 1275.1 1088.04 1275.32 1087.66C1275.78 1086.93 1278.71 1085.35 1280.58 1082.81C1281.84 1081.1 1280.18 1077.81 1279.54 1077.68C1278.91 1077.54 1270.56 1087.53 1263.19 1091.6C1247.64 1100.19 1233.56 1104.02 1218.04 1115.88C1207.75 1123.75 1197.87 1141.67 1200.4 1143.66Z" fill="white"/>
    <path fill-rule="evenodd" clip-rule="evenodd" d="M1140.03 1164.48C1141.58 1167.92 1154.17 1171.18 1159.21 1170.61C1177.25 1168.58 1177.58 1160.47 1187.29 1159.2C1190.49 1158.79 1196.57 1161.9 1197.61 1162.21C1197.93 1162.3 1198.49 1160.9 1197.96 1160.07C1197.16 1158.83 1196.13 1158.44 1195.61 1158.12C1195.49 1158.04 1195.39 1158 1195.61 1157.9C1196.06 1157.69 1196.16 1157.75 1197.85 1157.1C1198.98 1156.67 1199.16 1154.89 1198.89 1154.69C1198.62 1154.49 1191.49 1156.8 1186.64 1156.83C1176.4 1156.9 1168.32 1155.3 1157.11 1156.76C1149.67 1157.73 1139.39 1163.06 1140.03 1164.48Z" fill="white"/>
    <path fill-rule="evenodd" clip-rule="evenodd" d="M1082.24 1064.28C1087.2 1069.42 1108.53 1068.13 1115.64 1064.36C1141.1 1050.85 1135.41 1036.54 1148.99 1028.95C1153.45 1026.46 1164.93 1028.53 1166.73 1028.48C1167.27 1028.47 1167.05 1025.72 1165.62 1024.57C1163.46 1022.85 1158.94 1023.85 1157.93 1023.57C1157.69 1023.5 1157.5 1023.49 1157.76 1023.18C1158.27 1022.58 1161.15 1021.52 1163.18 1019.46C1164.55 1018.07 1163.46 1014.88 1162.9 1014.68C1162.34 1014.48 1153.44 1022.45 1146.2 1025.19C1130.91 1030.97 1117.59 1032.64 1101.92 1041.39C1091.53 1047.19 1080.19 1062.15 1082.24 1064.28Z" fill="#FDFDFD"/>
    <path fill-rule="evenodd" clip-rule="evenodd" d="M1389.72 953.676C1378.98 953.384 1359.01 928.37 1356.11 916.638C1345.7 874.639 1367.47 866.455 1362.34 843.671C1360.66 836.182 1346.81 825.521 1345.06 823.475C1344.53 822.858 1347.83 820.312 1350.56 820.741C1354.66 821.385 1358.07 827.423 1359.41 828.266C1359.72 828.463 1359.92 828.662 1360.01 828.064C1360.18 826.885 1358.47 822.617 1358.74 818.262C1358.92 815.336 1363.59 813.315 1364.38 813.731C1365.17 814.146 1365.16 832.122 1369.36 842.955C1378.22 865.802 1389.73 882.299 1395.64 908.593C1399.57 926.03 1394.16 953.797 1389.72 953.676Z" fill="white"/>
    <path fill-rule="evenodd" clip-rule="evenodd" d="M1123.01 808.743C1114.84 813.967 1091.14 807.618 1084.87 801.384C1062.43 779.07 1075.93 762.723 1064.14 750.357C1060.27 746.292 1046.16 746.273 1044.13 745.815C1043.52 745.677 1045.12 742.34 1047.31 741.246C1050.61 739.605 1060.07 744.977 1061.36 744.857C1061.66 744.83 1061.88 744.859 1061.74 744.424C1061.46 743.564 1053.9 738.492 1052.59 735.497C1051.71 733.483 1054.51 729.804 1055.25 729.677C1055.99 729.553 1062.24 741.354 1069.17 746.345C1083.77 756.873 1098.16 761.902 1111.76 776.174C1120.77 785.638 1126.38 806.586 1123.01 808.743Z" fill="white"/>
    <path fill-rule="evenodd" clip-rule="evenodd" d="M1314.84 923.674C1307.49 923.915 1290.76 904.414 1287.31 894.978C1274.94 861.201 1288.72 853.556 1282.36 835.21C1280.27 829.179 1269.51 821.105 1268.06 819.515C1267.63 819.036 1269.55 816.813 1271.46 817.041C1274.33 817.384 1275.91 818.874 1276.92 819.502C1277.16 819.649 1277.32 819.802 1277.3 819.312C1277.27 818.343 1277.08 818.217 1276.71 814.655C1276.47 812.261 1279.39 810.405 1279.98 810.709C1280.57 811.013 1282.83 825.668 1287.05 834.313C1295.95 852.544 1305.85 865.481 1313.19 886.654C1318.05 900.696 1317.87 923.575 1314.84 923.674Z" fill="white"/>
    <path fill-rule="evenodd" clip-rule="evenodd" d="M1292.36 708.441C1283.58 714.676 1252.55 706.677 1243.16 699.037C1209.55 671.686 1222.06 652.024 1204.25 636.874C1198.39 631.893 1180.89 631.695 1178.25 631.114C1177.46 630.94 1178.57 626.912 1181.02 625.612C1184.68 623.661 1191.05 626.437 1192.62 626.309C1192.99 626.279 1193.27 626.318 1192.98 625.787C1192.41 624.741 1188.47 622.352 1186.07 618.703C1184.46 616.25 1186.98 611.82 1187.86 611.677C1188.75 611.534 1199.55 625.93 1209.44 632.071C1230.28 645.026 1249.41 651.305 1269.97 668.79C1283.61 680.383 1295.99 705.866 1292.36 708.441Z" fill="white"/>
    <path fill-rule="evenodd" clip-rule="evenodd" d="M1319.3 813.098C1311.54 816.07 1292.57 806.933 1288.3 800.756C1273.04 778.643 1287.13 767.361 1279.23 755.214C1276.63 751.22 1264.72 748.888 1263.08 748.176C1262.59 747.962 1264.48 745.469 1266.52 744.927C1269.58 744.113 1276.67 750.102 1277.79 750.216C1278.05 750.243 1278.23 750.302 1278.18 749.92C1278.08 749.164 1272.54 743.734 1271.93 741.046C1271.51 739.238 1274.49 736.66 1275.13 736.676C1275.78 736.695 1279.11 747.467 1284.13 752.727C1294.73 763.82 1306.04 770.334 1315.17 784.353C1321.22 793.651 1322.5 811.87 1319.3 813.098Z" fill="white"/>
    <path fill-rule="evenodd" clip-rule="evenodd" d="M1225.73 714.936C1219.96 719.568 1194.74 714.087 1186.28 708.631C1155.97 689.1 1162.47 674.658 1146.3 663.83C1140.99 660.271 1127.46 660.317 1125.33 659.924C1124.69 659.806 1124.91 656.864 1126.58 655.89C1129.1 654.432 1131.26 654.671 1132.46 654.561C1132.74 654.534 1132.96 654.56 1132.65 654.177C1132.04 653.422 1131.81 653.437 1129.37 650.808C1127.74 649.041 1128.97 645.792 1129.63 645.677C1130.29 645.563 1140.93 655.919 1149.53 660.279C1167.68 669.476 1183.45 673.836 1202.1 686.332C1214.48 694.618 1228.11 713.022 1225.73 714.936Z" fill="white"/>
  </g>
  <g opacity="0.1">
    <mask id="mask2" mask-type="alpha" maskUnits="userSpaceOnUse" x="376" y="540" width="2053" height="126">
      <path fill-rule="evenodd" clip-rule="evenodd" d="M376 540.58H2429V666H376V540.58Z" fill="white"/>
    </mask>
    <g mask="url(#mask2)">
      <path fill-rule="evenodd" clip-rule="evenodd" d="M1898.89 584.541C1751.55 534.916 1638.89 528.671 1501.77 558.925C1412.95 578.52 1331.25 565.899 1261.59 568.399C1130.16 573.122 974.306 628.299 842.052 614.025C692.295 597.871 530.213 621.823 400.429 651.779C391.6 653.813 380.788 657.232 376 666H2429C2429 661.009 2420.34 655.966 2413.28 652.412C2254.46 572.414 2205.99 687.981 1898.89 584.541Z" fill="#40D3FD"/>
    </g>
  </g>
  <g opacity="0.2">
    <path fill-rule="evenodd" clip-rule="evenodd" d="M1.87563 187.18C2.10295 184.063 -0.554825 182.253 -3.44521 183.186C-7.42195 184.522 -13.401 186.776 -20.5126 190.186C-27.681 193.596 -35.9808 198.084 -45.8044 204.068C-54.4649 209.276 -65.8811 216.939 -79.7541 222.586C-86.6543 225.43 -94.1267 227.798 -101.701 229.409C-109.268 231.029 -116.925 231.887 -124.056 231.985C-130.765 232.133 -139.923 230.559 -147.147 228.303C-150.753 227.173 -153.922 226.025 -156.141 225.063C-158.39 224.168 -159.708 223.508 -159.708 223.508C-161.893 222.45 -163.779 221.773 -163.899 222.001C-164.016 222.229 -164.113 222.416 -164.113 222.416C-164.113 222.416 -164.209 222.603 -164.327 222.832C-164.447 223.059 -162.727 224.124 -160.505 225.196C-160.505 225.196 -159.169 225.863 -156.913 226.836C-154.686 227.875 -151.523 229.169 -147.942 230.585C-140.767 233.409 -131.717 236.116 -125.025 238.232C-117.924 240.535 -109.916 242.571 -101.392 243.833C-92.8751 245.105 -83.8445 245.595 -74.9196 245.059C-65.9947 244.537 -57.2258 242.981 -49.341 240.637C-41.447 238.304 -34.4438 235.191 -28.8639 231.859C-22.536 228.04 -17.4306 223.665 -13.3349 219.34C-11.322 217.13 -9.49954 214.998 -7.99158 212.81C-6.42941 210.683 -5.13953 208.552 -4.03993 206.508C0.361053 198.307 1.60602 191.505 1.87563 187.18Z" fill="#40D3FD"/>
    <path fill-rule="evenodd" clip-rule="evenodd" d="M-3.61788 402.02C-1.42676 403.675 1.7234 403.048 2.86447 400.541C4.42371 397.087 6.50535 391.381 6.71246 383.624C6.97233 379.7 6.43016 375.399 5.5582 370.551C5.06351 368.154 4.29443 365.697 3.43566 363.115C2.98582 361.831 2.54391 360.502 1.97008 359.193C1.38569 357.889 0.755127 356.565 0.0810394 355.224C-4.62177 345.734 -13.7213 334.509 -24.7733 324.811C-35.7817 315.019 -48.5986 306.826 -59.6347 300.838C-62.2519 299.444 -65.1185 297.538 -68.1974 295.782C-69.7118 294.87 -71.2262 293.93 -72.6983 292.992C-74.1705 292.056 -75.6915 291.252 -77.0766 290.413C-79.8667 288.763 -82.3005 287.238 -84.1447 286.295C-85.9506 285.285 -87.0482 284.674 -87.0482 284.674C-88.8501 283.642 -90.4252 282.982 -90.5466 283.207C-90.6693 283.43 -90.7695 283.614 -90.7695 283.614C-90.7695 283.614 -90.8698 283.8 -90.9925 284.024C-91.1138 284.248 -89.7551 285.266 -87.9729 286.283C-87.9729 286.283 -86.8991 286.912 -85.1354 287.945C-83.3466 288.936 -81.0091 290.56 -78.4103 292.415C-77.1202 293.358 -75.7179 294.29 -74.3935 295.387C-73.0704 296.485 -71.7354 297.617 -70.4386 298.755C-67.795 300.97 -65.5155 303.476 -63.6951 305.66C-55.9978 315.053 -48.6896 327.106 -43.0067 338.783C-37.2314 350.46 -33.0418 361.697 -29.1146 369.602C-28.5487 370.724 -27.9669 371.804 -27.3707 372.847C-26.8008 373.9 -26.2454 374.927 -25.7019 375.929C-24.5952 377.924 -23.3591 379.744 -22.218 381.49C-20.0573 385.021 -17.4968 387.976 -15.3769 390.666C-10.8231 395.938 -6.67965 399.72 -3.61788 402.02Z" fill="#40D3FD"/>
    <path fill-rule="evenodd" clip-rule="evenodd" d="M22.0549 401.772C24.0607 403.646 27.1966 403.222 28.5346 400.811C30.3805 397.475 32.8474 392.043 34.0685 384.537C35.3286 377.04 35.3923 367.421 32.4253 356.182C29.8492 346.286 23.949 333.748 16.5665 321.468C9.21515 309.148 0.415394 297.127 -7.14247 287.199C-8.92996 284.868 -10.7889 281.979 -12.7427 279.045C-14.6536 276.088 -16.5216 273.016 -18.2636 270.285C-21.6541 264.776 -24.2899 260.495 -24.2899 260.495C-25.3564 258.716 -26.4061 257.371 -26.6204 257.505C-26.8373 257.64 -27.0127 257.751 -27.0127 257.751C-27.0127 257.751 -27.1894 257.861 -27.405 257.996C-27.6207 258.131 -26.927 259.689 -25.8644 261.457C-25.8644 261.457 -25.2304 262.536 -24.1925 264.307C-23.1377 266.072 -21.7996 268.6 -20.3395 271.466C-18.8456 274.315 -17.3504 277.566 -16.0033 280.784C-14.6133 283.98 -13.5091 287.212 -12.731 289.996C-9.46257 301.873 -6.81251 316.04 -4.71845 329.407C-2.58151 342.785 -0.979786 355.363 1.38318 364.431C4.10079 374.723 7.82127 382.667 11.6132 388.794C15.4376 394.902 19.2633 399.174 22.0549 401.772Z" fill="#40D3FD"/>
    <path fill-rule="evenodd" clip-rule="evenodd" d="M136.215 467.75C139.01 466.669 139.525 463.498 137.731 461.285C136.482 459.758 134.872 457.949 133.014 455.78C132.544 455.267 132.055 454.735 131.549 454.18C131.051 453.615 130.536 453.028 130.003 452.421C128.939 451.267 127.806 450.037 126.6 448.729C126.001 448.081 125.381 447.439 124.737 446.8C124.109 446.119 123.468 445.416 122.796 444.733C121.43 443.415 120.063 441.885 118.538 440.465C115.562 437.46 112.212 434.327 108.376 430.863C101.689 424.751 91.9526 416.715 82.8551 406.032C73.6469 395.398 65.0148 382.399 58.7183 370.613C55.7288 365.09 52.7763 357.023 50.6621 350.329C48.5413 343.635 47.1613 338.343 47.1613 338.343C46.5892 336.164 45.9157 334.433 45.6665 334.498C45.4174 334.564 45.2131 334.616 45.2131 334.616C45.2131 334.616 45.0101 334.67 44.7597 334.736C44.5119 334.802 44.7781 336.639 45.3528 338.821C45.3528 338.821 50.8414 359.947 52.6933 372.569C54.5307 386.005 57.2051 402.158 62.836 417.418C65.6264 425.052 69.205 432.429 73.2766 438.839C77.3389 445.267 81.9193 450.767 86.4206 454.914C91.5835 459.592 97.0233 463.021 102.201 465.447C104.849 466.593 107.333 467.613 109.831 468.269C111.065 468.616 112.252 468.934 113.419 469.195C114.609 469.418 115.761 469.602 116.872 469.758C119.072 470.107 121.193 470.171 123.128 470.162C124.098 470.154 125.016 470.143 125.904 470.08C126.803 469.991 127.658 469.887 128.469 469.768C131.693 469.356 134.283 468.506 136.215 467.75Z" fill="#40D3FD"/>
    <path fill-rule="evenodd" clip-rule="evenodd" d="M159.873 524.678C161.676 522.374 160.654 519.297 157.967 518.245C154.224 516.761 148.552 515.147 141.262 513.773C140.355 513.622 139.423 513.486 138.469 513.369C137.507 513.216 136.518 513.057 135.501 512.895C133.474 512.603 131.353 512.388 129.132 512.277C126.904 512.117 124.555 511.873 122.108 511.849C120.884 511.845 119.63 511.841 118.344 511.836C117.056 511.788 115.738 511.772 114.387 511.788C104.908 511.979 92.073 513.287 78.0655 512.94C64.1041 512.698 49.0451 510.719 36.4985 506.988C33.5701 506.087 30.1087 504.895 26.8118 503.159C25.1403 502.337 23.4557 501.476 21.8092 500.613C20.1641 499.747 18.6663 498.709 17.1962 497.805C14.2784 495.958 11.6922 494.285 9.99045 492.869C8.24922 491.508 7.18843 490.678 7.18843 490.678C5.45378 489.294 3.89681 488.322 3.72966 488.522C3.56383 488.72 3.42827 488.883 3.42827 488.883C3.42827 488.883 3.29271 489.045 3.12556 489.245C2.95973 489.442 4.26269 490.752 6.02234 492.154C6.02234 492.154 7.07919 493.013 8.81647 494.425C10.4998 495.911 13.032 497.718 15.8367 499.828C17.2515 500.863 18.6782 502.064 20.2351 503.132C21.7934 504.201 23.3741 505.307 24.9258 506.426C27.9805 508.753 31.13 510.74 33.6596 512.708C44.4439 520.941 58.3935 529.706 73.1933 535.69C87.9154 541.775 103.323 544.95 114.867 544.705C116.506 544.684 118.103 544.628 119.658 544.541C121.213 544.439 122.723 544.182 124.192 543.968C127.124 543.488 129.889 543.004 132.457 542.269C135.021 541.482 137.406 540.632 139.607 539.744C140.706 539.29 141.767 538.863 142.773 538.363C143.776 537.838 144.734 537.308 145.647 536.778C153.009 532.685 157.38 527.836 159.873 524.678Z" fill="#40D3FD"/>
    <path fill-rule="evenodd" clip-rule="evenodd" d="M7.07338 445.407C9.87556 443.857 9.91364 440.677 7.32671 438.825C3.73441 436.234 -2.01039 432.876 -9.82631 429.241C-11.7937 428.4 -13.8819 427.506 -16.0948 426.558C-18.3169 425.632 -20.678 424.745 -23.1915 423.921C-25.697 423.051 -28.3246 422.071 -31.1334 421.257C-32.5404 420.857 -33.9828 420.45 -35.462 420.029C-36.9307 419.572 -38.4453 419.132 -40.0059 418.716C-50.9849 415.845 -66.0576 412.984 -81.8548 408.318C-97.6415 403.754 -114.087 397.346 -127.397 390.104C-130.501 388.382 -134.141 386.221 -137.548 383.578C-139.282 382.293 -141.023 380.966 -142.722 379.65C-144.418 378.331 -145.944 376.883 -147.451 375.575C-150.434 372.927 -153.071 370.545 -154.792 368.663C-156.556 366.822 -157.63 365.702 -157.63 365.702C-159.387 363.838 -160.98 362.452 -161.172 362.621C-161.363 362.791 -161.521 362.93 -161.521 362.93C-161.521 362.93 -161.677 363.068 -161.87 363.237C-162.061 363.407 -160.769 365.083 -158.995 366.962C-158.995 366.962 -157.931 368.108 -156.183 369.993C-154.495 371.937 -151.936 374.435 -149.112 377.311C-147.687 378.733 -146.262 380.324 -144.689 381.82C-143.117 383.316 -141.525 384.856 -139.968 386.4C-136.914 389.562 -133.739 392.422 -131.239 395.082C-120.552 406.282 -106.763 418.808 -91.8009 428.885C-76.9238 439.034 -60.9848 446.614 -48.3809 449.899C-46.5946 450.377 -44.8437 450.811 -43.1296 451.203C-41.4115 451.581 -39.7027 451.807 -38.0489 452.059C-34.7309 452.511 -31.5901 452.909 -28.5845 453.022C-25.5697 453.088 -22.7269 453.041 -20.0612 452.903C-18.7264 452.826 -17.4414 452.76 -16.1919 452.613C-14.9385 452.442 -13.7284 452.254 -12.5642 452.051C-3.25464 450.578 3.20284 447.524 7.07338 445.407Z" fill="#40D3FD"/>
    <path fill-rule="evenodd" clip-rule="evenodd" d="M202.154 499.559C204.335 497.589 203.89 494.388 201.37 492.913C197.869 490.852 192.368 488.281 185.014 485.981C181.343 484.966 177.192 483.727 172.566 483.033C170.252 482.631 167.813 482.197 165.243 481.933C163.957 481.782 162.639 481.704 161.287 481.572C159.935 481.432 158.55 481.317 157.128 481.235C147.127 480.699 133.598 481.352 119.055 481.019C104.541 480.756 89.0294 479.468 75.9229 476.892C72.8557 476.269 69.2466 475.368 65.6849 474.06C63.8922 473.435 62.0838 472.775 60.3161 472.11C58.5484 471.443 56.8753 470.652 55.2655 469.952C52.0589 468.527 49.2206 467.224 47.2569 466.133C45.2788 465.074 44.074 464.429 44.074 464.429C42.0972 463.348 40.3742 462.647 40.2466 462.871C40.1203 463.097 40.0164 463.281 40.0164 463.281C40.0164 463.281 39.9125 463.466 39.7849 463.691C39.656 463.917 41.1831 464.992 43.177 466.08C43.177 466.08 44.3791 466.751 46.3533 467.856C48.2973 469.015 51.0935 470.453 54.2093 472.145C55.7732 472.977 57.3883 473.932 59.085 474.809C60.7817 475.683 62.5033 476.592 64.1961 477.518C67.5578 479.429 70.9078 481.137 73.6409 482.84C85.2809 489.995 99.6461 497.895 114.366 503.725C129.034 509.619 143.966 513.384 155.296 513.985C156.904 514.078 158.473 514.135 160.004 514.161C161.537 514.176 163.035 514.078 164.489 513.997C167.4 513.798 170.152 513.553 172.74 513.104C177.917 512.096 182.44 510.952 186.3 509.29C194.043 506.227 199.138 502.269 202.154 499.559Z" fill="#40D3FD"/>
    <path fill-rule="evenodd" clip-rule="evenodd" d="M93.494 344.243C95.3629 346.055 98.548 345.902 100.083 343.782C102.191 340.855 105.132 335.991 106.794 329.036C107.74 325.545 108.115 321.584 108.222 317.101C108.232 314.867 108.029 312.534 107.744 310.076C107.486 307.611 106.966 305.066 106.26 302.43C103.88 293.119 97.956 281.433 90.2251 270.48C82.5375 259.467 73.1224 249.259 64.9266 241.188C62.9805 239.294 60.9453 236.888 58.749 234.51C57.6725 233.302 56.609 232.067 55.5822 230.845C54.5542 229.625 53.4711 228.486 52.5059 227.363C50.5532 225.135 48.8742 223.115 47.5737 221.74C46.3152 220.329 45.5503 219.471 45.5503 219.471C44.3022 218.041 43.1275 217.01 42.9376 217.181C42.749 217.353 42.5944 217.493 42.5944 217.493C42.5944 217.493 42.4386 217.634 42.2487 217.805C42.0601 217.977 42.9166 219.276 44.1529 220.692C44.1529 220.692 44.8929 221.558 46.1069 222.983C47.3459 224.386 48.9043 226.475 50.62 228.849C51.466 230.043 52.3998 231.273 53.2432 232.606C54.0827 233.94 54.9235 235.308 55.7289 236.673C57.3856 239.371 58.6953 242.193 59.6657 244.629C63.744 255.059 66.9893 267.691 69.2301 279.557C71.5364 291.443 72.8814 302.542 74.9245 310.513C75.5322 312.774 76.2132 314.9 76.8497 316.928C77.511 318.949 78.3099 320.836 79.0695 322.628C80.4984 326.227 82.3581 329.355 83.9689 332.144C87.4212 337.681 90.8891 341.722 93.494 344.243Z" fill="#40D3FD"/>
    <path fill-rule="evenodd" clip-rule="evenodd" d="M325.766 492.372C327.798 490.389 327.213 487.234 324.8 485.798C321.436 483.782 316.287 481.359 309.633 478.868C308.804 478.578 307.948 478.3 307.071 478.037C306.19 477.734 305.287 477.421 304.358 477.101C302.501 476.492 300.548 475.944 298.489 475.484C296.432 474.971 294.275 474.345 291.992 473.926C290.854 473.687 289.679 473.547 288.482 473.302C287.287 473.041 286.057 472.807 284.794 472.601C275.92 471.224 263.693 470.336 250.607 467.527C237.555 464.831 223.751 460.135 212.708 454.114C210.142 452.679 207.126 450.864 204.406 448.542C203.011 447.422 201.613 446.261 200.251 445.107C198.891 443.95 197.722 442.649 196.54 441.487C194.211 439.127 192.154 437.003 190.888 435.298C189.567 433.636 188.764 432.624 188.764 432.624C187.455 430.943 186.215 429.691 186.005 429.842C185.798 429.992 185.628 430.116 185.628 430.116C185.628 430.116 185.459 430.241 185.252 430.391C185.043 430.541 185.961 432.061 187.291 433.764C187.291 433.764 188.085 434.805 189.392 436.516C190.625 438.289 192.603 440.532 194.766 443.122C195.866 444.401 196.933 445.843 198.165 447.179C199.398 448.514 200.644 449.891 201.86 451.275C204.221 454.12 206.77 456.639 208.733 459.027C217.136 469.045 228.58 480.165 241.527 488.668C254.371 497.26 268.572 503.054 279.679 504.762C281.253 505.017 282.794 505.234 284.299 505.411C285.807 505.574 287.299 505.568 288.741 505.604C291.634 505.617 294.364 505.604 296.944 505.302C299.53 504.945 301.951 504.496 304.2 503.98C305.324 503.712 306.407 503.468 307.446 503.136C308.488 502.777 309.486 502.408 310.443 502.032C318.115 499.185 322.965 495.081 325.766 492.372Z" fill="#40D3FD"/>
    <path fill-rule="evenodd" clip-rule="evenodd" d="M204.89 407.259C207.215 408.556 210.253 407.567 211.12 405.045C212.304 401.566 213.76 395.892 213.216 388.479C213.08 384.716 212.155 380.676 210.841 376.163C210.132 373.935 209.16 371.68 208.083 369.319C207.526 368.149 206.97 366.934 206.294 365.751C205.608 364.574 204.876 363.384 204.098 362.181C198.663 353.675 188.843 344.006 177.36 335.958C165.905 327.817 152.926 321.35 141.884 316.742C139.27 315.674 136.375 314.14 133.3 312.751C131.784 312.026 130.265 311.27 128.788 310.513C127.309 309.759 125.8 309.128 124.416 308.452C121.63 307.132 119.193 305.897 117.37 305.153C115.576 304.348 114.485 303.858 114.485 303.858C112.691 303.03 111.143 302.543 111.043 302.777C110.939 303.01 110.857 303.202 110.857 303.202C110.857 303.202 110.774 303.393 110.672 303.628C110.571 303.862 111.938 304.722 113.711 305.539C113.711 305.539 114.779 306.047 116.534 306.88C118.311 307.674 120.66 309.019 123.277 310.56C124.577 311.347 125.981 312.117 127.329 313.046C128.675 313.975 130.035 314.939 131.358 315.911C134.046 317.793 136.418 319.979 138.322 321.909C146.391 330.213 154.331 341.065 160.748 351.654C167.252 362.237 172.273 372.497 176.799 379.57C177.45 380.574 178.113 381.534 178.786 382.457C179.448 383.385 180.045 384.32 180.696 385.194C181.961 386.958 183.331 388.545 184.613 390.065C187.067 393.156 189.842 395.658 192.194 397.946C197.174 402.392 201.645 405.459 204.89 407.259Z" fill="#40D3FD"/>
    <path fill-rule="evenodd" clip-rule="evenodd" d="M109.693 500.927C112.417 499.477 112.619 496.32 110.231 494.397C106.919 491.715 101.558 488.131 94.1054 484.439C90.3599 482.72 86.1302 480.699 81.2748 479.092C78.8557 478.239 76.306 477.33 73.5834 476.557C72.2174 476.185 70.8185 475.803 69.3839 475.412C67.952 475.004 66.4792 474.616 64.9588 474.251C54.2689 471.72 39.5841 469.631 24.0534 466.43C8.53848 463.3 -7.80389 459.027 -21.3709 454.007C-24.5448 452.813 -28.252 451.242 -31.8615 449.286C-33.6827 448.336 -35.5132 447.346 -37.3028 446.359C-39.0897 445.37 -40.7658 444.279 -42.3825 443.29C-45.6027 441.288 -48.448 439.473 -50.3946 438.035C-52.3624 436.624 -53.5594 435.765 -53.5594 435.765C-55.5232 434.329 -57.2573 433.321 -57.4157 433.521C-57.574 433.723 -57.7021 433.886 -57.7021 433.886C-57.7021 433.886 -57.8314 434.051 -57.9884 434.254C-58.1468 434.454 -56.6581 435.797 -54.6812 437.24C-54.6812 437.24 -53.4908 438.124 -51.5362 439.577C-49.6173 441.08 -46.8353 443.016 -43.7497 445.261C-42.1977 446.372 -40.6061 447.614 -38.9195 448.792C-37.2355 449.969 -35.5264 451.188 -33.853 452.414C-30.5365 454.922 -27.2107 457.23 -24.5382 459.417C-13.1462 468.632 0.946003 479.071 15.6202 487.564C30.2377 496.108 45.3672 502.643 57.2357 505.448C58.9184 505.855 60.568 506.219 62.1821 506.543C63.8001 506.858 65.3983 507.062 66.9516 507.27C70.0662 507.654 73.0198 507.961 75.8414 508.041C81.5031 508.102 86.5076 507.9 90.9182 507.076C99.713 505.683 105.926 502.917 109.693 500.927Z" fill="#2399CC"/>
    <path fill-rule="evenodd" clip-rule="evenodd" d="M31.98 413.097C34.2613 414.681 37.3962 413.995 38.3933 411.371C39.7342 407.77 41.5795 401.667 40.8248 393.48C40.755 392.45 40.6602 391.384 40.535 390.282C40.3809 389.194 40.1135 388.115 39.8554 386.981C39.318 384.722 38.6396 382.335 37.7953 379.837C36.8957 377.374 35.6299 374.932 34.2811 372.342C33.5751 371.068 32.8967 369.718 32.0353 368.455C31.1607 367.203 30.236 365.936 29.2587 364.66C27.5213 362.425 25.6299 359.998 23.2076 357.815C22.0314 356.69 20.8064 355.555 19.5366 354.412C18.8991 353.846 18.2537 353.274 17.6017 352.693C16.9326 352.133 16.2015 351.626 15.4903 351.089C14.0559 350.028 12.582 348.967 11.0817 347.912C9.58539 346.849 8.07327 345.778 6.40309 344.872C4.7698 343.948 3.11543 343.01 1.44524 342.064C0.612793 341.607 -0.22361 341.146 -1.06396 340.683C-1.91882 340.248 -2.81844 339.871 -3.69568 339.468C-5.45411 338.691 -7.22308 337.911 -8.99731 337.127C-9.8864 336.753 -10.7491 336.344 -11.6567 336.008L-14.4043 335.066C-18.07 333.849 -21.6079 332.532 -25.3039 331.756C-27.1084 331.319 -28.9024 330.886 -30.6767 330.457C-31.5473 330.225 -32.4377 330.055 -33.3387 329.932C-34.2265 329.791 -35.1103 329.649 -35.9862 329.511C-37.7196 329.237 -39.428 328.966 -41.1074 328.699C-42.7538 328.377 -44.4635 328.377 -46.0665 328.204C-49.1118 327.975 -52.5813 327.313 -56.2259 327.104C-58.0331 326.936 -59.8508 326.739 -61.6263 326.529C-63.4032 326.321 -65.1735 326.363 -66.8278 326.25C-68.4835 326.161 -70.047 326.075 -71.4616 325.999C-72.871 325.856 -74.1434 326.023 -75.1998 326.003C-77.3165 326.033 -78.6047 326.053 -78.6047 326.053C-80.7319 326.062 -82.4587 326.282 -82.4442 326.536C-82.4298 326.793 -82.4192 327.003 -82.4192 327.003C-82.4192 327.003 -82.4074 327.213 -82.3942 327.469C-82.3784 327.726 -80.6608 327.928 -78.5744 327.917C-78.5744 327.917 -77.3099 327.923 -75.2327 327.933C-74.1948 327.987 -72.9487 327.872 -71.571 328.09C-70.1932 328.262 -68.6706 328.451 -67.057 328.652C-65.4527 328.899 -63.7443 329.025 -62.0452 329.44C-60.3473 329.858 -58.6245 330.304 -56.9359 330.769C-53.5296 331.57 -50.3895 333.017 -47.8078 334.276C-36.8252 339.825 -25.6951 348.721 -17.0018 358.208C-8.16881 367.665 -1.77393 377.518 3.35252 384.329C4.09277 385.298 4.84356 386.219 5.6062 387.102C6.35435 387.992 6.97079 388.93 7.6768 389.781C9.02427 391.521 10.5298 393.055 11.8615 394.572C13.1299 396.12 14.4418 397.543 15.7722 398.864C16.4518 399.519 17.113 400.158 17.7558 400.78C18.3499 401.422 18.9479 402.04 19.5485 402.635C24.5577 407.309 28.7766 410.895 31.98 413.097Z" fill="#F2A877"/>
    <path fill-rule="evenodd" clip-rule="evenodd" d="M37.647 357.931C39.9617 359.772 43.0641 359.052 43.9825 356.121C44.6212 354.093 45.3188 351.406 45.6271 348.099C45.8178 346.434 45.9328 344.608 45.8727 342.651C45.8387 340.683 45.7486 338.533 45.3946 336.29C45.2339 335.162 45.0445 333.995 44.8211 332.787C44.5807 331.589 44.2581 330.378 43.9224 329.117C43.281 326.578 42.3183 323.994 41.2053 321.269C38.871 315.893 35.5961 310.14 30.9588 304.547C26.857 299.65 21.334 294.529 14.702 289.925C8.08172 285.312 0.356331 281.229 -7.84063 278.171C-16.0324 275.098 -24.6291 273.061 -32.9449 271.983C-41.2673 270.89 -49.3035 270.746 -56.5417 271.14C-63.3501 271.453 -72.5006 271.79 -79.9112 272.769C-83.6119 273.265 -86.8868 273.752 -89.2211 274.228C-90.3902 274.443 -91.3321 274.617 -91.98 274.736C-92.624 274.882 -92.9767 274.962 -92.9767 274.962C-95.3136 275.478 -97.1725 276.101 -97.1098 276.35C-97.0484 276.599 -96.9974 276.802 -96.9974 276.802C-96.9974 276.802 -96.9478 277.007 -96.8864 277.254C-96.8237 277.502 -94.8956 277.29 -92.6031 276.783C-92.6031 276.783 -92.2543 276.705 -91.6208 276.569C-90.9859 276.441 -90.0519 276.308 -88.8972 276.126C-86.5929 275.723 -83.3506 275.38 -79.7035 275.165C-72.4 274.748 -63.4441 275.534 -57.2379 277.397C-50.6255 279.318 -43.7453 282.141 -37.2034 285.705C-30.6537 289.262 -24.4553 293.55 -18.9859 298.152C-7.96342 307.345 -0.0368576 317.841 6.13013 325.249C13.0979 333.732 19.1251 340.435 24.4939 345.868C29.8066 351.28 34.4831 355.349 37.647 357.931Z" fill="#2399CC"/>
    <path fill-rule="evenodd" clip-rule="evenodd" d="M215.696 473.425C217.58 471.701 217.357 468.542 215.449 466.878C212.788 464.548 208.667 461.568 203.305 458.569C201.951 457.885 200.531 457.164 199.033 456.407C197.529 455.677 195.939 454.998 194.254 454.397C192.573 453.756 190.814 453.046 188.935 452.504C187.998 452.211 187.024 451.996 186.038 451.707C185.054 451.407 184.037 451.13 182.99 450.88C175.629 449.175 165.336 448.074 154.256 445.553C143.202 443.12 131.429 439.196 121.964 434.219C119.764 433.035 117.21 431.499 114.895 429.563C113.711 428.625 112.528 427.651 111.377 426.678C110.228 425.705 109.229 424.624 108.229 423.649C106.253 421.674 104.517 419.889 103.432 418.47C102.307 417.082 101.623 416.238 101.623 416.238C100.511 414.832 99.4332 413.804 99.2267 413.955C99.0216 414.105 98.853 414.227 98.853 414.227C98.853 414.227 98.6844 414.35 98.478 414.501C98.2728 414.652 99.0281 415.94 100.157 417.367C100.157 417.367 100.833 418.239 101.94 419.673C102.99 421.154 104.645 423.053 106.449 425.25C107.365 426.336 108.258 427.553 109.274 428.699C110.292 429.844 111.318 431.026 112.317 432.218C114.257 434.658 116.323 436.872 117.89 438.97C124.598 447.796 133.686 457.865 144.155 465.918C154.53 474.029 166.18 479.973 175.508 482.121C176.829 482.437 178.125 482.711 179.395 482.947C180.665 483.172 181.934 483.264 183.16 483.376C185.619 483.557 187.947 483.681 190.166 483.557C192.392 483.394 194.486 483.128 196.439 482.785C197.417 482.606 198.355 482.438 199.267 482.199C200.179 481.94 201.057 481.668 201.899 481.383C208.646 479.231 213.099 475.787 215.696 473.425Z" fill="#2399CC"/>
    <path fill-rule="evenodd" clip-rule="evenodd" d="M183.526 544.461C186.383 545.419 189.013 543.607 188.885 540.58C188.693 536.41 187.944 529.757 184.569 521.704C183.004 517.581 180.531 513.344 177.507 508.675C175.952 506.384 174.112 504.12 172.131 501.76C171.127 500.595 170.108 499.381 168.973 498.225C167.83 497.081 166.636 495.929 165.388 494.772C156.641 486.578 142.88 477.924 127.674 471.166C112.479 464.315 95.9652 459.388 82.0061 456.094C78.7101 455.34 74.9458 454.134 71.0109 453.114C69.0572 452.567 67.0931 451.989 65.1722 451.405C63.2526 450.822 61.3291 450.376 59.5381 449.864C55.9457 448.875 52.7784 447.928 50.4534 447.409C48.1481 446.822 46.7468 446.464 46.7468 446.464C44.4375 445.854 42.4996 445.557 42.4405 445.807C42.3815 446.056 42.333 446.259 42.333 446.259C42.333 446.259 42.2831 446.464 42.224 446.713C42.165 446.962 43.9901 447.661 46.2797 448.266C46.2797 448.266 47.6652 448.643 49.9403 449.267C52.2286 449.846 55.3343 450.919 58.8086 452.159C60.5406 452.795 62.3906 453.4 64.217 454.18C66.0447 454.963 67.8974 455.778 69.7133 456.606C73.3726 458.193 76.763 460.147 79.5472 461.898C91.3756 469.447 104.024 479.796 115.049 490.299C126.151 500.77 135.641 511.341 143.314 518.521C144.411 519.537 145.504 520.503 146.591 521.426C147.658 522.367 148.7 523.285 149.717 524.179C151.766 525.952 153.854 527.5 155.81 528.992C159.632 532.058 163.532 534.372 166.875 536.516C173.8 540.601 179.547 543.137 183.526 544.461Z" fill="#8163A6"/>
    <path fill-rule="evenodd" clip-rule="evenodd" d="M78.2849 376.522C79.9198 378.935 83.0852 379.231 84.8544 376.88C87.2669 373.642 90.8916 368.1 92.9348 359.712C93.2114 358.666 93.4789 357.575 93.7281 356.44C93.9512 355.309 94.0778 354.143 94.2252 352.929C94.5018 350.503 94.6936 347.906 94.7758 345.142C94.8019 342.388 94.5097 339.51 94.1822 336.46C93.9878 334.943 93.8338 333.368 93.5024 331.794C93.154 330.227 92.7652 328.624 92.332 326.99C89.3793 315.453 81.9226 301.062 71.6711 288.398C61.5031 275.617 48.7412 264.705 37.4002 256.926C34.702 255.116 31.7898 252.705 28.5487 250.546C26.966 249.423 25.386 248.269 23.8503 247.124C22.3133 245.981 20.6784 245.031 19.2158 244.024C16.254 242.052 13.6757 240.236 11.6742 239.16C9.73014 237.995 8.54542 237.285 8.54542 237.285C6.60394 236.096 4.91296 235.309 4.79032 235.534C4.66636 235.76 4.56459 235.944 4.56459 235.944C4.56459 235.944 4.46413 236.127 4.34017 236.353C4.21753 236.578 5.68408 237.721 7.59947 238.891C7.59947 238.891 8.75549 239.611 10.6526 240.796C12.5915 241.913 15.0614 243.821 17.8131 245.984C19.1727 247.085 20.6771 248.154 22.051 249.446C23.4249 250.738 24.8093 252.07 26.1532 253.401C28.9193 255.976 31.187 258.933 33.0162 261.451C40.7143 272.305 47.383 286.26 51.8205 299.72C56.3819 313.2 58.7735 326.06 61.1626 335.344C61.5135 336.666 61.8893 337.945 62.286 339.189C62.6656 340.436 62.9292 341.672 63.2932 342.859C63.956 345.242 64.8185 347.474 65.5439 349.611C66.2133 351.754 66.957 353.777 67.7529 355.691C68.1639 356.645 68.5658 357.576 68.9559 358.48C69.3004 359.387 69.6592 360.267 70.0245 361.122C73.1455 367.943 75.986 373.161 78.2849 376.522Z" fill="#2399CC"/>
    <path fill-rule="evenodd" clip-rule="evenodd" d="M253.564 431.689C255.641 429.759 255.186 426.565 252.826 425.047C249.54 422.921 244.448 420.296 237.779 417.695C236.107 417.115 234.34 416.498 232.473 415.849C230.601 415.222 228.629 414.654 226.545 414.173C224.462 413.647 222.276 413.036 219.964 412.615C218.806 412.414 217.619 412.209 216.403 411.998C215.188 411.75 213.942 411.529 212.661 411.337C203.649 410.042 191.285 409.424 178.018 407.205C164.781 405.086 150.707 401.299 139.206 396.244C136.526 395.036 133.382 393.474 130.447 391.438C128.951 390.457 127.451 389.435 125.988 388.418C124.526 387.399 123.218 386.242 121.922 385.209C119.358 383.112 117.093 381.217 115.626 379.683C114.121 378.19 113.202 377.28 113.202 377.28C111.706 375.767 110.328 374.671 110.141 374.848C109.956 375.026 109.804 375.172 109.804 375.172C109.804 375.172 109.651 375.317 109.465 375.495C109.278 375.671 110.366 377.071 111.884 378.602C111.884 378.602 112.794 379.54 114.289 381.081C115.728 382.683 117.924 384.702 120.341 387.04C121.564 388.196 122.782 389.503 124.132 390.711C125.481 391.919 126.847 393.167 128.182 394.424C130.803 397.011 133.533 399.312 135.68 401.516C144.848 410.77 156.848 421.039 169.977 428.89C183.021 436.82 197.063 442.198 207.977 443.752C209.524 443.983 211.039 444.177 212.517 444.333C213.998 444.475 215.459 444.471 216.873 444.496C219.711 444.497 222.39 444.461 224.924 444.163C227.46 443.82 229.837 443.385 232.051 442.882C233.158 442.623 234.224 442.379 235.251 442.061C236.277 441.72 237.263 441.369 238.209 441.007C245.792 438.262 250.699 434.332 253.564 431.689Z" fill="#2399CC"/>
    <path fill-rule="evenodd" clip-rule="evenodd" d="M302.867 495.407C304.659 497.53 307.861 497.675 309.498 495.387C311.719 492.243 315.077 486.796 316.456 478.658C316.655 477.64 316.839 476.58 317.002 475.478C317.133 474.383 317.152 473.266 317.195 472.098C317.257 469.77 317.216 467.278 317.046 464.635C316.811 462.013 316.218 459.316 315.582 456.454C315.228 455.037 314.921 453.551 314.414 452.104C313.892 450.665 313.324 449.197 312.708 447.706C311.608 445.092 310.404 442.25 308.628 439.511C307.782 438.118 306.891 436.7 305.96 435.265C305.489 434.553 305.014 433.831 304.533 433.102C304.032 432.387 303.457 431.706 302.907 431.003C301.795 429.607 300.647 428.201 299.469 426.789C298.297 425.376 297.113 423.948 295.734 422.646C294.395 421.328 293.04 419.997 291.669 418.651C290.984 417.994 290.295 417.332 289.603 416.669C288.891 416.028 288.119 415.433 287.377 414.817C285.879 413.616 284.372 412.405 282.86 411.193C282.099 410.602 281.37 409.984 280.582 409.427L278.175 407.813C274.949 405.696 271.873 403.517 268.507 401.821C266.877 400.939 265.257 400.063 263.657 399.194C262.876 398.748 262.06 398.357 261.224 398.008C260.404 397.644 259.588 397.284 258.778 396.926C257.176 396.217 255.598 395.521 254.047 394.836C252.54 394.106 250.892 393.674 249.392 393.096C246.513 392.102 243.336 390.577 239.876 389.452C238.177 388.831 236.474 388.179 234.816 387.524C233.155 386.872 231.438 386.465 229.87 385.937C228.297 385.429 226.811 384.952 225.467 384.52C224.146 384.023 222.877 383.866 221.862 383.578C219.814 383.073 218.568 382.767 218.568 382.767C216.515 382.238 214.794 382.013 214.744 382.267C214.692 382.519 214.65 382.728 214.65 382.728C214.65 382.728 214.608 382.934 214.557 383.187C214.507 383.442 216.112 384.071 218.126 384.588C218.126 384.588 219.342 384.914 221.344 385.449C222.33 385.762 223.559 385.964 224.834 386.526C226.118 387.041 227.537 387.612 229.042 388.216C230.525 388.862 232.141 389.416 233.673 390.251C235.204 391.089 236.752 391.957 238.261 392.837C241.341 394.478 244 396.681 246.168 398.559C247.293 399.607 248.525 400.517 249.586 401.73C250.667 402.888 251.766 404.066 252.879 405.261C253.426 405.853 253.977 406.45 254.532 407.052C255.095 407.632 255.63 408.254 256.124 408.932C257.133 410.235 258.15 411.552 259.175 412.879C261.286 415.415 263.015 418.36 264.838 421.113L266.187 423.182C266.621 423.881 266.992 424.636 267.394 425.353C268.183 426.787 268.97 428.215 269.749 429.636C275.839 441.066 279.475 452.257 282.667 460.172C283.132 461.298 283.619 462.386 284.126 463.435C284.62 464.489 284.972 465.556 285.434 466.563C286.287 468.594 287.342 470.465 288.236 472.278C289.062 474.104 289.96 475.819 290.903 477.441C291.389 478.251 291.863 479.038 292.323 479.805C292.731 480.58 293.147 481.335 293.575 482.064C297.202 487.881 300.346 492.445 302.867 495.407Z" fill="#F2A877"/>
    <path fill-rule="evenodd" clip-rule="evenodd" d="M424.063 556.77C426.737 555.001 426.605 551.804 423.9 550.144C420.143 547.841 414.124 544.762 405.863 541.896C397.588 539.028 387.103 536.485 373.986 534.953C368.206 534.283 361.413 533.849 353.973 533.446C346.54 532.999 338.461 532.56 330.144 531.918C321.856 531.299 313.212 530.406 305.023 529.293C296.868 528.085 288.942 526.47 281.933 524.013C278.624 522.889 274.871 521.117 271.243 518.898C267.675 516.615 264.156 513.973 261.435 511.129C260.009 509.772 258.885 508.286 257.767 507.027C256.795 505.658 255.904 504.441 255.206 503.396C253.963 501.205 253.207 499.873 253.207 499.873C252.17 497.572 251.162 495.741 250.916 495.833C250.677 495.923 250.482 496 250.482 496C250.482 496 250.286 496.075 250.048 496.167C249.814 496.251 250.46 498.309 251.548 500.712C251.548 500.712 252.313 502.111 253.571 504.411C254.287 505.507 255.143 506.819 256.1 508.285C257.197 509.643 258.293 511.26 259.674 512.773C262.313 515.933 265.689 519.006 269.067 521.925C272.498 524.775 276.002 527.377 278.978 529.588C285.278 534.366 292.69 538.835 300.548 542.995C308.444 547.061 316.528 550.881 324.76 554.245C332.958 557.613 341.17 560.512 348.918 562.748C356.673 564.941 363.956 566.496 370.261 567.228C384.606 568.901 396.373 567.408 405.286 565.013C414.225 562.614 420.365 559.218 424.063 556.77Z" fill="#7EE6AC"/>
  </g>
</svg>
